<svg width="20" height="15" viewBox="0 0 20 15" fill="none" xmlns="http://www.w3.org/2000/svg">
<path fill-rule="evenodd" clip-rule="evenodd" d="M4.08161 7.44828C4.08161 5.58621 5.51018 4.13793 7.3469 4.13793C9.08159 4.13793 10.6122 5.58621 10.6122 7.44828C10.6122 9.31034 9.18363 10.7586 7.3469 10.7586C5.51018 10.7586 4.08161 9.31034 4.08161 7.44828ZM3.16325 0H11.5306C13.2652 0 14.6938 1.44828 14.7958 3.2069V11.7931C14.7958 13.5517 13.3673 15 11.6326 15H3.16325C1.42856 15 0 13.5517 0 11.7931V3.2069C0 1.44828 1.42856 0 3.16325 0ZM2.04081 7.44828C2.04081 10.3448 4.38773 12.8276 7.3469 12.8276C10.204 12.8276 12.653 10.4483 12.653 7.44828C12.653 4.44828 10.3061 2.06897 7.3469 2.06897C4.38773 2.06897 2.04081 4.55172 2.04081 7.44828ZM19.3878 12.4137L16.0205 10.9655H15.9185V3.93097L19.3878 2.37925C19.6939 2.2758 20.0001 2.4827 20.0001 2.79304V11.9999C20.0001 12.3103 19.6939 12.5172 19.3878 12.4137Z" fill="#A4A4A4"/>
</svg>
