<?xml version="1.0" encoding="UTF-8" standalone="no"?>
<!DOCTYPE svg PUBLIC "-//W3C//DTD SVG 1.1//EN"
 "http://www.w3.org/Graphics/SVG/1.1/DTD/svg11.dtd">
<!-- Generated by graphviz version 2.40.1 (20161225.0304)
 -->
<!-- Title: dependencies Pages: 1 -->
<svg width="548pt" height="211pt"
 viewBox="0.00 0.00 548.00 211.00" xmlns="http://www.w3.org/2000/svg" xmlns:xlink="http://www.w3.org/1999/xlink">
<g id="graph0" class="graph" transform="scale(1 1) rotate(0) translate(4 207)">
<title>dependencies</title>
<polygon fill="#ffffff" stroke="transparent" points="-4,4 -4,-207 544,-207 544,4 -4,4"/>
<text text-anchor="start" x="249.0091" y="-42.4" font-family="sans-serif" font-weight="bold" font-size="14.00" fill="#000000">Legend</text>
<polygon fill="#ffffb3" stroke="transparent" points="36,-10 36,-30 56,-30 56,-10 36,-10"/>
<text text-anchor="start" x="59.629" y="-15.4" font-family="sans-serif" font-size="14.00" fill="#000000"> &#160;Declarations</text>
<polygon fill="#8dd3c7" stroke="transparent" points="149,-10 149,-30 169,-30 169,-10 149,-10"/>
<text text-anchor="start" x="172.7251" y="-15.4" font-family="sans-serif" font-size="14.00" fill="#000000"> &#160;Module</text>
<polygon fill="#80b1d3" stroke="transparent" points="235,-10 235,-30 255,-30 255,-10 235,-10"/>
<text text-anchor="start" x="258.7812" y="-15.4" font-family="sans-serif" font-size="14.00" fill="#000000"> &#160;Bootstrap</text>
<polygon fill="#fdb462" stroke="transparent" points="332,-10 332,-30 352,-30 352,-10 332,-10"/>
<text text-anchor="start" x="355.6732" y="-15.4" font-family="sans-serif" font-size="14.00" fill="#000000"> &#160;Providers</text>
<polygon fill="#fb8072" stroke="transparent" points="428,-10 428,-30 448,-30 448,-10 428,-10"/>
<text text-anchor="start" x="451.7258" y="-15.4" font-family="sans-serif" font-size="14.00" fill="#000000"> &#160;Exports</text>
<g id="clust1" class="cluster">
<title>cluster_RegisterAgencyModule</title>
<polygon fill="none" stroke="#000000" stroke-dasharray="1,5" points="8,-70 8,-195 532,-195 532,-70 8,-70"/>
</g>
<g id="clust2" class="cluster">
<title>cluster_RegisterAgencyModule_declarations</title>
<polygon fill="none" stroke="#000000" points="336,-78 336,-130 524,-130 524,-78 336,-78"/>
</g>
<g id="clust4" class="cluster">
<title>cluster_RegisterAgencyModule_imports</title>
<polygon fill="none" stroke="#000000" points="214,-78 214,-130 328,-130 328,-78 214,-78"/>
</g>
<g id="clust7" class="cluster">
<title>cluster_RegisterAgencyModule_providers</title>
<polygon fill="none" stroke="#000000" points="16,-78 16,-130 206,-130 206,-78 16,-78"/>
</g>
<!-- RegisterAgencyComponent -->
<g id="node1" class="node">
<title>RegisterAgencyComponent</title>
<polygon fill="#ffffb3" stroke="#000000" points="515.5211,-122 344.4789,-122 344.4789,-86 515.5211,-86 515.5211,-122"/>
<text text-anchor="middle" x="430" y="-99.8" font-family="Times,serif" font-size="14.00" fill="#000000">RegisterAgencyComponent</text>
</g>
<!-- RegisterAgencyModule -->
<g id="node2" class="node">
<title>RegisterAgencyModule</title>
<polygon fill="#8dd3c7" stroke="#000000" points="345.738,-187 342.738,-191 321.738,-191 318.738,-187 196.262,-187 196.262,-151 345.738,-151 345.738,-187"/>
<text text-anchor="middle" x="271" y="-164.8" font-family="Times,serif" font-size="14.00" fill="#000000">RegisterAgencyModule</text>
</g>
<!-- RegisterAgencyComponent&#45;&gt;RegisterAgencyModule -->
<g id="edge1" class="edge">
<title>RegisterAgencyComponent&#45;&gt;RegisterAgencyModule</title>
<path fill="none" stroke="#000000" d="M344.2145,-104C336.9041,-104 332.2255,-104 332.2255,-104 332.2255,-104 332.2255,-140.8939 332.2255,-140.8939"/>
<polygon fill="#000000" stroke="#000000" points="328.7255,-140.8938 332.2255,-150.8939 335.7255,-140.8939 328.7255,-140.8938"/>
</g>
<!-- SharedModule -->
<g id="node3" class="node">
<title>SharedModule</title>
<polygon fill="#8dd3c7" stroke="#000000" points="320.4231,-122 317.4231,-126 296.4231,-126 293.4231,-122 221.5769,-122 221.5769,-86 320.4231,-86 320.4231,-122"/>
<text text-anchor="middle" x="271" y="-99.8" font-family="Times,serif" font-size="14.00" fill="#000000">SharedModule</text>
</g>
<!-- SharedModule&#45;&gt;RegisterAgencyModule -->
<g id="edge2" class="edge">
<title>SharedModule&#45;&gt;RegisterAgencyModule</title>
<path fill="none" stroke="#000000" d="M271,-122.1061C271,-122.1061 271,-140.991 271,-140.991"/>
<polygon fill="#000000" stroke="#000000" points="267.5001,-140.9909 271,-150.991 274.5001,-140.991 267.5001,-140.9909"/>
</g>
<!-- RegistrationService -->
<g id="node4" class="node">
<title>RegistrationService</title>
<ellipse fill="#fdb462" stroke="#000000" cx="111" cy="-104" rx="87.3924" ry="18"/>
<text text-anchor="middle" x="111" y="-99.8" font-family="Times,serif" font-size="14.00" fill="#000000">RegistrationService</text>
</g>
<!-- RegistrationService&#45;&gt;RegisterAgencyModule -->
<g id="edge3" class="edge">
<title>RegistrationService&#45;&gt;RegisterAgencyModule</title>
<path fill="none" stroke="#000000" d="M198.248,-104C205.4232,-104 209.9925,-104 209.9925,-104 209.9925,-104 209.9925,-140.8939 209.9925,-140.8939"/>
<polygon fill="#000000" stroke="#000000" points="206.4926,-140.8938 209.9925,-150.8939 213.4926,-140.8939 206.4926,-140.8938"/>
</g>
</g>
</svg>
