<svg width="20" height="20" fill="none" xmlns="http://www.w3.org/2000/svg"><path d="M12.713 11.034c0-.251.204-.454.454-.454h1.584c.25 0 .454.203.454.454v1.583a.454.454 0 01-.454.454h-1.584a.454.454 0 01-.454-.454v-1.583zm-3.959 0c0-.251.203-.454.453-.454h1.584c.25 0 .454.203.454.454v1.583a.454.454 0 01-.454.454H9.207a.454.454 0 01-.453-.454v-1.583zm-3.959 0c0-.251.204-.454.454-.454h1.584c.25 0 .454.203.454.454v1.583a.454.454 0 01-.454.454H5.25a.454.454 0 01-.454-.454v-1.583zm7.918 3.959c0-.251.204-.454.454-.454h1.584c.25 0 .454.203.454.454v1.583a.454.454 0 01-.454.454h-1.584a.454.454 0 01-.454-.454v-1.583zm-3.959 0c0-.251.203-.454.453-.454h1.584c.25 0 .454.203.454.454v1.583a.454.454 0 01-.454.454H9.207a.454.454 0 01-.453-.454v-1.583zm-3.959 0c0-.251.204-.454.454-.454h1.584c.25 0 .454.203.454.454v1.583a.454.454 0 01-.454.454H5.25a.454.454 0 01-.454-.454v-1.583z" fill="#F8856B"/><path d="M1.962 2.226v2.42c0 1.093.888 1.974 1.98 1.974h1.25a1.986 1.986 0 001.992-1.974V2.218h5.631v2.428c0 1.093.9 1.974 1.993 1.974h1.25c1.093 0 1.98-.88 1.98-1.974v-2.42a1.8 1.8 0 011.74 1.792v14.178c0 .99-.802 1.804-1.792 1.804H2.014a1.804 1.804 0 01-1.792-1.804V4.018a1.8 1.8 0 011.74-1.792zm.58 15.087c0 .428.348.775.776.775h13.398a.775.775 0 00.775-.775V9.99a.775.775 0 00-.775-.776H3.318a.775.775 0 00-.775.776v7.323z" fill="#F8856B"/><path d="M16.062 5.324h-1.236a.679.679 0 01-.679-.679V.68a.68.68 0 01.68-.679h1.235a.68.68 0 01.68.679v3.966a.679.679 0 01-.68.679zm-10.854 0H3.972a.679.679 0 01-.68-.679V.68a.68.68 0 01.68-.679h1.236c.375 0 .679.304.679.679v3.966a.679.679 0 01-.68.679z" fill="#F8856B"/></svg>