<svg width="36" height="36" fill="none" xmlns="http://www.w3.org/2000/svg"><path d="M21.245 23.052c2.176-.917 3.894-2.166 5.152-3.747 1.26-1.58 1.889-3.3 1.889-5.162s-.63-3.583-1.889-5.164C25.14 7.4 23.422 6.15 21.245 5.233c-2.177-.918-4.544-1.377-7.102-1.377-2.558 0-4.925.46-7.102 1.377C4.865 6.15 3.147 7.399 1.89 8.98.629 10.56 0 12.28 0 14.142c0 1.594.476 3.095 1.427 4.5.95 1.407 2.256 2.593 3.917 3.557-.134.321-.271.616-.412.884-.14.268-.308.525-.502.773s-.345.442-.452.582a7.98 7.98 0 01-.522.593 14.41 14.41 0 00-.463.502c0-.013-.026.017-.08.09-.054.074-.084.108-.09.101-.007-.007-.034.027-.08.1l-.071.11-.05.101a.42.42 0 00-.04.12.785.785 0 00-.01.13c0 .048.006.091.02.131a.667.667 0 00.23.422.63.63 0 00.412.16h.06c.67-.093 1.246-.2 1.728-.32 2.063-.537 3.925-1.394 5.585-2.572 1.206.214 2.384.321 3.536.321 2.558.001 4.925-.457 7.102-1.375zm-11.24-1.677l-.884.622c-.375.255-.79.516-1.246.784l.704-1.688-1.95-1.125c-1.285-.75-2.283-1.633-2.993-2.651-.71-1.018-1.064-2.076-1.064-3.175 0-1.366.526-2.645 1.577-3.837C5.2 9.113 6.616 8.17 8.398 7.472c1.78-.696 3.696-1.044 5.745-1.044 2.05 0 3.965.348 5.746 1.044 1.78.697 3.197 1.641 4.249 2.833 1.051 1.192 1.577 2.471 1.577 3.838 0 1.366-.526 2.645-1.577 3.837-1.052 1.192-2.468 2.136-4.25 2.832-1.78.697-3.696 1.045-5.745 1.045a17.4 17.4 0 01-3.074-.281l-1.064-.201z" fill="#A4A4A4"/><path d="M34.574 23.795c.95-1.4 1.426-2.903 1.426-4.51 0-1.648-.502-3.188-1.506-4.621-1.005-1.433-2.371-2.625-4.099-3.576.308 1.004.462 2.022.462 3.054 0 1.794-.448 3.495-1.346 5.102-.897 1.607-2.183 3.027-3.857 4.26-1.554 1.124-3.322 1.988-5.304 2.59a21.224 21.224 0 01-6.208.905c-.401 0-.99-.027-1.767-.08 2.692 1.767 5.853 2.651 9.482 2.651 1.152 0 2.33-.107 3.536-.321 1.66 1.179 3.522 2.035 5.585 2.572.482.12 1.058.227 1.727.32a.606.606 0 00.443-.14.744.744 0 00.26-.441c-.006-.08 0-.125.02-.131.02-.006.017-.05-.01-.13l-.04-.121-.05-.1a.967.967 0 00-.07-.11.882.882 0 00-.08-.1c-.02-.02-.05-.055-.09-.101a14.013 14.013 0 00-.542-.593 7.972 7.972 0 01-.523-.592 59.48 59.48 0 00-.452-.583 5.07 5.07 0 01-.502-.773c-.14-.268-.278-.563-.412-.884 1.66-.965 2.966-2.147 3.917-3.547z" fill="#A4A4A4"/></svg>