<svg width="22" height="22" fill="none" xmlns="http://www.w3.org/2000/svg"><g clip-path="url(#clip0)"><path d="M18.782 3.219C14.491-1.073 7.51-1.073 3.218 3.218c-4.291 4.29-4.29 11.273 0 15.564 4.29 4.29 11.273 4.29 15.564 0 4.29-4.291 4.29-11.273 0-15.563zm-1.2 14.362c-3.63 3.63-9.534 3.63-13.163 0-3.63-3.628-3.63-9.534 0-13.163C8.048.79 13.952.79 17.582 4.418c3.628 3.63 3.628 9.535 0 13.163zM6.894 8.021a1.286 1.286 0 112.573.001 1.286 1.286 0 01-2.573 0zm5.832 0a1.287 1.287 0 112.574.002 1.287 1.287 0 01-2.574-.001zm3.041 5.269c-.797 1.843-2.664 3.034-4.755 3.034-2.137 0-4.015-1.197-4.785-3.05a.622.622 0 111.15-.477c.576 1.387 2.002 2.283 3.635 2.283 1.595 0 3.013-.896 3.613-2.284a.622.622 0 111.142.494z" fill="#A4A4A4"/></g><defs><clipPath id="clip0"/></defs></svg>