<svg width="25" height="20" fill="none" xmlns="http://www.w3.org/2000/svg"><path d="M21.948 0H3.058A3.06 3.06 0 000 3.057v12.911a3.06 3.06 0 003.057 3.058h18.886A3.06 3.06 0 0025 15.968V3.062A3.056 3.056 0 0021.948 0zm1.66 15.968c0 .916-.744 1.66-1.66 1.66H3.058a1.662 1.662 0 01-1.661-1.66V3.062c0-.915.745-1.66 1.66-1.66h18.886c.915 0 1.66.745 1.66 1.66v12.906h.005z" fill="#A4A4A4"/><path d="M15.767 9.353L21.88 3.87a.702.702 0 00.052-.988.702.702 0 00-.988-.052l-8.432 7.568-1.645-1.47c-.005-.004-.01-.01-.01-.015a1.032 1.032 0 00-.114-.098L4.05 2.825a.697.697 0 00-.988.057.697.697 0 00.057.988L9.306 9.4l-6.161 5.767a.701.701 0 00.957 1.024l6.254-5.85 1.697 1.516a.698.698 0 00.93-.006l1.744-1.562 6.218 5.907a.698.698 0 10.962-1.014l-6.14-5.83z" fill="#A4A4A4"/></svg>