<svg width="25" height="25" fill="none" xmlns="http://www.w3.org/2000/svg"><path d="M13.1 24.753a.84.84 0 00.184-.286.86.86 0 00.063-.326v-3.344m-.246 3.956l-.35-.358c0 .002-.002.003-.004.005m.354.353a.841.841 0 01-.286.183l-.682-4.14v3.347a.36.36 0 00.027.136l.003.01h0a.34.34 0 00.07.11c.032.03.07.054.11.07l.011.004h0a.358.358 0 00.272 0l.01-.004h0a.34.34 0 00.111-.07m.354.354l-.358-.349a.187.187 0 00.004-.005m0 0a.34.34 0 00.07-.11l.003-.01h0a.36.36 0 00.027-.136v-3.346m0 0v.002l.5-.002m-.5 0v0h.5m-.5 0c0-.216.085-.423.237-.576l.002-.002a.814.814 0 01.577-.237m-.316.815c0-.084.033-.164.091-.224l.224-.091m0-.5h.002l-.002.5m0-.5h0v.5m0-.5h3.34a.36.36 0 00.137-.027l.009-.003h0a.34.34 0 00.11-.07m-3.596.6H17a.86.86 0 00.326-.063.839.839 0 00.287-.183m-.354-.354l-.005.005.358.349m-.353-.354a.34.34 0 00.07-.111l.004-.01h0a.358.358 0 00-.015-.303l-.07-.069s0 0 0 0a.358.358 0 00-.25-.104h-3.341m3.602.597l.004-.004.35.358m0 0a.84.84 0 00.183-.286.859.859 0 000-.65m-4.455-.83v-2.25c0-.076.028-.149.077-.206L11.55 20.58a.314.314 0 00-.223-.091v-.5H7.988a.357.357 0 01-.134-.028h0l-.011-.005a.358.358 0 01-.12-.076l-.012-.012a.358.358 0 01.025-.471.358.358 0 01.248-.102h3.335c.45 0 .814-.365.814-.815v-2.252a.815.815 0 00-.721-.83 7.436 7.436 0 01-2.24-.727h0l-.004-.002a7.527 7.527 0 01-2.887-2.546v-.001a7.401 7.401 0 01-1.115-2.68 7.59 7.59 0 010-2.93A7.405 7.405 0 016.28 3.834v-.001a7.54 7.54 0 012.074-2.074h0a7.4 7.4 0 012.68-1.115 7.593 7.593 0 012.93 0c.958.19 1.868.57 2.68 1.114h0a7.54 7.54 0 012.074 2.077h0c.273.408.504.84.692 1.293h0c.187.45.328.918.423 1.396a7.59 7.59 0 010 2.93c-.095.48-.236.948-.423 1.4h0a7.51 7.51 0 01-3.584 3.849h0c-.719.36-1.49.6-2.286.713m-.2 3.056l-.5-.003v.002m.5 0c0 .084.033.164.092.224l-.592-.224m.5 0h-.5v0m0 0V16.22v0c0-.197.071-.386.2-.534l.002-.002a.812.812 0 01.498-.268m0 0s0 0 0 0l.07.495-.07-.495s0 0 0 0zm.116 3.87h-.001v-.5l.002.5h-.001zm0 0l3.343-.5c.225.001.441.09.601.25l.112.11c.032.05.06.101.083.155m0 0l-.402.164-.049.021.014.014.033-.033.404-.166zm1.36-10.022v-.013a6.79 6.79 0 00.13-1.27v-.001a6.82 6.82 0 10-.14 1.333l.01-.05z" fill="#F6528E" stroke="#F6528E"/></svg>