<svg width="25" height="25" fill="none" xmlns="http://www.w3.org/2000/svg"><path d="M24.81 8.575L10.649 1.704a.327.327 0 00-.441.155L7.125 8.412h1.679l2.262-4.815 12.279 5.957-3.84 8.163-2.162-1.048v4.315l1.33.644a.328.328 0 00.44-.159l5.854-12.448a.335.335 0 00-.156-.446z" fill="#fff"/><path d="M16.028 9.203H.332A.334.334 0 000 9.537v13.797c0 .185.15.336.332.336h15.696a.335.335 0 00.331-.336V9.537a.333.333 0 00-.33-.334zm-.906 10.573h-.995c-.58-1.509-1.293-3.622-2.375-3.34-1.269.33-1.902 3.34-1.902 3.34S9.2 16.38 7.41 14.56c-1.79-1.819-3.525 5.216-3.525 5.216h-2.37V10.73h13.607v9.047z" fill="#fff"/><path d="M3.71 13.797c.614 0 1.11-.505 1.11-1.127 0-.623-.496-1.128-1.11-1.128A1.12 1.12 0 002.6 12.67a1.12 1.12 0 001.11 1.127zm7.45-.331c.248 0 .482-.027.69-.069.241.104.537.168.854.168.82 0 1.482-.406 1.482-.908 0-.5-.662-.906-1.482-.906a2.15 2.15 0 00-.827.156.528.528 0 00-.373-.156h-.215a.53.53 0 00-.522.48c-.663.071-1.156.315-1.156.606 0 .347.693.629 1.548.629z" fill="#fff"/></svg>