<svg width="25" height="25" fill="none" xmlns="http://www.w3.org/2000/svg"><g clip-path="url(#clip0)"><path d="M24.986.907a1.03 1.03 0 00-.064-.257l-.001-.007L24.92.64a1.06 1.06 0 00-.183-.285 1.063 1.063 0 00-.2-.18l-.006-.003a1.027 1.027 0 00-.299-.132 1.038 1.038 0 00-.274-.04h-7.291a1.042 1.042 0 000 2.083h4.776l-6.217 6.218A9.322 9.322 0 009.375 6.25C4.205 6.25 0 10.456 0 15.625 0 20.795 4.206 25 9.375 25c5.17 0 9.375-4.206 9.375-9.375a9.321 9.321 0 00-2.051-5.851l6.218-6.218v4.777a1.042 1.042 0 002.083 0V1.042c0-.022-.005-.043-.006-.064a1.01 1.01 0 00-.008-.07zM9.375 22.917c-4.021 0-7.292-3.271-7.292-7.292 0-4.02 3.271-7.292 7.292-7.292 1.947 0 3.78.758 5.158 2.131a7.265 7.265 0 012.134 5.161c0 4.02-3.271 7.292-7.292 7.292z" fill="#369DF9"/></g><defs><clipPath id="clip0"><path fill="#fff" d="M0 0h25v25H0z"/></clipPath></defs></svg>