<svg width="25" height="25" fill="none" xmlns="http://www.w3.org/2000/svg"><path d="M12.112 25c-2.084 0-3.78-1.752-3.78-3.906a.77.77 0 01.756-.782.77.77 0 01.756.782c0 1.293 1.018 2.343 2.268 2.343 1.252 0 2.268-1.05 2.268-2.343a.77.77 0 01.757-.782.77.77 0 01.756.782c0 2.154-1.696 3.906-3.78 3.906z" fill="#A4A4A4"/><path d="M20.429 21.875H3.796c-.973 0-1.764-.818-1.764-1.823 0-.533.225-1.038.617-1.385a7.077 7.077 0 002.407-5.346v-2.904c0-4.021 3.165-7.292 7.056-7.292 3.892 0 7.057 3.27 7.057 7.292v2.904c0 2.061.874 4.007 2.397 5.338.402.355.627.86.627 1.393 0 1.005-.791 1.823-1.764 1.823zM12.112 4.687c-3.057 0-5.544 2.57-5.544 5.73v2.904c0 2.522-1.07 4.903-2.933 6.531a.262.262 0 00-.091.2c0 .142.115.26.252.26h16.633a.26.26 0 00.252-.26.26.26 0 00-.089-.198c-1.866-1.63-2.935-4.011-2.935-6.533v-2.904c0-3.16-2.487-5.73-5.545-5.73z" fill="#A4A4A4"/><path d="M12.113 4.688a.77.77 0 01-.757-.782V.781A.77.77 0 0112.113 0a.77.77 0 01.755.781v3.125a.77.77 0 01-.755.781z" fill="#A4A4A4"/></svg>