<svg width="22" height="22" fill="none" xmlns="http://www.w3.org/2000/svg"><g clip-path="url(#clip0)"><path d="M19.53 13.56l-1.628-1.628-7.321-7.321A3.451 3.451 0 005.7 9.49l7.321 7.324a.767.767 0 101.085-1.085L6.784 8.407a1.917 1.917 0 112.712-2.712l7.323 7.322 1.628 1.627a3.452 3.452 0 11-4.884 4.881l-1.355-1.356-7.593-7.593-.542-.542a4.986 4.986 0 017.05-7.05l8.135 8.135a.767.767 0 001.085-1.085l-8.135-8.135a6.52 6.52 0 00-9.22 9.22l8.135 8.135 1.358 1.356a4.986 4.986 0 007.048-7.05z" fill="#A4A4A4"/></g><defs><clipPath id="clip0"/></defs></svg>