<svg width="20" height="20" fill="none" xmlns="http://www.w3.org/2000/svg"><path d="M18.395 5.148c-.024-.526-.024-1.028-.024-1.53a.705.705 0 00-.717-.718c-2.99 0-5.262-.861-7.151-2.703a.738.738 0 00-1.005 0C7.608 2.04 5.337 2.9 2.348 2.9a.705.705 0 00-.718.717c0 .503 0 1.005-.024 1.531-.096 5.022-.24 11.91 8.155 14.804l.24.048.239-.048c8.37-2.894 8.25-9.758 8.155-14.804zm-8.969 6.96a.772.772 0 01-.502.191H8.9a.673.673 0 01-.502-.24L6.174 9.597 7.25 8.64l1.746 1.937 3.874-3.683.98 1.052-4.424 4.162z" fill="#2E99E9"/></svg>