<svg width="14" height="14" fill="none" xmlns="http://www.w3.org/2000/svg"><path d="M7 6.847c1.557 0 2.819-1.533 2.819-3.424C9.819 1.533 9.404 0 7 0S4.181 1.533 4.181 3.423c0 1.891 1.262 3.424 2.819 3.424zm-5.324 5.227c0-.115 0-.032 0 0zm10.647.09c.002-.031 0-.219 0 0zm-.006-.228c-.052-3.294-.482-4.232-3.774-4.826 0 0-.463.59-1.543.59-1.08 0-1.544-.59-1.544-.59-3.255.587-3.712 1.512-3.772 4.719-.005.262-.007.275-.008.245v.346S2.46 14 7 14s5.323-1.58 5.323-1.58v-.256c0 .019-.002-.018-.006-.228z" fill="#fff"/></svg>