<svg width="22" height="22" fill="none" xmlns="http://www.w3.org/2000/svg"><g clip-path="url(#clip0)" fill="#A4A4A4" opacity=".5"><path d="M4.726 20.94A1.107 1.107 0 005.832 22h10.336c.593 0 1.081-.468 1.106-1.06l.738-15.583H3.988l.738 15.582zm8.612-11.712a.45.45 0 01.45-.45h.72a.45.45 0 01.449.45v8.902a.45.45 0 01-.45.45h-.72a.45.45 0 01-.449-.45V9.228zm-3.147 0a.45.45 0 01.45-.45h.719a.45.45 0 01.45.45v8.902a.45.45 0 01-.45.45h-.72a.45.45 0 01-.45-.45V9.228zm-3.148 0a.45.45 0 01.45-.45h.72a.45.45 0 01.449.45v8.902a.45.45 0 01-.45.45h-.72a.45.45 0 01-.449-.45V9.228zm11.461-8.095h-4.769V.232a.232.232 0 00-.23-.232H8.496a.232.232 0 00-.231.232v.901H3.496a.695.695 0 00-.694.695v2.183h16.397V1.828a.695.695 0 00-.695-.695z"/></g><defs><clipPath id="clip0"/></defs></svg>