<svg width="20" height="15" fill="none" xmlns="http://www.w3.org/2000/svg"><path fill-rule="evenodd" clip-rule="evenodd" d="M4.082 7.448c0-1.862 1.428-3.31 3.265-3.31 1.735 0 3.265 1.448 3.265 3.31s-1.428 3.31-3.265 3.31c-1.837 0-3.265-1.448-3.265-3.31zM3.163 0h8.368c1.734 0 3.163 1.448 3.265 3.207v8.586c0 1.759-1.429 3.207-3.163 3.207h-8.47C1.43 15 0 13.552 0 11.793V3.207C0 1.448 1.429 0 3.163 0zM2.041 7.448c0 2.897 2.347 5.38 5.306 5.38 2.857 0 5.306-2.38 5.306-5.38S10.306 2.07 7.347 2.07c-2.96 0-5.306 2.483-5.306 5.38zm17.347 4.966l-3.368-1.448h-.101V3.93l3.469-1.552c.306-.103.612.104.612.414V12c0 .31-.306.517-.612.414z" fill="#A4A4A4"/></svg>