<svg width="143" height="167" fill="none" xmlns="http://www.w3.org/2000/svg"><g filter="url(#filter0_d)"><path fill-rule="evenodd" clip-rule="evenodd" d="M67.376 129.418c4.43 0 9.01-.456 13.287-1.369 1.069-.304 1.68-1.217 1.527-2.282-.306-1.065-1.222-1.673-2.29-1.521a57.47 57.47 0 01-12.524 1.369c-15.882 0-30.848-6.237-42.149-17.343C14.08 96.862 7.971 82.106 7.971 66.133c0-15.973 6.108-30.73 17.409-41.835C36.68 13.04 51.647 6.955 67.53 6.955c15.882 0 30.848 6.238 42.148 17.343 11.301 11.257 17.41 26.166 17.41 41.987 0 2.13-.153 4.412-.305 6.542-.153 1.064.61 1.977 1.679 2.13 1.069.152 1.986-.61 2.138-1.674.306-2.282.459-4.716.459-6.998 0-16.886-6.567-32.707-18.632-44.725C100.363 9.54 84.327 3 67.377 3 50.424 3 34.542 9.541 22.63 21.56 10.567 33.426 4 49.399 4 66.133c0 16.886 6.567 32.707 18.631 44.725 11.912 12.019 27.947 18.56 44.745 18.56zm11.15-26.47c0-16.43 13.438-29.817 29.931-29.817 16.493 0 29.932 13.387 29.932 29.817 0 16.429-13.439 29.817-29.932 29.817s-29.932-13.388-29.932-29.817zm3.817 0c0 14.452 11.759 26.014 26.114 26.014s25.962-11.562 26.114-26.014c0-14.452-11.759-26.014-26.114-26.014-14.508 0-26.114 11.714-26.114 26.014zM26.388 158.82c.395-.844.593-1.826.593-2.945v-.508c0-1.115-.203-2.096-.609-2.945-.401-.855-.971-1.508-1.71-1.961-.735-.459-1.576-.688-2.524-.688s-1.792.229-2.532.688c-.734.453-1.304 1.106-1.71 1.961-.402.849-.602 1.833-.602 2.953v.562c.005 1.094.21 2.063.617 2.906.406.839.98 1.485 1.719 1.938.74.453 1.58.68 2.523.68.953 0 1.797-.23 2.532-.688.74-.458 1.307-1.109 1.703-1.953zm-2.422-6.18c.427.62.64 1.526.64 2.719v.555c-.005 1.182-.218 2.083-.64 2.703-.422.614-1.026.922-1.813.922-.802 0-1.416-.321-1.843-.961-.427-.641-.641-1.542-.641-2.703v-.555c.005-1.182.221-2.078.648-2.688.427-.614 1.034-.921 1.82-.921.792 0 1.402.31 1.829.929zm7.062 8.664v-4.007h2.055c1.349 0 2.404-.321 3.164-.961.766-.646 1.148-1.526 1.148-2.641 0-.734-.174-1.388-.523-1.961-.349-.578-.849-1.023-1.5-1.336-.646-.312-1.396-.469-2.25-.469h-4.438v11.375h2.344zm2.094-5.906h-2.094v-3.57h2.149c.578.01 1.031.187 1.36.531.327.344.491.794.491 1.352 0 .541-.164.958-.492 1.25-.323.291-.794.437-1.414.437zm8.234.977h4.5v-1.836h-4.5v-2.711h5.266v-1.899h-7.61v11.375h7.626v-1.882h-5.282v-3.047zm13.563 4.929h2.344v-11.375h-2.336v7.5l-4.57-7.5h-2.344v11.375h2.343v-7.484l4.563 7.484zm15.156-11.375l-2.578 8.555-2.563-8.555h-2.601l3.945 11.375h2.446l3.96-11.375h-2.609zm3.836 11.375h2.344v-11.375H73.91v11.375zm6.867-4.929h4.5v-1.836h-4.5v-2.711h5.266v-1.899h-7.61v11.375h7.626v-1.882h-5.282v-3.047zm17.047-6.446l-1.531 8.094-1.867-8.094h-1.985l-1.875 8.078-1.539-8.078h-2.336l2.524 11.375h2.36l1.85-7.609 1.852 7.609h2.36l2.523-11.375h-2.336zm3.758 11.375h2.344v-11.375h-2.344v11.375zm11.43 0h2.343v-11.375h-2.336v7.5l-4.57-7.5h-2.344v11.375h2.344v-7.484l4.563 7.484zm11.601-.257c.771-.282 1.367-.675 1.789-1.18v-4.539h-4.476v1.726h2.133v1.961c-.375.375-1.003.563-1.883.563-.875 0-1.539-.305-1.992-.914-.454-.61-.68-1.511-.68-2.703v-.727c.005-1.182.216-2.073.633-2.672.416-.599 1.023-.898 1.82-.898.625 0 1.115.151 1.469.453.359.302.591.779.695 1.43h2.281c-.14-1.23-.591-2.165-1.351-2.805-.761-.646-1.815-.969-3.164-.969-.969 0-1.815.221-2.539.664-.719.438-1.271 1.073-1.657 1.906-.38.829-.57 1.81-.57 2.946v.773c.01 1.104.216 2.065.617 2.883.406.818.979 1.443 1.719 1.875.745.427 1.609.641 2.594.641.937 0 1.791-.138 2.562-.414zm-16.157-72.551c4.276 0 8.552 1.673 12.828 5.02 2.778 2.14 4.826 4.59 6.056 6.063.257.308.478.572.663.783.153.304.458.76.611.913a2.96 2.96 0 010 3.499c0 .082-.134.253-.282.442a3.26 3.26 0 00-.329.47c-.185.211-.406.476-.663.783-1.23 1.473-3.278 3.924-6.056 6.063-4.124 3.347-8.552 5.02-12.828 5.02s-8.552-1.673-12.828-5.02c-2.78-2.139-4.827-4.59-6.057-6.062v-.001c-.257-.307-.478-.572-.663-.783a6.442 6.442 0 01-.506-.599v-.001a3.7 3.7 0 00-.258-.312 2.959 2.959 0 010-3.499c.153-.153.611-.609.764-.913.185-.21.405-.475.662-.782l.001-.001c1.23-1.473 3.278-3.924 6.056-6.063 4.124-3.347 8.553-5.02 12.829-5.02zM94.407 103.1c4.734 5.629 9.468 8.519 13.897 8.519 4.581 0 9.315-2.89 13.897-8.519-4.734-5.629-9.468-8.519-13.897-8.519s-9.163 2.89-13.897 8.519zm14.202 5.781c3.205 0 5.803-2.588 5.803-5.781 0-3.193-2.598-5.78-5.803-5.78s-5.803 2.587-5.803 5.78 2.598 5.781 5.803 5.781zM89.826 58.527h3.97a4.098 4.098 0 014.123 4.107v7.607C84.022 74.652 73.791 87.735 73.791 103.1c0 1.521.152 3.043.305 4.564h-33.14a4.098 4.098 0 01-4.122-4.107V62.634a4.098 4.098 0 014.123-4.107h3.97V46.509c0-12.323 10.08-22.363 22.45-22.363s22.449 10.04 22.449 22.363v12.018zm-36.5 0H81.58l.153-12.018c0-7.759-6.414-14.148-14.203-14.148-7.788 0-14.202 6.39-14.202 14.148v12.018z" fill="#fff"/></g><defs><filter id="filter0_d" x="0" y="0" width="142.389" height="166.461" filterUnits="userSpaceOnUse" color-interpolation-filters="sRGB"><feFlood flood-opacity="0" result="BackgroundImageFix"/><feColorMatrix in="SourceAlpha" values="0 0 0 0 0 0 0 0 0 0 0 0 0 0 0 0 0 0 127 0"/><feOffset dy="1"/><feGaussianBlur stdDeviation="2"/><feColorMatrix values="0 0 0 0 0 0 0 0 0 0 0 0 0 0 0 0 0 0 0.25 0"/><feBlend in2="BackgroundImageFix" result="effect1_dropShadow"/><feBlend in="SourceGraphic" in2="effect1_dropShadow" result="shape"/></filter></defs></svg>