<svg width="22" height="22" fill="none" xmlns="http://www.w3.org/2000/svg"><g clip-path="url(#clip0)" fill="#fff"><path d="M16.226 17.898a9.703 9.703 0 004.485-8.186C20.71 4.348 16.363 0 11 0S1.29 4.348 1.29 9.711a9.702 9.702 0 004.485 8.186L4.08 19.925c-.69.827-.101 2.075.974 2.075h11.89c1.076 0 1.663-1.248.975-2.074l-1.693-2.027zM11 15.142A5.43 5.43 0 1111 4.28a5.43 5.43 0 010 10.86z"/><path d="M11 6.412c-.438 0-.855.088-1.238.243.574.94.144 2.5-1.298 2.5-.263 0-.491-.052-.687-.143A3.3 3.3 0 1011 6.412z"/></g><defs><clipPath id="clip0"><path fill="#fff" d="M0 0h22v22H0z"/></clipPath></defs></svg>