<?xml version="1.0" encoding="UTF-8" standalone="no"?>
<!DOCTYPE svg PUBLIC "-//W3C//DTD SVG 1.1//EN"
 "http://www.w3.org/Graphics/SVG/1.1/DTD/svg11.dtd">
<!-- Generated by graphviz version 2.40.1 (20161225.0304)
 -->
<!-- Title: dependencies Pages: 1 -->
<svg width="1446pt" height="284pt"
 viewBox="0.00 0.00 1446.00 284.00" xmlns="http://www.w3.org/2000/svg" xmlns:xlink="http://www.w3.org/1999/xlink">
<g id="graph0" class="graph" transform="scale(1 1) rotate(0) translate(4 280)">
<title>dependencies</title>
<polygon fill="#ffffff" stroke="transparent" points="-4,4 -4,-280 1442,-280 1442,4 -4,4"/>
<text text-anchor="start" x="698.0091" y="-42.4" font-family="sans-serif" font-weight="bold" font-size="14.00" fill="#000000">Legend</text>
<polygon fill="#ffffb3" stroke="transparent" points="485,-10 485,-30 505,-30 505,-10 485,-10"/>
<text text-anchor="start" x="508.629" y="-15.4" font-family="sans-serif" font-size="14.00" fill="#000000"> &#160;Declarations</text>
<polygon fill="#8dd3c7" stroke="transparent" points="598,-10 598,-30 618,-30 618,-10 598,-10"/>
<text text-anchor="start" x="621.7251" y="-15.4" font-family="sans-serif" font-size="14.00" fill="#000000"> &#160;Module</text>
<polygon fill="#80b1d3" stroke="transparent" points="684,-10 684,-30 704,-30 704,-10 684,-10"/>
<text text-anchor="start" x="707.7812" y="-15.4" font-family="sans-serif" font-size="14.00" fill="#000000"> &#160;Bootstrap</text>
<polygon fill="#fdb462" stroke="transparent" points="781,-10 781,-30 801,-30 801,-10 781,-10"/>
<text text-anchor="start" x="804.6732" y="-15.4" font-family="sans-serif" font-size="14.00" fill="#000000"> &#160;Providers</text>
<polygon fill="#fb8072" stroke="transparent" points="877,-10 877,-30 897,-30 897,-10 877,-10"/>
<text text-anchor="start" x="900.7258" y="-15.4" font-family="sans-serif" font-size="14.00" fill="#000000"> &#160;Exports</text>
<g id="clust1" class="cluster">
<title>cluster_FuseNavigationModule</title>
<polygon fill="none" stroke="#000000" stroke-dasharray="1,5" points="8,-70 8,-268 1430,-268 1430,-70 8,-70"/>
</g>
<g id="clust2" class="cluster">
<title>cluster_FuseNavigationModule_declarations</title>
<polygon fill="none" stroke="#000000" points="16,-78 16,-130 1422,-130 1422,-78 16,-78"/>
</g>
<g id="clust10" class="cluster">
<title>cluster_FuseNavigationModule_exports</title>
<polygon fill="none" stroke="#000000" points="565,-208 565,-260 755,-260 755,-208 565,-208"/>
</g>
<!-- FuseNavHorizontalCollapsableComponent -->
<g id="node1" class="node">
<title>FuseNavHorizontalCollapsableComponent</title>
<polygon fill="#ffffb3" stroke="#000000" points="1413.5604,-122 1156.4396,-122 1156.4396,-86 1413.5604,-86 1413.5604,-122"/>
<text text-anchor="middle" x="1285" y="-99.8" font-family="Times,serif" font-size="14.00" fill="#000000">FuseNavHorizontalCollapsableComponent</text>
</g>
<!-- FuseNavigationModule -->
<g id="node7" class="node">
<title>FuseNavigationModule</title>
<polygon fill="#8dd3c7" stroke="#000000" points="734.1993,-187 731.1993,-191 710.1993,-191 707.1993,-187 585.8007,-187 585.8007,-151 734.1993,-151 734.1993,-187"/>
<text text-anchor="middle" x="660" y="-164.8" font-family="Times,serif" font-size="14.00" fill="#000000">FuseNavigationModule</text>
</g>
<!-- FuseNavHorizontalCollapsableComponent&#45;&gt;FuseNavigationModule -->
<g id="edge1" class="edge">
<title>FuseNavHorizontalCollapsableComponent&#45;&gt;FuseNavigationModule</title>
<path fill="none" stroke="#000000" d="M1285,-122.2843C1285,-143.3211 1285,-175 1285,-175 1285,-175 744.15,-175 744.15,-175"/>
<polygon fill="#000000" stroke="#000000" points="744.1501,-171.5001 734.15,-175 744.15,-178.5001 744.1501,-171.5001"/>
</g>
<!-- FuseNavHorizontalItemComponent -->
<g id="node2" class="node">
<title>FuseNavHorizontalItemComponent</title>
<polygon fill="#ffffb3" stroke="#000000" points="1138.1203,-122 921.8797,-122 921.8797,-86 1138.1203,-86 1138.1203,-122"/>
<text text-anchor="middle" x="1030" y="-99.8" font-family="Times,serif" font-size="14.00" fill="#000000">FuseNavHorizontalItemComponent</text>
</g>
<!-- FuseNavHorizontalItemComponent&#45;&gt;FuseNavigationModule -->
<g id="edge2" class="edge">
<title>FuseNavHorizontalItemComponent&#45;&gt;FuseNavigationModule</title>
<path fill="none" stroke="#000000" d="M1030,-122.0225C1030,-139.3734 1030,-163 1030,-163 1030,-163 744.4299,-163 744.4299,-163"/>
<polygon fill="#000000" stroke="#000000" points="744.43,-159.5001 734.4299,-163 744.4299,-166.5001 744.43,-159.5001"/>
</g>
<!-- FuseNavVerticalCollapsableComponent -->
<g id="node3" class="node">
<title>FuseNavVerticalCollapsableComponent</title>
<polygon fill="#ffffb3" stroke="#000000" points="904.2752,-122 661.7248,-122 661.7248,-86 904.2752,-86 904.2752,-122"/>
<text text-anchor="middle" x="783" y="-99.8" font-family="Times,serif" font-size="14.00" fill="#000000">FuseNavVerticalCollapsableComponent</text>
</g>
<!-- FuseNavVerticalCollapsableComponent&#45;&gt;FuseNavigationModule -->
<g id="edge3" class="edge">
<title>FuseNavVerticalCollapsableComponent&#45;&gt;FuseNavigationModule</title>
<path fill="none" stroke="#000000" d="M697.9811,-122.1061C697.9811,-122.1061 697.9811,-140.991 697.9811,-140.991"/>
<polygon fill="#000000" stroke="#000000" points="694.4811,-140.9909 697.9811,-150.991 701.4811,-140.991 694.4811,-140.9909"/>
</g>
<!-- FuseNavVerticalGroupComponent -->
<g id="node4" class="node">
<title>FuseNavVerticalGroupComponent</title>
<polygon fill="#ffffb3" stroke="#000000" points="643.9454,-122 432.0546,-122 432.0546,-86 643.9454,-86 643.9454,-122"/>
<text text-anchor="middle" x="538" y="-99.8" font-family="Times,serif" font-size="14.00" fill="#000000">FuseNavVerticalGroupComponent</text>
</g>
<!-- FuseNavVerticalGroupComponent&#45;&gt;FuseNavigationModule -->
<g id="edge4" class="edge">
<title>FuseNavVerticalGroupComponent&#45;&gt;FuseNavigationModule</title>
<path fill="none" stroke="#000000" d="M614.9366,-122.1061C614.9366,-122.1061 614.9366,-140.991 614.9366,-140.991"/>
<polygon fill="#000000" stroke="#000000" points="611.4366,-140.9909 614.9366,-150.991 618.4366,-140.991 611.4366,-140.9909"/>
</g>
<!-- FuseNavVerticalItemComponent -->
<g id="node5" class="node">
<title>FuseNavVerticalItemComponent</title>
<polygon fill="#ffffb3" stroke="#000000" points="413.8347,-122 212.1653,-122 212.1653,-86 413.8347,-86 413.8347,-122"/>
<text text-anchor="middle" x="313" y="-99.8" font-family="Times,serif" font-size="14.00" fill="#000000">FuseNavVerticalItemComponent</text>
</g>
<!-- FuseNavVerticalItemComponent&#45;&gt;FuseNavigationModule -->
<g id="edge5" class="edge">
<title>FuseNavVerticalItemComponent&#45;&gt;FuseNavigationModule</title>
<path fill="none" stroke="#000000" d="M313,-122.0225C313,-139.3734 313,-163 313,-163 313,-163 575.5598,-163 575.5598,-163"/>
<polygon fill="#000000" stroke="#000000" points="575.5598,-166.5001 585.5598,-163 575.5598,-159.5001 575.5598,-166.5001"/>
</g>
<!-- FuseNavigationComponent -->
<g id="node6" class="node">
<title>FuseNavigationComponent</title>
<polygon fill="#ffffb3" stroke="#000000" points="193.9818,-122 24.0182,-122 24.0182,-86 193.9818,-86 193.9818,-122"/>
<text text-anchor="middle" x="109" y="-99.8" font-family="Times,serif" font-size="14.00" fill="#000000">FuseNavigationComponent</text>
</g>
<!-- FuseNavigationComponent&#45;&gt;FuseNavigationModule -->
<g id="edge6" class="edge">
<title>FuseNavigationComponent&#45;&gt;FuseNavigationModule</title>
<path fill="none" stroke="#000000" d="M109,-122.2843C109,-143.3211 109,-175 109,-175 109,-175 575.6897,-175 575.6897,-175"/>
<polygon fill="#000000" stroke="#000000" points="575.6897,-178.5001 585.6897,-175 575.6897,-171.5001 575.6897,-178.5001"/>
</g>
<!-- FuseNavigationComponent  -->
<g id="node8" class="node">
<title>FuseNavigationComponent </title>
<polygon fill="#fb8072" stroke="#000000" points="746.9825,-252 573.0175,-252 573.0175,-216 746.9825,-216 746.9825,-252"/>
<text text-anchor="middle" x="660" y="-229.8" font-family="Times,serif" font-size="14.00" fill="#000000">FuseNavigationComponent </text>
</g>
<!-- FuseNavigationModule&#45;&gt;FuseNavigationComponent  -->
<g id="edge7" class="edge">
<title>FuseNavigationModule&#45;&gt;FuseNavigationComponent </title>
<path fill="none" stroke="#000000" stroke-dasharray="5,2" d="M660,-187.1061C660,-187.1061 660,-205.991 660,-205.991"/>
<polygon fill="#000000" stroke="#000000" points="656.5001,-205.9909 660,-215.991 663.5001,-205.991 656.5001,-205.9909"/>
</g>
</g>
</svg>
