<?xml version="1.0" encoding="UTF-8" standalone="no"?>
<!DOCTYPE svg PUBLIC "-//W3C//DTD SVG 1.1//EN"
 "http://www.w3.org/Graphics/SVG/1.1/DTD/svg11.dtd">
<!-- Generated by graphviz version 2.40.1 (20161225.0304)
 -->
<!-- Title: dependencies Pages: 1 -->
<svg width="5110pt" height="211pt"
 viewBox="0.00 0.00 5110.00 211.00" xmlns="http://www.w3.org/2000/svg" xmlns:xlink="http://www.w3.org/1999/xlink">
<g id="graph0" class="graph" transform="scale(1 1) rotate(0) translate(4 207)">
<title>dependencies</title>
<polygon fill="#ffffff" stroke="transparent" points="-4,4 -4,-207 5106,-207 5106,4 -4,4"/>
<text text-anchor="start" x="2530.0091" y="-42.4" font-family="sans-serif" font-weight="bold" font-size="14.00" fill="#000000">Legend</text>
<polygon fill="#ffffb3" stroke="transparent" points="2317,-10 2317,-30 2337,-30 2337,-10 2317,-10"/>
<text text-anchor="start" x="2340.629" y="-15.4" font-family="sans-serif" font-size="14.00" fill="#000000"> &#160;Declarations</text>
<polygon fill="#8dd3c7" stroke="transparent" points="2430,-10 2430,-30 2450,-30 2450,-10 2430,-10"/>
<text text-anchor="start" x="2453.7251" y="-15.4" font-family="sans-serif" font-size="14.00" fill="#000000"> &#160;Module</text>
<polygon fill="#80b1d3" stroke="transparent" points="2516,-10 2516,-30 2536,-30 2536,-10 2516,-10"/>
<text text-anchor="start" x="2539.7812" y="-15.4" font-family="sans-serif" font-size="14.00" fill="#000000"> &#160;Bootstrap</text>
<polygon fill="#fdb462" stroke="transparent" points="2613,-10 2613,-30 2633,-30 2633,-10 2613,-10"/>
<text text-anchor="start" x="2636.6732" y="-15.4" font-family="sans-serif" font-size="14.00" fill="#000000"> &#160;Providers</text>
<polygon fill="#fb8072" stroke="transparent" points="2709,-10 2709,-30 2729,-30 2729,-10 2709,-10"/>
<text text-anchor="start" x="2732.7258" y="-15.4" font-family="sans-serif" font-size="14.00" fill="#000000"> &#160;Exports</text>
<g id="clust1" class="cluster">
<title>cluster_ShopModule</title>
<polygon fill="none" stroke="#000000" stroke-dasharray="1,5" points="8,-70 8,-195 5094,-195 5094,-70 8,-70"/>
</g>
<g id="clust2" class="cluster">
<title>cluster_ShopModule_declarations</title>
<polygon fill="none" stroke="#000000" points="413,-78 413,-130 5086,-130 5086,-78 413,-78"/>
</g>
<g id="clust29" class="cluster">
<title>cluster_ShopModule_imports</title>
<polygon fill="none" stroke="#000000" points="16,-78 16,-130 405,-130 405,-78 16,-78"/>
</g>
<!-- AccordianComponent -->
<g id="node1" class="node">
<title>AccordianComponent</title>
<polygon fill="#ffffb3" stroke="#000000" points="5077.6345,-122 4938.3655,-122 4938.3655,-86 5077.6345,-86 5077.6345,-122"/>
<text text-anchor="middle" x="5008" y="-99.8" font-family="Times,serif" font-size="14.00" fill="#000000">AccordianComponent</text>
</g>
<!-- ShopModule -->
<g id="node27" class="node">
<title>ShopModule</title>
<polygon fill="#8dd3c7" stroke="#000000" points="2607.333,-187 2604.333,-191 2583.333,-191 2580.333,-187 2518.667,-187 2518.667,-151 2607.333,-151 2607.333,-187"/>
<text text-anchor="middle" x="2563" y="-164.8" font-family="Times,serif" font-size="14.00" fill="#000000">ShopModule</text>
</g>
<!-- AccordianComponent&#45;&gt;ShopModule -->
<g id="edge1" class="edge">
<title>AccordianComponent&#45;&gt;ShopModule</title>
<path fill="none" stroke="#000000" d="M5008,-122.3802C5008,-146.2785 5008,-185 5008,-185 5008,-185 2617.2612,-185 2617.2612,-185"/>
<polygon fill="#000000" stroke="#000000" points="2617.2613,-181.5001 2607.2612,-185 2617.2612,-188.5001 2617.2613,-181.5001"/>
</g>
<!-- AddToCartComponent -->
<g id="node2" class="node">
<title>AddToCartComponent</title>
<polygon fill="#ffffb3" stroke="#000000" points="4920.594,-122 4775.406,-122 4775.406,-86 4920.594,-86 4920.594,-122"/>
<text text-anchor="middle" x="4848" y="-99.8" font-family="Times,serif" font-size="14.00" fill="#000000">AddToCartComponent</text>
</g>
<!-- AddToCartComponent&#45;&gt;ShopModule -->
<g id="edge2" class="edge">
<title>AddToCartComponent&#45;&gt;ShopModule</title>
<path fill="none" stroke="#000000" d="M4848,-122.3228C4848,-145.6602 4848,-183 4848,-183 4848,-183 2617.3647,-183 2617.3647,-183"/>
<polygon fill="#000000" stroke="#000000" points="2617.3648,-179.5001 2607.3647,-183 2617.3647,-186.5001 2617.3648,-179.5001"/>
</g>
<!-- BundleComponent -->
<g id="node3" class="node">
<title>BundleComponent</title>
<polygon fill="#ffffb3" stroke="#000000" points="4757.7744,-122 4636.2256,-122 4636.2256,-86 4757.7744,-86 4757.7744,-122"/>
<text text-anchor="middle" x="4697" y="-99.8" font-family="Times,serif" font-size="14.00" fill="#000000">BundleComponent</text>
</g>
<!-- BundleComponent&#45;&gt;ShopModule -->
<g id="edge3" class="edge">
<title>BundleComponent&#45;&gt;ShopModule</title>
<path fill="none" stroke="#000000" d="M4697,-122.0109C4697,-144.4852 4697,-180 4697,-180 4697,-180 2617.5716,-180 2617.5716,-180"/>
<polygon fill="#000000" stroke="#000000" points="2617.5717,-176.5001 2607.5716,-180 2617.5716,-183.5001 2617.5717,-176.5001"/>
</g>
<!-- CategoryMetroComponent -->
<g id="node4" class="node">
<title>CategoryMetroComponent</title>
<polygon fill="#ffffb3" stroke="#000000" points="4618.3599,-122 4451.6401,-122 4451.6401,-86 4618.3599,-86 4618.3599,-122"/>
<text text-anchor="middle" x="4535" y="-99.8" font-family="Times,serif" font-size="14.00" fill="#000000">CategoryMetroComponent</text>
</g>
<!-- CategoryMetroComponent&#45;&gt;ShopModule -->
<g id="edge4" class="edge">
<title>CategoryMetroComponent&#45;&gt;ShopModule</title>
<path fill="none" stroke="#000000" d="M4535,-122.2921C4535,-144.2057 4535,-178 4535,-178 4535,-178 2617.4219,-178 2617.4219,-178"/>
<polygon fill="#000000" stroke="#000000" points="2617.4219,-174.5001 2607.4219,-178 2617.4218,-181.5001 2617.4219,-174.5001"/>
</g>
<!-- CheckOutComponent -->
<g id="node5" class="node">
<title>CheckOutComponent</title>
<polygon fill="#ffffb3" stroke="#000000" points="4434.0954,-122 4295.9046,-122 4295.9046,-86 4434.0954,-86 4434.0954,-122"/>
<text text-anchor="middle" x="4365" y="-99.8" font-family="Times,serif" font-size="14.00" fill="#000000">CheckOutComponent</text>
</g>
<!-- CheckOutComponent&#45;&gt;ShopModule -->
<g id="edge5" class="edge">
<title>CheckOutComponent&#45;&gt;ShopModule</title>
<path fill="none" stroke="#000000" d="M4365,-122.2843C4365,-143.3211 4365,-175 4365,-175 4365,-175 2617.5441,-175 2617.5441,-175"/>
<polygon fill="#000000" stroke="#000000" points="2617.5441,-171.5001 2607.5441,-175 2617.544,-178.5001 2617.5441,-171.5001"/>
</g>
<!-- CompareProductComponent -->
<g id="node6" class="node">
<title>CompareProductComponent</title>
<polygon fill="#ffffb3" stroke="#000000" points="4278.1979,-122 4101.8021,-122 4101.8021,-86 4278.1979,-86 4278.1979,-122"/>
<text text-anchor="middle" x="4190" y="-99.8" font-family="Times,serif" font-size="14.00" fill="#000000">CompareProductComponent</text>
</g>
<!-- CompareProductComponent&#45;&gt;ShopModule -->
<g id="edge6" class="edge">
<title>CompareProductComponent&#45;&gt;ShopModule</title>
<path fill="none" stroke="#000000" d="M4190,-122.1289C4190,-142.5724 4190,-173 4190,-173 4190,-173 2617.3621,-173 2617.3621,-173"/>
<polygon fill="#000000" stroke="#000000" points="2617.3622,-169.5001 2607.3621,-173 2617.3621,-176.5001 2617.3622,-169.5001"/>
</g>
<!-- ImageOutsideComponent -->
<g id="node7" class="node">
<title>ImageOutsideComponent</title>
<polygon fill="#ffffb3" stroke="#000000" points="4083.8599,-122 3924.1401,-122 3924.1401,-86 4083.8599,-86 4083.8599,-122"/>
<text text-anchor="middle" x="4004" y="-99.8" font-family="Times,serif" font-size="14.00" fill="#000000">ImageOutsideComponent</text>
</g>
<!-- ImageOutsideComponent&#45;&gt;ShopModule -->
<g id="edge7" class="edge">
<title>ImageOutsideComponent&#45;&gt;ShopModule</title>
<path fill="none" stroke="#000000" d="M4004,-122.308C4004,-142.1455 4004,-171 4004,-171 4004,-171 2617.3089,-171 2617.3089,-171"/>
<polygon fill="#000000" stroke="#000000" points="2617.309,-167.5001 2607.3089,-171 2617.3089,-174.5001 2617.309,-167.5001"/>
</g>
<!-- ImageStickyComponent -->
<g id="node8" class="node">
<title>ImageStickyComponent</title>
<polygon fill="#ffffb3" stroke="#000000" points="3906.0912,-122 3753.9088,-122 3753.9088,-86 3906.0912,-86 3906.0912,-122"/>
<text text-anchor="middle" x="3830" y="-99.8" font-family="Times,serif" font-size="14.00" fill="#000000">ImageStickyComponent</text>
</g>
<!-- ImageStickyComponent&#45;&gt;ShopModule -->
<g id="edge8" class="edge">
<title>ImageStickyComponent&#45;&gt;ShopModule</title>
<path fill="none" stroke="#000000" d="M3830,-122.1686C3830,-141.0898 3830,-168 3830,-168 3830,-168 2617.3503,-168 2617.3503,-168"/>
<polygon fill="#000000" stroke="#000000" points="2617.3503,-164.5001 2607.3503,-168 2617.3503,-171.5001 2617.3503,-164.5001"/>
</g>
<!-- ImageSwatchComponent -->
<g id="node9" class="node">
<title>ImageSwatchComponent</title>
<polygon fill="#ffffb3" stroke="#000000" points="3735.5225,-122 3578.4775,-122 3578.4775,-86 3735.5225,-86 3735.5225,-122"/>
<text text-anchor="middle" x="3657" y="-99.8" font-family="Times,serif" font-size="14.00" fill="#000000">ImageSwatchComponent</text>
</g>
<!-- ImageSwatchComponent&#45;&gt;ShopModule -->
<g id="edge9" class="edge">
<title>ImageSwatchComponent&#45;&gt;ShopModule</title>
<path fill="none" stroke="#000000" d="M3657,-122.2667C3657,-140.5552 3657,-166 3657,-166 3657,-166 2617.2411,-166 2617.2411,-166"/>
<polygon fill="#000000" stroke="#000000" points="2617.2411,-162.5001 2607.2411,-166 2617.241,-169.5001 2617.2411,-162.5001"/>
</g>
<!-- LeftSidebarComponent -->
<g id="node10" class="node">
<title>LeftSidebarComponent</title>
<polygon fill="#ffffb3" stroke="#000000" points="3560.9144,-122 3413.0856,-122 3413.0856,-86 3560.9144,-86 3560.9144,-122"/>
<text text-anchor="middle" x="3487" y="-99.8" font-family="Times,serif" font-size="14.00" fill="#000000">LeftSidebarComponent</text>
</g>
<!-- LeftSidebarComponent&#45;&gt;ShopModule -->
<g id="edge10" class="edge">
<title>LeftSidebarComponent&#45;&gt;ShopModule</title>
<path fill="none" stroke="#000000" d="M3487,-122.0225C3487,-139.3734 3487,-163 3487,-163 3487,-163 2617.2551,-163 2617.2551,-163"/>
<polygon fill="#000000" stroke="#000000" points="2617.2552,-159.5001 2607.2551,-163 2617.2551,-166.5001 2617.2552,-159.5001"/>
</g>
<!-- LeftSidebarThreeGridComponent -->
<g id="node11" class="node">
<title>LeftSidebarThreeGridComponent</title>
<polygon fill="#ffffb3" stroke="#000000" points="3394.7142,-122 3189.2858,-122 3189.2858,-86 3394.7142,-86 3394.7142,-122"/>
<text text-anchor="middle" x="3292" y="-99.8" font-family="Times,serif" font-size="14.00" fill="#000000">LeftSidebarThreeGridComponent</text>
</g>
<!-- LeftSidebarThreeGridComponent&#45;&gt;ShopModule -->
<g id="edge11" class="edge">
<title>LeftSidebarThreeGridComponent&#45;&gt;ShopModule</title>
<path fill="none" stroke="#000000" d="M3292,-122.0352C3292,-138.7344 3292,-161 3292,-161 3292,-161 2617.2323,-161 2617.2323,-161"/>
<polygon fill="#000000" stroke="#000000" points="2617.2323,-157.5001 2607.2323,-161 2617.2323,-164.5001 2617.2323,-157.5001"/>
</g>
<!-- LeftSidebarTwoGridComponent -->
<g id="node12" class="node">
<title>LeftSidebarTwoGridComponent</title>
<polygon fill="#ffffb3" stroke="#000000" points="3171.231,-122 2972.769,-122 2972.769,-86 3171.231,-86 3171.231,-122"/>
<text text-anchor="middle" x="3072" y="-99.8" font-family="Times,serif" font-size="14.00" fill="#000000">LeftSidebarTwoGridComponent</text>
</g>
<!-- LeftSidebarTwoGridComponent&#45;&gt;ShopModule -->
<g id="edge12" class="edge">
<title>LeftSidebarTwoGridComponent&#45;&gt;ShopModule</title>
<path fill="none" stroke="#000000" d="M3072,-122.0091C3072,-138.0494 3072,-159 3072,-159 3072,-159 2617.28,-159 2617.28,-159"/>
<polygon fill="#000000" stroke="#000000" points="2617.28,-155.5001 2607.28,-159 2617.28,-162.5001 2617.28,-155.5001"/>
</g>
<!-- LoginComponent -->
<g id="node13" class="node">
<title>LoginComponent</title>
<polygon fill="#ffffb3" stroke="#000000" points="2954.2758,-122 2839.7242,-122 2839.7242,-86 2954.2758,-86 2954.2758,-122"/>
<text text-anchor="middle" x="2897" y="-99.8" font-family="Times,serif" font-size="14.00" fill="#000000">LoginComponent</text>
</g>
<!-- LoginComponent&#45;&gt;ShopModule -->
<g id="edge13" class="edge">
<title>LoginComponent&#45;&gt;ShopModule</title>
<path fill="none" stroke="#000000" d="M2897,-122.1871C2897,-137.1824 2897,-156 2897,-156 2897,-156 2617.3526,-156 2617.3526,-156"/>
<polygon fill="#000000" stroke="#000000" points="2617.3527,-152.5001 2607.3526,-156 2617.3526,-159.5001 2617.3527,-152.5001"/>
</g>
<!-- NoSidebarComponent -->
<g id="node14" class="node">
<title>NoSidebarComponent</title>
<polygon fill="#ffffb3" stroke="#000000" points="2821.7021,-122 2680.2979,-122 2680.2979,-86 2821.7021,-86 2821.7021,-122"/>
<text text-anchor="middle" x="2751" y="-99.8" font-family="Times,serif" font-size="14.00" fill="#000000">NoSidebarComponent</text>
</g>
<!-- NoSidebarComponent&#45;&gt;ShopModule -->
<g id="edge14" class="edge">
<title>NoSidebarComponent&#45;&gt;ShopModule</title>
<path fill="none" stroke="#000000" d="M2751,-122.0511C2751,-136.373 2751,-154 2751,-154 2751,-154 2617.5534,-154 2617.5534,-154"/>
<polygon fill="#000000" stroke="#000000" points="2617.5534,-150.5001 2607.5534,-154 2617.5533,-157.5001 2617.5534,-150.5001"/>
</g>
<!-- NoSidebarThreeGridComponent -->
<g id="node15" class="node">
<title>NoSidebarThreeGridComponent</title>
<polygon fill="#ffffb3" stroke="#000000" points="2662.5028,-122 2463.4972,-122 2463.4972,-86 2662.5028,-86 2662.5028,-122"/>
<text text-anchor="middle" x="2563" y="-99.8" font-family="Times,serif" font-size="14.00" fill="#000000">NoSidebarThreeGridComponent</text>
</g>
<!-- NoSidebarThreeGridComponent&#45;&gt;ShopModule -->
<g id="edge15" class="edge">
<title>NoSidebarThreeGridComponent&#45;&gt;ShopModule</title>
<path fill="none" stroke="#000000" d="M2563,-122.1061C2563,-122.1061 2563,-140.991 2563,-140.991"/>
<polygon fill="#000000" stroke="#000000" points="2559.5001,-140.9909 2563,-150.991 2566.5001,-140.991 2559.5001,-140.9909"/>
</g>
<!-- NoSidebarTwoGridComponent -->
<g id="node16" class="node">
<title>NoSidebarTwoGridComponent</title>
<polygon fill="#ffffb3" stroke="#000000" points="2445.0196,-122 2252.9804,-122 2252.9804,-86 2445.0196,-86 2445.0196,-122"/>
<text text-anchor="middle" x="2349" y="-99.8" font-family="Times,serif" font-size="14.00" fill="#000000">NoSidebarTwoGridComponent</text>
</g>
<!-- NoSidebarTwoGridComponent&#45;&gt;ShopModule -->
<g id="edge16" class="edge">
<title>NoSidebarTwoGridComponent&#45;&gt;ShopModule</title>
<path fill="none" stroke="#000000" d="M2349,-122.0511C2349,-136.373 2349,-154 2349,-154 2349,-154 2508.6591,-154 2508.6591,-154"/>
<polygon fill="#000000" stroke="#000000" points="2508.6591,-157.5001 2518.6591,-154 2508.659,-150.5001 2508.6591,-157.5001"/>
</g>
<!-- ProductLeftSidebarComponent -->
<g id="node17" class="node">
<title>ProductLeftSidebarComponent</title>
<polygon fill="#ffffb3" stroke="#000000" points="2234.4622,-122 2043.5378,-122 2043.5378,-86 2234.4622,-86 2234.4622,-122"/>
<text text-anchor="middle" x="2139" y="-99.8" font-family="Times,serif" font-size="14.00" fill="#000000">ProductLeftSidebarComponent</text>
</g>
<!-- ProductLeftSidebarComponent&#45;&gt;ShopModule -->
<g id="edge17" class="edge">
<title>ProductLeftSidebarComponent&#45;&gt;ShopModule</title>
<path fill="none" stroke="#000000" d="M2139,-122.1871C2139,-137.1824 2139,-156 2139,-156 2139,-156 2508.8245,-156 2508.8245,-156"/>
<polygon fill="#000000" stroke="#000000" points="2508.8245,-159.5001 2518.8245,-156 2508.8244,-152.5001 2508.8245,-159.5001"/>
</g>
<!-- ProductNoSidebarComponent -->
<g id="node18" class="node">
<title>ProductNoSidebarComponent</title>
<polygon fill="#ffffb3" stroke="#000000" points="2025.2506,-122 1840.7494,-122 1840.7494,-86 2025.2506,-86 2025.2506,-122"/>
<text text-anchor="middle" x="1933" y="-99.8" font-family="Times,serif" font-size="14.00" fill="#000000">ProductNoSidebarComponent</text>
</g>
<!-- ProductNoSidebarComponent&#45;&gt;ShopModule -->
<g id="edge18" class="edge">
<title>ProductNoSidebarComponent&#45;&gt;ShopModule</title>
<path fill="none" stroke="#000000" d="M1933,-122.0091C1933,-138.0494 1933,-159 1933,-159 1933,-159 2508.6996,-159 2508.6996,-159"/>
<polygon fill="#000000" stroke="#000000" points="2508.6997,-162.5001 2518.6996,-159 2508.6996,-155.5001 2508.6997,-162.5001"/>
</g>
<!-- ProductRightSidebarComponent -->
<g id="node19" class="node">
<title>ProductRightSidebarComponent</title>
<polygon fill="#ffffb3" stroke="#000000" points="1822.2617,-122 1623.7383,-122 1623.7383,-86 1822.2617,-86 1822.2617,-122"/>
<text text-anchor="middle" x="1723" y="-99.8" font-family="Times,serif" font-size="14.00" fill="#000000">ProductRightSidebarComponent</text>
</g>
<!-- ProductRightSidebarComponent&#45;&gt;ShopModule -->
<g id="edge19" class="edge">
<title>ProductRightSidebarComponent&#45;&gt;ShopModule</title>
<path fill="none" stroke="#000000" d="M1723,-122.0352C1723,-138.7344 1723,-161 1723,-161 1723,-161 2508.7263,-161 2508.7263,-161"/>
<polygon fill="#000000" stroke="#000000" points="2508.7263,-164.5001 2518.7263,-161 2508.7262,-157.5001 2508.7263,-164.5001"/>
</g>
<!-- RightSidebarComponent -->
<g id="node20" class="node">
<title>RightSidebarComponent</title>
<polygon fill="#ffffb3" stroke="#000000" points="1605.7133,-122 1450.2867,-122 1450.2867,-86 1605.7133,-86 1605.7133,-122"/>
<text text-anchor="middle" x="1528" y="-99.8" font-family="Times,serif" font-size="14.00" fill="#000000">RightSidebarComponent</text>
</g>
<!-- RightSidebarComponent&#45;&gt;ShopModule -->
<g id="edge20" class="edge">
<title>RightSidebarComponent&#45;&gt;ShopModule</title>
<path fill="none" stroke="#000000" d="M1528,-122.0225C1528,-139.3734 1528,-163 1528,-163 1528,-163 2508.5273,-163 2508.5273,-163"/>
<polygon fill="#000000" stroke="#000000" points="2508.5274,-166.5001 2518.5273,-163 2508.5273,-159.5001 2508.5274,-166.5001"/>
</g>
<!-- RightSidebarThreeGridComponent -->
<g id="node21" class="node">
<title>RightSidebarThreeGridComponent</title>
<polygon fill="#ffffb3" stroke="#000000" points="1432.514,-122 1219.486,-122 1219.486,-86 1432.514,-86 1432.514,-122"/>
<text text-anchor="middle" x="1326" y="-99.8" font-family="Times,serif" font-size="14.00" fill="#000000">RightSidebarThreeGridComponent</text>
</g>
<!-- RightSidebarThreeGridComponent&#45;&gt;ShopModule -->
<g id="edge21" class="edge">
<title>RightSidebarThreeGridComponent&#45;&gt;ShopModule</title>
<path fill="none" stroke="#000000" d="M1326,-122.2667C1326,-140.5552 1326,-166 1326,-166 1326,-166 2508.6098,-166 2508.6098,-166"/>
<polygon fill="#000000" stroke="#000000" points="2508.6098,-169.5001 2518.6098,-166 2508.6098,-162.5001 2508.6098,-169.5001"/>
</g>
<!-- RightSidebarTwoGridComponent -->
<g id="node22" class="node">
<title>RightSidebarTwoGridComponent</title>
<polygon fill="#ffffb3" stroke="#000000" points="1201.0307,-122 994.9693,-122 994.9693,-86 1201.0307,-86 1201.0307,-122"/>
<text text-anchor="middle" x="1098" y="-99.8" font-family="Times,serif" font-size="14.00" fill="#000000">RightSidebarTwoGridComponent</text>
</g>
<!-- RightSidebarTwoGridComponent&#45;&gt;ShopModule -->
<g id="edge22" class="edge">
<title>RightSidebarTwoGridComponent&#45;&gt;ShopModule</title>
<path fill="none" stroke="#000000" d="M1098,-122.1686C1098,-141.0898 1098,-168 1098,-168 1098,-168 2508.7563,-168 2508.7563,-168"/>
<polygon fill="#000000" stroke="#000000" points="2508.7564,-171.5001 2518.7563,-168 2508.7563,-164.5001 2508.7564,-171.5001"/>
</g>
<!-- ShopComponent -->
<g id="node23" class="node">
<title>ShopComponent</title>
<polygon fill="#ffffb3" stroke="#000000" points="977.1151,-122 866.8849,-122 866.8849,-86 977.1151,-86 977.1151,-122"/>
<text text-anchor="middle" x="922" y="-99.8" font-family="Times,serif" font-size="14.00" fill="#000000">ShopComponent</text>
</g>
<!-- ShopComponent&#45;&gt;ShopModule -->
<g id="edge23" class="edge">
<title>ShopComponent&#45;&gt;ShopModule</title>
<path fill="none" stroke="#000000" d="M922,-122.308C922,-142.1455 922,-171 922,-171 922,-171 2508.6826,-171 2508.6826,-171"/>
<polygon fill="#000000" stroke="#000000" points="2508.6827,-174.5001 2518.6826,-171 2508.6826,-167.5001 2508.6827,-174.5001"/>
</g>
<!-- SignUpComponent -->
<g id="node24" class="node">
<title>SignUpComponent</title>
<polygon fill="#ffffb3" stroke="#000000" points="849.1123,-122 724.8877,-122 724.8877,-86 849.1123,-86 849.1123,-122"/>
<text text-anchor="middle" x="787" y="-99.8" font-family="Times,serif" font-size="14.00" fill="#000000">SignUpComponent</text>
</g>
<!-- SignUpComponent&#45;&gt;ShopModule -->
<g id="edge24" class="edge">
<title>SignUpComponent&#45;&gt;ShopModule</title>
<path fill="none" stroke="#000000" d="M787,-122.1289C787,-142.5724 787,-173 787,-173 787,-173 2508.6555,-173 2508.6555,-173"/>
<polygon fill="#000000" stroke="#000000" points="2508.6556,-176.5001 2518.6555,-173 2508.6555,-169.5001 2508.6556,-176.5001"/>
</g>
<!-- ThreeGridComponent -->
<g id="node25" class="node">
<title>ThreeGridComponent</title>
<polygon fill="#ffffb3" stroke="#000000" points="706.6331,-122 567.3669,-122 567.3669,-86 706.6331,-86 706.6331,-122"/>
<text text-anchor="middle" x="637" y="-99.8" font-family="Times,serif" font-size="14.00" fill="#000000">ThreeGridComponent</text>
</g>
<!-- ThreeGridComponent&#45;&gt;ShopModule -->
<g id="edge25" class="edge">
<title>ThreeGridComponent&#45;&gt;ShopModule</title>
<path fill="none" stroke="#000000" d="M637,-122.2843C637,-143.3211 637,-175 637,-175 637,-175 2508.6915,-175 2508.6915,-175"/>
<polygon fill="#000000" stroke="#000000" points="2508.6916,-178.5001 2518.6915,-175 2508.6915,-171.5001 2508.6916,-178.5001"/>
</g>
<!-- WishlistComponent -->
<g id="node26" class="node">
<title>WishlistComponent</title>
<polygon fill="#ffffb3" stroke="#000000" points="548.9986,-122 421.0014,-122 421.0014,-86 548.9986,-86 548.9986,-122"/>
<text text-anchor="middle" x="485" y="-99.8" font-family="Times,serif" font-size="14.00" fill="#000000">WishlistComponent</text>
</g>
<!-- WishlistComponent&#45;&gt;ShopModule -->
<g id="edge26" class="edge">
<title>WishlistComponent&#45;&gt;ShopModule</title>
<path fill="none" stroke="#000000" d="M485,-122.2921C485,-144.2057 485,-178 485,-178 485,-178 2508.6367,-178 2508.6367,-178"/>
<polygon fill="#000000" stroke="#000000" points="2508.6367,-181.5001 2518.6367,-178 2508.6366,-174.5001 2508.6367,-181.5001"/>
</g>
<!-- LayoutsModule -->
<g id="node28" class="node">
<title>LayoutsModule</title>
<polygon fill="#8dd3c7" stroke="#000000" points="397.1528,-122 394.1528,-126 373.1528,-126 370.1528,-122 292.8472,-122 292.8472,-86 397.1528,-86 397.1528,-122"/>
<text text-anchor="middle" x="345" y="-99.8" font-family="Times,serif" font-size="14.00" fill="#000000">LayoutsModule</text>
</g>
<!-- LayoutsModule&#45;&gt;ShopModule -->
<g id="edge27" class="edge">
<title>LayoutsModule&#45;&gt;ShopModule</title>
<path fill="none" stroke="#000000" d="M345,-122.0109C345,-144.4852 345,-180 345,-180 345,-180 2508.6946,-180 2508.6946,-180"/>
<polygon fill="#000000" stroke="#000000" points="2508.6946,-183.5001 2518.6946,-180 2508.6946,-176.5001 2508.6946,-183.5001"/>
</g>
<!-- SharedModule -->
<g id="node29" class="node">
<title>SharedModule</title>
<polygon fill="#8dd3c7" stroke="#000000" points="274.4231,-122 271.4231,-126 250.4231,-126 247.4231,-122 175.5769,-122 175.5769,-86 274.4231,-86 274.4231,-122"/>
<text text-anchor="middle" x="225" y="-99.8" font-family="Times,serif" font-size="14.00" fill="#000000">SharedModule</text>
</g>
<!-- SharedModule&#45;&gt;ShopModule -->
<g id="edge28" class="edge">
<title>SharedModule&#45;&gt;ShopModule</title>
<path fill="none" stroke="#000000" d="M225,-122.3228C225,-145.6602 225,-183 225,-183 225,-183 2508.6406,-183 2508.6406,-183"/>
<polygon fill="#000000" stroke="#000000" points="2508.6406,-186.5001 2518.6406,-183 2508.6406,-179.5001 2508.6406,-186.5001"/>
</g>
<!-- ShopRoutingModule -->
<g id="node30" class="node">
<title>ShopRoutingModule</title>
<polygon fill="#8dd3c7" stroke="#000000" points="157.951,-122 154.951,-126 133.951,-126 130.951,-122 24.049,-122 24.049,-86 157.951,-86 157.951,-122"/>
<text text-anchor="middle" x="91" y="-99.8" font-family="Times,serif" font-size="14.00" fill="#000000">ShopRoutingModule</text>
</g>
<!-- ShopRoutingModule&#45;&gt;ShopModule -->
<g id="edge29" class="edge">
<title>ShopRoutingModule&#45;&gt;ShopModule</title>
<path fill="none" stroke="#000000" d="M91,-122.3802C91,-146.2785 91,-185 91,-185 91,-185 2508.7805,-185 2508.7805,-185"/>
<polygon fill="#000000" stroke="#000000" points="2508.7805,-188.5001 2518.7805,-185 2508.7805,-181.5001 2508.7805,-188.5001"/>
</g>
</g>
</svg>
