<svg width="16" height="16" viewBox="0 0 16 16" fill="none" xmlns="http://www.w3.org/2000/svg">
  <path d="M8 0C3.5887 0 0 3.5887 0 8C0 12.411 3.5887 16 8 16C12.4113 16 16 12.411 16 8C16 3.5887 12.4113 0 8 0ZM8 14.6667C4.32406 14.6667 1.33333 11.6759 1.33333 8C1.33333 4.32406 4.32406 1.33333 8 1.33333C11.6759 1.33333 14.6667 4.32406 14.6667 8C14.6667 11.6759 11.6759 14.6667 8 14.6667Z" fill="white"/>
  <path d="M8.00033 6.00004C8.53467 6.00004 9.03662 6.20805 9.41439 6.58565L9.88607 7.05733L10.8289 6.1143L10.3576 5.64311C9.88802 5.17371 9.30339 4.86202 8.66699 4.73344V3.33337H7.33366V4.73344C6.69727 4.86169 6.11263 5.17338 5.64339 5.64278C5.01367 6.27234 4.66699 7.10974 4.66699 8.00004C4.66699 8.89034 5.01367 9.72774 5.64339 10.357C6.12305 10.8366 6.71403 11.1381 7.33366 11.2637V12.6667H8.66699V11.2637C9.28662 11.1381 9.8776 10.8366 10.3573 10.357L10.8289 9.88578L9.88607 8.94307L9.41471 9.41443C8.6346 10.1944 7.36605 10.1937 6.58626 9.41443C6.20833 9.03634 6.00033 8.53438 6.00033 8.00004C6.00033 7.4657 6.20833 6.96375 6.58626 6.58565C6.96403 6.20805 7.46598 6.00004 8.00033 6.00004Z" fill="white"/>
</svg>
