<svg width="17" height="18" viewBox="0 0 17 18" fill="none" xmlns="http://www.w3.org/2000/svg">
<path d="M11.9761 14.4627H2.48657C1.11642 14.4627 -1.90735e-06 13.3463 -1.90735e-06 11.9761V2.48658C-1.90735e-06 1.11643 1.11642 1.23978e-05 2.48657 1.23978e-05H11.9761C13.3463 1.23978e-05 14.4627 1.11643 14.4627 2.48658V11.9761C14.4627 13.3463 13.3463 14.4627 11.9761 14.4627Z" fill="white"/>
<path d="M15.2239 2.63879V4.38954C15.3761 4.56715 15.4776 4.79551 15.4776 5.04924V14.5388C15.4776 15.0716 15.0463 15.503 14.5134 15.503H5.0239C4.77017 15.503 4.54181 15.4015 4.3642 15.2492H2.61345C2.91793 16.2642 3.88211 17.0254 4.99852 17.0254H14.4881C15.8582 17.0254 16.9746 15.9089 16.9746 14.5388V5.02387C17 3.90745 16.2642 2.94327 15.2239 2.63879Z" fill="white"/>
</svg>
