<svg width="25" height="25" viewBox="0 0 25 25" fill="none" xmlns="http://www.w3.org/2000/svg">
<g clip-path="url(#clip0)">
<path d="M24.9865 0.907389C24.9751 0.817617 24.9552 0.73115 24.9224 0.650024C24.9214 0.64799 24.9214 0.645192 24.9209 0.642649C24.9209 0.642141 24.9204 0.641632 24.9199 0.641123C24.8838 0.555674 24.8344 0.478109 24.7787 0.406138C24.765 0.389099 24.7515 0.372314 24.737 0.356293C24.6775 0.289154 24.6129 0.227102 24.5379 0.176493C24.5359 0.174967 24.5333 0.174459 24.5313 0.172933C24.4588 0.125122 24.3787 0.0890096 24.2948 0.0605266C24.2739 0.0531514 24.2536 0.0467936 24.2322 0.0411987C24.1442 0.0172933 24.0537 0 23.9583 0H16.6667C16.0917 0 15.625 0.466665 15.625 1.04167C15.625 1.61667 16.0917 2.08333 16.6667 2.08333H21.4432L15.226 8.30053C13.5681 6.97454 11.527 6.25 9.375 6.25C4.20583 6.25 0 10.4558 0 15.625C0 20.7942 4.20583 25 9.375 25C14.5442 25 18.75 20.7942 18.75 15.625C18.75 13.474 18.026 11.4334 16.699 9.77402L22.9167 3.55631V8.33333C22.9167 8.90833 23.3833 9.375 23.9583 9.375C24.5333 9.375 25 8.90833 25 8.33333V1.04167C25 1.0198 24.9949 0.998942 24.9936 0.97758C24.9921 0.953674 24.9896 0.930786 24.9865 0.907389ZM9.375 22.9167C5.35405 22.9167 2.08333 19.6459 2.08333 15.625C2.08333 11.6041 5.35405 8.33333 9.375 8.33333C11.3218 8.33333 13.1546 9.09119 14.5327 10.4645C15.9088 11.8454 16.6667 13.6782 16.6667 15.625C16.6667 19.6459 13.3959 22.9167 9.375 22.9167Z" fill="#F6528E"/>
</g>
<defs>
<clipPath id="clip0">
<rect width="25" height="25" fill="white"/>
</clipPath>
</defs>
</svg>
