<svg width="13" height="20" viewBox="0 0 13 20" fill="none" xmlns="http://www.w3.org/2000/svg">
<path d="M12.6411 5.14091C12.5602 4.73249 12.4391 4.33305 12.2795 3.94849C12.1195 3.56221 11.9217 3.1927 11.689 2.84533C11.221 2.14463 10.6199 1.54276 9.91981 1.07385C9.22719 0.608614 8.44936 0.284989 7.63109 0.121746C6.80589 -0.0405819 5.957 -0.0405819 5.1318 0.121746C4.31353 0.284932 3.53565 0.608557 2.84308 1.07385C2.14325 1.54207 1.54211 2.1432 1.0739 2.84304C0.608657 3.53566 0.285089 4.31348 0.121789 5.13176C-0.0405962 5.95696 -0.0405962 6.80585 0.121789 7.63104C0.284975 8.44932 0.6086 9.2272 1.0739 9.91977C1.69271 10.8449 2.54131 11.5934 3.53656 12.0918C4.1401 12.4006 4.78912 12.6107 5.45909 12.7143C5.59269 12.7264 5.6934 12.8411 5.68796 12.9752V14.7833C5.68796 14.9223 5.57524 15.0351 5.4362 15.0351H2.76755C2.58743 15.0358 2.4148 15.1073 2.28692 15.2342C2.03035 15.4942 2.02229 15.9096 2.26861 16.1794L2.28234 16.1909C2.34809 16.2544 2.4259 16.3043 2.51121 16.3373C2.59321 16.3714 2.68104 16.3894 2.76984 16.39H5.44307C5.50996 16.3897 5.57416 16.4161 5.62159 16.4632C5.66513 16.5106 5.68888 16.5729 5.68796 16.6372V19.3127C5.68762 19.4021 5.70473 19.4907 5.73831 19.5736C5.77104 19.6591 5.82094 19.737 5.88479 19.8025C5.95031 19.8664 6.02818 19.9163 6.11366 19.9489C6.28017 20.017 6.4667 20.017 6.6332 19.9489C6.71869 19.9162 6.79656 19.8663 6.86208 19.8025C6.92593 19.737 6.97583 19.6591 7.00855 19.5736C7.04214 19.4907 7.05925 19.4021 7.05891 19.3127V16.6372C7.05862 16.5703 7.085 16.5061 7.13215 16.4586C7.17958 16.4115 7.24378 16.3851 7.31067 16.3854H9.98161C10.071 16.3858 10.1597 16.3686 10.2425 16.3351C10.328 16.3023 10.4059 16.2525 10.4714 16.1886C10.5352 16.1231 10.5851 16.0452 10.6179 15.9597C10.6859 15.7932 10.6859 15.6067 10.6179 15.4402C10.6 15.3968 10.5778 15.3554 10.5515 15.3166L10.4622 15.2273C10.3344 15.1005 10.1617 15.0289 9.98161 15.0282H7.30609C7.2392 15.0285 7.175 15.0021 7.12757 14.955C7.08042 14.9075 7.05404 14.8433 7.05433 14.7764V13.0919V12.9752C7.05444 12.9146 7.07636 12.8561 7.11612 12.8104C7.15566 12.7654 7.21013 12.7362 7.26947 12.728C7.94888 12.632 8.6082 12.4264 9.22175 12.1192C10.6035 11.4287 11.6894 10.2624 12.2795 8.83491C12.4392 8.44961 12.5603 8.04942 12.6411 7.6402C12.8035 6.815 12.8035 5.96606 12.6411 5.14091ZM11.3068 7.37242V7.38157C10.7459 10.1169 8.07373 11.8796 5.33842 11.3187C2.60311 10.7578 0.84039 8.08564 1.4013 5.35033C1.96221 2.61502 4.63435 0.852306 7.36966 1.41321C9.73139 1.89751 11.4226 3.98202 11.4098 6.39284C11.4076 6.72191 11.3731 7.05005 11.3068 7.37242Z" fill="white"/>
</svg>
