<svg width="10" height="10" fill="none" xmlns="http://www.w3.org/2000/svg"><g clip-path="url(#clip0)" fill="#fff"><path d="M7.292.417H.208A.208.208 0 000 .625v6.25c0 .007.003.014.004.021a.191.191 0 00.024.077.2.2 0 00.052.062l.015.015c.005.003.011.003.016.006a.209.209 0 00.08.024c.007 0 .012.003.017.003h7.084a.21.21 0 00.087-.02c.002-.001.004 0 .006-.002.01-.004.015-.012.023-.018.013-.009.025-.016.036-.028a.158.158 0 00.022-.033.218.218 0 00.02-.034c.005-.014.006-.03.008-.044.001-.01.006-.019.006-.029V.625a.208.208 0 00-.208-.208zm-.209 5.575L5.186 2.2a.207.207 0 00-.367-.01L3.288 4.87 2.23 3.81a.21.21 0 00-.323.035L.417 6.166V.833h6.666v5.16z"/><path d="M2.292 3.333a1.042 1.042 0 100-2.083 1.042 1.042 0 000 2.083zm7.5 0h-.417a.208.208 0 00-.208.209v4.583c0 .345-.28.625-.625.625H2.708a.208.208 0 00-.208.208v.417c0 .115.093.208.208.208h7.084A.208.208 0 0010 9.375V3.542a.208.208 0 00-.208-.209z"/><path d="M8.542 1.667h-.417a.208.208 0 00-.208.208v5c0 .345-.28.625-.625.625H1.458a.208.208 0 00-.208.208v.417c0 .115.093.208.208.208h7.084a.208.208 0 00.208-.208v-6.25a.208.208 0 00-.208-.208z"/></g><defs><clipPath id="clip0"/></defs></svg>