<svg width="8" height="12" viewBox="0 0 8 12" fill="none" xmlns="http://www.w3.org/2000/svg">
<path d="M7.811 2.89031C7.76967 2.73539 7.68573 2.57032 7.62363 2.42579C6.88055 0.639994 5.25694 0 3.94596 0C2.19097 0 0.25806 1.1768 0 3.60245V4.09802C0 4.1187 0.00712784 4.30449 0.0172526 4.39742C0.161915 5.55343 1.07409 6.78201 1.75534 7.93801C2.48826 9.17656 3.24878 10.3949 4.00225 11.6128C4.46686 10.818 4.92979 10.0128 5.38381 9.23865C5.50755 9.01145 5.65119 8.78439 5.77506 8.56753C5.85763 8.42314 6.01536 8.27874 6.08742 8.1444C6.82032 6.80255 8 5.45034 8 4.11868V3.57162C8.00003 3.42725 7.82107 2.92144 7.811 2.89031ZM3.97809 5.37809C3.46221 5.37809 2.89755 5.12014 2.61883 4.40776C2.57731 4.29436 2.58066 4.06711 2.58066 4.04629V3.7263C2.58066 2.81814 3.35176 2.40516 4.02258 2.40516C4.84844 2.40516 5.48717 3.06589 5.48717 3.89175C5.48717 4.71758 4.80395 5.37809 3.97809 5.37809Z" fill="#3B3B3D"/>
</svg>
