<svg width="18" height="18" viewBox="0 0 18 18" fill="none" xmlns="http://www.w3.org/2000/svg">
<rect width="18" height="18" rx="5" fill="black" fill-opacity="0.5"/>
<path d="M9.70751 9.00008L12.8534 5.85405C13.0489 5.65876 13.0489 5.34189 12.8534 5.14659C12.658 4.95114 12.3414 4.95114 12.146 5.14659L9.00008 8.29263L5.85402 5.14659C5.65856 4.95114 5.34204 4.95114 5.14659 5.14659C4.95114 5.34189 4.95114 5.65876 5.14659 5.85405L8.29266 9.00008L5.14659 12.1461C4.95114 12.3414 4.95114 12.6583 5.14659 12.8536C5.24431 12.9511 5.37239 13 5.5003 13C5.62821 13 5.75629 12.9511 5.85402 12.8534L9.00008 9.70737L12.146 12.8534C12.2437 12.9511 12.3718 13 12.4997 13C12.6276 13 12.7557 12.9511 12.8534 12.8534C13.0489 12.6581 13.0489 12.3412 12.8534 12.1459L9.70751 9.00008Z" fill="white"/>
</svg>
