<svg width="17" height="20" viewBox="0 0 17 20" fill="none" xmlns="http://www.w3.org/2000/svg">
<g clip-path="url(#clip0)">
<path d="M16.8217 5.125C16.8217 4.625 16.8217 4.125 16.8217 3.625C16.8217 3.225 16.5217 2.925 16.1217 2.925C13.1217 2.925 10.8217 2.025 8.92169 0.225C8.62169 -0.075 8.22169 -0.075 7.92169 0.225C6.02169 2.025 3.82169 2.925 0.821693 2.925C0.421693 2.925 0.021693 3.225 0.021693 3.625C0.021693 4.125 0.021693 4.625 0.021693 5.125C-0.078307 10.125 -0.178307 17.025 8.22169 19.925H8.42169H8.62169C17.0217 17.125 16.9217 10.225 16.8217 5.125Z" fill="#FF3A43"/>
<path d="M9.11907 10.5001L11.8717 7.7473C12.0428 7.57641 12.0428 7.29915 11.8717 7.12827C11.7007 6.95724 11.4238 6.95724 11.2527 7.12827L8.50007 9.88105L5.74726 7.12827C5.57624 6.95724 5.29929 6.95724 5.12827 7.12827C4.95725 7.29915 4.95725 7.57641 5.12827 7.7473L7.88107 10.5001L5.12827 13.2529C4.95725 13.4237 4.95725 13.701 5.12827 13.8719C5.21378 13.9572 5.32584 14 5.43776 14C5.54969 14 5.66175 13.9572 5.74726 13.8717L8.50007 11.119L11.2527 13.8717C11.3382 13.9572 11.4503 14 11.5622 14C11.6742 14 11.7862 13.9572 11.8717 13.8717C12.0428 13.7008 12.0428 13.4236 11.8717 13.2527L9.11907 10.5001Z" fill="white"/>
</g>
<defs>
<clipPath id="clip0">
<path d="M0 0H16.8V20H0V0Z" fill="white"/>
</clipPath>
</defs>
</svg>
