<svg width="14" height="17" viewBox="0 0 14 17" fill="none" xmlns="http://www.w3.org/2000/svg">
<path d="M12.1692 3.26837C11.6308 3.26837 9.58462 3.26837 7.43077 3.26837L10.1231 0.921706C10.2308 0.815039 10.2308 0.601706 10.1231 0.495039C9.90769 0.388372 9.69231 0.388372 9.47692 0.495039L6.56923 3.05504L4.41538 1.24171C4.30769 1.02837 4.09231 1.02837 3.98462 1.13504C3.87692 1.24171 3.87692 1.45504 3.98462 1.56171L5.81538 3.16171C4.09231 3.16171 2.58462 3.16171 2.04615 3.16171C0.753846 3.26837 0 3.90837 0 4.97504C0 6.04171 0 7.10837 0 8.06837C0 9.56171 0 12.8328 0 14.2195C0 15.2862 0.753846 16.0328 1.83077 16.0328C5.27692 16.0328 8.61538 16.0328 12.0615 16.0328C13.1385 16.0328 14 15.2862 14 14.3262C14 11.7662 14 7.42837 14 4.76171C14 3.90837 13.1385 3.26837 12.1692 3.26837ZM10.5538 8.42393C9.8 8.95726 9.04615 9.59726 8.29231 10.1306C7.96923 10.4506 7.64615 10.6639 7.32308 10.8773C7.21538 10.9839 7 11.0906 6.89231 10.9839C6.78462 10.9839 6.67692 10.7706 6.67692 10.6639C6.67692 10.2373 6.67692 9.81059 6.67692 9.38393C6.24615 9.70393 6.03077 9.91726 5.70769 10.1306C5.16923 10.5573 4.63077 10.9839 4.09231 11.4106C4.09231 11.4106 3.98462 11.5173 3.87692 11.5173C3.66154 11.6239 3.55385 11.6239 3.33846 11.5173C3.23077 11.4106 3.23077 11.3039 3.44615 11.0906C4.52308 10.2373 5.70769 9.27726 6.78462 8.42393C6.89231 8.31726 7.10769 8.31726 7.10769 8.31726C7.21538 8.31726 7.32308 8.53059 7.32308 8.63726C7.32308 9.06393 7.32308 9.49059 7.32308 10.0239C7.43077 10.0239 7.53846 9.91726 7.64615 9.91726C8.50769 9.27726 9.26154 8.63726 10.1231 7.99726C10.2308 7.8906 10.4462 7.78393 10.6615 7.89059C10.7692 7.99726 10.7692 8.21059 10.5538 8.42393Z" fill="white"/>
</svg>
