<svg width="30" height="30" viewBox="0 0 30 30" fill="none" xmlns="http://www.w3.org/2000/svg">
<path d="M28.6253 8.91395C27.9539 9.55283 27.252 10.1917 26.5806 10.8002C26.428 10.9219 26.3975 11.0436 26.4585 11.2261C26.7332 12.2909 26.9163 13.3557 26.9773 14.4509C27.1299 17.5237 26.1838 20.2617 24.2001 22.6043C22.2164 25.0077 19.6223 26.4376 16.5094 26.8331C13.9458 27.2286 11.5043 26.7723 9.24595 25.5249C6.5603 24.0342 4.69866 21.8437 3.66102 18.9536C2.62339 16.0634 2.74546 13.1732 3.96621 10.3438C5.00385 7.94041 6.68238 6.05418 8.94076 4.71557C11.3823 3.28569 14.0069 2.7685 16.8146 3.25527C17.547 3.37696 18.2795 3.58992 18.9814 3.77246C19.7749 3.01188 20.5684 2.28173 21.3314 1.52115C15.1361 -1.36904 7.07912 0.121692 2.59287 6.66265C-1.61871 12.7777 -0.611596 21.1136 4.97333 26.1334C10.5583 31.1532 18.8593 31.2749 24.5663 26.5593C30.7311 21.3874 30.9753 13.4774 28.6253 8.91395ZM13.3965 9.27903C14.2815 9.03564 15.1971 9.00522 16.1127 9.18776C16.3568 9.2486 16.5399 9.18776 16.723 8.9748C17.3334 8.36633 17.9438 7.75787 18.5542 7.14941C18.6457 7.05814 18.7068 6.96688 18.7983 6.84518C18.31 6.69307 17.8827 6.54095 17.4555 6.41926C15.6854 5.93249 13.9153 5.93249 12.1452 6.54095C9.94788 7.27111 8.26935 8.67057 7.14016 10.6481C6.01097 12.6256 5.70578 14.7552 6.19408 16.9761C6.68238 19.2274 7.90313 21.0527 9.8258 22.3914C11.9621 23.8821 14.3426 24.3689 16.8756 23.8212C19.4392 23.2736 21.4229 21.8437 22.7352 19.562C24.2306 16.9761 24.4138 14.2684 23.1625 11.4999C23.0709 11.2869 22.9794 11.2565 22.8268 11.4391C22.2164 12.1084 21.5755 12.7777 20.9651 13.447C20.9041 13.5078 20.8736 13.6599 20.8736 13.7512C20.9041 14.1771 20.9651 14.5726 20.9651 14.9986C20.9957 18.1321 18.5236 20.8094 15.4718 20.9919C12.2978 21.2049 9.64269 19.1057 9.06284 15.9721C8.54402 13.0515 10.5277 10.0092 13.3965 9.27903ZM20.3548 4.47219C20.2632 5.44572 20.2022 6.44968 20.0801 7.42322C20.0496 7.57534 19.9885 7.75787 19.8665 7.87957C18.5847 9.15733 17.3029 10.4351 16.0211 11.7433C15.8075 11.9867 15.5633 12.0779 15.2581 12.0475C14.3731 11.9867 13.6101 12.2605 12.9387 12.8385C11.6569 13.9642 11.6569 16.0938 12.9387 17.2194C14.3426 18.4364 16.2347 18.2842 17.3944 16.7935C17.9133 16.1242 18.1269 15.3332 17.9133 14.5118C17.8827 14.3292 17.8827 14.238 18.0048 14.1467C19.3476 12.8081 20.6905 11.4695 22.0333 10.1613C22.1248 10.07 22.2774 10.0092 22.3995 9.97876C23.3761 9.88749 24.3832 9.79622 25.3598 9.70495C25.5124 9.70495 25.665 9.6441 25.7566 9.52241C27.0994 8.1838 28.4422 6.84518 29.785 5.53699C29.8156 5.50657 29.8461 5.44572 29.9071 5.35445C29.7545 5.35445 29.663 5.35445 29.5409 5.35445C28.4117 5.35445 27.313 5.35445 26.1838 5.35445C26.0312 5.35445 25.8481 5.26319 25.7261 5.17192C25.3904 4.86769 25.0852 4.53303 24.7495 4.19838C24.5969 4.07669 24.5663 3.92457 24.5663 3.74203C24.5663 2.52511 24.5663 1.30819 24.5663 0C24.4748 0.0608461 24.4443 0.0912691 24.4138 0.121692C23.1014 1.46031 21.7891 2.82934 20.4768 4.16796C20.4463 4.2288 20.3853 4.35049 20.3548 4.47219Z" fill="#2E99E9"/>
</svg>
