<svg width="18" height="18" viewBox="0 0 18 18" fill="none" xmlns="http://www.w3.org/2000/svg">
<path d="M15.75 2.25H14.0625V0.5625C14.0625 0.252 13.8105 0 13.5 0H3.375C2.44462 0 1.6875 0.757125 1.6875 1.6875V15.75C1.6875 16.9909 2.69662 18 3.9375 18H15.75C16.0605 18 16.3125 17.748 16.3125 17.4375V2.8125C16.3125 2.502 16.0605 2.25 15.75 2.25ZM12.9375 14.0625C12.9375 14.373 12.6855 14.625 12.375 14.625H5.625C5.3145 14.625 5.0625 14.373 5.0625 14.0625V12.9375C5.0625 11.3861 6.32475 10.125 7.875 10.125H10.125C11.6764 10.125 12.9375 11.3861 12.9375 12.9375V14.0625ZM6.75 6.75C6.75 5.50912 7.75912 4.5 9 4.5C10.2409 4.5 11.25 5.50912 11.25 6.75C11.25 7.99088 10.2409 9 9 9C7.75912 9 6.75 7.99088 6.75 6.75ZM12.9375 2.25H3.375C3.0645 2.25 2.8125 1.998 2.8125 1.6875C2.8125 1.377 3.0645 1.125 3.375 1.125H12.9375V2.25Z" fill="#29333F"/>
</svg>
