<svg width="40" height="40" viewBox="0 0 40 40" fill="none" xmlns="http://www.w3.org/2000/svg">
<path d="M20 40C31.0457 40 40 31.0457 40 20C40 8.95431 31.0457 0 20 0C8.95431 0 0 8.95431 0 20C0 31.0457 8.95431 40 20 40Z" fill="#FAFAFA"/>
<path d="M25.615 19.36L21.7381 22.08V19.2L15.3842 24.0533C15.0073 24.32 14.9534 24.8 15.2227 25.1733C15.3842 25.3867 15.5996 25.4933 15.8688 25.4933C16.0304 25.4933 16.1919 25.44 16.3534 25.3333L20.1227 22.4533V25.1733L26.5304 20.64C26.9073 20.3733 26.9611 19.8933 26.6919 19.52C26.4765 19.2 25.9919 19.0933 25.615 19.36ZM29.5457 12.2133H22.3304L25.6688 9.38667C25.9919 9.12 26.0457 8.58667 25.7765 8.26667C25.615 8.10667 25.3457 8 25.1304 8C24.9688 8 24.7534 8.05333 24.5919 8.21333L20.1765 11.9467C20.1227 12 20.0688 12.0533 20.0688 12.1067C20.0688 12.0533 20.015 12.0533 20.015 12L17.5381 9.12C17.3765 8.96 17.1611 8.85333 16.9457 8.85333C16.7842 8.85333 16.5688 8.90667 16.4073 9.06667C16.0304 9.33333 15.9765 9.81333 16.2996 10.1333L18.0765 12.2133H12.2611C11.0765 12.2133 10.1611 13.1733 10.1611 14.2933V29.92C10.1611 31.0933 11.1304 32 12.2611 32H29.5457C30.7304 32 31.6457 31.04 31.6457 29.92V14.3467C31.6457 13.1733 30.6765 12.2133 29.5457 12.2133ZM30.0304 29.9733C30.0304 30.24 29.815 30.4533 29.5457 30.4533H12.2611C11.9919 30.4533 11.7765 30.24 11.7765 29.9733V14.3467C11.7765 14.08 11.9919 13.8667 12.2611 13.8667H29.5457C29.815 13.8667 30.0304 14.08 30.0304 14.3467V29.9733Z" fill="#28263C"/>
</svg>
