<svg width="40" height="40" viewBox="0 0 40 40" fill="none" xmlns="http://www.w3.org/2000/svg">
<path d="M20 40C31.0457 40 40 31.0457 40 20C40 8.95431 31.0457 0 20 0C8.95431 0 0 8.95431 0 20C0 31.0457 8.95431 40 20 40Z" fill="#FAFAFA"/>
<g clip-path="url(#clip0)">
<path d="M30.6792 12.6048C30.4799 12.4715 30.2338 12.4664 30.03 12.5916L25.7503 15.259V13.25C25.7503 12.8355 25.4568 12.5 25.094 12.5H16.7217L18.0342 14H24.4378V16.5224C24.4378 16.7868 24.5601 17.0322 24.7588 17.1677C24.9588 17.3039 25.2055 17.3076 25.408 17.1809L29.6878 14.5135V25.4866L26.1622 23.2892L29.4506 27.0474L30.03 27.4085C30.128 27.4692 30.2357 27.5 30.344 27.5C30.46 27.5 30.576 27.4649 30.6792 27.3953C30.8778 27.2598 31.0003 27.0144 31.0003 26.75V13.25C31.0002 12.9856 30.8778 12.7402 30.6792 12.6048Z" fill="#28263C"/>
<path d="M10.002 9.06061L13.0115 12.5H11.9707C10.8851 12.5 10.002 13.5093 10.002 14.75V25.25C10.002 26.4908 10.8851 27.5 11.9707 27.5H25.0957C25.3781 27.5 25.6137 27.2942 25.7063 27.0085L30.0739 32L31.0019 30.9395L10.9299 8L10.002 9.06061ZM24.4394 26H11.9707C11.6086 26 11.3145 25.6639 11.3145 25.25V14.75C11.3145 14.3362 11.6086 14 11.9707 14H14.324L24.4394 25.5606V26Z" fill="#28263C"/>
</g>
<defs>
<clipPath id="clip0">
<path d="M10 8H31V32H10V8Z" fill="white"/>
</clipPath>
</defs>
</svg>
