<svg width="32" height="24" viewBox="0 0 32 24" fill="none" xmlns="http://www.w3.org/2000/svg">
  <mask id="mask0" mask-type="alpha" maskUnits="userSpaceOnUse" x="2" y="2" width="28" height="20">
    <rect x="2" y="2" width="28" height="20" rx="2" fill="white"/>
  </mask>
  <g mask="url(#mask0)">
    <path fill-rule="evenodd" clip-rule="evenodd" d="M30 2H2V3.33333H30V2ZM30 4.66667H2V6H30V4.66667ZM2 7.33333H30V8.66667H2V7.33333ZM30 10H2V11.3333H30V10ZM2 12.6667H30V14H2V12.6667ZM30 15.3333H2V16.6667H30V15.3333ZM2 18H30V19.3333H2V18ZM30 20.6667H2V22H30V20.6667Z" fill="#D02F44"/>
    <rect x="2" y="2" width="12" height="9.33333" fill="#46467F"/>
    <g filter="url(#filter0_d)">
      <path fill-rule="evenodd" clip-rule="evenodd" d="M4.66671 4.00016C4.66671 4.36835 4.36823 4.66683 4.00004 4.66683C3.63185 4.66683 3.33337 4.36835 3.33337 4.00016C3.33337 3.63197 3.63185 3.3335 4.00004 3.3335C4.36823 3.3335 4.66671 3.63197 4.66671 4.00016ZM7.33337 4.00016C7.33337 4.36835 7.0349 4.66683 6.66671 4.66683C6.29852 4.66683 6.00004 4.36835 6.00004 4.00016C6.00004 3.63197 6.29852 3.3335 6.66671 3.3335C7.0349 3.3335 7.33337 3.63197 7.33337 4.00016ZM9.33337 4.66683C9.70156 4.66683 10 4.36835 10 4.00016C10 3.63197 9.70156 3.3335 9.33337 3.3335C8.96518 3.3335 8.66671 3.63197 8.66671 4.00016C8.66671 4.36835 8.96518 4.66683 9.33337 4.66683ZM12.6667 4.00016C12.6667 4.36835 12.3682 4.66683 12 4.66683C11.6319 4.66683 11.3334 4.36835 11.3334 4.00016C11.3334 3.63197 11.6319 3.3335 12 3.3335C12.3682 3.3335 12.6667 3.63197 12.6667 4.00016ZM5.33337 6.00016C5.70156 6.00016 6.00004 5.70169 6.00004 5.3335C6.00004 4.96531 5.70156 4.66683 5.33337 4.66683C4.96518 4.66683 4.66671 4.96531 4.66671 5.3335C4.66671 5.70169 4.96518 6.00016 5.33337 6.00016ZM8.66671 5.3335C8.66671 5.70169 8.36823 6.00016 8.00004 6.00016C7.63185 6.00016 7.33337 5.70169 7.33337 5.3335C7.33337 4.96531 7.63185 4.66683 8.00004 4.66683C8.36823 4.66683 8.66671 4.96531 8.66671 5.3335ZM10.6667 6.00016C11.0349 6.00016 11.3334 5.70169 11.3334 5.3335C11.3334 4.96531 11.0349 4.66683 10.6667 4.66683C10.2985 4.66683 10 4.96531 10 5.3335C10 5.70169 10.2985 6.00016 10.6667 6.00016ZM12.6667 6.66683C12.6667 7.03502 12.3682 7.3335 12 7.3335C11.6319 7.3335 11.3334 7.03502 11.3334 6.66683C11.3334 6.29864 11.6319 6.00016 12 6.00016C12.3682 6.00016 12.6667 6.29864 12.6667 6.66683ZM9.33337 7.3335C9.70156 7.3335 10 7.03502 10 6.66683C10 6.29864 9.70156 6.00016 9.33337 6.00016C8.96518 6.00016 8.66671 6.29864 8.66671 6.66683C8.66671 7.03502 8.96518 7.3335 9.33337 7.3335ZM7.33337 6.66683C7.33337 7.03502 7.0349 7.3335 6.66671 7.3335C6.29852 7.3335 6.00004 7.03502 6.00004 6.66683C6.00004 6.29864 6.29852 6.00016 6.66671 6.00016C7.0349 6.00016 7.33337 6.29864 7.33337 6.66683ZM4.00004 7.3335C4.36823 7.3335 4.66671 7.03502 4.66671 6.66683C4.66671 6.29864 4.36823 6.00016 4.00004 6.00016C3.63185 6.00016 3.33337 6.29864 3.33337 6.66683C3.33337 7.03502 3.63185 7.3335 4.00004 7.3335ZM6.00004 8.00016C6.00004 8.36835 5.70156 8.66683 5.33337 8.66683C4.96518 8.66683 4.66671 8.36835 4.66671 8.00016C4.66671 7.63197 4.96518 7.3335 5.33337 7.3335C5.70156 7.3335 6.00004 7.63197 6.00004 8.00016ZM8.00004 8.66683C8.36823 8.66683 8.66671 8.36835 8.66671 8.00016C8.66671 7.63197 8.36823 7.3335 8.00004 7.3335C7.63185 7.3335 7.33337 7.63197 7.33337 8.00016C7.33337 8.36835 7.63185 8.66683 8.00004 8.66683ZM11.3334 8.00016C11.3334 8.36835 11.0349 8.66683 10.6667 8.66683C10.2985 8.66683 10 8.36835 10 8.00016C10 7.63197 10.2985 7.3335 10.6667 7.3335C11.0349 7.3335 11.3334 7.63197 11.3334 8.00016ZM12 10.0002C12.3682 10.0002 12.6667 9.70169 12.6667 9.3335C12.6667 8.96531 12.3682 8.66683 12 8.66683C11.6319 8.66683 11.3334 8.96531 11.3334 9.3335C11.3334 9.70169 11.6319 10.0002 12 10.0002ZM10 9.3335C10 9.70169 9.70156 10.0002 9.33337 10.0002C8.96518 10.0002 8.66671 9.70169 8.66671 9.3335C8.66671 8.96531 8.96518 8.66683 9.33337 8.66683C9.70156 8.66683 10 8.96531 10 9.3335ZM6.66671 10.0002C7.0349 10.0002 7.33337 9.70169 7.33337 9.3335C7.33337 8.96531 7.0349 8.66683 6.66671 8.66683C6.29852 8.66683 6.00004 8.96531 6.00004 9.3335C6.00004 9.70169 6.29852 10.0002 6.66671 10.0002ZM4.66671 9.3335C4.66671 9.70169 4.36823 10.0002 4.00004 10.0002C3.63185 10.0002 3.33337 9.70169 3.33337 9.3335C3.33337 8.96531 3.63185 8.66683 4.00004 8.66683C4.36823 8.66683 4.66671 8.96531 4.66671 9.3335Z" fill="url(#paint0_linear)"/>
    </g>
  </g>
  <defs>
    <filter id="filter0_d" x="3.33337" y="3.3335" width="9.33333" height="7.66667" filterUnits="userSpaceOnUse" color-interpolation-filters="sRGB">
      <feFlood flood-opacity="0" result="BackgroundImageFix"/>
      <feColorMatrix in="SourceAlpha" type="matrix" values="0 0 0 0 0 0 0 0 0 0 0 0 0 0 0 0 0 0 127 0"/>
      <feOffset dy="1"/>
      <feColorMatrix type="matrix" values="0 0 0 0 0 0 0 0 0 0 0 0 0 0 0 0 0 0 0.06 0"/>
      <feBlend mode="normal" in2="BackgroundImageFix" result="effect1_dropShadow"/>
      <feBlend mode="normal" in="SourceGraphic" in2="effect1_dropShadow" result="shape"/>
    </filter>
    <linearGradient id="paint0_linear" x1="3.33337" y1="3.3335" x2="3.33337" y2="10.0002" gradientUnits="userSpaceOnUse">
      <stop stop-color="white"/>
      <stop offset="1" stop-color="#F0F0F0"/>
    </linearGradient>
  </defs>
</svg>
