<svg width="20" height="20" viewBox="0 0 20 20" fill="none" xmlns="http://www.w3.org/2000/svg">
<path d="M19.9892 0.725911C19.9801 0.654093 19.9642 0.58492 19.9379 0.52002C19.9371 0.518392 19.9371 0.516154 19.9367 0.514119C19.9367 0.513713 19.9363 0.513306 19.9359 0.512899C19.907 0.444539 19.8676 0.382487 19.823 0.32491C19.812 0.311279 19.8012 0.297852 19.7896 0.285034C19.742 0.231323 19.6903 0.181681 19.6303 0.141195C19.6287 0.139974 19.6267 0.139567 19.625 0.138346C19.5671 0.100098 19.503 0.0712077 19.4358 0.0484212C19.4191 0.0425211 19.4029 0.0374349 19.3858 0.032959C19.3154 0.0138346 19.243 0 19.1667 0H13.3333C12.8733 0 12.5 0.373332 12.5 0.833333C12.5 1.29333 12.8733 1.66667 13.3333 1.66667H17.1545L12.1808 6.64042C10.8545 5.57963 9.2216 5 7.5 5C3.36466 5 0 8.36466 0 12.5C0 16.6353 3.36466 20 7.5 20C11.6353 20 15 16.6353 15 12.5C15 10.7792 14.4208 9.14673 13.3592 7.81921L18.3333 2.84505V6.66667C18.3333 7.12667 18.7067 7.5 19.1667 7.5C19.6267 7.5 20 7.12667 20 6.66667V0.833333C20 0.815837 19.9959 0.799154 19.9949 0.782064C19.9937 0.762939 19.9917 0.744629 19.9892 0.725911ZM7.5 18.3333C4.28324 18.3333 1.66667 15.7168 1.66667 12.5C1.66667 9.28324 4.28324 6.66667 7.5 6.66667C9.05741 6.66667 10.5237 7.27295 11.6262 8.37158C12.7271 9.47632 13.3333 10.9426 13.3333 12.5C13.3333 15.7168 10.7168 18.3333 7.5 18.3333Z" fill="white"/>
</svg>
