<svg width="22" height="22" viewBox="0 0 22 22" fill="none" xmlns="http://www.w3.org/2000/svg">
<path d="M18.3837 13.4832C18.0469 13.4832 17.7664 13.7321 17.7072 14.0539C17.512 14.993 17.1559 15.8675 16.6746 16.654C15.8661 16.0944 14.9957 15.6379 14.0827 15.2859C14.3096 14.3385 14.4375 13.3664 14.4375 12.375C14.4375 12.1784 14.4375 11.9969 14.4224 11.8016C14.3949 11.4235 14.0621 11.1444 13.6854 11.1677C13.3059 11.1952 13.0226 11.5253 13.0515 11.9047C13.0625 12.0656 13.0625 12.2141 13.0625 12.375C13.0625 13.2179 12.9621 14.047 12.7779 14.8527C11.7521 14.5819 10.692 14.4375 9.625 14.4375C8.558 14.4375 7.4965 14.5819 6.47075 14.8527C6.2865 14.047 6.18612 13.2179 6.18612 12.375C6.18612 11.5321 6.2865 10.703 6.47075 9.89725C7.4965 10.1681 8.558 10.3125 9.625 10.3125C10.4761 10.3125 11.3204 10.2245 12.1344 10.0499C12.5056 9.97013 12.7421 9.60438 12.6624 9.23313C12.5826 8.86188 12.2196 8.62537 11.8456 8.70512C10.2314 9.05162 8.514 8.98287 6.87637 8.55937C7.45662 6.985 8.393 5.555 9.63187 4.37663C9.68687 4.42888 9.746 4.47838 9.79962 4.53063C9.92612 4.69838 10.1269 4.80562 10.3537 4.80562C10.7332 4.80562 11.0412 4.49075 11.0412 4.11125V3.828L11.0316 3.81837C11.0784 3.73725 11.11 3.6465 11.1196 3.5475C11.1581 3.16937 10.8831 2.8325 10.505 2.794C10.2286 2.7665 9.96187 2.75413 9.6855 2.75275C9.68137 2.75275 9.67587 2.75275 9.67175 2.75275C9.65525 2.75275 9.6415 2.75 9.625 2.75C6.45975 2.75 3.65612 4.29275 1.90025 6.65775C1.88512 6.67287 1.86587 6.68113 1.85212 6.699C1.83562 6.71963 1.83012 6.74575 1.81637 6.76912C0.677875 8.35037 0 10.2822 0 12.375C0 14.4677 0.677875 16.3996 1.81637 17.9809C1.83012 18.0042 1.83562 18.0304 1.85212 18.0524C1.86587 18.0702 1.88512 18.0771 1.90025 18.0936C3.65612 20.4573 6.45975 22 9.625 22C12.7091 22 15.5004 20.4916 17.281 18.1459C17.3195 18.1142 17.3662 18.0936 17.3979 18.0524C17.4474 17.9905 17.4762 17.919 17.501 17.8489C18.2325 16.8039 18.788 15.6227 19.0575 14.3165L19.0712 14.1639C19.0712 13.7844 18.7632 13.4832 18.3837 13.4832ZM7.79487 4.323C6.82825 5.45738 6.07337 6.743 5.57012 8.13175C4.80562 7.832 4.07687 7.44975 3.399 6.98775C4.53475 5.67325 6.0665 4.71763 7.79487 4.323ZM2.58087 16.6471C1.8205 15.3986 1.375 13.9397 1.375 12.375C1.375 10.8158 1.82325 9.3555 2.58362 8.10563C3.38937 8.66113 4.257 9.11625 5.1645 9.46688C4.939 10.4115 4.81112 11.3836 4.81112 12.375C4.81112 13.3664 4.939 14.3385 5.16587 15.2831C4.25562 15.6337 3.388 16.0903 2.58087 16.6471ZM3.38662 17.7581C4.06725 17.2906 4.79875 16.9056 5.56187 16.6018C6.06375 17.9891 6.8145 19.2747 7.77975 20.4091C6.04312 20.0104 4.5155 19.063 3.38662 17.7581ZM9.625 20.3651C8.38337 19.1826 7.44562 17.7485 6.86812 16.1673C7.76462 15.9349 8.69275 15.8125 9.625 15.8125C10.5572 15.8125 11.484 15.9349 12.3819 16.1673C11.8044 17.7485 10.8666 19.1826 9.625 20.3651ZM11.4922 20.3816C12.4451 19.2541 13.1876 17.9781 13.6854 16.6018C14.4512 16.9056 15.1827 17.2906 15.8634 17.7581C14.7331 19.0616 13.2014 19.9788 11.4922 20.3816Z" fill="#6E6C79"/>
<path d="M17.1875 2.75C16.0504 2.75 15.125 3.67537 15.125 4.8125C15.125 5.94963 16.0504 6.875 17.1875 6.875C18.3246 6.875 19.25 5.94963 19.25 4.8125C19.25 3.67537 18.3246 2.75 17.1875 2.75ZM17.1875 5.5C16.808 5.5 16.5 5.192 16.5 4.8125C16.5 4.433 16.808 4.125 17.1875 4.125C17.567 4.125 17.875 4.433 17.875 4.8125C17.875 5.192 17.567 5.5 17.1875 5.5Z" fill="#6E6C79"/>
<path d="M17.1875 0C14.5338 0 12.375 2.15875 12.375 4.8125C12.375 7.282 16.236 11.6559 16.676 12.1467C16.8066 12.2911 16.9922 12.375 17.1875 12.375C17.3828 12.375 17.5684 12.2911 17.699 12.1467C18.139 11.6559 22 7.282 22 4.8125C22 2.15875 19.8412 0 17.1875 0ZM17.1875 10.6384C15.686 8.85775 13.75 6.12425 13.75 4.8125C13.75 2.91775 15.2927 1.375 17.1875 1.375C19.0823 1.375 20.625 2.91775 20.625 4.8125C20.625 6.12288 18.689 8.85775 17.1875 10.6384Z" fill="#6E6C79"/>
</svg>
