<svg width="141" height="128" viewBox="0 0 141 128" fill="none" xmlns="http://www.w3.org/2000/svg">
<g filter="url(#filter0_d)">
<path fill-rule="evenodd" clip-rule="evenodd" d="M66.3765 118.456C70.8053 118.456 75.3867 118.03 79.6627 117.178C80.7317 116.894 81.3426 116.042 81.1898 115.047C80.8844 114.053 79.9681 113.485 78.8991 113.627C74.7758 114.479 70.6525 114.905 66.3765 114.905C50.4942 114.905 35.5282 109.083 24.2273 98.7164C13.0792 88.0656 6.97058 74.2907 6.97058 59.3797C6.97058 44.4687 13.0792 30.6938 24.38 20.3271C35.6809 9.81842 50.6469 4.13805 66.5293 4.13805C82.4116 4.13805 97.3776 9.96043 108.678 20.3271C119.979 30.8358 126.088 44.7528 126.088 59.5217C126.088 61.5099 125.935 63.64 125.783 65.6282C125.63 66.6222 126.393 67.4743 127.462 67.6163C128.531 67.7583 129.448 67.0482 129.6 66.0542C129.906 63.924 130.059 61.6519 130.059 59.5217C130.059 43.7587 123.492 28.9897 111.427 17.771C99.3629 6.55221 83.3279 0.445801 66.3765 0.445801C49.4252 0.445801 33.5429 6.55221 21.6312 17.771C9.56673 28.8477 3 43.7587 3 59.3797C3 75.1428 9.56673 89.9118 21.6312 101.131C33.5429 112.349 49.5779 118.456 66.3765 118.456ZM107.457 65.912C90.964 65.912 77.5251 78.4089 77.5251 93.7459C77.5251 109.083 90.964 121.58 107.457 121.58C123.95 121.58 137.389 109.083 137.389 93.7459C137.389 78.4089 123.95 65.912 107.457 65.912ZM107.457 118.03C93.102 118.03 81.343 107.237 81.343 93.7459C81.343 80.397 92.9493 69.4623 107.457 69.4623C121.812 69.4623 133.571 80.255 133.571 93.7459C133.419 107.237 121.812 118.03 107.457 118.03ZM107.457 80.2552C111.733 80.2552 116.009 81.8173 120.285 84.9415C123.063 86.9383 125.111 89.2264 126.341 90.6008L126.341 90.6008L126.341 90.6012C126.598 90.8884 126.819 91.1356 127.004 91.332C127.157 91.616 127.462 92.042 127.615 92.184C128.378 93.1781 128.378 94.4562 127.615 95.4502C127.615 95.5271 127.481 95.6873 127.333 95.863L127.333 95.8631C127.208 96.012 127.074 96.1721 127.004 96.3023C126.819 96.4987 126.598 96.7461 126.341 97.0334C125.111 98.4078 123.063 100.696 120.285 102.693C116.161 105.817 111.733 107.379 107.457 107.379C103.181 107.379 98.9045 105.817 94.6285 102.693C91.8497 100.696 89.8022 98.4078 88.5723 97.0334C88.3152 96.7461 88.0939 96.4987 87.909 96.3023C87.7301 96.1359 87.5512 95.9208 87.403 95.7426C87.2982 95.6166 87.2087 95.5091 87.1455 95.4502C86.3819 94.4562 86.3819 93.1781 87.1455 92.184C87.2982 92.042 87.7563 91.616 87.909 91.332C88.0937 91.1357 88.3148 90.8887 88.5715 90.6018L88.5724 90.6008C89.8022 89.2264 91.8497 86.9383 94.6285 84.9415C98.7518 81.8173 103.181 80.2552 107.457 80.2552ZM93.4068 93.8881C98.1409 99.1425 102.875 101.841 107.304 101.841C111.885 101.841 116.619 99.1425 121.201 93.8881C116.467 88.6338 111.733 85.9356 107.304 85.9356C102.875 85.9356 98.1409 88.6338 93.4068 93.8881ZM107.609 99.2844C110.814 99.2844 113.412 96.8684 113.412 93.888C113.412 90.9077 110.814 88.4917 107.609 88.4917C104.404 88.4917 101.806 90.9077 101.806 93.888C101.806 96.8684 104.404 99.2844 107.609 99.2844ZM88.8256 52.2795H92.7962C95.0869 52.2795 96.9195 53.9836 96.9195 56.1137V63.2142C83.0224 67.3325 72.7906 79.5453 72.7906 93.8882C72.7906 95.3083 72.9433 96.7284 73.096 98.1485H39.9569C37.6662 98.1485 35.8336 96.4444 35.8336 94.3143V56.1137C35.8336 53.9836 37.6662 52.2795 39.9569 52.2795H43.9275V41.0607C43.9275 29.558 54.0067 20.1853 66.3765 20.1853C78.7464 20.1853 88.8256 29.558 88.8256 41.0607V52.2795ZM52.3268 52.2795H80.579L80.7317 41.0607C80.7317 33.8182 74.3177 27.8538 66.5293 27.8538C58.7408 27.8538 52.3268 33.8182 52.3268 41.0607V52.2795Z" fill="white"/>
</g>
<defs>
<filter id="filter0_d" x="0" y="0.445801" width="140.389" height="127.134" filterUnits="userSpaceOnUse" color-interpolation-filters="sRGB">
<feFlood flood-opacity="0" result="BackgroundImageFix"/>
<feColorMatrix in="SourceAlpha" type="matrix" values="0 0 0 0 0 0 0 0 0 0 0 0 0 0 0 0 0 0 127 0"/>
<feOffset dy="3"/>
<feGaussianBlur stdDeviation="1.5"/>
<feColorMatrix type="matrix" values="0 0 0 0 0 0 0 0 0 0 0 0 0 0 0 0 0 0 0.1 0"/>
<feBlend mode="normal" in2="BackgroundImageFix" result="effect1_dropShadow"/>
<feBlend mode="normal" in="SourceGraphic" in2="effect1_dropShadow" result="shape"/>
</filter>
</defs>
</svg>
