<svg width="18" height="18" fill="none" xmlns="http://www.w3.org/2000/svg"><path d="M.779 8.222a.78.78 0 000 1.557h3.278V8.222H.779z" fill="#fff"/><path d="M15.405 2.029H6.653a2.598 2.598 0 00-2.596 2.595v3.598h7.014l-1.5-1.5a.78.78 0 01.55-1.33c.209 0 .404.081.551.228l2.83 2.83a.776.776 0 01.17.844.794.794 0 01-.169.255l-2.831 2.831a.777.777 0 01-1.102 0 .78.78 0 010-1.101l1.5-1.5H4.058v3.598a2.598 2.598 0 002.595 2.594h8.753A2.597 2.597 0 0018 13.377V4.624a2.597 2.597 0 00-2.595-2.595z" fill="#fff"/></svg>