<svg width="30" height="28" viewBox="0 0 30 28" fill="none" xmlns="http://www.w3.org/2000/svg">
<path d="M28.9543 8.43946L28.9574 8.47318L28.9627 8.50662C28.9785 8.60582 29.1199 9.59842 28.7212 11.2923L28.7212 11.2926C28.1478 13.7322 26.8217 15.9615 24.8711 17.7372L14.9159 26.6525L5.13201 17.7398L5.13145 17.7392C3.17939 15.9637 1.85222 13.7329 1.27854 11.2926L1.27849 11.2924C0.879647 9.59723 1.02153 8.60533 1.03719 8.50864L1.04283 8.47386L1.046 8.43876C1.44667 4.00595 4.52017 1 8.16841 1C10.5882 1 12.7678 2.29554 14.0529 4.50287L14.9076 5.97112L15.7764 4.51114C17.0693 2.33851 19.3543 1.00058 21.8313 1.00058C25.4801 1.00058 28.5531 4.00649 28.9543 8.43946Z" stroke="#6E6C79" stroke-width="2"/>
</svg>
