<svg width="10" height="10" viewBox="0 0 10 10" fill="none" xmlns="http://www.w3.org/2000/svg">
<path d="M9.33047 2.55671C8.88399 1.98776 8.27753 1.53837 7.51125 1.20856C6.74499 0.878791 5.90783 0.713867 5.00008 0.713867C4.32296 0.713867 3.67563 0.811245 3.05809 1.00604C2.44055 1.20082 1.90858 1.46409 1.46214 1.7958C1.01562 2.12756 0.660424 2.52197 0.396246 2.97903C0.132069 3.43611 0 3.91542 0 4.41688C0 4.99545 0.168287 5.53759 0.504998 6.0429C0.841709 6.54815 1.30203 6.97252 1.88616 7.31582C1.8452 7.47006 1.79684 7.61669 1.74102 7.75545C1.68522 7.89431 1.635 8.00825 1.59036 8.09695C1.54568 8.18565 1.48528 8.28407 1.40896 8.39206C1.33275 8.50004 1.27509 8.57626 1.23602 8.62056C1.19699 8.66494 1.13282 8.73835 1.04348 8.84043C0.954252 8.94273 0.896553 9.00922 0.870538 9.04015C0.866766 9.04195 0.851911 9.05944 0.825877 9.09217C0.799862 9.1249 0.786805 9.14127 0.786805 9.14127L0.753324 9.19328C0.734697 9.22228 0.726331 9.24058 0.728169 9.24814C0.730045 9.2557 0.726331 9.27511 0.717028 9.30591C0.707704 9.33684 0.708662 9.36001 0.719803 9.37549V9.38124C0.734755 9.45074 0.767299 9.50663 0.817492 9.54899C0.867685 9.59138 0.924484 9.60877 0.987694 9.60093C1.22957 9.57008 1.4416 9.52785 1.62386 9.47374C2.5986 9.21518 3.45428 8.74858 4.19085 8.07342C4.46981 8.10427 4.73954 8.11975 4.99996 8.11975C5.90769 8.11975 6.74481 7.95483 7.51115 7.62492C8.27749 7.29515 8.88389 6.84573 9.33029 6.27689C9.77677 5.70818 9.99998 5.08803 9.99998 4.41686C10 3.74567 9.77681 3.12555 9.33047 2.55671Z" fill="white"/>
</svg>
