<svg width="8" height="12" fill="none" xmlns="http://www.w3.org/2000/svg"><path d="M7.811 2.89c-.041-.155-.125-.32-.187-.464C6.88.64 5.257 0 3.946 0 2.191 0 .258 1.177 0 3.602v.496c0 .02.007.206.017.3.145 1.155 1.057 2.384 1.738 3.54.733 1.239 1.494 2.457 2.247 3.675.465-.795.928-1.6 1.382-2.374.124-.228.267-.455.391-.671.083-.145.24-.29.312-.424C6.82 6.803 8 5.45 8 4.12v-.547c0-.145-.179-.65-.189-.682zM3.978 5.378c-.516 0-1.08-.258-1.36-.97-.04-.114-.037-.34-.037-.362v-.32c0-.908.77-1.32 1.442-1.32.825 0 1.464.66 1.464 1.486s-.683 1.486-1.509 1.486z" fill="#9C9697"/></svg>