<svg width="25" height="23" viewBox="0 0 25 23" fill="none" xmlns="http://www.w3.org/2000/svg">
<path d="M24.8105 7.57538L10.648 0.703568C10.4834 0.622731 10.2844 0.692607 10.2069 0.859076L7.12451 7.41165H8.80395L11.0661 2.59707L23.3449 8.55432L19.5051 16.7168L17.3434 15.6686V19.9838L18.6728 20.6285C18.8388 20.71 19.035 20.6367 19.1139 20.4695L24.967 8.02135C25.0466 7.85556 24.9765 7.65484 24.8105 7.57538Z" fill="white"/>
<path d="M16.0282 8.20312H0.33184C0.150407 8.20312 0 8.35315 0 8.53743V22.3338C0 22.5188 0.150407 22.6702 0.33184 22.6702H16.0275C16.2103 22.6702 16.3593 22.5188 16.3593 22.3338V8.53743C16.36 8.35315 16.2109 8.20312 16.0282 8.20312ZM15.1217 18.7763H14.1268C13.5475 17.2671 12.8345 15.1544 11.752 15.4366C10.4833 15.7655 9.85 18.7763 9.85 18.7763C9.85 18.7763 9.20048 15.3791 7.41043 13.5603C5.61971 11.7414 3.88496 18.7763 3.88496 18.7763H1.51487V9.72875H15.1217V18.7763Z" fill="white"/>
<path d="M3.71077 12.7972C4.3239 12.7972 4.82095 12.2924 4.82095 11.6696C4.82095 11.0468 4.3239 10.542 3.71077 10.542C3.09763 10.542 2.60059 11.0468 2.60059 11.6696C2.60059 12.2924 3.09763 12.7972 3.71077 12.7972Z" fill="white"/>
<path d="M11.1592 12.4657C11.4081 12.4657 11.6415 12.439 11.8492 12.3972C12.0914 12.5013 12.3868 12.565 12.7045 12.565C13.5239 12.565 14.1863 12.1588 14.1863 11.6573C14.1863 11.1572 13.5239 10.751 12.7045 10.751C12.3976 10.751 12.1129 10.8078 11.8769 10.9072C11.7791 10.8106 11.6489 10.751 11.5039 10.751H11.2894C11.0142 10.751 10.7977 10.9627 10.7667 11.2319C10.1044 11.3024 9.61133 11.5463 9.61133 11.8368C9.61133 12.1841 10.304 12.4657 11.1592 12.4657Z" fill="white"/>
</svg>
