<svg width="25" height="25" viewBox="0 0 25 25" fill="none" xmlns="http://www.w3.org/2000/svg">
<path d="M24.569 2.58643H0.431034C0.193103 2.58643 0 2.7791 0 3.01746V21.983C0 22.2213 0.193103 22.414 0.431034 22.414H24.569C24.8069 22.414 25 22.2213 25 21.983V3.01746C25 2.7791 24.8069 2.58643 24.569 2.58643ZM4.31034 21.5519H0.862069V17.6726H4.31034V21.5519ZM4.31034 16.8106H0.862069V12.9313H4.31034V16.8106ZM4.31034 12.0692H0.862069V8.18987H4.31034V12.0692ZM4.31034 7.32781H0.862069V3.44849H4.31034V7.32781ZM15.7487 12.864L11.0073 15.8813C10.9371 15.9257 10.8565 15.9485 10.7759 15.9485C10.7043 15.9485 10.6332 15.9308 10.5685 15.8955C10.4306 15.8196 10.3448 15.6748 10.3448 15.5175V9.48298C10.3448 9.32565 10.4306 9.18082 10.5685 9.10496C10.7065 9.02953 10.8746 9.03513 11.0078 9.11918L15.7491 12.1364C15.8728 12.2157 15.9483 12.3528 15.9483 12.5002C15.9483 12.6476 15.8728 12.7847 15.7487 12.864ZM24.1379 21.5519H20.6897V17.6726H24.1379V21.5519ZM24.1379 16.8106H20.6897V12.9313H24.1379V16.8106ZM24.1379 12.0692H20.6897V8.18987H24.1379V12.0692ZM24.1379 7.32781H20.6897V3.44849H24.1379V7.32781Z" fill="#00BDBA"/>
</svg>
