<svg width="143" height="167" viewBox="0 0 143 167" fill="none" xmlns="http://www.w3.org/2000/svg">
<g filter="url(#filter0_d)">
<path fill-rule="evenodd" clip-rule="evenodd" d="M67.3765 129.418C71.8053 129.418 76.3867 128.962 80.6627 128.049C81.7317 127.745 82.3426 126.832 82.1898 125.767C81.8844 124.702 80.9681 124.094 79.8991 124.246C75.7758 125.158 71.6525 125.615 67.3765 125.615C51.4942 125.615 36.5282 119.378 25.2273 108.272C14.0792 96.8628 7.97058 82.1064 7.97058 66.133C7.97058 50.1596 14.0792 35.4032 25.38 24.2979C36.6809 13.0404 51.6469 6.95532 67.5293 6.95532C83.4116 6.95532 98.3776 13.1926 109.678 24.2979C120.979 35.5553 127.088 50.4638 127.088 66.2851C127.088 68.4149 126.935 70.6968 126.783 72.8266C126.63 73.8915 127.393 74.8042 128.462 74.9564C129.531 75.1085 130.448 74.3479 130.6 73.283C130.906 71.0011 131.059 68.567 131.059 66.2851C131.059 49.3989 124.492 33.5777 112.427 21.5596C100.363 9.54149 84.3279 3 67.3765 3C50.4252 3 34.5429 9.54149 22.6312 21.5596C10.5667 33.4255 4 49.3989 4 66.133C4 83.0191 10.5667 98.8404 22.6312 110.858C34.5429 122.877 50.5779 129.418 67.3765 129.418ZM78.5251 102.948C78.5251 86.5179 91.964 73.1307 108.457 73.1307C124.95 73.1307 138.389 86.5179 138.389 102.948C138.389 119.377 124.95 132.765 108.457 132.765C91.964 132.765 78.5251 119.377 78.5251 102.948ZM82.343 102.948C82.343 117.4 94.102 128.962 108.457 128.962C122.812 128.962 134.419 117.4 134.571 102.948C134.571 88.4956 122.812 76.9339 108.457 76.9339C93.9493 76.9339 82.343 88.6477 82.343 102.948ZM26.3877 158.82C26.7835 157.976 26.9814 156.994 26.9814 155.875V155.367C26.9814 154.252 26.7783 153.271 26.372 152.422C25.971 151.567 25.4007 150.914 24.6611 150.461C23.9267 150.002 23.0856 149.773 22.1377 149.773C21.1898 149.773 20.346 150.002 19.6064 150.461C18.872 150.914 18.3017 151.567 17.8955 152.422C17.4944 153.271 17.2939 154.255 17.2939 155.375V155.937C17.2991 157.031 17.5049 158 17.9111 158.843C18.3174 159.682 18.8903 160.328 19.6299 160.781C20.3694 161.234 21.2106 161.461 22.1533 161.461C23.1064 161.461 23.9502 161.231 24.6845 160.773C25.4241 160.315 25.9918 159.664 26.3877 158.82ZM23.9658 152.64C24.3929 153.26 24.6064 154.166 24.6064 155.359V155.914C24.6012 157.096 24.3877 157.997 23.9658 158.617C23.5439 159.231 22.9398 159.539 22.1533 159.539C21.3512 159.539 20.7366 159.218 20.3095 158.578C19.8825 157.937 19.6689 157.036 19.6689 155.875V155.32C19.6741 154.138 19.8903 153.242 20.3174 152.632C20.7444 152.018 21.3512 151.711 22.1377 151.711C22.9293 151.711 23.5387 152.021 23.9658 152.64ZM31.0283 161.304V157.297H33.083C34.4319 157.297 35.4866 156.976 36.247 156.336C37.0127 155.69 37.3955 154.81 37.3955 153.695C37.3955 152.961 37.221 152.307 36.872 151.734C36.5231 151.156 36.0231 150.711 35.372 150.398C34.7262 150.086 33.9762 149.929 33.122 149.929H28.6845V161.304H31.0283ZM33.122 155.398H31.0283V151.828H33.1767C33.7549 151.838 34.208 152.015 34.5361 152.359C34.8642 152.703 35.0283 153.153 35.0283 153.711C35.0283 154.252 34.8642 154.669 34.5361 154.961C34.2132 155.252 33.7418 155.398 33.122 155.398ZM41.3564 156.375H45.8564V154.539H41.3564V151.828H46.622V149.929H39.0127V161.304H46.6377V159.422H41.3564V156.375ZM54.9189 161.304H57.2627V149.929H54.9267V157.429L50.3564 149.929H48.0127V161.304H50.3564V153.82L54.9189 161.304ZM70.0752 149.929L67.497 158.484L64.9345 149.929H62.333L66.2783 161.304H68.7236L72.6845 149.929H70.0752ZM73.9111 161.304H76.2549V149.929H73.9111V161.304ZM80.7783 156.375H85.2783V154.539H80.7783V151.828H86.0439V149.929H78.4345V161.304H86.0595V159.422H80.7783V156.375ZM97.8252 149.929L96.2939 158.023L94.4267 149.929H92.4424L90.5674 158.007L89.0283 149.929H86.6924L89.2158 161.304H91.5752L93.4267 153.695L95.2783 161.304H97.6377L100.161 149.929H97.8252ZM101.583 161.304H103.927V149.929H101.583V161.304ZM113.013 161.304H115.356V149.929H113.02V157.429L108.45 149.929H106.106V161.304H108.45V153.82L113.013 161.304ZM124.614 161.047C125.385 160.765 125.981 160.372 126.403 159.867V155.328H121.927V157.054H124.06V159.015C123.685 159.39 123.057 159.578 122.177 159.578C121.302 159.578 120.638 159.273 120.185 158.664C119.731 158.054 119.505 157.153 119.505 155.961V155.234C119.51 154.052 119.721 153.161 120.138 152.562C120.554 151.963 121.161 151.664 121.958 151.664C122.583 151.664 123.073 151.815 123.427 152.117C123.786 152.419 124.018 152.896 124.122 153.547H126.403C126.263 152.317 125.812 151.382 125.052 150.742C124.291 150.096 123.237 149.773 121.888 149.773C120.919 149.773 120.073 149.994 119.349 150.437C118.63 150.875 118.078 151.51 117.692 152.343C117.312 153.172 117.122 154.153 117.122 155.289V156.062C117.132 157.166 117.338 158.127 117.739 158.945C118.145 159.763 118.718 160.388 119.458 160.82C120.203 161.247 121.067 161.461 122.052 161.461C122.989 161.461 123.843 161.323 124.614 161.047ZM108.457 88.4958C112.733 88.4958 117.009 90.1693 121.285 93.5161C124.063 95.6551 126.111 98.1063 127.341 99.5786L127.341 99.5789C127.598 99.8866 127.819 100.151 128.004 100.362C128.157 100.666 128.462 101.122 128.615 101.275C129.378 102.339 129.378 103.709 128.615 104.774C128.615 104.856 128.481 105.027 128.333 105.216C128.208 105.375 128.074 105.547 128.004 105.686C127.819 105.897 127.598 106.162 127.341 106.469C126.111 107.942 124.063 110.393 121.285 112.532C117.161 115.879 112.733 117.552 108.457 117.552C104.181 117.552 99.9045 115.879 95.6285 112.532C92.8497 110.393 90.8022 107.942 89.5724 106.47L89.5724 106.47L89.5721 106.469C89.3151 106.162 89.0938 105.897 88.909 105.686C88.7301 105.508 88.5512 105.278 88.403 105.087L88.403 105.087L88.4025 105.086C88.2979 104.951 88.2086 104.836 88.1455 104.774C87.3819 103.709 87.3819 102.339 88.1455 101.275C88.2982 101.122 88.7563 100.666 88.909 100.362C89.0936 100.152 89.3145 99.8873 89.5711 99.5802L89.5721 99.5789L89.5724 99.5786L89.5724 99.5785C90.8022 98.1062 92.8497 95.655 95.6285 93.5161C99.7518 90.1693 104.181 88.4958 108.457 88.4958ZM94.4068 103.1C99.1409 108.729 103.875 111.619 108.304 111.619C112.885 111.619 117.619 108.729 122.201 103.1C117.467 97.4714 112.733 94.581 108.304 94.581C103.875 94.581 99.1409 97.4714 94.4068 103.1ZM108.609 108.881C111.814 108.881 114.412 106.293 114.412 103.1C114.412 99.9073 111.814 97.3191 108.609 97.3191C105.404 97.3191 102.806 99.9073 102.806 103.1C102.806 106.293 105.404 108.881 108.609 108.881ZM89.8256 58.5268H93.7962C96.0869 58.5268 97.9195 60.3524 97.9195 62.6343V70.2406C84.0224 74.6524 73.7906 87.7353 73.7906 103.1C73.7906 104.621 73.9433 106.143 74.096 107.664H40.9569C38.6662 107.664 36.8336 105.839 36.8336 103.557V62.6343C36.8336 60.3524 38.6662 58.5268 40.9569 58.5268H44.9275V46.5087C44.9275 34.1864 55.0067 24.146 67.3765 24.146C79.7464 24.146 89.8256 34.1864 89.8256 46.5087V58.5268ZM53.3268 58.5268H81.579L81.7317 46.5087C81.7317 38.7502 75.3177 32.3609 67.5293 32.3609C59.7408 32.3609 53.3268 38.7502 53.3268 46.5087V58.5268Z" fill="white"/>
</g>
<defs>
<filter id="filter0_d" x="0" y="0" width="142.389" height="166.461" filterUnits="userSpaceOnUse" color-interpolation-filters="sRGB">
<feFlood flood-opacity="0" result="BackgroundImageFix"/>
<feColorMatrix in="SourceAlpha" type="matrix" values="0 0 0 0 0 0 0 0 0 0 0 0 0 0 0 0 0 0 127 0"/>
<feOffset dy="1"/>
<feGaussianBlur stdDeviation="2"/>
<feColorMatrix type="matrix" values="0 0 0 0 0 0 0 0 0 0 0 0 0 0 0 0 0 0 0.25 0"/>
<feBlend mode="normal" in2="BackgroundImageFix" result="effect1_dropShadow"/>
<feBlend mode="normal" in="SourceGraphic" in2="effect1_dropShadow" result="shape"/>
</filter>
</defs>
</svg>
