<?xml version="1.0" encoding="UTF-8" standalone="no"?>
<!DOCTYPE svg PUBLIC "-//W3C//DTD SVG 1.1//EN"
 "http://www.w3.org/Graphics/SVG/1.1/DTD/svg11.dtd">
<!-- Generated by graphviz version 2.40.1 (20161225.0304)
 -->
<!-- Title: dependencies Pages: 1 -->
<svg width="6390pt" height="211pt"
 viewBox="0.00 0.00 6390.00 211.00" xmlns="http://www.w3.org/2000/svg" xmlns:xlink="http://www.w3.org/1999/xlink">
<g id="graph0" class="graph" transform="scale(1 1) rotate(0) translate(4 207)">
<title>dependencies</title>
<polygon fill="#ffffff" stroke="transparent" points="-4,4 -4,-207 6386,-207 6386,4 -4,4"/>
<text text-anchor="start" x="3170.0091" y="-42.4" font-family="sans-serif" font-weight="bold" font-size="14.00" fill="#000000">Legend</text>
<polygon fill="#ffffb3" stroke="transparent" points="2957,-10 2957,-30 2977,-30 2977,-10 2957,-10"/>
<text text-anchor="start" x="2980.629" y="-15.4" font-family="sans-serif" font-size="14.00" fill="#000000"> &#160;Declarations</text>
<polygon fill="#8dd3c7" stroke="transparent" points="3070,-10 3070,-30 3090,-30 3090,-10 3070,-10"/>
<text text-anchor="start" x="3093.7251" y="-15.4" font-family="sans-serif" font-size="14.00" fill="#000000"> &#160;Module</text>
<polygon fill="#80b1d3" stroke="transparent" points="3156,-10 3156,-30 3176,-30 3176,-10 3156,-10"/>
<text text-anchor="start" x="3179.7812" y="-15.4" font-family="sans-serif" font-size="14.00" fill="#000000"> &#160;Bootstrap</text>
<polygon fill="#fdb462" stroke="transparent" points="3253,-10 3253,-30 3273,-30 3273,-10 3253,-10"/>
<text text-anchor="start" x="3276.6732" y="-15.4" font-family="sans-serif" font-size="14.00" fill="#000000"> &#160;Providers</text>
<polygon fill="#fb8072" stroke="transparent" points="3349,-10 3349,-30 3369,-30 3369,-10 3349,-10"/>
<text text-anchor="start" x="3372.7258" y="-15.4" font-family="sans-serif" font-size="14.00" fill="#000000"> &#160;Exports</text>
<g id="clust1" class="cluster">
<title>cluster_BlogModule</title>
<polygon fill="none" stroke="#000000" stroke-dasharray="1,5" points="8,-70 8,-195 6374,-195 6374,-70 8,-70"/>
</g>
<g id="clust2" class="cluster">
<title>cluster_BlogModule_declarations</title>
<polygon fill="none" stroke="#000000" points="288,-78 288,-130 6366,-130 6366,-78 288,-78"/>
</g>
<g id="clust34" class="cluster">
<title>cluster_BlogModule_imports</title>
<polygon fill="none" stroke="#000000" points="16,-78 16,-130 280,-130 280,-78 16,-78"/>
</g>
<!-- BigpostColumnComponent -->
<g id="node1" class="node">
<title>BigpostColumnComponent</title>
<polygon fill="#ffffb3" stroke="#000000" points="6358.0126,-122 6187.9874,-122 6187.9874,-86 6358.0126,-86 6358.0126,-122"/>
<text text-anchor="middle" x="6273" y="-99.8" font-family="Times,serif" font-size="14.00" fill="#000000">BigpostColumnComponent</text>
</g>
<!-- BlogModule -->
<g id="node32" class="node">
<title>BlogModule</title>
<polygon fill="#8dd3c7" stroke="#000000" points="3201.2773,-187 3198.2773,-191 3177.2773,-191 3174.2773,-187 3114.7227,-187 3114.7227,-151 3201.2773,-151 3201.2773,-187"/>
<text text-anchor="middle" x="3158" y="-164.8" font-family="Times,serif" font-size="14.00" fill="#000000">BlogModule</text>
</g>
<!-- BigpostColumnComponent&#45;&gt;BlogModule -->
<g id="edge1" class="edge">
<title>BigpostColumnComponent&#45;&gt;BlogModule</title>
<path fill="none" stroke="#000000" d="M6273,-122.3802C6273,-146.2785 6273,-185 6273,-185 6273,-185 3211.44,-185 3211.44,-185"/>
<polygon fill="#000000" stroke="#000000" points="3211.44,-181.5001 3201.44,-185 3211.4399,-188.5001 3211.44,-181.5001"/>
</g>
<!-- BigpostColumnNoSidebarComponent -->
<g id="node2" class="node">
<title>BigpostColumnNoSidebarComponent</title>
<polygon fill="#ffffb3" stroke="#000000" points="6169.8822,-122 5940.1178,-122 5940.1178,-86 6169.8822,-86 6169.8822,-122"/>
<text text-anchor="middle" x="6055" y="-99.8" font-family="Times,serif" font-size="14.00" fill="#000000">BigpostColumnNoSidebarComponent</text>
</g>
<!-- BigpostColumnNoSidebarComponent&#45;&gt;BlogModule -->
<g id="edge2" class="edge">
<title>BigpostColumnNoSidebarComponent&#45;&gt;BlogModule</title>
<path fill="none" stroke="#000000" d="M6055,-122.3228C6055,-145.6602 6055,-183 6055,-183 6055,-183 3211.4855,-183 3211.4855,-183"/>
<polygon fill="#000000" stroke="#000000" points="3211.4856,-179.5001 3201.4855,-183 3211.4855,-186.5001 3211.4856,-179.5001"/>
</g>
<!-- BigpostListComponent -->
<g id="node3" class="node">
<title>BigpostListComponent</title>
<polygon fill="#ffffb3" stroke="#000000" points="5922.1736,-122 5775.8264,-122 5775.8264,-86 5922.1736,-86 5922.1736,-122"/>
<text text-anchor="middle" x="5849" y="-99.8" font-family="Times,serif" font-size="14.00" fill="#000000">BigpostListComponent</text>
</g>
<!-- BigpostListComponent&#45;&gt;BlogModule -->
<g id="edge3" class="edge">
<title>BigpostListComponent&#45;&gt;BlogModule</title>
<path fill="none" stroke="#000000" d="M5849,-122.2479C5849,-145.0179 5849,-181 5849,-181 5849,-181 3211.3591,-181 3211.3591,-181"/>
<polygon fill="#000000" stroke="#000000" points="3211.3592,-177.5001 3201.3591,-181 3211.3591,-184.5001 3211.3592,-177.5001"/>
</g>
<!-- BigpostListNoSidebarComponent -->
<g id="node4" class="node">
<title>BigpostListNoSidebarComponent</title>
<polygon fill="#ffffb3" stroke="#000000" points="5757.0433,-122 5550.9567,-122 5550.9567,-86 5757.0433,-86 5757.0433,-122"/>
<text text-anchor="middle" x="5654" y="-99.8" font-family="Times,serif" font-size="14.00" fill="#000000">BigpostListNoSidebarComponent</text>
</g>
<!-- BigpostListNoSidebarComponent&#45;&gt;BlogModule -->
<g id="edge4" class="edge">
<title>BigpostListNoSidebarComponent&#45;&gt;BlogModule</title>
<path fill="none" stroke="#000000" d="M5654,-122.1554C5654,-144.3519 5654,-179 5654,-179 5654,-179 3211.3228,-179 3211.3228,-179"/>
<polygon fill="#000000" stroke="#000000" points="3211.3228,-175.5001 3201.3228,-179 3211.3227,-182.5001 3211.3228,-175.5001"/>
</g>
<!-- BigpostSplitComponent -->
<g id="node5" class="node">
<title>BigpostSplitComponent</title>
<polygon fill="#ffffb3" stroke="#000000" points="5532.8496,-122 5381.1504,-122 5381.1504,-86 5532.8496,-86 5532.8496,-122"/>
<text text-anchor="middle" x="5457" y="-99.8" font-family="Times,serif" font-size="14.00" fill="#000000">BigpostSplitComponent</text>
</g>
<!-- BigpostSplitComponent&#45;&gt;BlogModule -->
<g id="edge5" class="edge">
<title>BigpostSplitComponent&#45;&gt;BlogModule</title>
<path fill="none" stroke="#000000" d="M5457,-122.0449C5457,-143.6623 5457,-177 5457,-177 5457,-177 3211.3669,-177 3211.3669,-177"/>
<polygon fill="#000000" stroke="#000000" points="3211.3669,-173.5001 3201.3669,-177 3211.3668,-180.5001 3211.3669,-173.5001"/>
</g>
<!-- BigpostSplitNoSidebarComponent -->
<g id="node6" class="node">
<title>BigpostSplitNoSidebarComponent</title>
<polygon fill="#ffffb3" stroke="#000000" points="5363.7189,-122 5152.2811,-122 5152.2811,-86 5363.7189,-86 5363.7189,-122"/>
<text text-anchor="middle" x="5258" y="-99.8" font-family="Times,serif" font-size="14.00" fill="#000000">BigpostSplitNoSidebarComponent</text>
</g>
<!-- BigpostSplitNoSidebarComponent&#45;&gt;BlogModule -->
<g id="edge6" class="edge">
<title>BigpostSplitNoSidebarComponent&#45;&gt;BlogModule</title>
<path fill="none" stroke="#000000" d="M5258,-122.2843C5258,-143.3211 5258,-175 5258,-175 5258,-175 3211.3794,-175 3211.3794,-175"/>
<polygon fill="#000000" stroke="#000000" points="3211.3795,-171.5001 3201.3794,-175 3211.3794,-178.5001 3211.3795,-171.5001"/>
</g>
<!-- BlogComponent -->
<g id="node7" class="node">
<title>BlogComponent</title>
<polygon fill="#ffffb3" stroke="#000000" points="5134.0605,-122 5025.9395,-122 5025.9395,-86 5134.0605,-86 5134.0605,-122"/>
<text text-anchor="middle" x="5080" y="-99.8" font-family="Times,serif" font-size="14.00" fill="#000000">BlogComponent</text>
</g>
<!-- BlogComponent&#45;&gt;BlogModule -->
<g id="edge7" class="edge">
<title>BlogComponent&#45;&gt;BlogModule</title>
<path fill="none" stroke="#000000" d="M5080,-122.1289C5080,-142.5724 5080,-173 5080,-173 5080,-173 3211.2955,-173 3211.2955,-173"/>
<polygon fill="#000000" stroke="#000000" points="3211.2956,-169.5001 3201.2955,-173 3211.2955,-176.5001 3211.2956,-169.5001"/>
</g>
<!-- ClassicLeftSidebarComponent -->
<g id="node8" class="node">
<title>ClassicLeftSidebarComponent</title>
<polygon fill="#ffffb3" stroke="#000000" points="5007.8501,-122 4820.1499,-122 4820.1499,-86 5007.8501,-86 5007.8501,-122"/>
<text text-anchor="middle" x="4914" y="-99.8" font-family="Times,serif" font-size="14.00" fill="#000000">ClassicLeftSidebarComponent</text>
</g>
<!-- ClassicLeftSidebarComponent&#45;&gt;BlogModule -->
<g id="edge8" class="edge">
<title>ClassicLeftSidebarComponent&#45;&gt;BlogModule</title>
<path fill="none" stroke="#000000" d="M4914,-122.308C4914,-142.1455 4914,-171 4914,-171 4914,-171 3211.407,-171 3211.407,-171"/>
<polygon fill="#000000" stroke="#000000" points="3211.407,-167.5001 3201.407,-171 3211.4069,-174.5001 3211.407,-167.5001"/>
</g>
<!-- ClassicNoSidebarComponent -->
<g id="node9" class="node">
<title>ClassicNoSidebarComponent</title>
<polygon fill="#ffffb3" stroke="#000000" points="4801.6386,-122 4620.3614,-122 4620.3614,-86 4801.6386,-86 4801.6386,-122"/>
<text text-anchor="middle" x="4711" y="-99.8" font-family="Times,serif" font-size="14.00" fill="#000000">ClassicNoSidebarComponent</text>
</g>
<!-- ClassicNoSidebarComponent&#45;&gt;BlogModule -->
<g id="edge9" class="edge">
<title>ClassicNoSidebarComponent&#45;&gt;BlogModule</title>
<path fill="none" stroke="#000000" d="M4711,-122.1686C4711,-141.0898 4711,-168 4711,-168 4711,-168 3211.5659,-168 3211.5659,-168"/>
<polygon fill="#000000" stroke="#000000" points="3211.566,-164.5001 3201.5659,-168 3211.5659,-171.5001 3211.566,-164.5001"/>
</g>
<!-- ClassicRightSidebarComponent -->
<g id="node10" class="node">
<title>ClassicRightSidebarComponent</title>
<polygon fill="#ffffb3" stroke="#000000" points="4601.6497,-122 4406.3503,-122 4406.3503,-86 4601.6497,-86 4601.6497,-122"/>
<text text-anchor="middle" x="4504" y="-99.8" font-family="Times,serif" font-size="14.00" fill="#000000">ClassicRightSidebarComponent</text>
</g>
<!-- ClassicRightSidebarComponent&#45;&gt;BlogModule -->
<g id="edge10" class="edge">
<title>ClassicRightSidebarComponent&#45;&gt;BlogModule</title>
<path fill="none" stroke="#000000" d="M4504,-122.2667C4504,-140.5552 4504,-166 4504,-166 4504,-166 3211.6382,-166 3211.6382,-166"/>
<polygon fill="#000000" stroke="#000000" points="3211.6382,-162.5001 3201.6382,-166 3211.6382,-169.5001 3211.6382,-162.5001"/>
</g>
<!-- ColumnLeftSidebarComponent -->
<g id="node11" class="node">
<title>ColumnLeftSidebarComponent</title>
<polygon fill="#ffffb3" stroke="#000000" points="4388.0322,-122 4195.9678,-122 4195.9678,-86 4388.0322,-86 4388.0322,-122"/>
<text text-anchor="middle" x="4292" y="-99.8" font-family="Times,serif" font-size="14.00" fill="#000000">ColumnLeftSidebarComponent</text>
</g>
<!-- ColumnLeftSidebarComponent&#45;&gt;BlogModule -->
<g id="edge11" class="edge">
<title>ColumnLeftSidebarComponent&#45;&gt;BlogModule</title>
<path fill="none" stroke="#000000" d="M4292,-122.002C4292,-139.6754 4292,-164 4292,-164 4292,-164 3211.4137,-164 3211.4137,-164"/>
<polygon fill="#000000" stroke="#000000" points="3211.4138,-160.5001 3201.4137,-164 3211.4137,-167.5001 3211.4138,-160.5001"/>
</g>
<!-- ColumnNoSidebarComponent -->
<g id="node12" class="node">
<title>ColumnNoSidebarComponent</title>
<polygon fill="#ffffb3" stroke="#000000" points="4178.3201,-122 3991.6799,-122 3991.6799,-86 4178.3201,-86 4178.3201,-122"/>
<text text-anchor="middle" x="4085" y="-99.8" font-family="Times,serif" font-size="14.00" fill="#000000">ColumnNoSidebarComponent</text>
</g>
<!-- ColumnNoSidebarComponent&#45;&gt;BlogModule -->
<g id="edge12" class="edge">
<title>ColumnNoSidebarComponent&#45;&gt;BlogModule</title>
<path fill="none" stroke="#000000" d="M4085,-122.0336C4085,-139.0597 4085,-162 4085,-162 4085,-162 3211.4678,-162 3211.4678,-162"/>
<polygon fill="#000000" stroke="#000000" points="3211.4678,-158.5001 3201.4678,-162 3211.4677,-165.5001 3211.4678,-158.5001"/>
</g>
<!-- ColumnRightSidebarComponent -->
<g id="node13" class="node">
<title>ColumnRightSidebarComponent</title>
<polygon fill="#ffffb3" stroke="#000000" points="3974.3313,-122 3773.6687,-122 3773.6687,-86 3974.3313,-86 3974.3313,-122"/>
<text text-anchor="middle" x="3874" y="-99.8" font-family="Times,serif" font-size="14.00" fill="#000000">ColumnRightSidebarComponent</text>
</g>
<!-- ColumnRightSidebarComponent&#45;&gt;BlogModule -->
<g id="edge13" class="edge">
<title>ColumnRightSidebarComponent&#45;&gt;BlogModule</title>
<path fill="none" stroke="#000000" d="M3874,-122.027C3874,-138.3976 3874,-160 3874,-160 3874,-160 3211.4435,-160 3211.4435,-160"/>
<polygon fill="#000000" stroke="#000000" points="3211.4436,-156.5001 3201.4435,-160 3211.4435,-163.5001 3211.4436,-156.5001"/>
</g>
<!-- DetailComponent -->
<g id="node14" class="node">
<title>DetailComponent</title>
<polygon fill="#ffffb3" stroke="#000000" points="3755.5409,-122 3640.4591,-122 3640.4591,-86 3755.5409,-86 3755.5409,-122"/>
<text text-anchor="middle" x="3698" y="-99.8" font-family="Times,serif" font-size="14.00" fill="#000000">DetailComponent</text>
</g>
<!-- DetailComponent&#45;&gt;BlogModule -->
<g id="edge14" class="edge">
<title>DetailComponent&#45;&gt;BlogModule</title>
<path fill="none" stroke="#000000" d="M3698,-122.2819C3698,-137.9478 3698,-158 3698,-158 3698,-158 3211.2776,-158 3211.2776,-158"/>
<polygon fill="#000000" stroke="#000000" points="3211.2777,-154.5001 3201.2776,-158 3211.2776,-161.5001 3211.2777,-154.5001"/>
</g>
<!-- DetailGalleryComponent -->
<g id="node15" class="node">
<title>DetailGalleryComponent</title>
<polygon fill="#ffffb3" stroke="#000000" points="3621.5183,-122 3464.4817,-122 3464.4817,-86 3621.5183,-86 3621.5183,-122"/>
<text text-anchor="middle" x="3543" y="-99.8" font-family="Times,serif" font-size="14.00" fill="#000000">DetailGalleryComponent</text>
</g>
<!-- DetailGalleryComponent&#45;&gt;BlogModule -->
<g id="edge15" class="edge">
<title>DetailGalleryComponent&#45;&gt;BlogModule</title>
<path fill="none" stroke="#000000" d="M3543,-122.1871C3543,-137.1824 3543,-156 3543,-156 3543,-156 3211.416,-156 3211.416,-156"/>
<polygon fill="#000000" stroke="#000000" points="3211.416,-152.5001 3201.416,-156 3211.416,-159.5001 3211.416,-152.5001"/>
</g>
<!-- DetailLeftSidebarComponent -->
<g id="node16" class="node">
<title>DetailLeftSidebarComponent</title>
<polygon fill="#ffffb3" stroke="#000000" points="3445.6218,-122 3264.3782,-122 3264.3782,-86 3445.6218,-86 3445.6218,-122"/>
<text text-anchor="middle" x="3355" y="-99.8" font-family="Times,serif" font-size="14.00" fill="#000000">DetailLeftSidebarComponent</text>
</g>
<!-- DetailLeftSidebarComponent&#45;&gt;BlogModule -->
<g id="edge16" class="edge">
<title>DetailLeftSidebarComponent&#45;&gt;BlogModule</title>
<path fill="none" stroke="#000000" d="M3355,-122.0511C3355,-136.373 3355,-154 3355,-154 3355,-154 3211.7207,-154 3211.7207,-154"/>
<polygon fill="#000000" stroke="#000000" points="3211.7207,-150.5001 3201.7207,-154 3211.7207,-157.5001 3211.7207,-150.5001"/>
</g>
<!-- DetailNoSidebarComponent -->
<g id="node17" class="node">
<title>DetailNoSidebarComponent</title>
<polygon fill="#ffffb3" stroke="#000000" points="3245.9101,-122 3070.0899,-122 3070.0899,-86 3245.9101,-86 3245.9101,-122"/>
<text text-anchor="middle" x="3158" y="-99.8" font-family="Times,serif" font-size="14.00" fill="#000000">DetailNoSidebarComponent</text>
</g>
<!-- DetailNoSidebarComponent&#45;&gt;BlogModule -->
<g id="edge17" class="edge">
<title>DetailNoSidebarComponent&#45;&gt;BlogModule</title>
<path fill="none" stroke="#000000" d="M3158,-122.1061C3158,-122.1061 3158,-140.991 3158,-140.991"/>
<polygon fill="#000000" stroke="#000000" points="3154.5001,-140.9909 3158,-150.991 3161.5001,-140.991 3154.5001,-140.9909"/>
</g>
<!-- DetailVideoComponent -->
<g id="node18" class="node">
<title>DetailVideoComponent</title>
<polygon fill="#ffffb3" stroke="#000000" points="3051.752,-122 2902.248,-122 2902.248,-86 3051.752,-86 3051.752,-122"/>
<text text-anchor="middle" x="2977" y="-99.8" font-family="Times,serif" font-size="14.00" fill="#000000">DetailVideoComponent</text>
</g>
<!-- DetailVideoComponent&#45;&gt;BlogModule -->
<g id="edge18" class="edge">
<title>DetailVideoComponent&#45;&gt;BlogModule</title>
<path fill="none" stroke="#000000" d="M2977,-122.0511C2977,-136.373 2977,-154 2977,-154 2977,-154 3104.646,-154 3104.646,-154"/>
<polygon fill="#000000" stroke="#000000" points="3104.646,-157.5001 3114.646,-154 3104.646,-150.5001 3104.646,-157.5001"/>
</g>
<!-- FullwidthFourColumnComponent -->
<g id="node19" class="node">
<title>FullwidthFourColumnComponent</title>
<polygon fill="#ffffb3" stroke="#000000" points="2883.8453,-122 2676.1547,-122 2676.1547,-86 2883.8453,-86 2883.8453,-122"/>
<text text-anchor="middle" x="2780" y="-99.8" font-family="Times,serif" font-size="14.00" fill="#000000">FullwidthFourColumnComponent</text>
</g>
<!-- FullwidthFourColumnComponent&#45;&gt;BlogModule -->
<g id="edge19" class="edge">
<title>FullwidthFourColumnComponent&#45;&gt;BlogModule</title>
<path fill="none" stroke="#000000" d="M2780,-122.1871C2780,-137.1824 2780,-156 2780,-156 2780,-156 3104.6386,-156 3104.6386,-156"/>
<polygon fill="#000000" stroke="#000000" points="3104.6386,-159.5001 3114.6386,-156 3104.6386,-152.5001 3104.6386,-159.5001"/>
</g>
<!-- FullwidthThreeColumnComponent -->
<g id="node20" class="node">
<title>FullwidthThreeColumnComponent</title>
<polygon fill="#ffffb3" stroke="#000000" points="2658.5447,-122 2445.4553,-122 2445.4553,-86 2658.5447,-86 2658.5447,-122"/>
<text text-anchor="middle" x="2552" y="-99.8" font-family="Times,serif" font-size="14.00" fill="#000000">FullwidthThreeColumnComponent</text>
</g>
<!-- FullwidthThreeColumnComponent&#45;&gt;BlogModule -->
<g id="edge20" class="edge">
<title>FullwidthThreeColumnComponent&#45;&gt;BlogModule</title>
<path fill="none" stroke="#000000" d="M2552,-122.2819C2552,-137.9478 2552,-158 2552,-158 2552,-158 3104.418,-158 3104.418,-158"/>
<polygon fill="#000000" stroke="#000000" points="3104.418,-161.5001 3114.418,-158 3104.4179,-154.5001 3104.418,-161.5001"/>
</g>
<!-- ListLeftSidebarComponent -->
<g id="node21" class="node">
<title>ListLeftSidebarComponent</title>
<polygon fill="#ffffb3" stroke="#000000" points="2427.6923,-122 2258.3077,-122 2258.3077,-86 2427.6923,-86 2427.6923,-122"/>
<text text-anchor="middle" x="2343" y="-99.8" font-family="Times,serif" font-size="14.00" fill="#000000">ListLeftSidebarComponent</text>
</g>
<!-- ListLeftSidebarComponent&#45;&gt;BlogModule -->
<g id="edge21" class="edge">
<title>ListLeftSidebarComponent&#45;&gt;BlogModule</title>
<path fill="none" stroke="#000000" d="M2343,-122.027C2343,-138.3976 2343,-160 2343,-160 2343,-160 3104.4702,-160 3104.4702,-160"/>
<polygon fill="#000000" stroke="#000000" points="3104.4702,-163.5001 3114.4702,-160 3104.4702,-156.5001 3104.4702,-163.5001"/>
</g>
<!-- ListNoSidebarComponent -->
<g id="node22" class="node">
<title>ListNoSidebarComponent</title>
<polygon fill="#ffffb3" stroke="#000000" points="2240.4804,-122 2077.5196,-122 2077.5196,-86 2240.4804,-86 2240.4804,-122"/>
<text text-anchor="middle" x="2159" y="-99.8" font-family="Times,serif" font-size="14.00" fill="#000000">ListNoSidebarComponent</text>
</g>
<!-- ListNoSidebarComponent&#45;&gt;BlogModule -->
<g id="edge22" class="edge">
<title>ListNoSidebarComponent&#45;&gt;BlogModule</title>
<path fill="none" stroke="#000000" d="M2159,-122.0336C2159,-139.0597 2159,-162 2159,-162 2159,-162 3104.4318,-162 3104.4318,-162"/>
<polygon fill="#000000" stroke="#000000" points="3104.4319,-165.5001 3114.4318,-162 3104.4318,-158.5001 3104.4319,-165.5001"/>
</g>
<!-- ListRightSidebarComponent -->
<g id="node23" class="node">
<title>ListRightSidebarComponent</title>
<polygon fill="#ffffb3" stroke="#000000" points="2059.4916,-122 1882.5084,-122 1882.5084,-86 2059.4916,-86 2059.4916,-122"/>
<text text-anchor="middle" x="1971" y="-99.8" font-family="Times,serif" font-size="14.00" fill="#000000">ListRightSidebarComponent</text>
</g>
<!-- ListRightSidebarComponent&#45;&gt;BlogModule -->
<g id="edge23" class="edge">
<title>ListRightSidebarComponent&#45;&gt;BlogModule</title>
<path fill="none" stroke="#000000" d="M1971,-122.002C1971,-139.6754 1971,-164 1971,-164 1971,-164 3104.7002,-164 3104.7002,-164"/>
<polygon fill="#000000" stroke="#000000" points="3104.7002,-167.5001 3114.7002,-164 3104.7002,-160.5001 3104.7002,-167.5001"/>
</g>
<!-- MasonaryLeftSidebarComponent -->
<g id="node24" class="node">
<title>MasonaryLeftSidebarComponent</title>
<polygon fill="#ffffb3" stroke="#000000" points="1864.8932,-122 1661.1068,-122 1661.1068,-86 1864.8932,-86 1864.8932,-122"/>
<text text-anchor="middle" x="1763" y="-99.8" font-family="Times,serif" font-size="14.00" fill="#000000">MasonaryLeftSidebarComponent</text>
</g>
<!-- MasonaryLeftSidebarComponent&#45;&gt;BlogModule -->
<g id="edge24" class="edge">
<title>MasonaryLeftSidebarComponent&#45;&gt;BlogModule</title>
<path fill="none" stroke="#000000" d="M1763,-122.2667C1763,-140.5552 1763,-166 1763,-166 1763,-166 3104.7207,-166 3104.7207,-166"/>
<polygon fill="#000000" stroke="#000000" points="3104.7208,-169.5001 3114.7207,-166 3104.7207,-162.5001 3104.7208,-169.5001"/>
</g>
<!-- MasonaryNoSidebarComponent -->
<g id="node25" class="node">
<title>MasonaryNoSidebarComponent</title>
<polygon fill="#ffffb3" stroke="#000000" points="1643.6811,-122 1446.3189,-122 1446.3189,-86 1643.6811,-86 1643.6811,-122"/>
<text text-anchor="middle" x="1545" y="-99.8" font-family="Times,serif" font-size="14.00" fill="#000000">MasonaryNoSidebarComponent</text>
</g>
<!-- MasonaryNoSidebarComponent&#45;&gt;BlogModule -->
<g id="edge25" class="edge">
<title>MasonaryNoSidebarComponent&#45;&gt;BlogModule</title>
<path fill="none" stroke="#000000" d="M1545,-122.1686C1545,-141.0898 1545,-168 1545,-168 1545,-168 3104.4388,-168 3104.4388,-168"/>
<polygon fill="#000000" stroke="#000000" points="3104.4388,-171.5001 3114.4388,-168 3104.4388,-164.5001 3104.4388,-171.5001"/>
</g>
<!-- MasonaryRightSidebarComponent -->
<g id="node26" class="node">
<title>MasonaryRightSidebarComponent</title>
<polygon fill="#ffffb3" stroke="#000000" points="1428.6923,-122 1217.3077,-122 1217.3077,-86 1428.6923,-86 1428.6923,-122"/>
<text text-anchor="middle" x="1323" y="-99.8" font-family="Times,serif" font-size="14.00" fill="#000000">MasonaryRightSidebarComponent</text>
</g>
<!-- MasonaryRightSidebarComponent&#45;&gt;BlogModule -->
<g id="edge26" class="edge">
<title>MasonaryRightSidebarComponent&#45;&gt;BlogModule</title>
<path fill="none" stroke="#000000" d="M1323,-122.308C1323,-142.1455 1323,-171 1323,-171 1323,-171 3104.4501,-171 3104.4501,-171"/>
<polygon fill="#000000" stroke="#000000" points="3104.4501,-174.5001 3114.4501,-171 3104.4501,-167.5001 3104.4501,-174.5001"/>
</g>
<!-- SidebarComponent -->
<g id="node27" class="node">
<title>SidebarComponent</title>
<polygon fill="#ffffb3" stroke="#000000" points="1199.0954,-122 1074.9046,-122 1074.9046,-86 1199.0954,-86 1199.0954,-122"/>
<text text-anchor="middle" x="1137" y="-99.8" font-family="Times,serif" font-size="14.00" fill="#000000">SidebarComponent</text>
</g>
<!-- SidebarComponent&#45;&gt;BlogModule -->
<g id="edge27" class="edge">
<title>SidebarComponent&#45;&gt;BlogModule</title>
<path fill="none" stroke="#000000" d="M1137,-122.1289C1137,-142.5724 1137,-173 1137,-173 1137,-173 3104.3825,-173 3104.3825,-173"/>
<polygon fill="#000000" stroke="#000000" points="3104.3825,-176.5001 3114.3825,-173 3104.3824,-169.5001 3104.3825,-176.5001"/>
</g>
<!-- SplitLeftSidebarComponent -->
<g id="node28" class="node">
<title>SplitLeftSidebarComponent</title>
<polygon fill="#ffffb3" stroke="#000000" points="1056.8682,-122 883.1318,-122 883.1318,-86 1056.8682,-86 1056.8682,-122"/>
<text text-anchor="middle" x="970" y="-99.8" font-family="Times,serif" font-size="14.00" fill="#000000">SplitLeftSidebarComponent</text>
</g>
<!-- SplitLeftSidebarComponent&#45;&gt;BlogModule -->
<g id="edge28" class="edge">
<title>SplitLeftSidebarComponent&#45;&gt;BlogModule</title>
<path fill="none" stroke="#000000" d="M970,-122.2843C970,-143.3211 970,-175 970,-175 970,-175 3104.2939,-175 3104.2939,-175"/>
<polygon fill="#000000" stroke="#000000" points="3104.2939,-178.5001 3114.2939,-175 3104.2938,-171.5001 3104.2939,-178.5001"/>
</g>
<!-- SplitNoSidebarComponent -->
<g id="node29" class="node">
<title>SplitNoSidebarComponent</title>
<polygon fill="#ffffb3" stroke="#000000" points="864.6568,-122 697.3432,-122 697.3432,-86 864.6568,-86 864.6568,-122"/>
<text text-anchor="middle" x="781" y="-99.8" font-family="Times,serif" font-size="14.00" fill="#000000">SplitNoSidebarComponent</text>
</g>
<!-- SplitNoSidebarComponent&#45;&gt;BlogModule -->
<g id="edge29" class="edge">
<title>SplitNoSidebarComponent&#45;&gt;BlogModule</title>
<path fill="none" stroke="#000000" d="M781,-122.0449C781,-143.6623 781,-177 781,-177 781,-177 3104.7136,-177 3104.7136,-177"/>
<polygon fill="#000000" stroke="#000000" points="3104.7136,-180.5001 3114.7136,-177 3104.7136,-173.5001 3104.7136,-180.5001"/>
</g>
<!-- SplitRightSidebarComponent -->
<g id="node30" class="node">
<title>SplitRightSidebarComponent</title>
<polygon fill="#ffffb3" stroke="#000000" points="678.6679,-122 497.3321,-122 497.3321,-86 678.6679,-86 678.6679,-122"/>
<text text-anchor="middle" x="588" y="-99.8" font-family="Times,serif" font-size="14.00" fill="#000000">SplitRightSidebarComponent</text>
</g>
<!-- SplitRightSidebarComponent&#45;&gt;BlogModule -->
<g id="edge30" class="edge">
<title>SplitRightSidebarComponent&#45;&gt;BlogModule</title>
<path fill="none" stroke="#000000" d="M588,-122.1554C588,-144.3519 588,-179 588,-179 588,-179 3104.4712,-179 3104.4712,-179"/>
<polygon fill="#000000" stroke="#000000" points="3104.4712,-182.5001 3114.4712,-179 3104.4711,-175.5001 3104.4712,-182.5001"/>
</g>
<!-- TwoColMasonaryComponent -->
<g id="node31" class="node">
<title>TwoColMasonaryComponent</title>
<polygon fill="#ffffb3" stroke="#000000" points="479.6979,-122 296.3021,-122 296.3021,-86 479.6979,-86 479.6979,-122"/>
<text text-anchor="middle" x="388" y="-99.8" font-family="Times,serif" font-size="14.00" fill="#000000">TwoColMasonaryComponent</text>
</g>
<!-- TwoColMasonaryComponent&#45;&gt;BlogModule -->
<g id="edge31" class="edge">
<title>TwoColMasonaryComponent&#45;&gt;BlogModule</title>
<path fill="none" stroke="#000000" d="M388,-122.2479C388,-145.0179 388,-181 388,-181 388,-181 3104.4899,-181 3104.4899,-181"/>
<polygon fill="#000000" stroke="#000000" points="3104.4899,-184.5001 3114.4899,-181 3104.4899,-177.5001 3104.4899,-184.5001"/>
</g>
<!-- BlogRoutingModule -->
<g id="node33" class="node">
<title>BlogRoutingModule</title>
<polygon fill="#8dd3c7" stroke="#000000" points="271.8948,-122 268.8948,-126 247.8948,-126 244.8948,-122 140.1052,-122 140.1052,-86 271.8948,-86 271.8948,-122"/>
<text text-anchor="middle" x="206" y="-99.8" font-family="Times,serif" font-size="14.00" fill="#000000">BlogRoutingModule</text>
</g>
<!-- BlogRoutingModule&#45;&gt;BlogModule -->
<g id="edge32" class="edge">
<title>BlogRoutingModule&#45;&gt;BlogModule</title>
<path fill="none" stroke="#000000" d="M206,-122.3228C206,-145.6602 206,-183 206,-183 206,-183 3104.5573,-183 3104.5573,-183"/>
<polygon fill="#000000" stroke="#000000" points="3104.5573,-186.5001 3114.5573,-183 3104.5572,-179.5001 3104.5573,-186.5001"/>
</g>
<!-- SharedModule -->
<g id="node34" class="node">
<title>SharedModule</title>
<polygon fill="#8dd3c7" stroke="#000000" points="122.4231,-122 119.4231,-126 98.4231,-126 95.4231,-122 23.5769,-122 23.5769,-86 122.4231,-86 122.4231,-122"/>
<text text-anchor="middle" x="73" y="-99.8" font-family="Times,serif" font-size="14.00" fill="#000000">SharedModule</text>
</g>
<!-- SharedModule&#45;&gt;BlogModule -->
<g id="edge33" class="edge">
<title>SharedModule&#45;&gt;BlogModule</title>
<path fill="none" stroke="#000000" d="M73,-122.3802C73,-146.2785 73,-185 73,-185 73,-185 3104.6844,-185 3104.6844,-185"/>
<polygon fill="#000000" stroke="#000000" points="3104.6844,-188.5001 3114.6844,-185 3104.6844,-181.5001 3104.6844,-188.5001"/>
</g>
</g>
</svg>
