<svg width="21" height="16" viewBox="0 0 21 16" fill="none" xmlns="http://www.w3.org/2000/svg">
<path d="M20.6789 0.604736C20.4796 0.47144 20.2335 0.466304 20.0297 0.591536L15.75 3.25905V1.25C15.75 0.835473 15.4565 0.5 15.0937 0.5H1.96875C0.883136 0.5 0 1.50925 0 2.75V13.25C0 14.4907 0.883136 15.5 1.96875 15.5H15.0937C15.4565 15.5 15.75 15.1646 15.75 14.75V12.741L20.0297 15.4084C20.1278 15.4692 20.2354 15.5 20.3438 15.5C20.4598 15.5 20.5758 15.4648 20.6789 15.3952C20.8776 15.2597 21 15.0144 21 14.75V1.25C21 0.985569 20.8776 0.74024 20.6789 0.604736ZM19.6875 13.4866L15.4078 10.8191C15.204 10.6924 14.9572 10.6968 14.7586 10.8323C14.5599 10.9678 14.4375 11.2132 14.4375 11.4776V14H1.96875C1.60667 14 1.3125 13.6638 1.3125 13.25V2.75C1.3125 2.3362 1.60667 2 1.96875 2H14.4375V4.52246C14.4375 4.78684 14.5599 5.03222 14.7586 5.16772C14.9585 5.30395 15.2053 5.30759 15.4078 5.18092L19.6875 2.51346C19.6875 2.51341 19.6875 13.4866 19.6875 13.4866Z" fill="#28263C"/>
</svg>
