<svg width="25" height="20" viewBox="0 0 25 20" fill="none" xmlns="http://www.w3.org/2000/svg">
<path d="M21.9481 0H3.05711C1.37078 0 0 1.37078 0 3.05711V15.9683C0 17.6547 1.37078 19.0255 3.05711 19.0255H21.9429C23.6292 19.0255 25 17.6547 25 15.9683V3.06228C25.0052 1.37596 23.6344 0 21.9481 0ZM23.6085 15.9683C23.6085 16.8839 22.8636 17.6288 21.9481 17.6288H3.05711C2.14153 17.6288 1.39665 16.8839 1.39665 15.9683V3.06228C1.39665 2.1467 2.14153 1.40182 3.05711 1.40182H21.9429C22.8585 1.40182 23.6034 2.1467 23.6034 3.06228V15.9683H23.6085Z" fill="#A4A4A4"/>
<path d="M15.7666 9.35286L21.8808 3.86972C22.1653 3.61108 22.1912 3.1714 21.9325 2.88172C21.6739 2.59722 21.2342 2.57136 20.9445 2.82999L12.5129 10.3978L10.868 8.92869C10.8628 8.92352 10.8576 8.91835 10.8576 8.91317C10.8214 8.87696 10.7852 8.84593 10.7438 8.81489L4.05025 2.82482C3.76057 2.56618 3.32089 2.59205 3.06225 2.88172C2.80361 3.1714 2.82947 3.61108 3.11915 3.86972L9.30578 9.39941L3.14501 15.1671C2.86568 15.4309 2.85017 15.8705 3.11398 16.1551C3.25364 16.2999 3.43986 16.3775 3.62608 16.3775C3.79678 16.3775 3.96748 16.3154 4.10198 16.1913L10.3559 10.3409L12.0525 11.8565C12.187 11.9755 12.3525 12.0324 12.5181 12.0324C12.6836 12.0324 12.8543 11.9703 12.9836 11.8513L14.7268 10.2891L20.9445 16.1964C21.079 16.3258 21.2549 16.3878 21.4256 16.3878C21.6118 16.3878 21.7929 16.3154 21.9325 16.1706C22.1963 15.8912 22.186 15.4464 21.9067 15.1826L15.7666 9.35286Z" fill="#A4A4A4"/>
</svg>
