<svg width="15" height="17" viewBox="0 0 15 17" fill="none" xmlns="http://www.w3.org/2000/svg">
<g clip-path="url(#clip0)">
<path d="M0.789779 0.75H3.75856C4.05652 0.75 4.29834 1.01727 4.29834 1.34659C4.29834 1.67591 4.05652 1.94318 3.75856 1.94318H2.0928L6.02941 6.29412C6.2402 6.52709 6.2402 6.90473 6.02941 7.1377C5.92389 7.25433 5.78597 7.3125 5.64779 7.3125C5.5096 7.3125 5.37169 7.25433 5.26616 7.1377L1.32956 2.78676V4.62784C1.32956 4.95716 1.08774 5.22443 0.789779 5.22443C0.491821 5.22443 0.25 4.95716 0.25 4.62784V1.34659C0.25 1.01727 0.491821 0.75 0.789779 0.75Z" fill="white"/>
<path d="M0.789779 12.0255C1.08774 12.0255 1.32956 12.2928 1.32956 12.6221V14.4632L5.26616 10.1122C5.47695 9.87926 5.81863 9.87926 6.02941 10.1122C6.2402 10.3452 6.2402 10.7228 6.02941 10.9558L2.0928 15.3068H3.75856C4.05652 15.3068 4.29834 15.5741 4.29834 15.9034C4.29834 16.2327 4.05652 16.5 3.75856 16.5H0.789779C0.491821 16.5 0.25 16.2327 0.25 15.9034V12.6221C0.25 12.2928 0.491821 12.0255 0.789779 12.0255Z" fill="white"/>
<path d="M12.6572 1.94318H10.9914C10.6935 1.94318 10.4517 1.67591 10.4517 1.34659C10.4517 1.01727 10.6935 0.75 10.9914 0.75H13.9602C14.2582 0.75 14.5 1.01727 14.5 1.34659V4.62784C14.5 4.95716 14.2582 5.22443 13.9602 5.22443C13.6623 5.22443 13.4204 4.95716 13.4204 4.62784V2.78676L9.48384 7.1377C9.37831 7.25433 9.2404 7.3125 9.10221 7.3125C8.96403 7.3125 8.82612 7.25433 8.72059 7.1377C8.5098 6.90473 8.5098 6.52709 8.72059 6.29412L12.6572 1.94318Z" fill="white"/>
<path d="M9.48384 10.1122L13.4204 14.4632V12.6221C13.4204 12.2928 13.6623 12.0255 13.9602 12.0255C14.2582 12.0255 14.5 12.2928 14.5 12.6221V15.9034C14.5 16.2327 14.2582 16.5 13.9602 16.5H10.9914C10.6935 16.5 10.4517 16.2327 10.4517 15.9034C10.4517 15.5741 10.6935 15.3068 10.9914 15.3068H12.6572L8.72059 10.9558C8.5098 10.7228 8.5098 10.3452 8.72059 10.1122C8.93137 9.87926 9.27305 9.87926 9.48384 10.1122Z" fill="white"/>
</g>
<defs>
<clipPath id="clip0">
<path d="M0.25 0.75H14.5V16.5H0.25V0.75Z" fill="white"/>
</clipPath>
</defs>
</svg>
