<svg width="14" height="20" viewBox="0 0 14 20" fill="none" xmlns="http://www.w3.org/2000/svg">
<path d="M6.07579 0.0614178C5.79915 -0.0466244 5.49506 -0.0104651 5.24979 0.156826C5.00452 0.324117 4.8638 0.602064 4.8638 0.898745V2.96505H1.78721C1.11326 2.96505 0.567383 3.51093 0.567383 4.18488V18.1419C0.567383 18.4687 0.806557 18.7466 1.12981 18.795L9.09313 19.99C9.35234 20.0292 9.6072 19.9534 9.80542 19.7817C10.0041 19.6105 10.1099 19.3622 10.1099 19.1008V18.4181H12.3775C12.9604 18.4181 13.4327 17.9459 13.4327 17.3634V3.32359C13.4327 3.0866 13.2872 2.874 13.0667 2.78818L6.07579 0.0614178ZM6.96714 14.516C6.91791 14.5726 6.84733 14.604 6.77371 14.604C6.7589 14.604 6.74408 14.6022 6.72884 14.5996L1.85561 13.7423C1.76674 13.727 1.69268 13.666 1.66044 13.5824C1.62776 13.4987 1.64214 13.4033 1.69703 13.3323L4.41639 9.83096C4.55274 9.65582 4.76142 9.55606 4.97881 9.55562C5.01977 9.55562 5.06115 9.55911 5.10254 9.56651C5.36263 9.61182 5.57566 9.79828 5.65669 10.0492L7.01767 14.2681C7.04599 14.3544 7.02682 14.448 6.96714 14.516ZM8.86223 13.4286C8.80604 13.4926 8.71978 13.5236 8.63526 13.5092L7.66419 13.338L6.66087 10.227L6.64868 10.1891L6.77414 10.0274C6.92837 9.82791 7.18061 9.73119 7.4285 9.77476C7.67638 9.81919 7.88027 9.99564 7.95738 10.2361L8.91103 13.192C8.93673 13.2744 8.91843 13.3641 8.86223 13.4286ZM11.8295 17.1351H10.1095V6.09566C10.1095 5.65086 9.79018 5.27271 9.34973 5.20649L2.95346 4.24587H11.5929C11.9018 4.24587 12.151 4.4955 12.151 4.80395V16.8149C12.1501 16.9918 12.0068 17.1351 11.8295 17.1351Z" fill="white"/>
</svg>
