<svg width="17" height="25" viewBox="0 0 17 25" fill="none" xmlns="http://www.w3.org/2000/svg">
<path d="M9.10085 24.7531C9.18067 24.6712 9.24304 24.5739 9.28395 24.467C9.32593 24.3634 9.34732 24.2526 9.34689 24.1409V20.7965M9.10085 24.7531L8.75186 24.395C8.75033 24.3965 8.74878 24.398 8.74723 24.3995M9.10085 24.7531C9.01896 24.8329 8.92161 24.8953 8.81476 24.9362L8.13321 20.7965V20.7992V24.1409V24.1428C8.13302 24.1895 8.14197 24.2359 8.15952 24.2792L8.16318 24.2882L8.16309 24.2882C8.17884 24.3294 8.20257 24.3672 8.23294 24.3995C8.26521 24.4299 8.30291 24.4535 8.34383 24.4691L8.3545 24.4732L8.35445 24.4733C8.44137 24.5088 8.53873 24.5088 8.62564 24.4733L8.63594 24.4691L8.63598 24.4692C8.67709 24.4535 8.71491 24.4298 8.74723 24.3995M9.10085 24.7531L8.74279 24.4041C8.74428 24.4026 8.74576 24.401 8.74723 24.3995M8.74723 24.3995C8.77757 24.3671 8.80126 24.3293 8.817 24.2882L8.82049 24.2791L8.82058 24.2792C8.83813 24.2359 8.84707 24.1895 8.84689 24.1428L8.84688 24.1409L8.84689 20.7972M8.84689 20.7972C8.84689 20.7977 8.84689 20.7981 8.84689 20.7986L9.34689 20.7965M8.84689 20.7972V20.7965H9.34689M8.84689 20.7972C8.84633 20.581 8.93178 20.3738 9.08381 20.2208L9.08595 20.2187C9.239 20.0666 9.44632 19.9811 9.66267 19.9818M9.34689 20.7965C9.34653 20.7128 9.3795 20.6326 9.43844 20.5733L9.66159 20.4818M9.66267 19.9818C9.66302 19.9818 9.66337 19.9818 9.66372 19.9818L9.66159 20.4818M9.66267 19.9818H9.66159V20.4818M9.66267 19.9818H13.0003H13.0022C13.0489 19.9819 13.0953 19.973 13.1386 19.9554L13.1476 19.9518L13.1476 19.9519C13.1889 19.9361 13.2267 19.9124 13.2588 19.8822M9.66159 20.4818H13.0003C13.1121 20.4822 13.2228 20.4608 13.3264 20.4188C13.4333 20.3779 13.5306 20.3156 13.6125 20.2357M13.2588 19.8822C13.2574 19.8837 13.2559 19.8852 13.2544 19.8867L13.6125 20.2357M13.2588 19.8822C13.2892 19.8498 13.3129 19.812 13.3286 19.7709L13.3326 19.7605L13.3327 19.7605C13.3682 19.6738 13.3683 19.5767 13.333 19.49C13.3285 19.4791 13.3235 19.4685 13.318 19.4582L13.2489 19.3891C13.2487 19.3889 13.2486 19.3888 13.2484 19.3886C13.1819 19.3229 13.0924 19.2858 12.9989 19.2852H9.65694M13.2588 19.8822C13.2603 19.8807 13.2618 19.8793 13.2633 19.8778L13.6125 20.2357M13.6125 20.2357C13.6923 20.1538 13.7547 20.0565 13.7956 19.9496C13.8806 19.7415 13.8806 19.5083 13.7956 19.3002M9.34117 18.4705V16.3649V16.219C9.34131 16.1433 9.3687 16.0702 9.41841 16.013L7.55024 20.579C7.49095 20.5201 7.4107 20.4871 7.32709 20.4875V19.9875H7.32599H3.98765C3.94202 19.987 3.89674 19.9777 3.85428 19.96L3.85434 19.9599L3.843 19.9555C3.79865 19.9383 3.75808 19.9123 3.72374 19.8791L3.71109 19.8669C3.60097 19.727 3.61009 19.5253 3.73594 19.3958C3.80229 19.331 3.89124 19.2944 3.98402 19.2938H7.31851C7.76845 19.2938 8.13321 18.9291 8.13321 18.4791V16.2268C8.14398 15.8049 7.8302 15.4447 7.41165 15.3969C6.63114 15.275 5.87506 15.0295 5.17171 14.6696L5.17172 14.6696L5.16783 14.6676C4.00126 14.0835 3.00657 13.2062 2.28123 12.1217L2.28066 12.1209C1.73595 11.3101 1.35706 10.3995 1.16595 9.4416C0.975688 8.47427 0.975689 7.47921 1.16595 6.51189C1.35721 5.55397 1.73604 4.64342 2.28068 3.83259L2.2812 3.83183C2.83006 3.01144 3.53475 2.30676 4.35514 1.75789L4.35594 1.75735C5.1667 1.21264 6.0773 0.83376 7.03518 0.64265C8.00253 0.452448 8.99763 0.45245 9.96498 0.642656C10.9228 0.833841 11.8334 1.21273 12.6442 1.75738L12.6448 1.75774C13.4654 2.30742 14.1701 3.01298 14.7187 3.83436L14.7191 3.83494C14.9916 4.24178 15.2233 4.67455 15.4107 5.12693L15.4108 5.12725C15.5976 5.57733 15.7393 6.04482 15.8341 6.52283C16.0245 7.49036 16.0245 8.4858 15.8341 9.4534C15.7395 9.93253 15.5977 10.4011 15.4107 10.8522L15.4105 10.8526C14.719 12.5257 13.4463 13.8925 11.8269 14.7018L11.8266 14.7019C11.1082 15.0616 10.3363 15.3024 9.54084 15.4149M9.34117 18.4705L8.84117 18.4684C8.84117 18.4689 8.84117 18.4693 8.84117 18.4698M9.34117 18.4705C9.34081 18.5542 9.37378 18.6344 9.43272 18.6937L8.84117 18.4698M9.34117 18.4705H8.84117V18.4698M8.84117 18.4698V16.3649V16.219V16.2181C8.84154 16.0222 8.91243 15.8329 9.04116 15.6849L9.04289 15.6829C9.17155 15.5366 9.3484 15.4416 9.54084 15.4149M9.54084 15.4149C9.5406 15.4149 9.54037 15.4149 9.54013 15.415L9.61009 15.91L9.54179 15.4147C9.54147 15.4148 9.54116 15.4148 9.54084 15.4149ZM9.65694 19.2852H9.65587V18.7852L9.658 19.2852C9.65765 19.2852 9.6573 19.2852 9.65694 19.2852ZM9.65694 19.2852L13.0003 18.7852C13.2254 18.7862 13.4412 18.8756 13.6011 19.0341L13.7126 19.1457C13.7455 19.1942 13.7733 19.246 13.7956 19.3002M13.7956 19.3002L13.3941 19.4643L13.3453 19.4855L13.3591 19.4993L13.392 19.4663L13.7956 19.3002ZM15.1567 9.2777V9.26544C15.2395 8.84678 15.2826 8.42114 15.2855 7.99436L15.2855 7.99371C15.3027 4.74176 13.0215 1.92997 9.83577 1.27671C6.14612 0.520103 2.54168 2.89782 1.78507 6.58747C1.02846 10.2771 3.40618 13.8816 7.09583 14.6382C10.7855 15.3948 14.3899 13.0171 15.1465 9.32741L15.1567 9.2777Z" fill="#369DF9" stroke="#369DF9"/>
</svg>
