<svg width="17" height="20" viewBox="0 0 17 20" fill="none" xmlns="http://www.w3.org/2000/svg">
<path d="M16.7784 5.14429C16.7784 4.64241 16.7784 4.14053 16.7784 3.63865C16.7784 3.23714 16.4791 2.93601 16.0802 2.93601C13.0879 2.93601 10.7938 2.03262 8.89871 0.225847C8.59948 -0.0752823 8.20052 -0.0752823 7.90129 0.225847C6.00618 2.03262 3.81185 2.93601 0.819577 2.93601C0.420607 2.93601 0.0216372 3.23714 0.0216372 3.63865C0.0216372 4.14053 0.0216372 4.64241 0.0216372 5.14429C-0.0781053 10.1631 -0.177847 17.0891 8.20051 20H8.4H8.59949C16.9778 17.1895 16.8781 10.2635 16.7784 5.14429Z" fill="#2E99E9"/>
<path d="M7.9685 14.0529C8.5053 14.0529 8.95142 13.6008 8.95142 13.0569C8.95142 12.5129 8.5053 12.0608 7.9685 12.0608C7.43171 12.0608 6.98559 12.5129 7.00735 13.0826C6.98196 13.6008 7.45347 14.0529 7.9685 14.0529ZM7.07263 7.61355C7.11616 8.38539 7.16331 9.15356 7.20683 9.9254C7.2286 10.1753 7.22859 10.4032 7.22859 10.6495C7.25036 11.0574 7.56591 11.3735 7.9685 11.3735C8.3711 11.3735 8.68302 11.0795 8.70841 10.6715C8.7737 9.46965 8.84261 8.28983 8.90789 7.08796C8.92966 6.77188 8.95142 6.45211 8.97681 6.13603C8.97681 5.61411 8.68665 5.18409 8.21514 5.0481C7.74363 4.93416 7.27575 5.16204 7.07263 5.61411C7.00372 5.77216 6.98196 5.9302 6.98196 6.11397C7.00372 6.61751 7.05087 7.11737 7.07263 7.61355Z" fill="white"/>
</svg>
