<svg width="36" height="30" viewBox="0 0 36 30" fill="none" xmlns="http://www.w3.org/2000/svg">
<path d="M21.2448 20.052C23.4212 19.1346 25.1388 17.8859 26.3975 16.3053C27.6563 14.725 28.2858 13.0041 28.2858 11.1425C28.2858 9.28074 27.6563 7.5599 26.3975 5.97936C25.1388 4.39904 23.4212 3.15013 21.2448 2.2325C19.0684 1.31501 16.7012 0.856445 14.143 0.856445C11.5849 0.856445 9.2178 1.31529 7.04127 2.23278C4.86503 3.15027 3.14735 4.39918 1.88859 5.97957C0.629555 7.55989 0 9.28067 0 11.1425C0 12.7361 0.475948 14.2367 1.42672 15.6428C2.37749 17.049 3.68339 18.2345 5.344 19.1987C5.21017 19.5204 5.07289 19.8146 4.93223 20.0829C4.7915 20.3507 4.62424 20.6083 4.42989 20.8563C4.23568 21.1043 4.08517 21.2984 3.97794 21.4385C3.87077 21.5791 3.69669 21.7769 3.45555 22.0311C3.21434 22.2856 3.06024 22.453 2.99346 22.5332C2.99346 22.5197 2.96651 22.5501 2.91304 22.6237C2.85935 22.6974 2.82923 22.7307 2.82248 22.7244C2.81586 22.7172 2.78898 22.7507 2.74219 22.8244C2.69533 22.8981 2.67182 22.9349 2.67182 22.9349L2.62151 23.035C2.60153 23.075 2.58802 23.115 2.58141 23.1555C2.57465 23.1954 2.57127 23.2392 2.57127 23.2859C2.57127 23.3327 2.57789 23.376 2.5914 23.4164C2.61835 23.5903 2.69533 23.7307 2.82248 23.8383C2.94977 23.9453 3.08684 23.9987 3.23439 23.9987H3.29469C3.96422 23.9049 4.54022 23.7979 5.02229 23.6772C7.08483 23.1414 8.94661 22.2842 10.6073 21.1057C11.8125 21.32 12.9913 21.4271 14.143 21.4271C16.701 21.428 19.0685 20.9695 21.2448 20.052ZM10.0048 18.3749L9.12069 18.9974C8.74565 19.2516 8.33071 19.5132 7.87524 19.7812L8.57853 18.0934L6.62985 16.9685C5.34386 16.2186 4.34623 15.3346 3.63639 14.3168C2.92648 13.2989 2.5717 12.2408 2.5717 11.1425C2.5717 9.77625 3.0976 8.49723 4.14885 7.30524C5.19996 6.11326 6.61634 5.16911 8.39762 4.47243C10.1788 3.77617 12.094 3.42772 14.1431 3.42772C16.1922 3.42772 18.1076 3.77617 19.8887 4.47243C21.6698 5.16904 23.0862 6.11326 24.1379 7.30524C25.1891 8.49716 25.7146 9.77618 25.7146 11.1425C25.7146 12.5086 25.1891 13.7875 24.1379 14.9795C23.0863 16.1719 21.6699 17.1158 19.8887 17.8121C18.1076 18.5085 16.1924 18.8568 14.1431 18.8568C13.1389 18.8568 12.1143 18.7628 11.0695 18.5755L10.0048 18.3749Z" fill="#A4A4A4"/>
<path d="M34.5738 20.7946C35.525 19.3946 36.0002 17.8917 36.0002 16.2843C36.0002 14.637 35.4979 13.0966 34.4938 11.6638C33.4892 10.231 32.1229 9.0388 30.3954 8.08789C30.7031 9.09228 30.8572 10.1101 30.8572 11.1416C30.8572 12.9361 30.4091 14.637 29.5112 16.2444C28.6139 17.8512 27.3281 19.2708 25.654 20.5031C24.1004 21.6281 22.3325 22.4917 20.3502 23.0946C18.3684 23.6971 16.299 23.9987 14.1427 23.9987C13.7411 23.9987 13.1517 23.9721 12.375 23.9186C15.0669 25.6861 18.2277 26.5703 21.8571 26.5703C23.009 26.5703 24.1875 26.463 25.393 26.2487C27.0536 27.4277 28.9155 28.2844 30.9779 28.8205C31.46 28.9414 32.0359 29.0482 32.7056 29.1419C32.8662 29.1556 33.0139 29.1084 33.1477 29.0015C33.2816 28.8941 33.3688 28.7472 33.4087 28.5599C33.4025 28.4795 33.4087 28.4354 33.4289 28.429C33.4487 28.4226 33.4453 28.3789 33.4188 28.2986C33.3924 28.2182 33.3788 28.178 33.3788 28.178L33.3287 28.0778C33.3148 28.0513 33.2922 28.0142 33.2584 27.9675C33.225 27.9211 33.1983 27.8873 33.178 27.8671C33.1583 27.8471 33.1284 27.8134 33.088 27.7669C33.048 27.7205 33.021 27.6901 33.0075 27.6766C32.9406 27.5962 32.7866 27.4289 32.5457 27.1743C32.3044 26.9201 32.1306 26.7225 32.0234 26.582C31.9162 26.4413 31.7655 26.2472 31.5714 25.9992C31.3773 25.7517 31.2097 25.4938 31.069 25.2258C30.9285 24.958 30.7912 24.6632 30.6573 24.342C32.3175 23.3769 33.6236 22.1951 34.5738 20.7946Z" fill="#A4A4A4"/>
</svg>
