<svg width="25" height="25" viewBox="0 0 25 25" fill="none" xmlns="http://www.w3.org/2000/svg">
<path d="M12.1124 25C10.0277 25 8.33215 23.2479 8.33215 21.0938C8.33215 20.6625 8.67086 20.3125 9.0882 20.3125C9.50554 20.3125 9.84425 20.6625 9.84425 21.0938C9.84425 22.3866 10.8615 23.4375 12.1124 23.4375C13.3635 23.4375 14.3805 22.3866 14.3805 21.0938C14.3805 20.6625 14.7192 20.3125 15.1366 20.3125C15.5539 20.3125 15.8926 20.6625 15.8926 21.0938C15.8926 23.2479 14.1971 25 12.1124 25Z" fill="#A4A4A4"/>
<path d="M20.429 21.875H3.79591C2.82316 21.875 2.03186 21.0573 2.03186 20.0521C2.03186 19.5187 2.25668 19.0136 2.64873 18.6666C4.18206 17.3281 5.05605 15.3824 5.05605 13.3209V10.4166C5.05605 6.39591 8.22145 3.125 12.1124 3.125C16.0036 3.125 19.169 6.39591 19.169 10.4166V13.3209C19.169 15.3824 20.043 17.3281 21.5662 18.6594C21.9684 19.0136 22.1932 19.5187 22.1932 20.0521C22.1932 21.0573 21.4019 21.875 20.429 21.875ZM12.1124 4.6875C9.05503 4.6875 6.56815 7.25727 6.56815 10.4166V13.3209C6.56815 15.8426 5.49868 18.224 3.63477 19.8521C3.59933 19.8833 3.54396 19.948 3.54396 20.0521C3.54396 20.1937 3.65895 20.3125 3.79591 20.3125H20.429C20.5661 20.3125 20.6811 20.1937 20.6811 20.0521C20.6811 19.948 20.6256 19.8833 20.5923 19.8542C18.7264 18.224 17.6569 15.8426 17.6569 13.3209V10.4166C17.6569 7.25727 15.17 4.6875 12.1124 4.6875Z" fill="#A4A4A4"/>
<path d="M12.1125 4.6875C11.6952 4.6875 11.3564 4.3375 11.3564 3.90625V0.78125C11.3564 0.349998 11.6952 0 12.1125 0C12.5298 0 12.8685 0.349998 12.8685 0.78125V3.90625C12.8685 4.3375 12.5298 4.6875 12.1125 4.6875Z" fill="#A4A4A4"/>
</svg>
