<svg width="14" height="14" fill="none" xmlns="http://www.w3.org/2000/svg"><path d="M13.453 3.347a1.798 1.798 0 00-1.32-.547H10.5l-.372-.992a1.354 1.354 0 00-.506-.616 1.299 1.299 0 00-.755-.259H5.133c-.257 0-.509.087-.754.26a1.355 1.355 0 00-.507.615L3.5 2.8H1.867c-.516 0-.956.182-1.32.547A1.798 1.798 0 000 4.667V11.2c0 .515.182.955.547 1.32a1.8 1.8 0 001.32.547h10.266a1.8 1.8 0 001.32-.547c.365-.365.547-.805.547-1.32V4.667c0-.516-.182-.956-.547-1.32zM9.308 10.24c-.64.64-1.409.96-2.308.96-.9 0-1.668-.32-2.308-.96a3.146 3.146 0 01-.959-2.307c0-.9.32-1.669.96-2.308A3.146 3.146 0 017 4.666c.9 0 1.669.32 2.308.96.64.639.959 1.408.959 2.308 0 .899-.32 1.668-.96 2.307z" fill="#fff"/><path d="M7 5.833c-.578 0-1.073.206-1.484.617-.41.41-.616.905-.616 1.484 0 .578.205 1.073.616 1.483.41.411.906.616 1.484.616s1.073-.205 1.484-.616c.41-.41.616-.905.616-1.483 0-.58-.205-1.074-.616-1.484A2.023 2.023 0 007 5.833z" fill="#fff"/></svg>