<svg width="18" height="18" viewBox="0 0 18 18" fill="none" xmlns="http://www.w3.org/2000/svg">
<path d="M7.41797 9.52734H10.582V10.582H7.41797V9.52734Z" fill="#29333F"/>
<path d="M14.6032 10.5823H11.6367V11.1096C11.6367 11.401 11.4008 11.6369 11.1094 11.6369H6.89062C6.59921 11.6369 6.36328 11.401 6.36328 11.1096V10.5823H3.39684C2.715 10.5823 2.11198 10.1476 1.8961 9.50079L0 3.81152V15.3284C0 16.2007 0.709717 16.9104 1.58203 16.9104H16.418C17.2903 16.9104 18 16.2007 18 15.3284V3.81194L16.1038 9.50079C15.888 10.1476 15.285 10.5823 14.6032 10.5823Z" fill="#29333F"/>
<path d="M11.1093 1.08984H6.89052C6.0182 1.08984 5.30849 1.79956 5.30849 2.67188V3.19922H0.907227L2.89616 9.16685C2.96826 9.3826 3.16959 9.52734 3.39673 9.52734H6.36317V9C6.36317 8.70859 6.59911 8.47266 6.89052 8.47266H11.1093C11.4007 8.47266 11.6366 8.70859 11.6366 9V9.52734H14.6031C14.8302 9.52734 15.0315 9.3826 15.1036 9.16685L17.0927 3.19922H12.6913V2.67188C12.6913 1.79956 11.9816 1.08984 11.1093 1.08984ZM6.36317 3.19922V2.67188C6.36317 2.38087 6.59952 2.14453 6.89052 2.14453H11.1093C11.4003 2.14453 11.6366 2.38087 11.6366 2.67188V3.19922H6.36317Z" fill="#29333F"/>
</svg>
