<svg width="14" height="14" fill="none" xmlns="http://www.w3.org/2000/svg"><path d="M10.28 5.75c-1.131 0-2.051.92-2.051 2.05 0 1.131.92 2.05 2.05 2.05s2.05-.919 2.05-2.05c0-1.13-.92-2.05-2.05-2.05zm-8.202 7.819v-.848c0-.14.015-.277.03-.413l-.03.003a2.095 2.095 0 01-1.657-.82A2.03 2.03 0 000 12.721v.848c0 .227.183.41.41.41h1.743a1.216 1.216 0 01-.075-.41zm0-4.539c-.679 0-1.23.553-1.23 1.23a1.232 1.232 0 001.464 1.207 3.68 3.68 0 01.97-1.455 1.232 1.232 0 00-1.204-.981zm3.69 3.691c0-.434.066-.853.18-1.25-.06.004-.117.02-.18.02a2.446 2.446 0 01-1.894-.91 2.853 2.853 0 00-.976 2.14v.848c0 .227.183.41.41.41h2.536a1.216 1.216 0 01-.076-.41v-.848zm0-5.331c-.904 0-1.64.736-1.64 1.64 0 .905.736 1.641 1.64 1.641.193 0 .375-.04.547-.1.273-.5.637-.942 1.07-1.305.011-.077.024-.155.024-.235 0-.905-.736-1.64-1.64-1.64z" fill="#F8856B"/><path d="M12.404 9.713a2.853 2.853 0 01-2.125.958 2.853 2.853 0 01-2.124-.958 3.683 3.683 0 00-1.566 3.008v.848c0 .226.183.41.41.41h6.588a.41.41 0 00.41-.41v-.848c0-1.243-.649-2.339-1.593-3.008zm.309-7.936a.41.41 0 00-.332-.28l-1.198-.173L10.647.21c-.138-.28-.598-.28-.735 0l-.537 1.114-1.198.174a.41.41 0 00-.227.7l.867.844-.204 1.194a.41.41 0 00.594.432l1.072-.563c.147.077 1.106.61 1.263.61a.409.409 0 00.404-.48l-.205-1.193.868-.845a.41.41 0 00.104-.42zM8.291 5.299a1.214 1.214 0 01-.429-.582l-.8.8L5.7 3.472a.41.41 0 00-.632-.062l-3.28 3.28a.41.41 0 10.58.58l2.927-2.927 1.362 2.045a.41.41 0 00.632.062l1.1-1.1c-.031-.02-.067-.03-.098-.051z" fill="#F8856B"/></svg>