<svg width="18" height="20" viewBox="0 0 18 20" fill="none" xmlns="http://www.w3.org/2000/svg">
<path d="M17.3951 5.14798C17.3712 4.62182 17.3712 4.11958 17.3712 3.61734C17.3712 3.21076 17.0603 2.89985 16.6537 2.89985C13.6642 2.89985 11.3921 2.03886 9.50273 0.197309C9.21573 -0.0657698 8.78524 -0.0657698 8.49824 0.197309C6.60886 2.03886 4.33681 2.89985 1.34727 2.89985C0.940695 2.89985 0.629783 3.21076 0.629783 3.61734C0.629783 4.11958 0.629783 4.62182 0.605867 5.14798C0.510202 10.1704 0.366703 17.0583 8.76132 19.9522L9.00049 20L9.23965 19.9522C17.6103 17.0583 17.4908 10.1943 17.3951 5.14798ZM8.42649 12.1076C8.283 12.2272 8.11558 12.299 7.92425 12.299H7.90034C7.709 12.299 7.51767 12.2033 7.39809 12.0598L5.17388 9.59641L6.25011 8.63976L7.996 10.577L11.8704 6.89387L12.851 7.94619L8.42649 12.1076Z" fill="#2E99E9"/>
</svg>
