<svg width="30" height="30" viewBox="0 0 30 30" fill="none" xmlns="http://www.w3.org/2000/svg">
<g filter="url(#filter0_d)">
<path d="M26.9999 12.0001C26.9999 18.6275 21.6272 23.9999 14.9998 23.9999C8.37239 23.9999 2.99996 18.6275 2.99996 12.0001C2.99996 5.37266 8.37239 0 14.9998 0C21.6272 0 26.9999 5.37266 26.9999 12.0001V12.0001ZM16.3956 7.01043L11.3431 11.4316C11.1786 11.5747 11.084 11.782 11.084 12.0001C11.084 12.218 11.1786 12.4254 11.3431 12.5684L16.3956 16.9895C16.7095 17.265 17.1876 17.234 17.4631 16.9201C17.7385 16.606 17.7075 16.1282 17.3937 15.8527L12.9915 12.0001L17.3937 8.14746C17.7075 7.87176 17.7385 7.39391 17.4631 7.08005C17.1876 6.76596 16.7095 6.73497 16.3956 7.01043Z" fill="white" />
</g>
<defs>
<filter id="filter0_d" x="-4.57764e-05" y="0" width="29.9999" height="29.9999" filterUnits="userSpaceOnUse" color-interpolation-filters="sRGB">
<feFlood flood-opacity="0" result="BackgroundImageFix"/>
<feColorMatrix in="SourceAlpha" type="matrix" values="0 0 0 0 0 0 0 0 0 0 0 0 0 0 0 0 0 0 127 0"/>
<feOffset dy="3"/>
<feGaussianBlur stdDeviation="1.5"/>
<feColorMatrix type="matrix" values="0 0 0 0 0 0 0 0 0 0 0 0 0 0 0 0 0 0 0.1 0"/>
<feBlend mode="normal" in2="BackgroundImageFix" result="effect1_dropShadow"/>
<feBlend mode="normal" in="SourceGraphic" in2="effect1_dropShadow" result="shape"/>
</filter>
</defs>
</svg>
