<svg width="30" height="30" viewBox="0 0 30 30" fill="none" xmlns="http://www.w3.org/2000/svg">
<g filter="url(#filter0_d)">
<path d="M3 12.0001C3 18.6276 8.37266 24 15.0001 24C21.6275 24 26.9999 18.6276 26.9999 12.0001C26.9999 5.37272 21.6275 6.10352e-05 15.0001 6.10352e-05C8.37266 6.10352e-05 3 5.37272 3 12.0001ZM13.6042 7.01049L18.6568 11.4316C18.8212 11.5748 18.9158 11.782 18.9158 12.0001C18.9158 12.218 18.8212 12.4255 18.6568 12.5684L13.6042 16.9895C13.2904 17.265 12.8123 17.234 12.5368 16.9202C12.2614 16.6061 12.2924 16.1282 12.6062 15.8528L17.0084 12.0001L12.6062 8.14752C12.2924 7.87182 12.2614 7.39397 12.5368 7.08011C12.8123 6.76602 13.2904 6.73503 13.6042 7.01049Z" fill="white" />
</g>
<defs>
<filter id="filter0_d" x="0" y="6.10352e-05" width="29.9999" height="29.9999" filterUnits="userSpaceOnUse" color-interpolation-filters="sRGB">
<feFlood flood-opacity="0" result="BackgroundImageFix"/>
<feColorMatrix in="SourceAlpha" type="matrix" values="0 0 0 0 0 0 0 0 0 0 0 0 0 0 0 0 0 0 127 0"/>
<feOffset dy="3"/>
<feGaussianBlur stdDeviation="1.5"/>
<feColorMatrix type="matrix" values="0 0 0 0 0 0 0 0 0 0 0 0 0 0 0 0 0 0 0.1 0"/>
<feBlend mode="normal" in2="BackgroundImageFix" result="effect1_dropShadow"/>
<feBlend mode="normal" in="SourceGraphic" in2="effect1_dropShadow" result="shape"/>
</filter>
</defs>
</svg>
