<svg width="22" height="22" viewBox="0 0 22 22" fill="none" xmlns="http://www.w3.org/2000/svg">
<path d="M17.2033 0.785801C17.2033 0.488582 17.0297 0.207005 16.7613 0.0818604C16.4772 -0.0589277 16.1616 -0.0119983 15.9248 0.175719L8.93262 5.69774L17.2033 13.8947V0.785801Z" fill="white"/>
<path d="M21.7702 20.658L1.34087 0.229817C1.03443 -0.0766058 0.536269 -0.0766058 0.22983 0.229817C-0.0766099 0.53624 -0.0766099 1.03437 0.22983 1.3408L5.17372 6.28599H4.71328C4.22612 6.28599 3.80181 6.50599 3.51895 6.8517C3.28322 7.11884 3.14179 7.48026 3.14179 7.85739V14.143C3.14179 15.0073 3.84896 15.7144 4.71328 15.7144H8.35912L16.0123 21.8271C16.1537 21.9371 16.3265 22 16.4994 22C16.6094 22 16.7351 21.9686 16.8451 21.9214C17.1123 21.7957 17.2852 21.5129 17.2852 21.2143V18.3968L20.6576 21.769C20.8116 21.923 21.0127 22 21.2139 22C21.415 22 21.6162 21.923 21.7702 21.7706C22.0766 21.4626 22.0766 20.966 21.7702 20.658Z" fill="white"/>
</svg>
