<svg width="23" height="23" viewBox="0 0 23 23" fill="none" xmlns="http://www.w3.org/2000/svg">
<g clip-path="url(#clip0)">
<path d="M22.9797 8.88336C22.9312 8.73433 22.8023 8.62564 22.6471 8.603L15.1996 7.52066L11.869 0.772205C11.7998 0.631406 11.6566 0.54248 11.5001 0.54248C11.3437 0.54248 11.2 0.631406 11.1312 0.772205L7.80024 7.52107L0.35273 8.60341C0.197522 8.62605 0.0690743 8.73433 0.0200829 8.88377C-0.028085 9.0324 0.0118491 9.19625 0.124241 9.30535L5.5137 14.5585L4.24116 21.9764C4.21481 22.1308 4.27821 22.2868 4.4046 22.379C4.53182 22.4721 4.7002 22.484 4.83811 22.4103L11.5001 18.9085L18.1613 22.4103C18.2214 22.442 18.2877 22.4577 18.3531 22.4577C18.4384 22.4577 18.5232 22.4313 18.5952 22.379C18.722 22.2868 18.7854 22.1308 18.7587 21.9764L17.4865 14.5589L22.876 9.30535C22.988 9.19543 23.0283 9.03198 22.9797 8.88336Z" fill="#FFD66E"/>
</g>
<defs>
<clipPath id="clip0">
<rect width="23" height="23" fill="white"/>
</clipPath>
</defs>
</svg>
