<svg width="30" height="30" viewBox="0 0 30 30" fill="none" xmlns="http://www.w3.org/2000/svg">
<path d="M29.9736 11.5869C29.9102 11.3925 29.7421 11.2508 29.5397 11.2212L19.8255 9.80949L15.4813 1.00716C15.3911 0.823509 15.2042 0.70752 15.0002 0.70752C14.7961 0.70752 14.6087 0.823509 14.519 1.00716L10.1742 9.81003L0.460083 11.2218C0.257638 11.2513 0.0900969 11.3925 0.0261951 11.5875C-0.0366327 11.7813 0.0154553 11.995 0.162054 12.1373L7.19178 18.9893L5.53195 28.6648C5.49758 28.8662 5.58028 29.0697 5.74513 29.19C5.91106 29.3113 6.13069 29.3269 6.31058 29.2308L15.0002 24.6632L23.6886 29.2308C23.767 29.2722 23.8535 29.2926 23.9389 29.2926C24.05 29.2926 24.1607 29.2582 24.2546 29.19C24.42 29.0697 24.5027 28.8662 24.4678 28.6648L22.8085 18.9899L29.8382 12.1373C29.9843 11.994 30.0369 11.7808 29.9736 11.5869Z" fill="#FFD66E"/>
</svg>
