<svg width="24" height="30" viewBox="0 0 24 30" fill="none" xmlns="http://www.w3.org/2000/svg">
<path d="M22.625 11.25H20.75V8.74998C20.75 3.92519 16.8248 0 12 0C7.17516 0 3.25002 3.92519 3.25002 8.74998V11.25H1.37502C1.02955 11.25 0.75 11.5296 0.75 11.875V27.5C0.75 28.8788 1.87119 30 3.25002 30H20.75C22.1288 30 23.25 28.8788 23.25 27.5V11.875C23.25 11.5296 22.9704 11.25 22.625 11.25ZM13.8714 24.306C13.8909 24.4824 13.8342 24.6594 13.7157 24.7919C13.5973 24.9243 13.4276 25 13.25 25H10.75C10.5724 25 10.4027 24.9243 10.2843 24.7919C10.1659 24.6595 10.1091 24.4825 10.1287 24.306L10.523 20.7605C9.88272 20.2948 9.50004 19.5581 9.50004 18.75C9.50004 17.3712 10.6212 16.25 12.0001 16.25C13.3789 16.25 14.5001 17.3712 14.5001 18.75C14.5001 19.5581 14.1174 20.2948 13.4771 20.7605L13.8714 24.306ZM17 11.25H7.00002V8.74998C7.00002 5.99303 9.24305 3.75 12 3.75C14.757 3.75 17 5.99303 17 8.74998V11.25Z" fill="#6E6C79"/>
</svg>
