<svg width="17" height="20" viewBox="0 0 17 20" fill="none" xmlns="http://www.w3.org/2000/svg">
<g clip-path="url(#clip0)">
<path d="M16.8 5.09998C16.8 4.59998 16.8 4.09998 16.8 3.59998C16.8 3.19998 16.5 2.89998 16.1 2.89998C13.1 2.89998 10.8 1.99998 8.90003 0.199976C8.60003 -0.100024 8.20003 -0.100024 7.90003 0.199976C6.00003 1.99998 3.80003 2.89998 0.800026 2.89998C0.400026 2.89998 2.55592e-05 3.19998 2.55592e-05 3.59998C2.55592e-05 4.09998 2.55592e-05 4.59998 2.55592e-05 5.09998C-0.0999744 10.1 -0.199974 17 8.20003 19.9H8.40003H8.60003C17 17.1 16.9 10.2 16.8 5.09998Z" fill="#00CF72"/>
<path d="M12.8828 7.13586C12.7266 6.95471 12.4734 6.95471 12.3172 7.13586L7.52491 12.6929L5.68285 10.5569C5.52665 10.3757 5.2734 10.3758 5.11716 10.5569C4.96095 10.738 4.96095 11.0317 5.11716 11.2128L7.24207 13.6768C7.39822 13.8579 7.65166 13.8578 7.80775 13.6768L12.8828 7.79182C13.0391 7.61069 13.039 7.31701 12.8828 7.13586Z" fill="white"/>
</g>
<defs>
<clipPath id="clip0">
<path d="M0 0H16.8V20H0V0Z" fill="white"/>
</clipPath>
</defs>
</svg>
