<svg width="20" height="20" viewBox="0 0 20 20" fill="none" xmlns="http://www.w3.org/2000/svg">
<path d="M12.7133 11.0336C12.7133 10.783 12.9165 10.5801 13.1672 10.5801H14.7514C15.0018 10.5801 15.2051 10.783 15.2051 11.0336V12.6175C15.2051 12.8684 15.0018 13.0714 14.7514 13.0714H13.1672C12.9165 13.0714 12.7133 12.8684 12.7133 12.6175V11.0336Z" fill="#F8856B"/>
<path d="M8.75353 11.0336C8.75353 10.783 8.95679 10.5801 9.20704 10.5801H10.7914C11.0419 10.5801 11.2451 10.783 11.2451 11.0336V12.6175C11.2451 12.8684 11.0419 13.0714 10.7914 13.0714H9.20704C8.95679 13.0714 8.75353 12.8684 8.75353 12.6175V11.0336Z" fill="#F8856B"/>
<path d="M4.7953 11.0336C4.7953 10.783 4.99856 10.5801 5.24901 10.5801H6.83315C7.08389 10.5801 7.28711 10.783 7.28711 11.0336V12.6175C7.28711 12.8684 7.08389 13.0714 6.83315 13.0714H5.24901C4.99856 13.0714 4.7953 12.8684 4.7953 12.6175V11.0336Z" fill="#F8856B"/>
<path d="M12.7133 14.9928C12.7133 14.7419 12.9165 14.5391 13.1672 14.5391H14.7514C15.0018 14.5391 15.2051 14.7419 15.2051 14.9928V16.5765C15.2051 16.8272 15.0018 17.0302 14.7514 17.0302H13.1672C12.9165 17.0302 12.7133 16.8271 12.7133 16.5765V14.9928Z" fill="#F8856B"/>
<path d="M8.75353 14.9928C8.75353 14.7419 8.95679 14.5391 9.20704 14.5391H10.7914C11.0419 14.5391 11.2451 14.7419 11.2451 14.9928V16.5765C11.2451 16.8272 11.0419 17.0302 10.7914 17.0302H9.20704C8.95679 17.0302 8.75353 16.8271 8.75353 16.5765V14.9928Z" fill="#F8856B"/>
<path d="M4.7953 14.9928C4.7953 14.7419 4.99856 14.5391 5.24881 14.5391H6.83315C7.08389 14.5391 7.28711 14.7419 7.28711 14.9928V16.5765C7.28711 16.8272 7.08389 17.0302 6.83315 17.0302H5.24881C4.99856 17.0302 4.7953 16.8271 4.7953 16.5765V14.9928Z" fill="#F8856B"/>
<path d="M1.96243 2.22646V4.64579C1.96243 5.7393 2.84954 6.6205 3.94288 6.6205H5.19221C6.28564 6.6205 7.1845 5.7393 7.1845 4.64579V2.21777H12.8155V4.64579C12.8155 5.7393 13.7143 6.6205 14.8076 6.6205H16.0572C17.1505 6.6205 18.0376 5.7393 18.0376 4.64579V2.22646C18.9931 2.25526 19.7783 3.04596 19.7783 4.01783V18.1962C19.7783 19.1864 18.9758 19.9996 17.9856 19.9996H2.01439C1.02572 19.9996 0.221706 19.1847 0.221706 18.1962V4.01783C0.221706 3.04596 1.00687 2.25526 1.96243 2.22646ZM2.54271 17.3133C2.54271 17.7412 2.88965 18.0884 3.31771 18.0884H16.7164C17.1445 18.0884 17.4915 17.7412 17.4915 17.3133V9.98966C17.4915 9.56159 17.1446 9.21445 16.7164 9.21445H3.31775C2.88969 9.21445 2.54275 9.56159 2.54275 9.98966L2.54271 17.3133Z" fill="#F8856B"/>
<path d="M16.062 5.32396H14.8262C14.4511 5.32396 14.147 5.02028 14.147 4.64519V0.67901C14.147 0.303881 14.4511 0 14.8262 0H16.062C16.4371 0 16.7412 0.303881 16.7412 0.67901V4.64519C16.7412 5.02028 16.4371 5.32396 16.062 5.32396Z" fill="#F8856B"/>
<path d="M5.20754 5.32396H3.97178C3.59694 5.32396 3.29281 5.02028 3.29281 4.64519V0.67901C3.29277 0.303881 3.5969 0 3.97178 0H5.20754C5.58259 0 5.88672 0.303881 5.88672 0.67901V4.64519C5.88672 5.02028 5.58259 5.32396 5.20754 5.32396Z" fill="#F8856B"/>
</svg>
