<?xml version="1.0" encoding="UTF-8" standalone="no"?>
<!DOCTYPE svg PUBLIC "-//W3C//DTD SVG 1.1//EN"
 "http://www.w3.org/Graphics/SVG/1.1/DTD/svg11.dtd">
<!-- Generated by graphviz version 2.40.1 (20161225.0304)
 -->
<!-- Title: dependencies Pages: 1 -->
<svg width="829pt" height="211pt"
 viewBox="0.00 0.00 829.00 211.00" xmlns="http://www.w3.org/2000/svg" xmlns:xlink="http://www.w3.org/1999/xlink">
<g id="graph0" class="graph" transform="scale(1 1) rotate(0) translate(4 207)">
<title>dependencies</title>
<polygon fill="#ffffff" stroke="transparent" points="-4,4 -4,-207 825,-207 825,4 -4,4"/>
<text text-anchor="start" x="389.5091" y="-42.4" font-family="sans-serif" font-weight="bold" font-size="14.00" fill="#000000">Legend</text>
<polygon fill="#ffffb3" stroke="transparent" points="176.5,-10 176.5,-30 196.5,-30 196.5,-10 176.5,-10"/>
<text text-anchor="start" x="200.129" y="-15.4" font-family="sans-serif" font-size="14.00" fill="#000000"> &#160;Declarations</text>
<polygon fill="#8dd3c7" stroke="transparent" points="289.5,-10 289.5,-30 309.5,-30 309.5,-10 289.5,-10"/>
<text text-anchor="start" x="313.2251" y="-15.4" font-family="sans-serif" font-size="14.00" fill="#000000"> &#160;Module</text>
<polygon fill="#80b1d3" stroke="transparent" points="375.5,-10 375.5,-30 395.5,-30 395.5,-10 375.5,-10"/>
<text text-anchor="start" x="399.2812" y="-15.4" font-family="sans-serif" font-size="14.00" fill="#000000"> &#160;Bootstrap</text>
<polygon fill="#fdb462" stroke="transparent" points="472.5,-10 472.5,-30 492.5,-30 492.5,-10 472.5,-10"/>
<text text-anchor="start" x="496.1732" y="-15.4" font-family="sans-serif" font-size="14.00" fill="#000000"> &#160;Providers</text>
<polygon fill="#fb8072" stroke="transparent" points="568.5,-10 568.5,-30 588.5,-30 588.5,-10 568.5,-10"/>
<text text-anchor="start" x="592.2258" y="-15.4" font-family="sans-serif" font-size="14.00" fill="#000000"> &#160;Exports</text>
<g id="clust1" class="cluster">
<title>cluster_VideoModule</title>
<polygon fill="none" stroke="#000000" stroke-dasharray="1,5" points="8,-70 8,-195 813,-195 813,-70 8,-70"/>
</g>
<g id="clust2" class="cluster">
<title>cluster_VideoModule_declarations</title>
<polygon fill="none" stroke="#000000" points="290,-78 290,-130 805,-130 805,-78 290,-78"/>
</g>
<g id="clust6" class="cluster">
<title>cluster_VideoModule_imports</title>
<polygon fill="none" stroke="#000000" points="168,-78 168,-130 282,-130 282,-78 168,-78"/>
</g>
<g id="clust9" class="cluster">
<title>cluster_VideoModule_providers</title>
<polygon fill="none" stroke="#000000" points="16,-78 16,-130 160,-130 160,-78 16,-78"/>
</g>
<!-- VideoCameraDialogComponent -->
<g id="node1" class="node">
<title>VideoCameraDialogComponent</title>
<polygon fill="#ffffb3" stroke="#000000" points="796.6783,-122 599.3217,-122 599.3217,-86 796.6783,-86 796.6783,-122"/>
<text text-anchor="middle" x="698" y="-99.8" font-family="Times,serif" font-size="14.00" fill="#000000">VideoCameraDialogComponent</text>
</g>
<!-- VideoModule -->
<g id="node4" class="node">
<title>VideoModule</title>
<polygon fill="#8dd3c7" stroke="#000000" points="419.7619,-187 416.7619,-191 395.7619,-191 392.7619,-187 326.2381,-187 326.2381,-151 419.7619,-151 419.7619,-187"/>
<text text-anchor="middle" x="373" y="-164.8" font-family="Times,serif" font-size="14.00" fill="#000000">VideoModule</text>
</g>
<!-- VideoCameraDialogComponent&#45;&gt;VideoModule -->
<g id="edge1" class="edge">
<title>VideoCameraDialogComponent&#45;&gt;VideoModule</title>
<path fill="none" stroke="#000000" d="M698,-122.2843C698,-143.3211 698,-175 698,-175 698,-175 429.9107,-175 429.9107,-175"/>
<polygon fill="#000000" stroke="#000000" points="429.9107,-171.5001 419.9107,-175 429.9107,-178.5001 429.9107,-171.5001"/>
</g>
<!-- VideoComponent -->
<g id="node2" class="node">
<title>VideoComponent</title>
<polygon fill="#ffffb3" stroke="#000000" points="581.5451,-122 466.4549,-122 466.4549,-86 581.5451,-86 581.5451,-122"/>
<text text-anchor="middle" x="524" y="-99.8" font-family="Times,serif" font-size="14.00" fill="#000000">VideoComponent</text>
</g>
<!-- VideoComponent&#45;&gt;VideoModule -->
<g id="edge2" class="edge">
<title>VideoComponent&#45;&gt;VideoModule</title>
<path fill="none" stroke="#000000" d="M524,-122.0225C524,-139.3734 524,-163 524,-163 524,-163 429.9496,-163 429.9496,-163"/>
<polygon fill="#000000" stroke="#000000" points="429.9497,-159.5001 419.9496,-163 429.9496,-166.5001 429.9497,-159.5001"/>
</g>
<!-- VideoDetailComponent -->
<g id="node3" class="node">
<title>VideoDetailComponent</title>
<polygon fill="#ffffb3" stroke="#000000" points="447.752,-122 298.248,-122 298.248,-86 447.752,-86 447.752,-122"/>
<text text-anchor="middle" x="373" y="-99.8" font-family="Times,serif" font-size="14.00" fill="#000000">VideoDetailComponent</text>
</g>
<!-- VideoDetailComponent&#45;&gt;VideoModule -->
<g id="edge3" class="edge">
<title>VideoDetailComponent&#45;&gt;VideoModule</title>
<path fill="none" stroke="#000000" d="M373,-122.1061C373,-122.1061 373,-140.991 373,-140.991"/>
<polygon fill="#000000" stroke="#000000" points="369.5001,-140.9909 373,-150.991 376.5001,-140.991 369.5001,-140.9909"/>
</g>
<!-- SharedModule -->
<g id="node5" class="node">
<title>SharedModule</title>
<polygon fill="#8dd3c7" stroke="#000000" points="274.4231,-122 271.4231,-126 250.4231,-126 247.4231,-122 175.5769,-122 175.5769,-86 274.4231,-86 274.4231,-122"/>
<text text-anchor="middle" x="225" y="-99.8" font-family="Times,serif" font-size="14.00" fill="#000000">SharedModule</text>
</g>
<!-- SharedModule&#45;&gt;VideoModule -->
<g id="edge4" class="edge">
<title>SharedModule&#45;&gt;VideoModule</title>
<path fill="none" stroke="#000000" d="M225,-122.0225C225,-139.3734 225,-163 225,-163 225,-163 316.1719,-163 316.1719,-163"/>
<polygon fill="#000000" stroke="#000000" points="316.1719,-166.5001 326.1719,-163 316.1718,-159.5001 316.1719,-166.5001"/>
</g>
<!-- VideoService -->
<g id="node6" class="node">
<title>VideoService</title>
<ellipse fill="#fdb462" stroke="#000000" cx="88" cy="-104" rx="63.6813" ry="18"/>
<text text-anchor="middle" x="88" y="-99.8" font-family="Times,serif" font-size="14.00" fill="#000000">VideoService</text>
</g>
<!-- VideoService&#45;&gt;VideoModule -->
<g id="edge5" class="edge">
<title>VideoService&#45;&gt;VideoModule</title>
<path fill="none" stroke="#000000" d="M88,-122.2843C88,-143.3211 88,-175 88,-175 88,-175 315.938,-175 315.938,-175"/>
<polygon fill="#000000" stroke="#000000" points="315.9381,-178.5001 325.938,-175 315.938,-171.5001 315.9381,-178.5001"/>
</g>
</g>
</svg>
