<?xml version="1.0" encoding="UTF-8" standalone="no"?>
<!DOCTYPE svg PUBLIC "-//W3C//DTD SVG 1.1//EN"
 "http://www.w3.org/Graphics/SVG/1.1/DTD/svg11.dtd">
<!-- Generated by graphviz version 2.40.1 (20161225.0304)
 -->
<!-- Title: dependencies Pages: 1 -->
<svg width="1083pt" height="211pt"
 viewBox="0.00 0.00 1083.00 211.00" xmlns="http://www.w3.org/2000/svg" xmlns:xlink="http://www.w3.org/1999/xlink">
<g id="graph0" class="graph" transform="scale(1 1) rotate(0) translate(4 207)">
<title>dependencies</title>
<polygon fill="#ffffff" stroke="transparent" points="-4,4 -4,-207 1079,-207 1079,4 -4,4"/>
<text text-anchor="start" x="516.5091" y="-42.4" font-family="sans-serif" font-weight="bold" font-size="14.00" fill="#000000">Legend</text>
<polygon fill="#ffffb3" stroke="transparent" points="303.5,-10 303.5,-30 323.5,-30 323.5,-10 303.5,-10"/>
<text text-anchor="start" x="327.129" y="-15.4" font-family="sans-serif" font-size="14.00" fill="#000000"> &#160;Declarations</text>
<polygon fill="#8dd3c7" stroke="transparent" points="416.5,-10 416.5,-30 436.5,-30 436.5,-10 416.5,-10"/>
<text text-anchor="start" x="440.2251" y="-15.4" font-family="sans-serif" font-size="14.00" fill="#000000"> &#160;Module</text>
<polygon fill="#80b1d3" stroke="transparent" points="502.5,-10 502.5,-30 522.5,-30 522.5,-10 502.5,-10"/>
<text text-anchor="start" x="526.2812" y="-15.4" font-family="sans-serif" font-size="14.00" fill="#000000"> &#160;Bootstrap</text>
<polygon fill="#fdb462" stroke="transparent" points="599.5,-10 599.5,-30 619.5,-30 619.5,-10 599.5,-10"/>
<text text-anchor="start" x="623.1732" y="-15.4" font-family="sans-serif" font-size="14.00" fill="#000000"> &#160;Providers</text>
<polygon fill="#fb8072" stroke="transparent" points="695.5,-10 695.5,-30 715.5,-30 715.5,-10 695.5,-10"/>
<text text-anchor="start" x="719.2258" y="-15.4" font-family="sans-serif" font-size="14.00" fill="#000000"> &#160;Exports</text>
<g id="clust1" class="cluster">
<title>cluster_FeedModule</title>
<polygon fill="none" stroke="#000000" stroke-dasharray="1,5" points="8,-70 8,-195 1067,-195 1067,-70 8,-70"/>
</g>
<g id="clust2" class="cluster">
<title>cluster_FeedModule_declarations</title>
<polygon fill="none" stroke="#000000" points="168,-78 168,-130 1059,-130 1059,-78 168,-78"/>
</g>
<g id="clust11" class="cluster">
<title>cluster_FeedModule_providers</title>
<polygon fill="none" stroke="#000000" points="16,-78 16,-130 160,-130 160,-78 16,-78"/>
</g>
<!-- EditFeedComponent -->
<g id="node1" class="node">
<title>EditFeedComponent</title>
<polygon fill="#ffffb3" stroke="#000000" points="1050.8781,-122 919.1219,-122 919.1219,-86 1050.8781,-86 1050.8781,-122"/>
<text text-anchor="middle" x="985" y="-99.8" font-family="Times,serif" font-size="14.00" fill="#000000">EditFeedComponent</text>
</g>
<!-- FeedModule -->
<g id="node6" class="node">
<title>FeedModule</title>
<polygon fill="#8dd3c7" stroke="#000000" points="603.2619,-187 600.2619,-191 579.2619,-191 576.2619,-187 516.7381,-187 516.7381,-151 603.2619,-151 603.2619,-187"/>
<text text-anchor="middle" x="560" y="-164.8" font-family="Times,serif" font-size="14.00" fill="#000000">FeedModule</text>
</g>
<!-- EditFeedComponent&#45;&gt;FeedModule -->
<g id="edge1" class="edge">
<title>EditFeedComponent&#45;&gt;FeedModule</title>
<path fill="none" stroke="#000000" d="M985,-122.2843C985,-143.3211 985,-175 985,-175 985,-175 613.4852,-175 613.4852,-175"/>
<polygon fill="#000000" stroke="#000000" points="613.4852,-171.5001 603.4852,-175 613.4851,-178.5001 613.4852,-171.5001"/>
</g>
<!-- FeedListComponent -->
<g id="node2" class="node">
<title>FeedListComponent</title>
<polygon fill="#ffffb3" stroke="#000000" points="901.323,-122 770.677,-122 770.677,-86 901.323,-86 901.323,-122"/>
<text text-anchor="middle" x="836" y="-99.8" font-family="Times,serif" font-size="14.00" fill="#000000">FeedListComponent</text>
</g>
<!-- FeedListComponent&#45;&gt;FeedModule -->
<g id="edge2" class="edge">
<title>FeedListComponent&#45;&gt;FeedModule</title>
<path fill="none" stroke="#000000" d="M836,-122.0225C836,-139.3734 836,-163 836,-163 836,-163 613.4286,-163 613.4286,-163"/>
<polygon fill="#000000" stroke="#000000" points="613.4287,-159.5001 603.4286,-163 613.4286,-166.5001 613.4287,-159.5001"/>
</g>
<!-- PhotoCameraDialogComponent -->
<g id="node3" class="node">
<title>PhotoCameraDialogComponent</title>
<polygon fill="#ffffb3" stroke="#000000" points="752.6399,-122 557.3601,-122 557.3601,-86 752.6399,-86 752.6399,-122"/>
<text text-anchor="middle" x="655" y="-99.8" font-family="Times,serif" font-size="14.00" fill="#000000">PhotoCameraDialogComponent</text>
</g>
<!-- PhotoCameraDialogComponent&#45;&gt;FeedModule -->
<g id="edge3" class="edge">
<title>PhotoCameraDialogComponent&#45;&gt;FeedModule</title>
<path fill="none" stroke="#000000" d="M580.2805,-122.1061C580.2805,-122.1061 580.2805,-140.991 580.2805,-140.991"/>
<polygon fill="#000000" stroke="#000000" points="576.7806,-140.9909 580.2805,-150.991 583.7806,-140.991 576.7806,-140.9909"/>
</g>
<!-- ShowVideoComponent -->
<g id="node4" class="node">
<title>ShowVideoComponent</title>
<polygon fill="#ffffb3" stroke="#000000" points="538.934,-122 391.066,-122 391.066,-86 538.934,-86 538.934,-122"/>
<text text-anchor="middle" x="465" y="-99.8" font-family="Times,serif" font-size="14.00" fill="#000000">ShowVideoComponent</text>
</g>
<!-- ShowVideoComponent&#45;&gt;FeedModule -->
<g id="edge4" class="edge">
<title>ShowVideoComponent&#45;&gt;FeedModule</title>
<path fill="none" stroke="#000000" d="M527.668,-122.1061C527.668,-122.1061 527.668,-140.991 527.668,-140.991"/>
<polygon fill="#000000" stroke="#000000" points="524.168,-140.9909 527.668,-150.991 531.168,-140.991 524.168,-140.9909"/>
</g>
<!-- VideoCameraDialogComponent -->
<g id="node5" class="node">
<title>VideoCameraDialogComponent</title>
<polygon fill="#ffffb3" stroke="#000000" points="373.6783,-122 176.3217,-122 176.3217,-86 373.6783,-86 373.6783,-122"/>
<text text-anchor="middle" x="275" y="-99.8" font-family="Times,serif" font-size="14.00" fill="#000000">VideoCameraDialogComponent</text>
</g>
<!-- VideoCameraDialogComponent&#45;&gt;FeedModule -->
<g id="edge5" class="edge">
<title>VideoCameraDialogComponent&#45;&gt;FeedModule</title>
<path fill="none" stroke="#000000" d="M275,-122.0225C275,-139.3734 275,-163 275,-163 275,-163 506.7146,-163 506.7146,-163"/>
<polygon fill="#000000" stroke="#000000" points="506.7147,-166.5001 516.7146,-163 506.7146,-159.5001 506.7147,-166.5001"/>
</g>
<!-- ImageService -->
<g id="node7" class="node">
<title>ImageService</title>
<ellipse fill="#fdb462" stroke="#000000" cx="88" cy="-104" rx="64.2417" ry="18"/>
<text text-anchor="middle" x="88" y="-99.8" font-family="Times,serif" font-size="14.00" fill="#000000">ImageService</text>
</g>
<!-- ImageService&#45;&gt;FeedModule -->
<g id="edge6" class="edge">
<title>ImageService&#45;&gt;FeedModule</title>
<path fill="none" stroke="#000000" d="M88,-122.2843C88,-143.3211 88,-175 88,-175 88,-175 506.4414,-175 506.4414,-175"/>
<polygon fill="#000000" stroke="#000000" points="506.4414,-178.5001 516.4414,-175 506.4414,-171.5001 506.4414,-178.5001"/>
</g>
</g>
</svg>
