<?xml version="1.0" encoding="UTF-8" standalone="no"?>
<!DOCTYPE svg PUBLIC "-//W3C//DTD SVG 1.1//EN"
 "http://www.w3.org/Graphics/SVG/1.1/DTD/svg11.dtd">
<!-- Generated by graphviz version 2.40.1 (20161225.0304)
 -->
<!-- Title: dependencies Pages: 1 -->
<svg width="530pt" height="211pt"
 viewBox="0.00 0.00 530.00 211.00" xmlns="http://www.w3.org/2000/svg" xmlns:xlink="http://www.w3.org/1999/xlink">
<g id="graph0" class="graph" transform="scale(1 1) rotate(0) translate(4 207)">
<title>dependencies</title>
<polygon fill="#ffffff" stroke="transparent" points="-4,4 -4,-207 526,-207 526,4 -4,4"/>
<text text-anchor="start" x="240.0091" y="-42.4" font-family="sans-serif" font-weight="bold" font-size="14.00" fill="#000000">Legend</text>
<polygon fill="#ffffb3" stroke="transparent" points="27,-10 27,-30 47,-30 47,-10 27,-10"/>
<text text-anchor="start" x="50.629" y="-15.4" font-family="sans-serif" font-size="14.00" fill="#000000"> &#160;Declarations</text>
<polygon fill="#8dd3c7" stroke="transparent" points="140,-10 140,-30 160,-30 160,-10 140,-10"/>
<text text-anchor="start" x="163.7251" y="-15.4" font-family="sans-serif" font-size="14.00" fill="#000000"> &#160;Module</text>
<polygon fill="#80b1d3" stroke="transparent" points="226,-10 226,-30 246,-30 246,-10 226,-10"/>
<text text-anchor="start" x="249.7812" y="-15.4" font-family="sans-serif" font-size="14.00" fill="#000000"> &#160;Bootstrap</text>
<polygon fill="#fdb462" stroke="transparent" points="323,-10 323,-30 343,-30 343,-10 323,-10"/>
<text text-anchor="start" x="346.6732" y="-15.4" font-family="sans-serif" font-size="14.00" fill="#000000"> &#160;Providers</text>
<polygon fill="#fb8072" stroke="transparent" points="419,-10 419,-30 439,-30 439,-10 419,-10"/>
<text text-anchor="start" x="442.7258" y="-15.4" font-family="sans-serif" font-size="14.00" fill="#000000"> &#160;Exports</text>
<g id="clust1" class="cluster">
<title>cluster_RegisterManModule</title>
<polygon fill="none" stroke="#000000" stroke-dasharray="1,5" points="8,-70 8,-195 514,-195 514,-70 8,-70"/>
</g>
<g id="clust2" class="cluster">
<title>cluster_RegisterManModule_declarations</title>
<polygon fill="none" stroke="#000000" points="336,-78 336,-130 506,-130 506,-78 336,-78"/>
</g>
<g id="clust4" class="cluster">
<title>cluster_RegisterManModule_imports</title>
<polygon fill="none" stroke="#000000" points="214,-78 214,-130 328,-130 328,-78 214,-78"/>
</g>
<g id="clust7" class="cluster">
<title>cluster_RegisterManModule_providers</title>
<polygon fill="none" stroke="#000000" points="16,-78 16,-130 206,-130 206,-78 16,-78"/>
</g>
<!-- RegisterManComponent -->
<g id="node1" class="node">
<title>RegisterManComponent</title>
<polygon fill="#ffffb3" stroke="#000000" points="497.6442,-122 344.3558,-122 344.3558,-86 497.6442,-86 497.6442,-122"/>
<text text-anchor="middle" x="421" y="-99.8" font-family="Times,serif" font-size="14.00" fill="#000000">RegisterManComponent</text>
</g>
<!-- RegisterManModule -->
<g id="node2" class="node">
<title>RegisterManModule</title>
<polygon fill="#8dd3c7" stroke="#000000" points="336.8613,-187 333.8613,-191 312.8613,-191 309.8613,-187 205.1387,-187 205.1387,-151 336.8613,-151 336.8613,-187"/>
<text text-anchor="middle" x="271" y="-164.8" font-family="Times,serif" font-size="14.00" fill="#000000">RegisterManModule</text>
</g>
<!-- RegisterManComponent&#45;&gt;RegisterManModule -->
<g id="edge1" class="edge">
<title>RegisterManComponent&#45;&gt;RegisterManModule</title>
<path fill="none" stroke="#000000" d="M344.2502,-104C334.9019,-104 328.5709,-104 328.5709,-104 328.5709,-104 328.5709,-140.8939 328.5709,-140.8939"/>
<polygon fill="#000000" stroke="#000000" points="325.0709,-140.8938 328.5709,-150.8939 332.0709,-140.8939 325.0709,-140.8938"/>
</g>
<!-- SharedModule -->
<g id="node3" class="node">
<title>SharedModule</title>
<polygon fill="#8dd3c7" stroke="#000000" points="320.4231,-122 317.4231,-126 296.4231,-126 293.4231,-122 221.5769,-122 221.5769,-86 320.4231,-86 320.4231,-122"/>
<text text-anchor="middle" x="271" y="-99.8" font-family="Times,serif" font-size="14.00" fill="#000000">SharedModule</text>
</g>
<!-- SharedModule&#45;&gt;RegisterManModule -->
<g id="edge2" class="edge">
<title>SharedModule&#45;&gt;RegisterManModule</title>
<path fill="none" stroke="#000000" d="M271,-122.1061C271,-122.1061 271,-140.991 271,-140.991"/>
<polygon fill="#000000" stroke="#000000" points="267.5001,-140.9909 271,-150.991 274.5001,-140.991 267.5001,-140.9909"/>
</g>
<!-- RegistrationService -->
<g id="node4" class="node">
<title>RegistrationService</title>
<ellipse fill="#fdb462" stroke="#000000" cx="111" cy="-104" rx="87.3924" ry="18"/>
<text text-anchor="middle" x="111" y="-99.8" font-family="Times,serif" font-size="14.00" fill="#000000">RegistrationService</text>
</g>
<!-- RegistrationService&#45;&gt;RegisterManModule -->
<g id="edge3" class="edge">
<title>RegistrationService&#45;&gt;RegisterManModule</title>
<path fill="none" stroke="#000000" d="M198.3154,-104C207.4212,-104 213.4292,-104 213.4292,-104 213.4292,-104 213.4292,-140.8939 213.4292,-140.8939"/>
<polygon fill="#000000" stroke="#000000" points="209.9292,-140.8938 213.4292,-150.8939 216.9292,-140.8939 209.9292,-140.8938"/>
</g>
</g>
</svg>
