<?xml version="1.0" encoding="UTF-8" standalone="no"?>
<!DOCTYPE svg PUBLIC "-//W3C//DTD SVG 1.1//EN"
 "http://www.w3.org/Graphics/SVG/1.1/DTD/svg11.dtd">
<!-- Generated by graphviz version 2.40.1 (20161225.0304)
 -->
<!-- Title: dependencies Pages: 1 -->
<svg width="504pt" height="284pt"
 viewBox="0.00 0.00 504.00 284.00" xmlns="http://www.w3.org/2000/svg" xmlns:xlink="http://www.w3.org/1999/xlink">
<g id="graph0" class="graph" transform="scale(1 1) rotate(0) translate(4 280)">
<title>dependencies</title>
<polygon fill="#ffffff" stroke="transparent" points="-4,4 -4,-280 500,-280 500,4 -4,4"/>
<text text-anchor="start" x="227.0091" y="-42.4" font-family="sans-serif" font-weight="bold" font-size="14.00" fill="#000000">Legend</text>
<polygon fill="#ffffb3" stroke="transparent" points="14,-10 14,-30 34,-30 34,-10 14,-10"/>
<text text-anchor="start" x="37.629" y="-15.4" font-family="sans-serif" font-size="14.00" fill="#000000"> &#160;Declarations</text>
<polygon fill="#8dd3c7" stroke="transparent" points="127,-10 127,-30 147,-30 147,-10 127,-10"/>
<text text-anchor="start" x="150.7251" y="-15.4" font-family="sans-serif" font-size="14.00" fill="#000000"> &#160;Module</text>
<polygon fill="#80b1d3" stroke="transparent" points="213,-10 213,-30 233,-30 233,-10 213,-10"/>
<text text-anchor="start" x="236.7812" y="-15.4" font-family="sans-serif" font-size="14.00" fill="#000000"> &#160;Bootstrap</text>
<polygon fill="#fdb462" stroke="transparent" points="310,-10 310,-30 330,-30 330,-10 310,-10"/>
<text text-anchor="start" x="333.6732" y="-15.4" font-family="sans-serif" font-size="14.00" fill="#000000"> &#160;Providers</text>
<polygon fill="#fb8072" stroke="transparent" points="406,-10 406,-30 426,-30 426,-10 406,-10"/>
<text text-anchor="start" x="429.7258" y="-15.4" font-family="sans-serif" font-size="14.00" fill="#000000"> &#160;Exports</text>
<g id="clust1" class="cluster">
<title>cluster_SampleModule</title>
<polygon fill="none" stroke="#000000" stroke-dasharray="1,5" points="96,-70 96,-268 400,-268 400,-70 96,-70"/>
</g>
<g id="clust2" class="cluster">
<title>cluster_SampleModule_declarations</title>
<polygon fill="none" stroke="#000000" points="252,-78 252,-130 392,-130 392,-78 252,-78"/>
</g>
<g id="clust4" class="cluster">
<title>cluster_SampleModule_imports</title>
<polygon fill="none" stroke="#000000" points="104,-78 104,-130 244,-130 244,-78 104,-78"/>
</g>
<g id="clust5" class="cluster">
<title>cluster_SampleModule_exports</title>
<polygon fill="none" stroke="#000000" points="177,-208 177,-260 319,-260 319,-208 177,-208"/>
</g>
<!-- SampleComponent -->
<g id="node1" class="node">
<title>SampleComponent</title>
<polygon fill="#ffffb3" stroke="#000000" points="383.8258,-122 260.1742,-122 260.1742,-86 383.8258,-86 383.8258,-122"/>
<text text-anchor="middle" x="322" y="-99.8" font-family="Times,serif" font-size="14.00" fill="#000000">SampleComponent</text>
</g>
<!-- SampleModule -->
<g id="node2" class="node">
<title>SampleModule</title>
<polygon fill="#8dd3c7" stroke="#000000" points="298.5438,-187 295.5438,-191 274.5438,-191 271.5438,-187 197.4562,-187 197.4562,-151 298.5438,-151 298.5438,-187"/>
<text text-anchor="middle" x="248" y="-164.8" font-family="Times,serif" font-size="14.00" fill="#000000">SampleModule</text>
</g>
<!-- SampleComponent&#45;&gt;SampleModule -->
<g id="edge1" class="edge">
<title>SampleComponent&#45;&gt;SampleModule</title>
<path fill="none" stroke="#000000" d="M279.5544,-122.1061C279.5544,-122.1061 279.5544,-140.991 279.5544,-140.991"/>
<polygon fill="#000000" stroke="#000000" points="276.0544,-140.9909 279.5544,-150.991 283.0544,-140.991 276.0544,-140.9909"/>
</g>
<!-- SampleComponent  -->
<g id="node4" class="node">
<title>SampleComponent </title>
<polygon fill="#fb8072" stroke="#000000" points="311.3255,-252 184.6745,-252 184.6745,-216 311.3255,-216 311.3255,-252"/>
<text text-anchor="middle" x="248" y="-229.8" font-family="Times,serif" font-size="14.00" fill="#000000">SampleComponent </text>
</g>
<!-- SampleModule&#45;&gt;SampleComponent  -->
<g id="edge3" class="edge">
<title>SampleModule&#45;&gt;SampleComponent </title>
<path fill="none" stroke="#000000" stroke-dasharray="5,2" d="M248,-187.1061C248,-187.1061 248,-205.991 248,-205.991"/>
<polygon fill="#000000" stroke="#000000" points="244.5001,-205.9909 248,-215.991 251.5001,-205.991 244.5001,-205.9909"/>
</g>
<!-- FuseSharedModule -->
<g id="node3" class="node">
<title>FuseSharedModule</title>
<polygon fill="#8dd3c7" stroke="#000000" points="236.3641,-122 233.3641,-126 212.3641,-126 209.3641,-122 111.6359,-122 111.6359,-86 236.3641,-86 236.3641,-122"/>
<text text-anchor="middle" x="174" y="-99.8" font-family="Times,serif" font-size="14.00" fill="#000000">FuseSharedModule</text>
</g>
<!-- FuseSharedModule&#45;&gt;SampleModule -->
<g id="edge2" class="edge">
<title>FuseSharedModule&#45;&gt;SampleModule</title>
<path fill="none" stroke="#000000" d="M216.8303,-122.1061C216.8303,-122.1061 216.8303,-140.991 216.8303,-140.991"/>
<polygon fill="#000000" stroke="#000000" points="213.3304,-140.9909 216.8303,-150.991 220.3304,-140.991 213.3304,-140.9909"/>
</g>
</g>
</svg>
