<svg width="121" height="121" viewBox="0 0 121 121" fill="none" xmlns="http://www.w3.org/2000/svg">
<path d="M60.405 121C93.7658 121 120.81 93.9399 120.81 60.5596C120.81 27.1793 93.7658 0.119141 60.405 0.119141C27.0442 0.119141 0 27.1793 0 60.5596C0 93.9399 27.0442 121 60.405 121Z" fill="#F94343"/>
<path d="M92.0259 8.98645C98.0522 18.4214 101.526 29.5589 101.526 41.5477C101.526 74.9602 74.4432 101.988 41.1212 101.988C29.5648 101.988 18.7175 98.7249 9.50073 93.0498C20.2063 109.791 39.0651 120.929 60.4054 120.929C93.7983 120.929 120.81 93.8301 120.81 60.4885C120.881 38.7101 109.325 19.6274 92.0259 8.98645Z" fill="#E53939"/>
<path d="M8.22424 66.9441C8.22424 35.9435 33.3221 10.8309 64.3045 10.8309C82.3834 10.8309 98.5481 19.4146 108.757 32.7512C99.1153 15.9386 80.9655 4.58826 60.1215 4.58826C29.1391 4.58826 4.04126 29.7008 4.04126 60.7014C4.04126 73.6124 8.36603 85.4593 15.6685 94.8942C10.9184 86.7362 8.22424 77.1594 8.22424 66.9441Z" fill="#F76363"/>
<path d="M95.9957 53.5366C95.9957 53.4656 95.9957 53.3947 95.9957 53.3947C95.9957 42.7537 88.3387 33.035 76.7824 33.035C67.5656 33.035 62.2483 39.6324 60.4759 45.8041C58.6325 39.6324 53.3152 33.035 44.1693 33.035C32.613 33.035 24.956 42.7537 24.956 53.3947C24.956 53.4656 24.956 53.5366 24.956 53.5366C24.8851 55.8776 24.956 79.3585 60.4759 98.5831C95.9957 79.4295 96.0666 55.8776 95.9957 53.5366Z" fill="white"/>
</svg>
