<?xml version="1.0" encoding="UTF-8" standalone="no"?>
<!DOCTYPE svg PUBLIC "-//W3C//DTD SVG 1.1//EN"
 "http://www.w3.org/Graphics/SVG/1.1/DTD/svg11.dtd">
<!-- Generated by graphviz version 2.40.1 (20161225.0304)
 -->
<!-- Title: dependencies Pages: 1 -->
<svg width="816pt" height="211pt"
 viewBox="0.00 0.00 816.00 211.00" xmlns="http://www.w3.org/2000/svg" xmlns:xlink="http://www.w3.org/1999/xlink">
<g id="graph0" class="graph" transform="scale(1 1) rotate(0) translate(4 207)">
<title>dependencies</title>
<polygon fill="#ffffff" stroke="transparent" points="-4,4 -4,-207 812,-207 812,4 -4,4"/>
<text text-anchor="start" x="383.0091" y="-42.4" font-family="sans-serif" font-weight="bold" font-size="14.00" fill="#000000">Legend</text>
<polygon fill="#ffffb3" stroke="transparent" points="170,-10 170,-30 190,-30 190,-10 170,-10"/>
<text text-anchor="start" x="193.629" y="-15.4" font-family="sans-serif" font-size="14.00" fill="#000000"> &#160;Declarations</text>
<polygon fill="#8dd3c7" stroke="transparent" points="283,-10 283,-30 303,-30 303,-10 283,-10"/>
<text text-anchor="start" x="306.7251" y="-15.4" font-family="sans-serif" font-size="14.00" fill="#000000"> &#160;Module</text>
<polygon fill="#80b1d3" stroke="transparent" points="369,-10 369,-30 389,-30 389,-10 369,-10"/>
<text text-anchor="start" x="392.7812" y="-15.4" font-family="sans-serif" font-size="14.00" fill="#000000"> &#160;Bootstrap</text>
<polygon fill="#fdb462" stroke="transparent" points="466,-10 466,-30 486,-30 486,-10 466,-10"/>
<text text-anchor="start" x="489.6732" y="-15.4" font-family="sans-serif" font-size="14.00" fill="#000000"> &#160;Providers</text>
<polygon fill="#fb8072" stroke="transparent" points="562,-10 562,-30 582,-30 582,-10 562,-10"/>
<text text-anchor="start" x="585.7258" y="-15.4" font-family="sans-serif" font-size="14.00" fill="#000000"> &#160;Exports</text>
<g id="clust1" class="cluster">
<title>cluster_MultichatModule</title>
<polygon fill="none" stroke="#000000" stroke-dasharray="1,5" points="8,-70 8,-195 800,-195 800,-70 8,-70"/>
</g>
<g id="clust2" class="cluster">
<title>cluster_MultichatModule_declarations</title>
<polygon fill="none" stroke="#000000" points="292,-78 292,-130 792,-130 792,-78 292,-78"/>
</g>
<g id="clust6" class="cluster">
<title>cluster_MultichatModule_imports</title>
<polygon fill="none" stroke="#000000" points="170,-78 170,-130 284,-130 284,-78 170,-78"/>
</g>
<g id="clust9" class="cluster">
<title>cluster_MultichatModule_providers</title>
<polygon fill="none" stroke="#000000" points="16,-78 16,-130 162,-130 162,-78 16,-78"/>
</g>
<!-- MultichaComponent -->
<g id="node1" class="node">
<title>MultichaComponent</title>
<polygon fill="#ffffb3" stroke="#000000" points="783.8781,-122 652.1219,-122 652.1219,-86 783.8781,-86 783.8781,-122"/>
<text text-anchor="middle" x="718" y="-99.8" font-family="Times,serif" font-size="14.00" fill="#000000">MultichaComponent</text>
</g>
<!-- MultichatModule -->
<g id="node4" class="node">
<title>MultichatModule</title>
<polygon fill="#8dd3c7" stroke="#000000" points="427.986,-187 424.986,-191 403.986,-191 400.986,-187 314.014,-187 314.014,-151 427.986,-151 427.986,-187"/>
<text text-anchor="middle" x="371" y="-164.8" font-family="Times,serif" font-size="14.00" fill="#000000">MultichatModule</text>
</g>
<!-- MultichaComponent&#45;&gt;MultichatModule -->
<g id="edge1" class="edge">
<title>MultichaComponent&#45;&gt;MultichatModule</title>
<path fill="none" stroke="#000000" d="M718,-122.2843C718,-143.3211 718,-175 718,-175 718,-175 438.3,-175 438.3,-175"/>
<polygon fill="#000000" stroke="#000000" points="438.3,-171.5001 428.3,-175 438.3,-178.5001 438.3,-171.5001"/>
</g>
<!-- OpenViduVideoComponent -->
<g id="node2" class="node">
<title>OpenViduVideoComponent</title>
<polygon fill="#ffffb3" stroke="#000000" points="633.8627,-122 460.1373,-122 460.1373,-86 633.8627,-86 633.8627,-122"/>
<text text-anchor="middle" x="547" y="-99.8" font-family="Times,serif" font-size="14.00" fill="#000000">OpenViduVideoComponent</text>
</g>
<!-- OpenViduVideoComponent&#45;&gt;MultichatModule -->
<g id="edge2" class="edge">
<title>OpenViduVideoComponent&#45;&gt;MultichatModule</title>
<path fill="none" stroke="#000000" d="M547,-122.0225C547,-139.3734 547,-163 547,-163 547,-163 438.1422,-163 438.1422,-163"/>
<polygon fill="#000000" stroke="#000000" points="438.1422,-159.5001 428.1422,-163 438.1421,-166.5001 438.1422,-159.5001"/>
</g>
<!-- UserVideoComponent -->
<g id="node3" class="node">
<title>UserVideoComponent</title>
<polygon fill="#ffffb3" stroke="#000000" points="441.9706,-122 300.0294,-122 300.0294,-86 441.9706,-86 441.9706,-122"/>
<text text-anchor="middle" x="371" y="-99.8" font-family="Times,serif" font-size="14.00" fill="#000000">UserVideoComponent</text>
</g>
<!-- UserVideoComponent&#45;&gt;MultichatModule -->
<g id="edge3" class="edge">
<title>UserVideoComponent&#45;&gt;MultichatModule</title>
<path fill="none" stroke="#000000" d="M371,-122.1061C371,-122.1061 371,-140.991 371,-140.991"/>
<polygon fill="#000000" stroke="#000000" points="367.5001,-140.9909 371,-150.991 374.5001,-140.991 367.5001,-140.9909"/>
</g>
<!-- SharedModule -->
<g id="node5" class="node">
<title>SharedModule</title>
<polygon fill="#8dd3c7" stroke="#000000" points="276.4231,-122 273.4231,-126 252.4231,-126 249.4231,-122 177.5769,-122 177.5769,-86 276.4231,-86 276.4231,-122"/>
<text text-anchor="middle" x="227" y="-99.8" font-family="Times,serif" font-size="14.00" fill="#000000">SharedModule</text>
</g>
<!-- SharedModule&#45;&gt;MultichatModule -->
<g id="edge4" class="edge">
<title>SharedModule&#45;&gt;MultichatModule</title>
<path fill="none" stroke="#000000" d="M227,-122.0225C227,-139.3734 227,-163 227,-163 227,-163 303.6736,-163 303.6736,-163"/>
<polygon fill="#000000" stroke="#000000" points="303.6737,-166.5001 313.6736,-163 303.6736,-159.5001 303.6737,-166.5001"/>
</g>
<!-- MediaService -->
<g id="node6" class="node">
<title>MediaService</title>
<ellipse fill="#fdb462" stroke="#000000" cx="89" cy="-104" rx="64.8234" ry="18"/>
<text text-anchor="middle" x="89" y="-99.8" font-family="Times,serif" font-size="14.00" fill="#000000">MediaService</text>
</g>
<!-- MediaService&#45;&gt;MultichatModule -->
<g id="edge5" class="edge">
<title>MediaService&#45;&gt;MultichatModule</title>
<path fill="none" stroke="#000000" d="M89,-122.2843C89,-143.3211 89,-175 89,-175 89,-175 303.9331,-175 303.9331,-175"/>
<polygon fill="#000000" stroke="#000000" points="303.9331,-178.5001 313.9331,-175 303.9331,-171.5001 303.9331,-178.5001"/>
</g>
</g>
</svg>
