<?xml version="1.0" encoding="UTF-8" standalone="no"?>
<!DOCTYPE svg PUBLIC "-//W3C//DTD SVG 1.1//EN"
 "http://www.w3.org/Graphics/SVG/1.1/DTD/svg11.dtd">
<!-- Generated by graphviz version 2.40.1 (20161225.0304)
 -->
<!-- Title: dependencies Pages: 1 -->
<svg width="572pt" height="349pt"
 viewBox="0.00 0.00 572.00 349.00" xmlns="http://www.w3.org/2000/svg" xmlns:xlink="http://www.w3.org/1999/xlink">
<g id="graph0" class="graph" transform="scale(1 1) rotate(0) translate(4 345)">
<title>dependencies</title>
<polygon fill="#ffffff" stroke="transparent" points="-4,4 -4,-345 568,-345 568,4 -4,4"/>
<text text-anchor="start" x="261.0091" y="-42.4" font-family="sans-serif" font-weight="bold" font-size="14.00" fill="#000000">Legend</text>
<polygon fill="#ffffb3" stroke="transparent" points="48,-10 48,-30 68,-30 68,-10 48,-10"/>
<text text-anchor="start" x="71.629" y="-15.4" font-family="sans-serif" font-size="14.00" fill="#000000"> &#160;Declarations</text>
<polygon fill="#8dd3c7" stroke="transparent" points="161,-10 161,-30 181,-30 181,-10 161,-10"/>
<text text-anchor="start" x="184.7251" y="-15.4" font-family="sans-serif" font-size="14.00" fill="#000000"> &#160;Module</text>
<polygon fill="#80b1d3" stroke="transparent" points="247,-10 247,-30 267,-30 267,-10 247,-10"/>
<text text-anchor="start" x="270.7812" y="-15.4" font-family="sans-serif" font-size="14.00" fill="#000000"> &#160;Bootstrap</text>
<polygon fill="#fdb462" stroke="transparent" points="344,-10 344,-30 364,-30 364,-10 344,-10"/>
<text text-anchor="start" x="367.6732" y="-15.4" font-family="sans-serif" font-size="14.00" fill="#000000"> &#160;Providers</text>
<polygon fill="#fb8072" stroke="transparent" points="440,-10 440,-30 460,-30 460,-10 440,-10"/>
<text text-anchor="start" x="463.7258" y="-15.4" font-family="sans-serif" font-size="14.00" fill="#000000"> &#160;Exports</text>
<g id="clust1" class="cluster">
<title>cluster_FuseMaterialColorPickerModule</title>
<polygon fill="none" stroke="#000000" stroke-dasharray="1,5" points="8,-70 8,-333 556,-333 556,-70 8,-70"/>
</g>
<g id="clust2" class="cluster">
<title>cluster_FuseMaterialColorPickerModule_declarations</title>
<polygon fill="none" stroke="#000000" points="163,-143 163,-195 401,-195 401,-143 163,-143"/>
</g>
<g id="clust3" class="cluster">
<title>cluster_FuseMaterialColorPickerModule_FuseMaterialColorPickerComponent_providers</title>
<polygon fill="none" stroke="#000000" points="16,-78 16,-130 548,-130 548,-78 16,-78"/>
</g>
<g id="clust5" class="cluster">
<title>cluster_FuseMaterialColorPickerModule_exports</title>
<polygon fill="none" stroke="#000000" points="161,-273 161,-325 403,-325 403,-273 161,-273"/>
</g>
<!-- FuseMaterialColorPickerComponent -->
<g id="node1" class="node">
<title>FuseMaterialColorPickerComponent</title>
<polygon fill="#ffffb3" stroke="#000000" points="393.3459,-187 170.6541,-187 170.6541,-151 393.3459,-151 393.3459,-187"/>
<text text-anchor="middle" x="282" y="-164.8" font-family="Times,serif" font-size="14.00" fill="#000000">FuseMaterialColorPickerComponent</text>
</g>
<!-- FuseMaterialColorPickerModule -->
<g id="node2" class="node">
<title>FuseMaterialColorPickerModule</title>
<polygon fill="#8dd3c7" stroke="#000000" points="382.5632,-252 379.5632,-256 358.5632,-256 355.5632,-252 181.4368,-252 181.4368,-216 382.5632,-216 382.5632,-252"/>
<text text-anchor="middle" x="282" y="-229.8" font-family="Times,serif" font-size="14.00" fill="#000000">FuseMaterialColorPickerModule</text>
</g>
<!-- FuseMaterialColorPickerComponent&#45;&gt;FuseMaterialColorPickerModule -->
<g id="edge1" class="edge">
<title>FuseMaterialColorPickerComponent&#45;&gt;FuseMaterialColorPickerModule</title>
<path fill="none" stroke="#000000" d="M282,-187.1061C282,-187.1061 282,-205.991 282,-205.991"/>
<polygon fill="#000000" stroke="#000000" points="278.5001,-205.9909 282,-215.991 285.5001,-205.991 278.5001,-205.9909"/>
</g>
<!-- FuseMaterialColorPickerComponent  -->
<g id="node4" class="node">
<title>FuseMaterialColorPickerComponent </title>
<polygon fill="#fb8072" stroke="#000000" points="395.3461,-317 168.6539,-317 168.6539,-281 395.3461,-281 395.3461,-317"/>
<text text-anchor="middle" x="282" y="-294.8" font-family="Times,serif" font-size="14.00" fill="#000000">FuseMaterialColorPickerComponent </text>
</g>
<!-- FuseMaterialColorPickerModule&#45;&gt;FuseMaterialColorPickerComponent  -->
<g id="edge3" class="edge">
<title>FuseMaterialColorPickerModule&#45;&gt;FuseMaterialColorPickerComponent </title>
<path fill="none" stroke="#000000" stroke-dasharray="5,2" d="M282,-252.1061C282,-252.1061 282,-270.991 282,-270.991"/>
<polygon fill="#000000" stroke="#000000" points="278.5001,-270.9909 282,-280.991 285.5001,-270.991 278.5001,-270.9909"/>
</g>
<!-- FUSE_MATERIAL_COLOR_PICKER_VALUE_ACCESSOR -->
<g id="node3" class="node">
<title>FUSE_MATERIAL_COLOR_PICKER_VALUE_ACCESSOR</title>
<ellipse fill="#fdb462" stroke="#000000" cx="282" cy="-104" rx="258.1709" ry="18"/>
<text text-anchor="middle" x="282" y="-99.8" font-family="Times,serif" font-size="14.00" fill="#000000">FUSE_MATERIAL_COLOR_PICKER_VALUE_ACCESSOR</text>
</g>
<!-- FUSE_MATERIAL_COLOR_PICKER_VALUE_ACCESSOR&#45;&gt;FuseMaterialColorPickerComponent -->
<g id="edge2" class="edge">
<title>FUSE_MATERIAL_COLOR_PICKER_VALUE_ACCESSOR&#45;&gt;FuseMaterialColorPickerComponent</title>
<path fill="none" stroke="#000000" d="M282,-122.1061C282,-122.1061 282,-140.991 282,-140.991"/>
<polygon fill="#000000" stroke="#000000" points="278.5001,-140.9909 282,-150.991 285.5001,-140.991 278.5001,-140.9909"/>
</g>
</g>
</svg>
