<?xml version="1.0" encoding="UTF-8" standalone="no"?>
<!DOCTYPE svg PUBLIC "-//W3C//DTD SVG 1.1//EN"
 "http://www.w3.org/Graphics/SVG/1.1/DTD/svg11.dtd">
<!-- Generated by graphviz version 2.40.1 (20161225.0304)
 -->
<!-- Title: dependencies Pages: 1 -->
<svg width="4935pt" height="211pt"
 viewBox="0.00 0.00 4935.00 211.00" xmlns="http://www.w3.org/2000/svg" xmlns:xlink="http://www.w3.org/1999/xlink">
<g id="graph0" class="graph" transform="scale(1 1) rotate(0) translate(4 207)">
<title>dependencies</title>
<polygon fill="#ffffff" stroke="transparent" points="-4,4 -4,-207 4931,-207 4931,4 -4,4"/>
<text text-anchor="start" x="2442.5091" y="-42.4" font-family="sans-serif" font-weight="bold" font-size="14.00" fill="#000000">Legend</text>
<polygon fill="#ffffb3" stroke="transparent" points="2229.5,-10 2229.5,-30 2249.5,-30 2249.5,-10 2229.5,-10"/>
<text text-anchor="start" x="2253.129" y="-15.4" font-family="sans-serif" font-size="14.00" fill="#000000"> &#160;Declarations</text>
<polygon fill="#8dd3c7" stroke="transparent" points="2342.5,-10 2342.5,-30 2362.5,-30 2362.5,-10 2342.5,-10"/>
<text text-anchor="start" x="2366.2251" y="-15.4" font-family="sans-serif" font-size="14.00" fill="#000000"> &#160;Module</text>
<polygon fill="#80b1d3" stroke="transparent" points="2428.5,-10 2428.5,-30 2448.5,-30 2448.5,-10 2428.5,-10"/>
<text text-anchor="start" x="2452.2812" y="-15.4" font-family="sans-serif" font-size="14.00" fill="#000000"> &#160;Bootstrap</text>
<polygon fill="#fdb462" stroke="transparent" points="2525.5,-10 2525.5,-30 2545.5,-30 2545.5,-10 2525.5,-10"/>
<text text-anchor="start" x="2549.1732" y="-15.4" font-family="sans-serif" font-size="14.00" fill="#000000"> &#160;Providers</text>
<polygon fill="#fb8072" stroke="transparent" points="2621.5,-10 2621.5,-30 2641.5,-30 2641.5,-10 2621.5,-10"/>
<text text-anchor="start" x="2645.2258" y="-15.4" font-family="sans-serif" font-size="14.00" fill="#000000"> &#160;Exports</text>
<g id="clust1" class="cluster">
<title>cluster_ChatStageModule</title>
<polygon fill="none" stroke="#000000" stroke-dasharray="1,5" points="8,-70 8,-195 4919,-195 4919,-70 8,-70"/>
</g>
<g id="clust2" class="cluster">
<title>cluster_ChatStageModule_declarations</title>
<polygon fill="none" stroke="#000000" points="1321,-78 1321,-130 4911,-130 4911,-78 1321,-78"/>
</g>
<g id="clust22" class="cluster">
<title>cluster_ChatStageModule_imports</title>
<polygon fill="none" stroke="#000000" points="875,-78 875,-130 1313,-130 1313,-78 875,-78"/>
</g>
<g id="clust25" class="cluster">
<title>cluster_ChatStageModule_providers</title>
<polygon fill="none" stroke="#000000" points="16,-78 16,-130 867,-130 867,-78 16,-78"/>
</g>
<!-- AbonentVideoComponent -->
<g id="node1" class="node">
<title>AbonentVideoComponent</title>
<polygon fill="#ffffb3" stroke="#000000" points="4902.7562,-122 4739.2438,-122 4739.2438,-86 4902.7562,-86 4902.7562,-122"/>
<text text-anchor="middle" x="4821" y="-99.8" font-family="Times,serif" font-size="14.00" fill="#000000">AbonentVideoComponent</text>
</g>
<!-- ChatStageModule -->
<g id="node20" class="node">
<title>ChatStageModule</title>
<polygon fill="#8dd3c7" stroke="#000000" points="2308.594,-187 2305.594,-191 2284.594,-191 2281.594,-187 2191.406,-187 2191.406,-151 2308.594,-151 2308.594,-187"/>
<text text-anchor="middle" x="2250" y="-164.8" font-family="Times,serif" font-size="14.00" fill="#000000">ChatStageModule</text>
</g>
<!-- AbonentVideoComponent&#45;&gt;ChatStageModule -->
<g id="edge1" class="edge">
<title>AbonentVideoComponent&#45;&gt;ChatStageModule</title>
<path fill="none" stroke="#000000" d="M4821,-122.3802C4821,-146.2785 4821,-185 4821,-185 4821,-185 2318.8379,-185 2318.8379,-185"/>
<polygon fill="#000000" stroke="#000000" points="2318.8379,-181.5001 2308.8379,-185 2318.8378,-188.5001 2318.8379,-181.5001"/>
</g>
<!-- ArraySortPipe -->
<g id="node2" class="node">
<title>ArraySortPipe</title>
<polygon fill="#ffffb3" stroke="#000000" points="4721.3641,-122 4624.6359,-122 4624.6359,-86 4721.3641,-86 4721.3641,-122"/>
<text text-anchor="middle" x="4673" y="-99.8" font-family="Times,serif" font-size="14.00" fill="#000000">ArraySortPipe</text>
</g>
<!-- ArraySortPipe&#45;&gt;ChatStageModule -->
<g id="edge2" class="edge">
<title>ArraySortPipe&#45;&gt;ChatStageModule</title>
<path fill="none" stroke="#000000" d="M4673,-122.0908C4673,-145.1328 4673,-182 4673,-182 4673,-182 2318.6941,-182 2318.6941,-182"/>
<polygon fill="#000000" stroke="#000000" points="2318.6942,-178.5001 2308.6941,-182 2318.6941,-185.5001 2318.6942,-178.5001"/>
</g>
<!-- BaseChatStageComponent -->
<g id="node3" class="node">
<title>BaseChatStageComponent</title>
<polygon fill="#ffffb3" stroke="#000000" points="4607.087,-122 4440.913,-122 4440.913,-86 4607.087,-86 4607.087,-122"/>
<text text-anchor="middle" x="4524" y="-99.8" font-family="Times,serif" font-size="14.00" fill="#000000">BaseChatStageComponent</text>
</g>
<!-- BaseChatStageComponent&#45;&gt;ChatStageModule -->
<g id="edge3" class="edge">
<title>BaseChatStageComponent&#45;&gt;ChatStageModule</title>
<path fill="none" stroke="#000000" d="M4524,-122.0109C4524,-144.4852 4524,-180 4524,-180 4524,-180 2318.7853,-180 2318.7853,-180"/>
<polygon fill="#000000" stroke="#000000" points="2318.7854,-176.5001 2308.7853,-180 2318.7853,-183.5001 2318.7854,-176.5001"/>
</g>
<!-- ChatStageChatsSidenavComponent -->
<g id="node4" class="node">
<title>ChatStageChatsSidenavComponent</title>
<polygon fill="#ffffb3" stroke="#000000" points="4422.8654,-122 4207.1346,-122 4207.1346,-86 4422.8654,-86 4422.8654,-122"/>
<text text-anchor="middle" x="4315" y="-99.8" font-family="Times,serif" font-size="14.00" fill="#000000">ChatStageChatsSidenavComponent</text>
</g>
<!-- ChatStageChatsSidenavComponent&#45;&gt;ChatStageModule -->
<g id="edge4" class="edge">
<title>ChatStageChatsSidenavComponent&#45;&gt;ChatStageModule</title>
<path fill="none" stroke="#000000" d="M4315,-122.0449C4315,-143.6623 4315,-177 4315,-177 4315,-177 2318.749,-177 2318.749,-177"/>
<polygon fill="#000000" stroke="#000000" points="2318.7491,-173.5001 2308.749,-177 2318.749,-180.5001 2318.7491,-173.5001"/>
</g>
<!-- ChatStageContactComponent -->
<g id="node5" class="node">
<title>ChatStageContactComponent</title>
<polygon fill="#ffffb3" stroke="#000000" points="4189.4241,-122 4006.5759,-122 4006.5759,-86 4189.4241,-86 4189.4241,-122"/>
<text text-anchor="middle" x="4098" y="-99.8" font-family="Times,serif" font-size="14.00" fill="#000000">ChatStageContactComponent</text>
</g>
<!-- ChatStageContactComponent&#45;&gt;ChatStageModule -->
<g id="edge5" class="edge">
<title>ChatStageContactComponent&#45;&gt;ChatStageModule</title>
<path fill="none" stroke="#000000" d="M4098,-122.2843C4098,-143.3211 4098,-175 4098,-175 4098,-175 2318.6169,-175 2318.6169,-175"/>
<polygon fill="#000000" stroke="#000000" points="2318.6169,-171.5001 2308.6169,-175 2318.6169,-178.5001 2318.6169,-171.5001"/>
</g>
<!-- ChatStageContactSidenavComponent -->
<g id="node6" class="node">
<title>ChatStageContactSidenavComponent</title>
<polygon fill="#ffffb3" stroke="#000000" points="3988.5265,-122 3761.4735,-122 3761.4735,-86 3988.5265,-86 3988.5265,-122"/>
<text text-anchor="middle" x="3875" y="-99.8" font-family="Times,serif" font-size="14.00" fill="#000000">ChatStageContactSidenavComponent</text>
</g>
<!-- ChatStageContactSidenavComponent&#45;&gt;ChatStageModule -->
<g id="edge6" class="edge">
<title>ChatStageContactSidenavComponent&#45;&gt;ChatStageModule</title>
<path fill="none" stroke="#000000" d="M3875,-122.2228C3875,-142.3652 3875,-172 3875,-172 3875,-172 2318.7946,-172 2318.7946,-172"/>
<polygon fill="#000000" stroke="#000000" points="2318.7947,-168.5001 2308.7946,-172 2318.7946,-175.5001 2318.7947,-168.5001"/>
</g>
<!-- ChatStageMessageItemComponent -->
<g id="node7" class="node">
<title>ChatStageMessageItemComponent</title>
<polygon fill="#ffffb3" stroke="#000000" points="3742.5112,-122 3529.4888,-122 3529.4888,-86 3742.5112,-86 3742.5112,-122"/>
<text text-anchor="middle" x="3636" y="-99.8" font-family="Times,serif" font-size="14.00" fill="#000000">ChatStageMessageItemComponent</text>
</g>
<!-- ChatStageMessageItemComponent&#45;&gt;ChatStageModule -->
<g id="edge7" class="edge">
<title>ChatStageMessageItemComponent&#45;&gt;ChatStageModule</title>
<path fill="none" stroke="#000000" d="M3636,-122.1061C3636,-141.3391 3636,-169 3636,-169 3636,-169 2318.6694,-169 2318.6694,-169"/>
<polygon fill="#000000" stroke="#000000" points="2318.6695,-165.5001 2308.6694,-169 2318.6694,-172.5001 2318.6695,-165.5001"/>
</g>
<!-- ChatStageOnlineComponent -->
<g id="node8" class="node">
<title>ChatStageOnlineComponent</title>
<polygon fill="#ffffb3" stroke="#000000" points="3511.479,-122 3334.521,-122 3334.521,-86 3511.479,-86 3511.479,-122"/>
<text text-anchor="middle" x="3423" y="-99.8" font-family="Times,serif" font-size="14.00" fill="#000000">ChatStageOnlineComponent</text>
</g>
<!-- ChatStageOnlineComponent&#45;&gt;ChatStageModule -->
<g id="edge8" class="edge">
<title>ChatStageOnlineComponent&#45;&gt;ChatStageModule</title>
<path fill="none" stroke="#000000" d="M3423,-122.2222C3423,-140.8285 3423,-167 3423,-167 3423,-167 2318.5706,-167 2318.5706,-167"/>
<polygon fill="#000000" stroke="#000000" points="2318.5706,-163.5001 2308.5706,-167 2318.5705,-170.5001 2318.5706,-163.5001"/>
</g>
<!-- ChatStageRightSidenavComponent -->
<g id="node9" class="node">
<title>ChatStageRightSidenavComponent</title>
<polygon fill="#ffffb3" stroke="#000000" points="3316.5968,-122 3101.4032,-122 3101.4032,-86 3316.5968,-86 3316.5968,-122"/>
<text text-anchor="middle" x="3209" y="-99.8" font-family="Times,serif" font-size="14.00" fill="#000000">ChatStageRightSidenavComponent</text>
</g>
<!-- ChatStageRightSidenavComponent&#45;&gt;ChatStageModule -->
<g id="edge9" class="edge">
<title>ChatStageRightSidenavComponent&#45;&gt;ChatStageModule</title>
<path fill="none" stroke="#000000" d="M3209,-122.002C3209,-139.6754 3209,-164 3209,-164 3209,-164 2318.9056,-164 2318.9056,-164"/>
<polygon fill="#000000" stroke="#000000" points="2318.9056,-160.5001 2308.9056,-164 2318.9056,-167.5001 2318.9056,-160.5001"/>
</g>
<!-- ChatStageUserSidenavComponent -->
<g id="node10" class="node">
<title>ChatStageUserSidenavComponent</title>
<polygon fill="#ffffb3" stroke="#000000" points="3083.4058,-122 2872.5942,-122 2872.5942,-86 3083.4058,-86 3083.4058,-122"/>
<text text-anchor="middle" x="2978" y="-99.8" font-family="Times,serif" font-size="14.00" fill="#000000">ChatStageUserSidenavComponent</text>
</g>
<!-- ChatStageUserSidenavComponent&#45;&gt;ChatStageModule -->
<g id="edge10" class="edge">
<title>ChatStageUserSidenavComponent&#45;&gt;ChatStageModule</title>
<path fill="none" stroke="#000000" d="M2978,-122.0336C2978,-139.0597 2978,-162 2978,-162 2978,-162 2318.6513,-162 2318.6513,-162"/>
<polygon fill="#000000" stroke="#000000" points="2318.6514,-158.5001 2308.6513,-162 2318.6513,-165.5001 2318.6514,-158.5001"/>
</g>
<!-- IndexChatStageComponent -->
<g id="node11" class="node">
<title>IndexChatStageComponent</title>
<polygon fill="#ffffb3" stroke="#000000" points="2854.252,-122 2683.748,-122 2683.748,-86 2854.252,-86 2854.252,-122"/>
<text text-anchor="middle" x="2769" y="-99.8" font-family="Times,serif" font-size="14.00" fill="#000000">IndexChatStageComponent</text>
</g>
<!-- IndexChatStageComponent&#45;&gt;ChatStageModule -->
<g id="edge11" class="edge">
<title>IndexChatStageComponent&#45;&gt;ChatStageModule</title>
<path fill="none" stroke="#000000" d="M2769,-122.0091C2769,-138.0494 2769,-159 2769,-159 2769,-159 2318.7786,-159 2318.7786,-159"/>
<polygon fill="#000000" stroke="#000000" points="2318.7786,-155.5001 2308.7786,-159 2318.7786,-162.5001 2318.7786,-155.5001"/>
</g>
<!-- OpenViduVideoComponent -->
<g id="node12" class="node">
<title>OpenViduVideoComponent</title>
<polygon fill="#ffffb3" stroke="#000000" points="2665.8627,-122 2492.1373,-122 2492.1373,-86 2665.8627,-86 2665.8627,-122"/>
<text text-anchor="middle" x="2579" y="-99.8" font-family="Times,serif" font-size="14.00" fill="#000000">OpenViduVideoComponent</text>
</g>
<!-- OpenViduVideoComponent&#45;&gt;ChatStageModule -->
<g id="edge12" class="edge">
<title>OpenViduVideoComponent&#45;&gt;ChatStageModule</title>
<path fill="none" stroke="#000000" d="M2579,-122.2396C2579,-137.5706 2579,-157 2579,-157 2579,-157 2318.8186,-157 2318.8186,-157"/>
<polygon fill="#000000" stroke="#000000" points="2318.8186,-153.5001 2308.8186,-157 2318.8186,-160.5001 2318.8186,-153.5001"/>
</g>
<!-- OwnerVideoComponent -->
<g id="node13" class="node">
<title>OwnerVideoComponent</title>
<polygon fill="#ffffb3" stroke="#000000" points="2473.633,-122 2320.367,-122 2320.367,-86 2473.633,-86 2473.633,-122"/>
<text text-anchor="middle" x="2397" y="-99.8" font-family="Times,serif" font-size="14.00" fill="#000000">OwnerVideoComponent</text>
</g>
<!-- OwnerVideoComponent&#45;&gt;ChatStageModule -->
<g id="edge13" class="edge">
<title>OwnerVideoComponent&#45;&gt;ChatStageModule</title>
<path fill="none" stroke="#000000" d="M2397,-122.0511C2397,-136.373 2397,-154 2397,-154 2397,-154 2318.9435,-154 2318.9435,-154"/>
<polygon fill="#000000" stroke="#000000" points="2318.9436,-150.5001 2308.9435,-154 2318.9435,-157.5001 2318.9436,-150.5001"/>
</g>
<!-- ParseSmilePipe -->
<g id="node14" class="node">
<title>ParseSmilePipe</title>
<polygon fill="#ffffb3" stroke="#000000" points="2301.8739,-122 2198.1261,-122 2198.1261,-86 2301.8739,-86 2301.8739,-122"/>
<text text-anchor="middle" x="2250" y="-99.8" font-family="Times,serif" font-size="14.00" fill="#000000">ParseSmilePipe</text>
</g>
<!-- ParseSmilePipe&#45;&gt;ChatStageModule -->
<g id="edge14" class="edge">
<title>ParseSmilePipe&#45;&gt;ChatStageModule</title>
<path fill="none" stroke="#000000" d="M2250,-122.1061C2250,-122.1061 2250,-140.991 2250,-140.991"/>
<polygon fill="#000000" stroke="#000000" points="2246.5001,-140.9909 2250,-150.991 2253.5001,-140.991 2246.5001,-140.9909"/>
</g>
<!-- PhotoPopupComponent -->
<g id="node15" class="node">
<title>PhotoPopupComponent</title>
<polygon fill="#ffffb3" stroke="#000000" points="2179.7883,-122 2030.2117,-122 2030.2117,-86 2179.7883,-86 2179.7883,-122"/>
<text text-anchor="middle" x="2105" y="-99.8" font-family="Times,serif" font-size="14.00" fill="#000000">PhotoPopupComponent</text>
</g>
<!-- PhotoPopupComponent&#45;&gt;ChatStageModule -->
<g id="edge15" class="edge">
<title>PhotoPopupComponent&#45;&gt;ChatStageModule</title>
<path fill="none" stroke="#000000" d="M2105,-122.0511C2105,-136.373 2105,-154 2105,-154 2105,-154 2181.4409,-154 2181.4409,-154"/>
<polygon fill="#000000" stroke="#000000" points="2181.4409,-157.5001 2191.4409,-154 2181.4409,-150.5001 2181.4409,-157.5001"/>
</g>
<!-- RoomChatStageComponent -->
<g id="node16" class="node">
<title>RoomChatStageComponent</title>
<polygon fill="#ffffb3" stroke="#000000" points="2012.6038,-122 1839.3962,-122 1839.3962,-86 2012.6038,-86 2012.6038,-122"/>
<text text-anchor="middle" x="1926" y="-99.8" font-family="Times,serif" font-size="14.00" fill="#000000">RoomChatStageComponent</text>
</g>
<!-- RoomChatStageComponent&#45;&gt;ChatStageModule -->
<g id="edge16" class="edge">
<title>RoomChatStageComponent&#45;&gt;ChatStageModule</title>
<path fill="none" stroke="#000000" d="M1926,-122.2396C1926,-137.5706 1926,-157 1926,-157 1926,-157 2181.326,-157 2181.326,-157"/>
<polygon fill="#000000" stroke="#000000" points="2181.3261,-160.5001 2191.326,-157 2181.326,-153.5001 2181.3261,-160.5001"/>
</g>
<!-- StickersPopupComponent -->
<g id="node17" class="node">
<title>StickersPopupComponent</title>
<polygon fill="#ffffb3" stroke="#000000" points="1821.2133,-122 1658.7867,-122 1658.7867,-86 1821.2133,-86 1821.2133,-122"/>
<text text-anchor="middle" x="1740" y="-99.8" font-family="Times,serif" font-size="14.00" fill="#000000">StickersPopupComponent</text>
</g>
<!-- StickersPopupComponent&#45;&gt;ChatStageModule -->
<g id="edge17" class="edge">
<title>StickersPopupComponent&#45;&gt;ChatStageModule</title>
<path fill="none" stroke="#000000" d="M1740,-122.0091C1740,-138.0494 1740,-159 1740,-159 1740,-159 2180.9983,-159 2180.9983,-159"/>
<polygon fill="#000000" stroke="#000000" points="2180.9983,-162.5001 2190.9983,-159 2180.9983,-155.5001 2180.9983,-162.5001"/>
</g>
<!-- UserVideoComponent -->
<g id="node18" class="node">
<title>UserVideoComponent</title>
<polygon fill="#ffffb3" stroke="#000000" points="1640.9706,-122 1499.0294,-122 1499.0294,-86 1640.9706,-86 1640.9706,-122"/>
<text text-anchor="middle" x="1570" y="-99.8" font-family="Times,serif" font-size="14.00" fill="#000000">UserVideoComponent</text>
</g>
<!-- UserVideoComponent&#45;&gt;ChatStageModule -->
<g id="edge18" class="edge">
<title>UserVideoComponent&#45;&gt;ChatStageModule</title>
<path fill="none" stroke="#000000" d="M1570,-122.0336C1570,-139.0597 1570,-162 1570,-162 1570,-162 2181.435,-162 2181.435,-162"/>
<polygon fill="#000000" stroke="#000000" points="2181.4351,-165.5001 2191.435,-162 2181.435,-158.5001 2181.4351,-165.5001"/>
</g>
<!-- VideoPopupComponent -->
<g id="node19" class="node">
<title>VideoPopupComponent</title>
<polygon fill="#ffffb3" stroke="#000000" points="1480.8272,-122 1329.1728,-122 1329.1728,-86 1480.8272,-86 1480.8272,-122"/>
<text text-anchor="middle" x="1405" y="-99.8" font-family="Times,serif" font-size="14.00" fill="#000000">VideoPopupComponent</text>
</g>
<!-- VideoPopupComponent&#45;&gt;ChatStageModule -->
<g id="edge19" class="edge">
<title>VideoPopupComponent&#45;&gt;ChatStageModule</title>
<path fill="none" stroke="#000000" d="M1405,-122.002C1405,-139.6754 1405,-164 1405,-164 1405,-164 2181.2521,-164 2181.2521,-164"/>
<polygon fill="#000000" stroke="#000000" points="2181.2522,-167.5001 2191.2521,-164 2181.2521,-160.5001 2181.2522,-167.5001"/>
</g>
<!-- ChatStageRoutingModule -->
<g id="node21" class="node">
<title>ChatStageRoutingModule</title>
<polygon fill="#8dd3c7" stroke="#000000" points="1305.2119,-122 1302.2119,-126 1281.2119,-126 1278.2119,-122 1142.7881,-122 1142.7881,-86 1305.2119,-86 1305.2119,-122"/>
<text text-anchor="middle" x="1224" y="-99.8" font-family="Times,serif" font-size="14.00" fill="#000000">ChatStageRoutingModule</text>
</g>
<!-- ChatStageRoutingModule&#45;&gt;ChatStageModule -->
<g id="edge20" class="edge">
<title>ChatStageRoutingModule&#45;&gt;ChatStageModule</title>
<path fill="none" stroke="#000000" d="M1224,-122.2222C1224,-140.8285 1224,-167 1224,-167 1224,-167 2181.1527,-167 2181.1527,-167"/>
<polygon fill="#000000" stroke="#000000" points="2181.1527,-170.5001 2191.1527,-167 2181.1527,-163.5001 2181.1527,-170.5001"/>
</g>
<!-- FuseSharedModule -->
<g id="node22" class="node">
<title>FuseSharedModule</title>
<polygon fill="#8dd3c7" stroke="#000000" points="1124.3641,-122 1121.3641,-126 1100.3641,-126 1097.3641,-122 999.6359,-122 999.6359,-86 1124.3641,-86 1124.3641,-122"/>
<text text-anchor="middle" x="1062" y="-99.8" font-family="Times,serif" font-size="14.00" fill="#000000">FuseSharedModule</text>
</g>
<!-- FuseSharedModule&#45;&gt;ChatStageModule -->
<g id="edge21" class="edge">
<title>FuseSharedModule&#45;&gt;ChatStageModule</title>
<path fill="none" stroke="#000000" d="M1062,-122.1061C1062,-141.3391 1062,-169 1062,-169 1062,-169 2181.0869,-169 2181.0869,-169"/>
<polygon fill="#000000" stroke="#000000" points="2181.0869,-172.5001 2191.0869,-169 2181.0869,-165.5001 2181.0869,-172.5001"/>
</g>
<!-- SharedModule -->
<g id="node23" class="node">
<title>SharedModule</title>
<polygon fill="#8dd3c7" stroke="#000000" points="981.4231,-122 978.4231,-126 957.4231,-126 954.4231,-122 882.5769,-122 882.5769,-86 981.4231,-86 981.4231,-122"/>
<text text-anchor="middle" x="932" y="-99.8" font-family="Times,serif" font-size="14.00" fill="#000000">SharedModule</text>
</g>
<!-- SharedModule&#45;&gt;ChatStageModule -->
<g id="edge22" class="edge">
<title>SharedModule&#45;&gt;ChatStageModule</title>
<path fill="none" stroke="#000000" d="M932,-122.2228C932,-142.3652 932,-172 932,-172 932,-172 2181.2379,-172 2181.2379,-172"/>
<polygon fill="#000000" stroke="#000000" points="2181.2379,-175.5001 2191.2379,-172 2181.2379,-168.5001 2181.2379,-175.5001"/>
</g>
<!-- AbonentVideoService -->
<g id="node24" class="node">
<title>AbonentVideoService</title>
<ellipse fill="#fdb462" stroke="#000000" cx="762" cy="-104" rx="96.6926" ry="18"/>
<text text-anchor="middle" x="762" y="-99.8" font-family="Times,serif" font-size="14.00" fill="#000000">AbonentVideoService</text>
</g>
<!-- AbonentVideoService&#45;&gt;ChatStageModule -->
<g id="edge23" class="edge">
<title>AbonentVideoService&#45;&gt;ChatStageModule</title>
<path fill="none" stroke="#000000" d="M762,-122.2843C762,-143.3211 762,-175 762,-175 762,-175 2181.2103,-175 2181.2103,-175"/>
<polygon fill="#000000" stroke="#000000" points="2181.2104,-178.5001 2191.2103,-175 2181.2103,-171.5001 2181.2104,-178.5001"/>
</g>
<!-- ChatService -->
<g id="node25" class="node">
<title>ChatService</title>
<ellipse fill="#fdb462" stroke="#000000" cx="589" cy="-104" rx="58.4628" ry="18"/>
<text text-anchor="middle" x="589" y="-99.8" font-family="Times,serif" font-size="14.00" fill="#000000">ChatService</text>
</g>
<!-- ChatService&#45;&gt;ChatStageModule -->
<g id="edge24" class="edge">
<title>ChatService&#45;&gt;ChatStageModule</title>
<path fill="none" stroke="#000000" d="M589,-122.0449C589,-143.6623 589,-177 589,-177 589,-177 2181.372,-177 2181.372,-177"/>
<polygon fill="#000000" stroke="#000000" points="2181.3721,-180.5001 2191.372,-177 2181.372,-173.5001 2181.3721,-180.5001"/>
</g>
<!-- MediaService -->
<g id="node26" class="node">
<title>MediaService</title>
<ellipse fill="#fdb462" stroke="#000000" cx="448" cy="-104" rx="64.8234" ry="18"/>
<text text-anchor="middle" x="448" y="-99.8" font-family="Times,serif" font-size="14.00" fill="#000000">MediaService</text>
</g>
<!-- MediaService&#45;&gt;ChatStageModule -->
<g id="edge25" class="edge">
<title>MediaService&#45;&gt;ChatStageModule</title>
<path fill="none" stroke="#000000" d="M448,-122.0109C448,-144.4852 448,-180 448,-180 448,-180 2181.3236,-180 2181.3236,-180"/>
<polygon fill="#000000" stroke="#000000" points="2181.3236,-183.5001 2191.3236,-180 2181.3236,-176.5001 2181.3236,-183.5001"/>
</g>
<!-- OwnerVideoService -->
<g id="node27" class="node">
<title>OwnerVideoService</title>
<ellipse fill="#fdb462" stroke="#000000" cx="275" cy="-104" rx="89.7267" ry="18"/>
<text text-anchor="middle" x="275" y="-99.8" font-family="Times,serif" font-size="14.00" fill="#000000">OwnerVideoService</text>
</g>
<!-- OwnerVideoService&#45;&gt;ChatStageModule -->
<g id="edge26" class="edge">
<title>OwnerVideoService&#45;&gt;ChatStageModule</title>
<path fill="none" stroke="#000000" d="M275,-122.0908C275,-145.1328 275,-182 275,-182 275,-182 2181.428,-182 2181.428,-182"/>
<polygon fill="#000000" stroke="#000000" points="2181.428,-185.5001 2191.428,-182 2181.428,-178.5001 2181.428,-185.5001"/>
</g>
<!-- WebRtcService -->
<g id="node28" class="node">
<title>WebRtcService</title>
<ellipse fill="#fdb462" stroke="#000000" cx="96" cy="-104" rx="71.766" ry="18"/>
<text text-anchor="middle" x="96" y="-99.8" font-family="Times,serif" font-size="14.00" fill="#000000">WebRtcService</text>
</g>
<!-- WebRtcService&#45;&gt;ChatStageModule -->
<g id="edge27" class="edge">
<title>WebRtcService&#45;&gt;ChatStageModule</title>
<path fill="none" stroke="#000000" d="M96,-122.3802C96,-146.2785 96,-185 96,-185 96,-185 2181.2686,-185 2181.2686,-185"/>
<polygon fill="#000000" stroke="#000000" points="2181.2686,-188.5001 2191.2686,-185 2181.2685,-181.5001 2181.2686,-188.5001"/>
</g>
</g>
</svg>
