<?xml version="1.0" encoding="UTF-8" standalone="no"?>
<!DOCTYPE svg PUBLIC "-//W3C//DTD SVG 1.1//EN"
 "http://www.w3.org/Graphics/SVG/1.1/DTD/svg11.dtd">
<!-- Generated by graphviz version 2.40.1 (20161225.0304)
 -->
<!-- Title: dependencies Pages: 1 -->
<svg width="504pt" height="284pt"
 viewBox="0.00 0.00 504.00 284.00" xmlns="http://www.w3.org/2000/svg" xmlns:xlink="http://www.w3.org/1999/xlink">
<g id="graph0" class="graph" transform="scale(1 1) rotate(0) translate(4 280)">
<title>dependencies</title>
<polygon fill="#ffffff" stroke="transparent" points="-4,4 -4,-280 500,-280 500,4 -4,4"/>
<text text-anchor="start" x="227.0091" y="-42.4" font-family="sans-serif" font-weight="bold" font-size="14.00" fill="#000000">Legend</text>
<polygon fill="#ffffb3" stroke="transparent" points="14,-10 14,-30 34,-30 34,-10 14,-10"/>
<text text-anchor="start" x="37.629" y="-15.4" font-family="sans-serif" font-size="14.00" fill="#000000"> &#160;Declarations</text>
<polygon fill="#8dd3c7" stroke="transparent" points="127,-10 127,-30 147,-30 147,-10 127,-10"/>
<text text-anchor="start" x="150.7251" y="-15.4" font-family="sans-serif" font-size="14.00" fill="#000000"> &#160;Module</text>
<polygon fill="#80b1d3" stroke="transparent" points="213,-10 213,-30 233,-30 233,-10 213,-10"/>
<text text-anchor="start" x="236.7812" y="-15.4" font-family="sans-serif" font-size="14.00" fill="#000000"> &#160;Bootstrap</text>
<polygon fill="#fdb462" stroke="transparent" points="310,-10 310,-30 330,-30 330,-10 310,-10"/>
<text text-anchor="start" x="333.6732" y="-15.4" font-family="sans-serif" font-size="14.00" fill="#000000"> &#160;Providers</text>
<polygon fill="#fb8072" stroke="transparent" points="406,-10 406,-30 426,-30 426,-10 406,-10"/>
<text text-anchor="start" x="429.7258" y="-15.4" font-family="sans-serif" font-size="14.00" fill="#000000"> &#160;Exports</text>
<g id="clust1" class="cluster">
<title>cluster_SharedModule</title>
<polygon fill="none" stroke="#000000" stroke-dasharray="1,5" points="42,-70 42,-268 454,-268 454,-70 42,-70"/>
</g>
<g id="clust2" class="cluster">
<title>cluster_SharedModule_declarations</title>
<polygon fill="none" stroke="#000000" points="54,-78 54,-130 440,-130 440,-78 54,-78"/>
</g>
<g id="clust7" class="cluster">
<title>cluster_SharedModule_exports</title>
<polygon fill="none" stroke="#000000" points="50,-208 50,-260 446,-260 446,-208 50,-208"/>
</g>
<!-- ArraySortPipe -->
<g id="node1" class="node">
<title>ArraySortPipe</title>
<polygon fill="#ffffb3" stroke="#000000" points="432.3641,-122 335.6359,-122 335.6359,-86 432.3641,-86 432.3641,-122"/>
<text text-anchor="middle" x="384" y="-99.8" font-family="Times,serif" font-size="14.00" fill="#000000">ArraySortPipe</text>
</g>
<!-- SharedModule -->
<g id="node4" class="node">
<title>SharedModule</title>
<polygon fill="#8dd3c7" stroke="#000000" points="315.4231,-187 312.4231,-191 291.4231,-191 288.4231,-187 216.5769,-187 216.5769,-151 315.4231,-151 315.4231,-187"/>
<text text-anchor="middle" x="266" y="-164.8" font-family="Times,serif" font-size="14.00" fill="#000000">SharedModule</text>
</g>
<!-- ArraySortPipe&#45;&gt;SharedModule -->
<g id="edge1" class="edge">
<title>ArraySortPipe&#45;&gt;SharedModule</title>
<path fill="none" stroke="#000000" d="M400.894,-122.0225C400.894,-139.3734 400.894,-163 400.894,-163 400.894,-163 325.4636,-163 325.4636,-163"/>
<polygon fill="#000000" stroke="#000000" points="325.4636,-159.5001 315.4636,-163 325.4635,-166.5001 325.4636,-159.5001"/>
</g>
<!-- ParseSmilePipe -->
<g id="node2" class="node">
<title>ParseSmilePipe</title>
<polygon fill="#ffffb3" stroke="#000000" points="317.8739,-122 214.1261,-122 214.1261,-86 317.8739,-86 317.8739,-122"/>
<text text-anchor="middle" x="266" y="-99.8" font-family="Times,serif" font-size="14.00" fill="#000000">ParseSmilePipe</text>
</g>
<!-- ParseSmilePipe&#45;&gt;SharedModule -->
<g id="edge2" class="edge">
<title>ParseSmilePipe&#45;&gt;SharedModule</title>
<path fill="none" stroke="#000000" d="M266,-122.1061C266,-122.1061 266,-140.991 266,-140.991"/>
<polygon fill="#000000" stroke="#000000" points="262.5001,-140.9909 266,-150.991 269.5001,-140.991 262.5001,-140.9909"/>
</g>
<!-- UserItemComponent -->
<g id="node3" class="node">
<title>UserItemComponent</title>
<polygon fill="#ffffb3" stroke="#000000" points="195.9158,-122 62.0842,-122 62.0842,-86 195.9158,-86 195.9158,-122"/>
<text text-anchor="middle" x="129" y="-99.8" font-family="Times,serif" font-size="14.00" fill="#000000">UserItemComponent</text>
</g>
<!-- UserItemComponent&#45;&gt;SharedModule -->
<g id="edge3" class="edge">
<title>UserItemComponent&#45;&gt;SharedModule</title>
<path fill="none" stroke="#000000" d="M150.4025,-122.0225C150.4025,-139.3734 150.4025,-163 150.4025,-163 150.4025,-163 206.641,-163 206.641,-163"/>
<polygon fill="#000000" stroke="#000000" points="206.641,-166.5001 216.641,-163 206.6409,-159.5001 206.641,-166.5001"/>
</g>
<!-- ArraySortPipe  -->
<g id="node5" class="node">
<title>ArraySortPipe </title>
<polygon fill="#fb8072" stroke="#000000" points="438.3647,-252 337.6353,-252 337.6353,-216 438.3647,-216 438.3647,-252"/>
<text text-anchor="middle" x="388" y="-229.8" font-family="Times,serif" font-size="14.00" fill="#000000">ArraySortPipe </text>
</g>
<!-- SharedModule&#45;&gt;ArraySortPipe  -->
<g id="edge4" class="edge">
<title>SharedModule&#45;&gt;ArraySortPipe </title>
<path fill="none" stroke="#000000" stroke-dasharray="5,2" d="M315.2564,-175C341.8768,-175 369.356,-175 369.356,-175 369.356,-175 369.356,-205.9775 369.356,-205.9775"/>
<polygon fill="#000000" stroke="#000000" points="365.8561,-205.9774 369.356,-215.9775 372.8561,-205.9775 365.8561,-205.9774"/>
</g>
<!-- ParseSmilePipe  -->
<g id="node6" class="node">
<title>ParseSmilePipe </title>
<polygon fill="#fb8072" stroke="#000000" points="319.8745,-252 212.1255,-252 212.1255,-216 319.8745,-216 319.8745,-252"/>
<text text-anchor="middle" x="266" y="-229.8" font-family="Times,serif" font-size="14.00" fill="#000000">ParseSmilePipe </text>
</g>
<!-- SharedModule&#45;&gt;ParseSmilePipe  -->
<g id="edge5" class="edge">
<title>SharedModule&#45;&gt;ParseSmilePipe </title>
<path fill="none" stroke="#000000" stroke-dasharray="5,2" d="M266,-187.1061C266,-187.1061 266,-205.991 266,-205.991"/>
<polygon fill="#000000" stroke="#000000" points="262.5001,-205.9909 266,-215.991 269.5001,-205.991 262.5001,-205.9909"/>
</g>
<!-- UserItemComponent  -->
<g id="node7" class="node">
<title>UserItemComponent </title>
<polygon fill="#fb8072" stroke="#000000" points="194.4152,-252 57.5848,-252 57.5848,-216 194.4152,-216 194.4152,-252"/>
<text text-anchor="middle" x="126" y="-229.8" font-family="Times,serif" font-size="14.00" fill="#000000">UserItemComponent </text>
</g>
<!-- SharedModule&#45;&gt;UserItemComponent  -->
<g id="edge6" class="edge">
<title>SharedModule&#45;&gt;UserItemComponent </title>
<path fill="none" stroke="#000000" stroke-dasharray="5,2" d="M216.3601,-175C169.4937,-175 106.3475,-175 106.3475,-175 106.3475,-175 106.3475,-205.9775 106.3475,-205.9775"/>
<polygon fill="#000000" stroke="#000000" points="102.8476,-205.9774 106.3475,-215.9775 109.8476,-205.9775 102.8476,-205.9774"/>
</g>
</g>
</svg>
