<?xml version="1.0" encoding="UTF-8" standalone="no"?>
<!DOCTYPE svg PUBLIC "-//W3C//DTD SVG 1.1//EN"
 "http://www.w3.org/Graphics/SVG/1.1/DTD/svg11.dtd">
<!-- Generated by graphviz version 2.40.1 (20161225.0304)
 -->
<!-- Title: dependencies Pages: 1 -->
<svg width="779pt" height="284pt"
 viewBox="0.00 0.00 779.00 284.00" xmlns="http://www.w3.org/2000/svg" xmlns:xlink="http://www.w3.org/1999/xlink">
<g id="graph0" class="graph" transform="scale(1 1) rotate(0) translate(4 280)">
<title>dependencies</title>
<polygon fill="#ffffff" stroke="transparent" points="-4,4 -4,-280 775,-280 775,4 -4,4"/>
<text text-anchor="start" x="364.5091" y="-42.4" font-family="sans-serif" font-weight="bold" font-size="14.00" fill="#000000">Legend</text>
<polygon fill="#ffffb3" stroke="transparent" points="151.5,-10 151.5,-30 171.5,-30 171.5,-10 151.5,-10"/>
<text text-anchor="start" x="175.129" y="-15.4" font-family="sans-serif" font-size="14.00" fill="#000000"> &#160;Declarations</text>
<polygon fill="#8dd3c7" stroke="transparent" points="264.5,-10 264.5,-30 284.5,-30 284.5,-10 264.5,-10"/>
<text text-anchor="start" x="288.2251" y="-15.4" font-family="sans-serif" font-size="14.00" fill="#000000"> &#160;Module</text>
<polygon fill="#80b1d3" stroke="transparent" points="350.5,-10 350.5,-30 370.5,-30 370.5,-10 350.5,-10"/>
<text text-anchor="start" x="374.2812" y="-15.4" font-family="sans-serif" font-size="14.00" fill="#000000"> &#160;Bootstrap</text>
<polygon fill="#fdb462" stroke="transparent" points="447.5,-10 447.5,-30 467.5,-30 467.5,-10 447.5,-10"/>
<text text-anchor="start" x="471.1732" y="-15.4" font-family="sans-serif" font-size="14.00" fill="#000000"> &#160;Providers</text>
<polygon fill="#fb8072" stroke="transparent" points="543.5,-10 543.5,-30 563.5,-30 563.5,-10 543.5,-10"/>
<text text-anchor="start" x="567.2258" y="-15.4" font-family="sans-serif" font-size="14.00" fill="#000000"> &#160;Exports</text>
<g id="clust1" class="cluster">
<title>cluster_FuseThemeOptionsModule</title>
<polygon fill="none" stroke="#000000" stroke-dasharray="1,5" points="8,-70 8,-268 763,-268 763,-70 8,-70"/>
</g>
<g id="clust2" class="cluster">
<title>cluster_FuseThemeOptionsModule_declarations</title>
<polygon fill="none" stroke="#000000" points="549,-78 549,-130 755,-130 755,-78 549,-78"/>
</g>
<g id="clust4" class="cluster">
<title>cluster_FuseThemeOptionsModule_imports</title>
<polygon fill="none" stroke="#000000" points="16,-78 16,-130 541,-130 541,-78 16,-78"/>
</g>
<g id="clust5" class="cluster">
<title>cluster_FuseThemeOptionsModule_exports</title>
<polygon fill="none" stroke="#000000" points="261,-208 261,-260 471,-260 471,-208 261,-208"/>
</g>
<!-- FuseThemeOptionsComponent -->
<g id="node1" class="node">
<title>FuseThemeOptionsComponent</title>
<polygon fill="#ffffb3" stroke="#000000" points="747.479,-122 556.521,-122 556.521,-86 747.479,-86 747.479,-122"/>
<text text-anchor="middle" x="652" y="-99.8" font-family="Times,serif" font-size="14.00" fill="#000000">FuseThemeOptionsComponent</text>
</g>
<!-- FuseThemeOptionsModule -->
<g id="node2" class="node">
<title>FuseThemeOptionsModule</title>
<polygon fill="#8dd3c7" stroke="#000000" points="450.6965,-187 447.6965,-191 426.6965,-191 423.6965,-187 281.3035,-187 281.3035,-151 450.6965,-151 450.6965,-187"/>
<text text-anchor="middle" x="366" y="-164.8" font-family="Times,serif" font-size="14.00" fill="#000000">FuseThemeOptionsModule</text>
</g>
<!-- FuseThemeOptionsComponent&#45;&gt;FuseThemeOptionsModule -->
<g id="edge1" class="edge">
<title>FuseThemeOptionsComponent&#45;&gt;FuseThemeOptionsModule</title>
<path fill="none" stroke="#000000" d="M652,-122.1061C652,-141.3391 652,-169 652,-169 652,-169 460.6486,-169 460.6486,-169"/>
<polygon fill="#000000" stroke="#000000" points="460.6486,-165.5001 450.6486,-169 460.6486,-172.5001 460.6486,-165.5001"/>
</g>
<!-- FuseThemeOptionsComponent  -->
<g id="node6" class="node">
<title>FuseThemeOptionsComponent </title>
<polygon fill="#fb8072" stroke="#000000" points="463.4796,-252 268.5204,-252 268.5204,-216 463.4796,-216 463.4796,-252"/>
<text text-anchor="middle" x="366" y="-229.8" font-family="Times,serif" font-size="14.00" fill="#000000">FuseThemeOptionsComponent </text>
</g>
<!-- FuseThemeOptionsModule&#45;&gt;FuseThemeOptionsComponent  -->
<g id="edge5" class="edge">
<title>FuseThemeOptionsModule&#45;&gt;FuseThemeOptionsComponent </title>
<path fill="none" stroke="#000000" stroke-dasharray="5,2" d="M366,-187.1061C366,-187.1061 366,-205.991 366,-205.991"/>
<polygon fill="#000000" stroke="#000000" points="362.5001,-205.9909 366,-215.991 369.5001,-205.991 362.5001,-205.9909"/>
</g>
<!-- FuseDirectivesModule -->
<g id="node3" class="node">
<title>FuseDirectivesModule</title>
<polygon fill="#8dd3c7" stroke="#000000" points="532.5198,-122 529.5198,-126 508.5198,-126 505.5198,-122 389.4802,-122 389.4802,-86 532.5198,-86 532.5198,-122"/>
<text text-anchor="middle" x="461" y="-99.8" font-family="Times,serif" font-size="14.00" fill="#000000">FuseDirectivesModule</text>
</g>
<!-- FuseDirectivesModule&#45;&gt;FuseThemeOptionsModule -->
<g id="edge2" class="edge">
<title>FuseDirectivesModule&#45;&gt;FuseThemeOptionsModule</title>
<path fill="none" stroke="#000000" d="M419.9194,-122.1061C419.9194,-122.1061 419.9194,-140.991 419.9194,-140.991"/>
<polygon fill="#000000" stroke="#000000" points="416.4194,-140.9909 419.9194,-150.991 423.4194,-140.991 416.4194,-140.9909"/>
</g>
<!-- FuseMaterialColorPickerModule -->
<g id="node4" class="node">
<title>FuseMaterialColorPickerModule</title>
<polygon fill="#8dd3c7" stroke="#000000" points="371.5632,-122 368.5632,-126 347.5632,-126 344.5632,-122 170.4368,-122 170.4368,-86 371.5632,-86 371.5632,-122"/>
<text text-anchor="middle" x="271" y="-99.8" font-family="Times,serif" font-size="14.00" fill="#000000">FuseMaterialColorPickerModule</text>
</g>
<!-- FuseMaterialColorPickerModule&#45;&gt;FuseThemeOptionsModule -->
<g id="edge3" class="edge">
<title>FuseMaterialColorPickerModule&#45;&gt;FuseThemeOptionsModule</title>
<path fill="none" stroke="#000000" d="M326.4667,-122.1061C326.4667,-122.1061 326.4667,-140.991 326.4667,-140.991"/>
<polygon fill="#000000" stroke="#000000" points="322.9668,-140.9909 326.4667,-150.991 329.9668,-140.991 322.9668,-140.9909"/>
</g>
<!-- FuseSidebarModule -->
<g id="node5" class="node">
<title>FuseSidebarModule</title>
<polygon fill="#8dd3c7" stroke="#000000" points="152.2548,-122 149.2548,-126 128.2548,-126 125.2548,-122 23.7452,-122 23.7452,-86 152.2548,-86 152.2548,-122"/>
<text text-anchor="middle" x="88" y="-99.8" font-family="Times,serif" font-size="14.00" fill="#000000">FuseSidebarModule</text>
</g>
<!-- FuseSidebarModule&#45;&gt;FuseThemeOptionsModule -->
<g id="edge4" class="edge">
<title>FuseSidebarModule&#45;&gt;FuseThemeOptionsModule</title>
<path fill="none" stroke="#000000" d="M88,-122.1061C88,-141.3391 88,-169 88,-169 88,-169 271.0803,-169 271.0803,-169"/>
<polygon fill="#000000" stroke="#000000" points="271.0803,-172.5001 281.0803,-169 271.0802,-165.5001 271.0803,-172.5001"/>
</g>
</g>
</svg>
