<?xml version="1.0" encoding="UTF-8" standalone="no"?>
<!DOCTYPE svg PUBLIC "-//W3C//DTD SVG 1.1//EN"
 "http://www.w3.org/Graphics/SVG/1.1/DTD/svg11.dtd">
<!-- Generated by graphviz version 2.40.1 (20161225.0304)
 -->
<!-- Title: dependencies Pages: 1 -->
<svg width="770pt" height="211pt"
 viewBox="0.00 0.00 770.00 211.00" xmlns="http://www.w3.org/2000/svg" xmlns:xlink="http://www.w3.org/1999/xlink">
<g id="graph0" class="graph" transform="scale(1 1) rotate(0) translate(4 207)">
<title>dependencies</title>
<polygon fill="#ffffff" stroke="transparent" points="-4,4 -4,-207 766,-207 766,4 -4,4"/>
<text text-anchor="start" x="360.0091" y="-42.4" font-family="sans-serif" font-weight="bold" font-size="14.00" fill="#000000">Legend</text>
<polygon fill="#ffffb3" stroke="transparent" points="147,-10 147,-30 167,-30 167,-10 147,-10"/>
<text text-anchor="start" x="170.629" y="-15.4" font-family="sans-serif" font-size="14.00" fill="#000000"> &#160;Declarations</text>
<polygon fill="#8dd3c7" stroke="transparent" points="260,-10 260,-30 280,-30 280,-10 260,-10"/>
<text text-anchor="start" x="283.7251" y="-15.4" font-family="sans-serif" font-size="14.00" fill="#000000"> &#160;Module</text>
<polygon fill="#80b1d3" stroke="transparent" points="346,-10 346,-30 366,-30 366,-10 346,-10"/>
<text text-anchor="start" x="369.7812" y="-15.4" font-family="sans-serif" font-size="14.00" fill="#000000"> &#160;Bootstrap</text>
<polygon fill="#fdb462" stroke="transparent" points="443,-10 443,-30 463,-30 463,-10 443,-10"/>
<text text-anchor="start" x="466.6732" y="-15.4" font-family="sans-serif" font-size="14.00" fill="#000000"> &#160;Providers</text>
<polygon fill="#fb8072" stroke="transparent" points="539,-10 539,-30 559,-30 559,-10 539,-10"/>
<text text-anchor="start" x="562.7258" y="-15.4" font-family="sans-serif" font-size="14.00" fill="#000000"> &#160;Exports</text>
<g id="clust1" class="cluster">
<title>cluster_PaymentModule</title>
<polygon fill="none" stroke="#000000" stroke-dasharray="1,5" points="8,-70 8,-195 754,-195 754,-70 8,-70"/>
</g>
<g id="clust2" class="cluster">
<title>cluster_PaymentModule_declarations</title>
<polygon fill="none" stroke="#000000" points="392,-78 392,-130 746,-130 746,-78 392,-78"/>
</g>
<g id="clust5" class="cluster">
<title>cluster_PaymentModule_imports</title>
<polygon fill="none" stroke="#000000" points="270,-78 270,-130 384,-130 384,-78 270,-78"/>
</g>
<g id="clust8" class="cluster">
<title>cluster_PaymentModule_providers</title>
<polygon fill="none" stroke="#000000" points="16,-78 16,-130 262,-130 262,-78 16,-78"/>
</g>
<!-- PaymentComponent -->
<g id="node1" class="node">
<title>PaymentComponent</title>
<polygon fill="#ffffb3" stroke="#000000" points="738.3258,-122 607.6742,-122 607.6742,-86 738.3258,-86 738.3258,-122"/>
<text text-anchor="middle" x="673" y="-99.8" font-family="Times,serif" font-size="14.00" fill="#000000">PaymentComponent</text>
</g>
<!-- PaymentModule -->
<g id="node3" class="node">
<title>PaymentModule</title>
<polygon fill="#8dd3c7" stroke="#000000" points="465.0438,-187 462.0438,-191 441.0438,-191 438.0438,-187 356.9562,-187 356.9562,-151 465.0438,-151 465.0438,-187"/>
<text text-anchor="middle" x="411" y="-164.8" font-family="Times,serif" font-size="14.00" fill="#000000">PaymentModule</text>
</g>
<!-- PaymentComponent&#45;&gt;PaymentModule -->
<g id="edge1" class="edge">
<title>PaymentComponent&#45;&gt;PaymentModule</title>
<path fill="none" stroke="#000000" d="M673,-122.1061C673,-141.3391 673,-169 673,-169 673,-169 475.2866,-169 475.2866,-169"/>
<polygon fill="#000000" stroke="#000000" points="475.2866,-165.5001 465.2866,-169 475.2865,-172.5001 475.2866,-165.5001"/>
</g>
<!-- TransactionHistoryComponent -->
<g id="node2" class="node">
<title>TransactionHistoryComponent</title>
<polygon fill="#ffffb3" stroke="#000000" points="589.9086,-122 400.0914,-122 400.0914,-86 589.9086,-86 589.9086,-122"/>
<text text-anchor="middle" x="495" y="-99.8" font-family="Times,serif" font-size="14.00" fill="#000000">TransactionHistoryComponent</text>
</g>
<!-- TransactionHistoryComponent&#45;&gt;PaymentModule -->
<g id="edge2" class="edge">
<title>TransactionHistoryComponent&#45;&gt;PaymentModule</title>
<path fill="none" stroke="#000000" d="M432.7837,-122.1061C432.7837,-122.1061 432.7837,-140.991 432.7837,-140.991"/>
<polygon fill="#000000" stroke="#000000" points="429.2837,-140.9909 432.7837,-150.991 436.2837,-140.991 429.2837,-140.9909"/>
</g>
<!-- SharedModule -->
<g id="node4" class="node">
<title>SharedModule</title>
<polygon fill="#8dd3c7" stroke="#000000" points="376.4231,-122 373.4231,-126 352.4231,-126 349.4231,-122 277.5769,-122 277.5769,-86 376.4231,-86 376.4231,-122"/>
<text text-anchor="middle" x="327" y="-99.8" font-family="Times,serif" font-size="14.00" fill="#000000">SharedModule</text>
</g>
<!-- SharedModule&#45;&gt;PaymentModule -->
<g id="edge3" class="edge">
<title>SharedModule&#45;&gt;PaymentModule</title>
<path fill="none" stroke="#000000" d="M366.4699,-122.1061C366.4699,-122.1061 366.4699,-140.991 366.4699,-140.991"/>
<polygon fill="#000000" stroke="#000000" points="362.9699,-140.9909 366.4699,-150.991 369.9699,-140.991 362.9699,-140.9909"/>
</g>
<!-- TransactionHistoryService -->
<g id="node5" class="node">
<title>TransactionHistoryService</title>
<ellipse fill="#fdb462" stroke="#000000" cx="139" cy="-104" rx="114.5812" ry="18"/>
<text text-anchor="middle" x="139" y="-99.8" font-family="Times,serif" font-size="14.00" fill="#000000">TransactionHistoryService</text>
</g>
<!-- TransactionHistoryService&#45;&gt;PaymentModule -->
<g id="edge4" class="edge">
<title>TransactionHistoryService&#45;&gt;PaymentModule</title>
<path fill="none" stroke="#000000" d="M139,-122.1061C139,-141.3391 139,-169 139,-169 139,-169 346.9363,-169 346.9363,-169"/>
<polygon fill="#000000" stroke="#000000" points="346.9364,-172.5001 356.9363,-169 346.9363,-165.5001 346.9364,-172.5001"/>
</g>
</g>
</svg>
