<?xml version="1.0" encoding="UTF-8" standalone="no"?>
<!DOCTYPE svg PUBLIC "-//W3C//DTD SVG 1.1//EN"
 "http://www.w3.org/Graphics/SVG/1.1/DTD/svg11.dtd">
<!-- Generated by graphviz version 2.40.1 (20161225.0304)
 -->
<!-- Title: dependencies Pages: 1 -->
<svg width="5909pt" height="211pt"
 viewBox="0.00 0.00 5909.00 211.00" xmlns="http://www.w3.org/2000/svg" xmlns:xlink="http://www.w3.org/1999/xlink">
<g id="graph0" class="graph" transform="scale(1 1) rotate(0) translate(4 207)">
<title>dependencies</title>
<polygon fill="#ffffff" stroke="transparent" points="-4,4 -4,-207 5905,-207 5905,4 -4,4"/>
<text text-anchor="start" x="2929.5091" y="-42.4" font-family="sans-serif" font-weight="bold" font-size="14.00" fill="#000000">Legend</text>
<polygon fill="#ffffb3" stroke="transparent" points="2716.5,-10 2716.5,-30 2736.5,-30 2736.5,-10 2716.5,-10"/>
<text text-anchor="start" x="2740.129" y="-15.4" font-family="sans-serif" font-size="14.00" fill="#000000"> &#160;Declarations</text>
<polygon fill="#8dd3c7" stroke="transparent" points="2829.5,-10 2829.5,-30 2849.5,-30 2849.5,-10 2829.5,-10"/>
<text text-anchor="start" x="2853.2251" y="-15.4" font-family="sans-serif" font-size="14.00" fill="#000000"> &#160;Module</text>
<polygon fill="#80b1d3" stroke="transparent" points="2915.5,-10 2915.5,-30 2935.5,-30 2935.5,-10 2915.5,-10"/>
<text text-anchor="start" x="2939.2812" y="-15.4" font-family="sans-serif" font-size="14.00" fill="#000000"> &#160;Bootstrap</text>
<polygon fill="#fdb462" stroke="transparent" points="3012.5,-10 3012.5,-30 3032.5,-30 3032.5,-10 3012.5,-10"/>
<text text-anchor="start" x="3036.1732" y="-15.4" font-family="sans-serif" font-size="14.00" fill="#000000"> &#160;Providers</text>
<polygon fill="#fb8072" stroke="transparent" points="3108.5,-10 3108.5,-30 3128.5,-30 3128.5,-10 3108.5,-10"/>
<text text-anchor="start" x="3132.2258" y="-15.4" font-family="sans-serif" font-size="14.00" fill="#000000"> &#160;Exports</text>
<g id="clust1" class="cluster">
<title>cluster_FeaturesModule</title>
<polygon fill="none" stroke="#000000" stroke-dasharray="1,5" points="8,-70 8,-195 5893,-195 5893,-70 8,-70"/>
</g>
<g id="clust2" class="cluster">
<title>cluster_FeaturesModule_declarations</title>
<polygon fill="none" stroke="#000000" points="431,-78 431,-130 5885,-130 5885,-78 431,-78"/>
</g>
<g id="clust32" class="cluster">
<title>cluster_FeaturesModule_imports</title>
<polygon fill="none" stroke="#000000" points="16,-78 16,-130 423,-130 423,-78 16,-78"/>
</g>
<!-- BreadcrumbBgComponent -->
<g id="node1" class="node">
<title>BreadcrumbBgComponent</title>
<polygon fill="#ffffb3" stroke="#000000" points="5877.3613,-122 5710.6387,-122 5710.6387,-86 5877.3613,-86 5877.3613,-122"/>
<text text-anchor="middle" x="5794" y="-99.8" font-family="Times,serif" font-size="14.00" fill="#000000">BreadcrumbBgComponent</text>
</g>
<!-- FeaturesModule -->
<g id="node30" class="node">
<title>FeaturesModule</title>
<polygon fill="#8dd3c7" stroke="#000000" points="2919.472,-187 2916.472,-191 2895.472,-191 2892.472,-187 2812.528,-187 2812.528,-151 2919.472,-151 2919.472,-187"/>
<text text-anchor="middle" x="2866" y="-164.8" font-family="Times,serif" font-size="14.00" fill="#000000">FeaturesModule</text>
</g>
<!-- BreadcrumbBgComponent&#45;&gt;FeaturesModule -->
<g id="edge1" class="edge">
<title>BreadcrumbBgComponent&#45;&gt;FeaturesModule</title>
<path fill="none" stroke="#000000" d="M5794,-122.3802C5794,-146.2785 5794,-185 5794,-185 5794,-185 2929.6368,-185 2929.6368,-185"/>
<polygon fill="#000000" stroke="#000000" points="2929.6368,-181.5001 2919.6368,-185 2929.6368,-188.5001 2929.6368,-181.5001"/>
</g>
<!-- BreadcrumbBigTypographyComponent -->
<g id="node2" class="node">
<title>BreadcrumbBigTypographyComponent</title>
<polygon fill="#ffffb3" stroke="#000000" points="5692.6797,-122 5453.3203,-122 5453.3203,-86 5692.6797,-86 5692.6797,-122"/>
<text text-anchor="middle" x="5573" y="-99.8" font-family="Times,serif" font-size="14.00" fill="#000000">BreadcrumbBigTypographyComponent</text>
</g>
<!-- BreadcrumbBigTypographyComponent&#45;&gt;FeaturesModule -->
<g id="edge2" class="edge">
<title>BreadcrumbBigTypographyComponent&#45;&gt;FeaturesModule</title>
<path fill="none" stroke="#000000" d="M5573,-122.3228C5573,-145.6602 5573,-183 5573,-183 5573,-183 2929.7687,-183 2929.7687,-183"/>
<polygon fill="#000000" stroke="#000000" points="2929.7687,-179.5001 2919.7687,-183 2929.7687,-186.5001 2929.7687,-179.5001"/>
</g>
<!-- BreadcrumbCenterComponent -->
<g id="node3" class="node">
<title>BreadcrumbCenterComponent</title>
<polygon fill="#ffffb3" stroke="#000000" points="5434.8417,-122 5247.1583,-122 5247.1583,-86 5434.8417,-86 5434.8417,-122"/>
<text text-anchor="middle" x="5341" y="-99.8" font-family="Times,serif" font-size="14.00" fill="#000000">BreadcrumbCenterComponent</text>
</g>
<!-- BreadcrumbCenterComponent&#45;&gt;FeaturesModule -->
<g id="edge3" class="edge">
<title>BreadcrumbCenterComponent&#45;&gt;FeaturesModule</title>
<path fill="none" stroke="#000000" d="M5341,-122.2479C5341,-145.0179 5341,-181 5341,-181 5341,-181 2929.7054,-181 2929.7054,-181"/>
<polygon fill="#000000" stroke="#000000" points="2929.7054,-177.5001 2919.7054,-181 2929.7053,-184.5001 2929.7054,-177.5001"/>
</g>
<!-- BreadcrumbDarkComponent -->
<g id="node4" class="node">
<title>BreadcrumbDarkComponent</title>
<polygon fill="#ffffb3" stroke="#000000" points="5229.0071,-122 5050.9929,-122 5050.9929,-86 5229.0071,-86 5229.0071,-122"/>
<text text-anchor="middle" x="5140" y="-99.8" font-family="Times,serif" font-size="14.00" fill="#000000">BreadcrumbDarkComponent</text>
</g>
<!-- BreadcrumbDarkComponent&#45;&gt;FeaturesModule -->
<g id="edge4" class="edge">
<title>BreadcrumbDarkComponent&#45;&gt;FeaturesModule</title>
<path fill="none" stroke="#000000" d="M5140,-122.2921C5140,-144.2057 5140,-178 5140,-178 5140,-178 2929.6913,-178 2929.6913,-178"/>
<polygon fill="#000000" stroke="#000000" points="2929.6913,-174.5001 2919.6913,-178 2929.6912,-181.5001 2929.6913,-174.5001"/>
</g>
<!-- BreadcrumbGalleryComponent -->
<g id="node5" class="node">
<title>BreadcrumbGalleryComponent</title>
<polygon fill="#ffffb3" stroke="#000000" points="5032.0028,-122 4839.9972,-122 4839.9972,-86 5032.0028,-86 5032.0028,-122"/>
<text text-anchor="middle" x="4936" y="-99.8" font-family="Times,serif" font-size="14.00" fill="#000000">BreadcrumbGalleryComponent</text>
</g>
<!-- BreadcrumbGalleryComponent&#45;&gt;FeaturesModule -->
<g id="edge5" class="edge">
<title>BreadcrumbGalleryComponent&#45;&gt;FeaturesModule</title>
<path fill="none" stroke="#000000" d="M4936,-122.1686C4936,-143.498 4936,-176 4936,-176 4936,-176 2929.5117,-176 2929.5117,-176"/>
<polygon fill="#000000" stroke="#000000" points="2929.5118,-172.5001 2919.5117,-176 2929.5117,-179.5001 2929.5118,-172.5001"/>
</g>
<!-- BreadcrumbLeftComponent -->
<g id="node6" class="node">
<title>BreadcrumbLeftComponent</title>
<polygon fill="#ffffb3" stroke="#000000" points="4821.8431,-122 4648.1569,-122 4648.1569,-86 4821.8431,-86 4821.8431,-122"/>
<text text-anchor="middle" x="4735" y="-99.8" font-family="Times,serif" font-size="14.00" fill="#000000">BreadcrumbLeftComponent</text>
</g>
<!-- BreadcrumbLeftComponent&#45;&gt;FeaturesModule -->
<g id="edge6" class="edge">
<title>BreadcrumbLeftComponent&#45;&gt;FeaturesModule</title>
<path fill="none" stroke="#000000" d="M4735,-122.0267C4735,-142.7672 4735,-174 4735,-174 4735,-174 2929.9199,-174 2929.9199,-174"/>
<polygon fill="#000000" stroke="#000000" points="2929.9199,-170.5001 2919.9199,-174 2929.9199,-177.5001 2929.9199,-170.5001"/>
</g>
<!-- BreadcrumbParallexBgComponent -->
<g id="node7" class="node">
<title>BreadcrumbParallexBgComponent</title>
<polygon fill="#ffffb3" stroke="#000000" points="4630.2296,-122 4417.7704,-122 4417.7704,-86 4630.2296,-86 4630.2296,-122"/>
<text text-anchor="middle" x="4524" y="-99.8" font-family="Times,serif" font-size="14.00" fill="#000000">BreadcrumbParallexBgComponent</text>
</g>
<!-- BreadcrumbParallexBgComponent&#45;&gt;FeaturesModule -->
<g id="edge7" class="edge">
<title>BreadcrumbParallexBgComponent&#45;&gt;FeaturesModule</title>
<path fill="none" stroke="#000000" d="M4524,-122.2228C4524,-142.3652 4524,-172 4524,-172 4524,-172 2929.7535,-172 2929.7535,-172"/>
<polygon fill="#000000" stroke="#000000" points="2929.7535,-168.5001 2919.7535,-172 2929.7534,-175.5001 2929.7535,-168.5001"/>
</g>
<!-- BreadcrumbRightComponent -->
<g id="node8" class="node">
<title>BreadcrumbRightComponent</title>
<polygon fill="#ffffb3" stroke="#000000" points="4399.6428,-122 4218.3572,-122 4218.3572,-86 4399.6428,-86 4399.6428,-122"/>
<text text-anchor="middle" x="4309" y="-99.8" font-family="Times,serif" font-size="14.00" fill="#000000">BreadcrumbRightComponent</text>
</g>
<!-- BreadcrumbRightComponent&#45;&gt;FeaturesModule -->
<g id="edge8" class="edge">
<title>BreadcrumbRightComponent&#45;&gt;FeaturesModule</title>
<path fill="none" stroke="#000000" d="M4309,-122.1061C4309,-141.3391 4309,-169 4309,-169 4309,-169 2929.5003,-169 2929.5003,-169"/>
<polygon fill="#000000" stroke="#000000" points="2929.5003,-165.5001 2919.5003,-169 2929.5003,-172.5001 2929.5003,-165.5001"/>
</g>
<!-- BreadcrumbVideoComponent -->
<g id="node9" class="node">
<title>BreadcrumbVideoComponent</title>
<polygon fill="#ffffb3" stroke="#000000" points="4200.2366,-122 4015.7634,-122 4015.7634,-86 4200.2366,-86 4200.2366,-122"/>
<text text-anchor="middle" x="4108" y="-99.8" font-family="Times,serif" font-size="14.00" fill="#000000">BreadcrumbVideoComponent</text>
</g>
<!-- BreadcrumbVideoComponent&#45;&gt;FeaturesModule -->
<g id="edge9" class="edge">
<title>BreadcrumbVideoComponent&#45;&gt;FeaturesModule</title>
<path fill="none" stroke="#000000" d="M4108,-122.2222C4108,-140.8285 4108,-167 4108,-167 4108,-167 2929.7658,-167 2929.7658,-167"/>
<polygon fill="#000000" stroke="#000000" points="2929.7659,-163.5001 2919.7658,-167 2929.7658,-170.5001 2929.7659,-163.5001"/>
</g>
<!-- ContentComponent -->
<g id="node10" class="node">
<title>ContentComponent</title>
<polygon fill="#ffffb3" stroke="#000000" points="3997.6652,-122 3872.3348,-122 3872.3348,-86 3997.6652,-86 3997.6652,-122"/>
<text text-anchor="middle" x="3935" y="-99.8" font-family="Times,serif" font-size="14.00" fill="#000000">ContentComponent</text>
</g>
<!-- ContentComponent&#45;&gt;FeaturesModule -->
<g id="edge10" class="edge">
<title>ContentComponent&#45;&gt;FeaturesModule</title>
<path fill="none" stroke="#000000" d="M3935,-122.302C3935,-140.2699 3935,-165 3935,-165 3935,-165 2929.7445,-165 2929.7445,-165"/>
<polygon fill="#000000" stroke="#000000" points="2929.7445,-161.5001 2919.7445,-165 2929.7444,-168.5001 2929.7445,-161.5001"/>
</g>
<!-- DarkHeaderComponent -->
<g id="node11" class="node">
<title>DarkHeaderComponent</title>
<polygon fill="#ffffb3" stroke="#000000" points="3853.7255,-122 3704.2745,-122 3704.2745,-86 3853.7255,-86 3853.7255,-122"/>
<text text-anchor="middle" x="3779" y="-99.8" font-family="Times,serif" font-size="14.00" fill="#000000">DarkHeaderComponent</text>
</g>
<!-- DarkHeaderComponent&#45;&gt;FeaturesModule -->
<g id="edge11" class="edge">
<title>DarkHeaderComponent&#45;&gt;FeaturesModule</title>
<path fill="none" stroke="#000000" d="M3779,-122.0225C3779,-139.3734 3779,-163 3779,-163 3779,-163 2929.7037,-163 2929.7037,-163"/>
<polygon fill="#000000" stroke="#000000" points="2929.7038,-159.5001 2919.7037,-163 2929.7037,-166.5001 2929.7038,-159.5001"/>
</g>
<!-- FeaturesComponent -->
<g id="node12" class="node">
<title>FeaturesComponent</title>
<polygon fill="#ffffb3" stroke="#000000" points="3686.2548,-122 3557.7452,-122 3557.7452,-86 3686.2548,-86 3686.2548,-122"/>
<text text-anchor="middle" x="3622" y="-99.8" font-family="Times,serif" font-size="14.00" fill="#000000">FeaturesComponent</text>
</g>
<!-- FeaturesComponent&#45;&gt;FeaturesModule -->
<g id="edge12" class="edge">
<title>FeaturesComponent&#45;&gt;FeaturesModule</title>
<path fill="none" stroke="#000000" d="M3622,-122.027C3622,-138.3976 3622,-160 3622,-160 3622,-160 2929.7636,-160 2929.7636,-160"/>
<polygon fill="#000000" stroke="#000000" points="2929.7636,-156.5001 2919.7636,-160 2929.7636,-163.5001 2929.7636,-156.5001"/>
</g>
<!-- FooterDark2Component -->
<g id="node13" class="node">
<title>FooterDark2Component</title>
<polygon fill="#ffffb3" stroke="#000000" points="3539.3627,-122 3386.6373,-122 3386.6373,-86 3539.3627,-86 3539.3627,-122"/>
<text text-anchor="middle" x="3463" y="-99.8" font-family="Times,serif" font-size="14.00" fill="#000000">FooterDark2Component</text>
</g>
<!-- FooterDark2Component&#45;&gt;FeaturesModule -->
<g id="edge13" class="edge">
<title>FooterDark2Component&#45;&gt;FeaturesModule</title>
<path fill="none" stroke="#000000" d="M3463,-122.2819C3463,-137.9478 3463,-158 3463,-158 3463,-158 2929.5052,-158 2929.5052,-158"/>
<polygon fill="#000000" stroke="#000000" points="2929.5052,-154.5001 2919.5052,-158 2929.5051,-161.5001 2929.5052,-154.5001"/>
</g>
<!-- FooterDark3Component -->
<g id="node14" class="node">
<title>FooterDark3Component</title>
<polygon fill="#ffffb3" stroke="#000000" points="3368.3627,-122 3215.6373,-122 3215.6373,-86 3368.3627,-86 3368.3627,-122"/>
<text text-anchor="middle" x="3292" y="-99.8" font-family="Times,serif" font-size="14.00" fill="#000000">FooterDark3Component</text>
</g>
<!-- FooterDark3Component&#45;&gt;FeaturesModule -->
<g id="edge14" class="edge">
<title>FooterDark3Component&#45;&gt;FeaturesModule</title>
<path fill="none" stroke="#000000" d="M3292,-122.1871C3292,-137.1824 3292,-156 3292,-156 3292,-156 2929.5218,-156 2929.5218,-156"/>
<polygon fill="#000000" stroke="#000000" points="2929.5219,-152.5001 2919.5218,-156 2929.5218,-159.5001 2929.5219,-152.5001"/>
</g>
<!-- FooterDarkComponent -->
<g id="node15" class="node">
<title>FooterDarkComponent</title>
<polygon fill="#ffffb3" stroke="#000000" points="3197.8627,-122 3052.1373,-122 3052.1373,-86 3197.8627,-86 3197.8627,-122"/>
<text text-anchor="middle" x="3125" y="-99.8" font-family="Times,serif" font-size="14.00" fill="#000000">FooterDarkComponent</text>
</g>
<!-- FooterDarkComponent&#45;&gt;FeaturesModule -->
<g id="edge15" class="edge">
<title>FooterDarkComponent&#45;&gt;FeaturesModule</title>
<path fill="none" stroke="#000000" d="M3125,-122.0511C3125,-136.373 3125,-154 3125,-154 3125,-154 2929.665,-154 2929.665,-154"/>
<polygon fill="#000000" stroke="#000000" points="2929.665,-150.5001 2919.665,-154 2929.6649,-157.5001 2929.665,-150.5001"/>
</g>
<!-- FooterDefaultComponent -->
<g id="node16" class="node">
<title>FooterDefaultComponent</title>
<polygon fill="#ffffb3" stroke="#000000" points="3033.8585,-122 2874.1415,-122 2874.1415,-86 3033.8585,-86 3033.8585,-122"/>
<text text-anchor="middle" x="2954" y="-99.8" font-family="Times,serif" font-size="14.00" fill="#000000">FooterDefaultComponent</text>
</g>
<!-- FooterDefaultComponent&#45;&gt;FeaturesModule -->
<g id="edge16" class="edge">
<title>FooterDefaultComponent&#45;&gt;FeaturesModule</title>
<path fill="none" stroke="#000000" d="M2896.7784,-122.1061C2896.7784,-122.1061 2896.7784,-140.991 2896.7784,-140.991"/>
<polygon fill="#000000" stroke="#000000" points="2893.2785,-140.9909 2896.7784,-150.991 2900.2785,-140.991 2893.2785,-140.9909"/>
</g>
<!-- FooterLight2Component -->
<g id="node17" class="node">
<title>FooterLight2Component</title>
<polygon fill="#ffffb3" stroke="#000000" points="2855.7147,-122 2700.2853,-122 2700.2853,-86 2855.7147,-86 2855.7147,-122"/>
<text text-anchor="middle" x="2778" y="-99.8" font-family="Times,serif" font-size="14.00" fill="#000000">FooterLight2Component</text>
</g>
<!-- FooterLight2Component&#45;&gt;FeaturesModule -->
<g id="edge17" class="edge">
<title>FooterLight2Component&#45;&gt;FeaturesModule</title>
<path fill="none" stroke="#000000" d="M2834.0607,-122.1061C2834.0607,-122.1061 2834.0607,-140.991 2834.0607,-140.991"/>
<polygon fill="#000000" stroke="#000000" points="2830.5607,-140.9909 2834.0607,-150.991 2837.5607,-140.991 2830.5607,-140.9909"/>
</g>
<!-- FooterLight3Component -->
<g id="node18" class="node">
<title>FooterLight3Component</title>
<polygon fill="#ffffb3" stroke="#000000" points="2682.7147,-122 2527.2853,-122 2527.2853,-86 2682.7147,-86 2682.7147,-122"/>
<text text-anchor="middle" x="2605" y="-99.8" font-family="Times,serif" font-size="14.00" fill="#000000">FooterLight3Component</text>
</g>
<!-- FooterLight3Component&#45;&gt;FeaturesModule -->
<g id="edge18" class="edge">
<title>FooterLight3Component&#45;&gt;FeaturesModule</title>
<path fill="none" stroke="#000000" d="M2605,-122.0511C2605,-136.373 2605,-154 2605,-154 2605,-154 2802.2371,-154 2802.2371,-154"/>
<polygon fill="#000000" stroke="#000000" points="2802.2371,-157.5001 2812.2371,-154 2802.2371,-150.5001 2802.2371,-157.5001"/>
</g>
<!-- FooterLightComponent -->
<g id="node19" class="node">
<title>FooterLightComponent</title>
<polygon fill="#ffffb3" stroke="#000000" points="2509.2148,-122 2360.7852,-122 2360.7852,-86 2509.2148,-86 2509.2148,-122"/>
<text text-anchor="middle" x="2435" y="-99.8" font-family="Times,serif" font-size="14.00" fill="#000000">FooterLightComponent</text>
</g>
<!-- FooterLightComponent&#45;&gt;FeaturesModule -->
<g id="edge19" class="edge">
<title>FooterLightComponent&#45;&gt;FeaturesModule</title>
<path fill="none" stroke="#000000" d="M2435,-122.1871C2435,-137.1824 2435,-156 2435,-156 2435,-156 2802.285,-156 2802.285,-156"/>
<polygon fill="#000000" stroke="#000000" points="2802.285,-159.5001 2812.285,-156 2802.285,-152.5001 2802.285,-159.5001"/>
</g>
<!-- FormPopupComponent -->
<g id="node20" class="node">
<title>FormPopupComponent</title>
<polygon fill="#ffffb3" stroke="#000000" points="2342.9495,-122 2195.0505,-122 2195.0505,-86 2342.9495,-86 2342.9495,-122"/>
<text text-anchor="middle" x="2269" y="-99.8" font-family="Times,serif" font-size="14.00" fill="#000000">FormPopupComponent</text>
</g>
<!-- FormPopupComponent&#45;&gt;FeaturesModule -->
<g id="edge20" class="edge">
<title>FormPopupComponent&#45;&gt;FeaturesModule</title>
<path fill="none" stroke="#000000" d="M2269,-122.2819C2269,-137.9478 2269,-158 2269,-158 2269,-158 2802.4948,-158 2802.4948,-158"/>
<polygon fill="#000000" stroke="#000000" points="2802.4949,-161.5001 2812.4948,-158 2802.4948,-154.5001 2802.4949,-161.5001"/>
</g>
<!-- HeaderCenterLogoComponent -->
<g id="node21" class="node">
<title>HeaderCenterLogoComponent</title>
<polygon fill="#ffffb3" stroke="#000000" points="2177.1134,-122 1988.8866,-122 1988.8866,-86 2177.1134,-86 2177.1134,-122"/>
<text text-anchor="middle" x="2083" y="-99.8" font-family="Times,serif" font-size="14.00" fill="#000000">HeaderCenterLogoComponent</text>
</g>
<!-- HeaderCenterLogoComponent&#45;&gt;FeaturesModule -->
<g id="edge21" class="edge">
<title>HeaderCenterLogoComponent&#45;&gt;FeaturesModule</title>
<path fill="none" stroke="#000000" d="M2083,-122.027C2083,-138.3976 2083,-160 2083,-160 2083,-160 2802.4894,-160 2802.4894,-160"/>
<polygon fill="#000000" stroke="#000000" points="2802.4894,-163.5001 2812.4894,-160 2802.4894,-156.5001 2802.4894,-163.5001"/>
</g>
<!-- HeaderRightNavigationComponent -->
<g id="node22" class="node">
<title>HeaderRightNavigationComponent</title>
<polygon fill="#ffffb3" stroke="#000000" points="1970.5688,-122 1755.4312,-122 1755.4312,-86 1970.5688,-86 1970.5688,-122"/>
<text text-anchor="middle" x="1863" y="-99.8" font-family="Times,serif" font-size="14.00" fill="#000000">HeaderRightNavigationComponent</text>
</g>
<!-- HeaderRightNavigationComponent&#45;&gt;FeaturesModule -->
<g id="edge22" class="edge">
<title>HeaderRightNavigationComponent&#45;&gt;FeaturesModule</title>
<path fill="none" stroke="#000000" d="M1863,-122.0225C1863,-139.3734 1863,-163 1863,-163 1863,-163 2802.429,-163 2802.429,-163"/>
<polygon fill="#000000" stroke="#000000" points="2802.429,-166.5001 2812.429,-163 2802.4289,-159.5001 2802.429,-166.5001"/>
</g>
<!-- LightHeaderComponent -->
<g id="node23" class="node">
<title>LightHeaderComponent</title>
<polygon fill="#ffffb3" stroke="#000000" points="1737.0772,-122 1584.9228,-122 1584.9228,-86 1737.0772,-86 1737.0772,-122"/>
<text text-anchor="middle" x="1661" y="-99.8" font-family="Times,serif" font-size="14.00" fill="#000000">LightHeaderComponent</text>
</g>
<!-- LightHeaderComponent&#45;&gt;FeaturesModule -->
<g id="edge23" class="edge">
<title>LightHeaderComponent&#45;&gt;FeaturesModule</title>
<path fill="none" stroke="#000000" d="M1661,-122.302C1661,-140.2699 1661,-165 1661,-165 1661,-165 2802.2759,-165 2802.2759,-165"/>
<polygon fill="#000000" stroke="#000000" points="2802.2759,-168.5001 2812.2759,-165 2802.2759,-161.5001 2802.2759,-168.5001"/>
</g>
<!-- MapPopupComponent -->
<g id="node24" class="node">
<title>MapPopupComponent</title>
<polygon fill="#ffffb3" stroke="#000000" points="1567.2744,-122 1424.7256,-122 1424.7256,-86 1567.2744,-86 1567.2744,-122"/>
<text text-anchor="middle" x="1496" y="-99.8" font-family="Times,serif" font-size="14.00" fill="#000000">MapPopupComponent</text>
</g>
<!-- MapPopupComponent&#45;&gt;FeaturesModule -->
<g id="edge24" class="edge">
<title>MapPopupComponent&#45;&gt;FeaturesModule</title>
<path fill="none" stroke="#000000" d="M1496,-122.2222C1496,-140.8285 1496,-167 1496,-167 1496,-167 2802.2944,-167 2802.2944,-167"/>
<polygon fill="#000000" stroke="#000000" points="2802.2944,-170.5001 2812.2944,-167 2802.2943,-163.5001 2802.2944,-170.5001"/>
</g>
<!-- ModalPopupComponent -->
<g id="node25" class="node">
<title>ModalPopupComponent</title>
<polygon fill="#ffffb3" stroke="#000000" points="1406.6652,-122 1253.3348,-122 1253.3348,-86 1406.6652,-86 1406.6652,-122"/>
<text text-anchor="middle" x="1330" y="-99.8" font-family="Times,serif" font-size="14.00" fill="#000000">ModalPopupComponent</text>
</g>
<!-- ModalPopupComponent&#45;&gt;FeaturesModule -->
<g id="edge25" class="edge">
<title>ModalPopupComponent&#45;&gt;FeaturesModule</title>
<path fill="none" stroke="#000000" d="M1330,-122.1061C1330,-141.3391 1330,-169 1330,-169 1330,-169 2802.2336,-169 2802.2336,-169"/>
<polygon fill="#000000" stroke="#000000" points="2802.2336,-172.5001 2812.2336,-169 2802.2335,-165.5001 2802.2336,-172.5001"/>
</g>
<!-- TransparentHeaderComponent -->
<g id="node26" class="node">
<title>TransparentHeaderComponent</title>
<polygon fill="#ffffb3" stroke="#000000" points="1235.0966,-122 1046.9034,-122 1046.9034,-86 1235.0966,-86 1235.0966,-122"/>
<text text-anchor="middle" x="1141" y="-99.8" font-family="Times,serif" font-size="14.00" fill="#000000">TransparentHeaderComponent</text>
</g>
<!-- TransparentHeaderComponent&#45;&gt;FeaturesModule -->
<g id="edge26" class="edge">
<title>TransparentHeaderComponent&#45;&gt;FeaturesModule</title>
<path fill="none" stroke="#000000" d="M1141,-122.2228C1141,-142.3652 1141,-172 1141,-172 1141,-172 2802.4826,-172 2802.4826,-172"/>
<polygon fill="#000000" stroke="#000000" points="2802.4826,-175.5001 2812.4826,-172 2802.4826,-168.5001 2802.4826,-175.5001"/>
</g>
<!-- YoutubePopupComponent -->
<g id="node27" class="node">
<title>YoutubePopupComponent</title>
<polygon fill="#ffffb3" stroke="#000000" points="1028.8271,-122 863.1729,-122 863.1729,-86 1028.8271,-86 1028.8271,-122"/>
<text text-anchor="middle" x="946" y="-99.8" font-family="Times,serif" font-size="14.00" fill="#000000">YoutubePopupComponent</text>
</g>
<!-- YoutubePopupComponent&#45;&gt;FeaturesModule -->
<g id="edge27" class="edge">
<title>YoutubePopupComponent&#45;&gt;FeaturesModule</title>
<path fill="none" stroke="#000000" d="M946,-122.0267C946,-142.7672 946,-174 946,-174 946,-174 2802.3918,-174 2802.3918,-174"/>
<polygon fill="#000000" stroke="#000000" points="2802.3918,-177.5001 2812.3918,-174 2802.3917,-170.5001 2802.3918,-177.5001"/>
</g>
<!-- ZoomGalleryComponent -->
<g id="node28" class="node">
<title>ZoomGalleryComponent</title>
<polygon fill="#ffffb3" stroke="#000000" points="845.2534,-122 688.7466,-122 688.7466,-86 845.2534,-86 845.2534,-122"/>
<text text-anchor="middle" x="767" y="-99.8" font-family="Times,serif" font-size="14.00" fill="#000000">ZoomGalleryComponent</text>
</g>
<!-- ZoomGalleryComponent&#45;&gt;FeaturesModule -->
<g id="edge28" class="edge">
<title>ZoomGalleryComponent&#45;&gt;FeaturesModule</title>
<path fill="none" stroke="#000000" d="M767,-122.1686C767,-143.498 767,-176 767,-176 767,-176 2802.2708,-176 2802.2708,-176"/>
<polygon fill="#000000" stroke="#000000" points="2802.2708,-179.5001 2812.2708,-176 2802.2708,-172.5001 2802.2708,-179.5001"/>
</g>
<!-- breadcrumbLayoutContentComponent -->
<g id="node29" class="node">
<title>breadcrumbLayoutContentComponent</title>
<polygon fill="#ffffb3" stroke="#000000" points="671.1783,-122 438.8217,-122 438.8217,-86 671.1783,-86 671.1783,-122"/>
<text text-anchor="middle" x="555" y="-99.8" font-family="Times,serif" font-size="14.00" fill="#000000">breadcrumbLayoutContentComponent</text>
</g>
<!-- breadcrumbLayoutContentComponent&#45;&gt;FeaturesModule -->
<g id="edge29" class="edge">
<title>breadcrumbLayoutContentComponent&#45;&gt;FeaturesModule</title>
<path fill="none" stroke="#000000" d="M555,-122.2921C555,-144.2057 555,-178 555,-178 555,-178 2802.2767,-178 2802.2767,-178"/>
<polygon fill="#000000" stroke="#000000" points="2802.2768,-181.5001 2812.2767,-178 2802.2767,-174.5001 2802.2768,-181.5001"/>
</g>
<!-- FeaturesRoutingModule -->
<g id="node31" class="node">
<title>FeaturesRoutingModule</title>
<polygon fill="#8dd3c7" stroke="#000000" points="415.0898,-122 412.0898,-126 391.0898,-126 388.0898,-122 262.9102,-122 262.9102,-86 415.0898,-86 415.0898,-122"/>
<text text-anchor="middle" x="339" y="-99.8" font-family="Times,serif" font-size="14.00" fill="#000000">FeaturesRoutingModule</text>
</g>
<!-- FeaturesRoutingModule&#45;&gt;FeaturesModule -->
<g id="edge30" class="edge">
<title>FeaturesRoutingModule&#45;&gt;FeaturesModule</title>
<path fill="none" stroke="#000000" d="M339,-122.2479C339,-145.0179 339,-181 339,-181 339,-181 2802.3443,-181 2802.3443,-181"/>
<polygon fill="#000000" stroke="#000000" points="2802.3444,-184.5001 2812.3443,-181 2802.3443,-177.5001 2802.3444,-184.5001"/>
</g>
<!-- LayoutsModule -->
<g id="node32" class="node">
<title>LayoutsModule</title>
<polygon fill="#8dd3c7" stroke="#000000" points="245.1528,-122 242.1528,-126 221.1528,-126 218.1528,-122 140.8472,-122 140.8472,-86 245.1528,-86 245.1528,-122"/>
<text text-anchor="middle" x="193" y="-99.8" font-family="Times,serif" font-size="14.00" fill="#000000">LayoutsModule</text>
</g>
<!-- LayoutsModule&#45;&gt;FeaturesModule -->
<g id="edge31" class="edge">
<title>LayoutsModule&#45;&gt;FeaturesModule</title>
<path fill="none" stroke="#000000" d="M193,-122.3228C193,-145.6602 193,-183 193,-183 193,-183 2802.3042,-183 2802.3042,-183"/>
<polygon fill="#000000" stroke="#000000" points="2802.3042,-186.5001 2812.3042,-183 2802.3042,-179.5001 2802.3042,-186.5001"/>
</g>
<!-- SharedModule -->
<g id="node33" class="node">
<title>SharedModule</title>
<polygon fill="#8dd3c7" stroke="#000000" points="122.4231,-122 119.4231,-126 98.4231,-126 95.4231,-122 23.5769,-122 23.5769,-86 122.4231,-86 122.4231,-122"/>
<text text-anchor="middle" x="73" y="-99.8" font-family="Times,serif" font-size="14.00" fill="#000000">SharedModule</text>
</g>
<!-- SharedModule&#45;&gt;FeaturesModule -->
<g id="edge32" class="edge">
<title>SharedModule&#45;&gt;FeaturesModule</title>
<path fill="none" stroke="#000000" d="M73,-122.3802C73,-146.2785 73,-185 73,-185 73,-185 2802.3916,-185 2802.3916,-185"/>
<polygon fill="#000000" stroke="#000000" points="2802.3917,-188.5001 2812.3916,-185 2802.3916,-181.5001 2802.3917,-188.5001"/>
</g>
</g>
</svg>
