<?xml version="1.0" encoding="UTF-8" standalone="no"?>
<!DOCTYPE svg PUBLIC "-//W3C//DTD SVG 1.1//EN"
 "http://www.w3.org/Graphics/SVG/1.1/DTD/svg11.dtd">
<!-- Generated by graphviz version 2.40.1 (20161225.0304)
 -->
<!-- Title: dependencies Pages: 1 -->
<svg width="504pt" height="211pt"
 viewBox="0.00 0.00 504.00 211.00" xmlns="http://www.w3.org/2000/svg" xmlns:xlink="http://www.w3.org/1999/xlink">
<g id="graph0" class="graph" transform="scale(1 1) rotate(0) translate(4 207)">
<title>dependencies</title>
<polygon fill="#ffffff" stroke="transparent" points="-4,4 -4,-207 500,-207 500,4 -4,4"/>
<text text-anchor="start" x="227.0091" y="-42.4" font-family="sans-serif" font-weight="bold" font-size="14.00" fill="#000000">Legend</text>
<polygon fill="#ffffb3" stroke="transparent" points="14,-10 14,-30 34,-30 34,-10 14,-10"/>
<text text-anchor="start" x="37.629" y="-15.4" font-family="sans-serif" font-size="14.00" fill="#000000"> &#160;Declarations</text>
<polygon fill="#8dd3c7" stroke="transparent" points="127,-10 127,-30 147,-30 147,-10 127,-10"/>
<text text-anchor="start" x="150.7251" y="-15.4" font-family="sans-serif" font-size="14.00" fill="#000000"> &#160;Module</text>
<polygon fill="#80b1d3" stroke="transparent" points="213,-10 213,-30 233,-30 233,-10 213,-10"/>
<text text-anchor="start" x="236.7812" y="-15.4" font-family="sans-serif" font-size="14.00" fill="#000000"> &#160;Bootstrap</text>
<polygon fill="#fdb462" stroke="transparent" points="310,-10 310,-30 330,-30 330,-10 310,-10"/>
<text text-anchor="start" x="333.6732" y="-15.4" font-family="sans-serif" font-size="14.00" fill="#000000"> &#160;Providers</text>
<polygon fill="#fb8072" stroke="transparent" points="406,-10 406,-30 426,-30 426,-10 406,-10"/>
<text text-anchor="start" x="429.7258" y="-15.4" font-family="sans-serif" font-size="14.00" fill="#000000"> &#160;Exports</text>
<g id="clust1" class="cluster">
<title>cluster_AuthModule</title>
<polygon fill="none" stroke="#000000" stroke-dasharray="1,5" points="28.5,-70 28.5,-195 467.5,-195 467.5,-70 28.5,-70"/>
</g>
<g id="clust6" class="cluster">
<title>cluster_AuthModule_providers</title>
<polygon fill="none" stroke="#000000" points="36.5,-78 36.5,-130 459.5,-130 459.5,-78 36.5,-78"/>
</g>
<!-- InitService -->
<g id="node1" class="node">
<title>InitService</title>
<ellipse fill="#fdb462" stroke="#000000" cx="398.5" cy="-104" rx="53.3052" ry="18"/>
<text text-anchor="middle" x="398.5" y="-99.8" font-family="Times,serif" font-size="14.00" fill="#000000">InitService</text>
</g>
<!-- AuthModule -->
<g id="node4" class="node">
<title>AuthModule</title>
<polygon fill="#8dd3c7" stroke="#000000" points="308.0482,-187 305.0482,-191 284.0482,-191 281.0482,-187 220.9518,-187 220.9518,-151 308.0482,-151 308.0482,-187"/>
<text text-anchor="middle" x="264.5" y="-164.8" font-family="Times,serif" font-size="14.00" fill="#000000">AuthModule</text>
</g>
<!-- InitService&#45;&gt;AuthModule -->
<g id="edge1" class="edge">
<title>InitService&#45;&gt;AuthModule</title>
<path fill="none" stroke="#000000" d="M398.5,-122.1061C398.5,-141.3391 398.5,-169 398.5,-169 398.5,-169 318.3766,-169 318.3766,-169"/>
<polygon fill="#000000" stroke="#000000" points="318.3766,-165.5001 308.3766,-169 318.3766,-172.5001 318.3766,-165.5001"/>
</g>
<!-- LoginService -->
<g id="node2" class="node">
<title>LoginService</title>
<ellipse fill="#fdb462" stroke="#000000" cx="264.5" cy="-104" rx="63.1209" ry="18"/>
<text text-anchor="middle" x="264.5" y="-99.8" font-family="Times,serif" font-size="14.00" fill="#000000">LoginService</text>
</g>
<!-- LoginService&#45;&gt;AuthModule -->
<g id="edge2" class="edge">
<title>LoginService&#45;&gt;AuthModule</title>
<path fill="none" stroke="#000000" d="M264.5,-122.1061C264.5,-122.1061 264.5,-140.991 264.5,-140.991"/>
<polygon fill="#000000" stroke="#000000" points="261.0001,-140.9909 264.5,-150.991 268.0001,-140.991 261.0001,-140.9909"/>
</g>
<!-- SessionService -->
<g id="node3" class="node">
<title>SessionService</title>
<ellipse fill="#fdb462" stroke="#000000" cx="113.5" cy="-104" rx="69.4974" ry="18"/>
<text text-anchor="middle" x="113.5" y="-99.8" font-family="Times,serif" font-size="14.00" fill="#000000">SessionService</text>
</g>
<!-- SessionService&#45;&gt;AuthModule -->
<g id="edge3" class="edge">
<title>SessionService&#45;&gt;AuthModule</title>
<path fill="none" stroke="#000000" d="M113.5,-122.1061C113.5,-141.3391 113.5,-169 113.5,-169 113.5,-169 210.8245,-169 210.8245,-169"/>
<polygon fill="#000000" stroke="#000000" points="210.8246,-172.5001 220.8245,-169 210.8245,-165.5001 210.8246,-172.5001"/>
</g>
</g>
</svg>
