<?xml version="1.0" encoding="UTF-8" standalone="no"?>
<!DOCTYPE svg PUBLIC "-//W3C//DTD SVG 1.1//EN"
 "http://www.w3.org/Graphics/SVG/1.1/DTD/svg11.dtd">
<!-- Generated by graphviz version 2.40.1 (20161225.0304)
 -->
<!-- Title: dependencies Pages: 1 -->
<svg width="504pt" height="284pt"
 viewBox="0.00 0.00 504.00 284.00" xmlns="http://www.w3.org/2000/svg" xmlns:xlink="http://www.w3.org/1999/xlink">
<g id="graph0" class="graph" transform="scale(1 1) rotate(0) translate(4 280)">
<title>dependencies</title>
<polygon fill="#ffffff" stroke="transparent" points="-4,4 -4,-280 500,-280 500,4 -4,4"/>
<text text-anchor="start" x="227.0091" y="-42.4" font-family="sans-serif" font-weight="bold" font-size="14.00" fill="#000000">Legend</text>
<polygon fill="#ffffb3" stroke="transparent" points="14,-10 14,-30 34,-30 34,-10 14,-10"/>
<text text-anchor="start" x="37.629" y="-15.4" font-family="sans-serif" font-size="14.00" fill="#000000"> &#160;Declarations</text>
<polygon fill="#8dd3c7" stroke="transparent" points="127,-10 127,-30 147,-30 147,-10 127,-10"/>
<text text-anchor="start" x="150.7251" y="-15.4" font-family="sans-serif" font-size="14.00" fill="#000000"> &#160;Module</text>
<polygon fill="#80b1d3" stroke="transparent" points="213,-10 213,-30 233,-30 233,-10 213,-10"/>
<text text-anchor="start" x="236.7812" y="-15.4" font-family="sans-serif" font-size="14.00" fill="#000000"> &#160;Bootstrap</text>
<polygon fill="#fdb462" stroke="transparent" points="310,-10 310,-30 330,-30 330,-10 310,-10"/>
<text text-anchor="start" x="333.6732" y="-15.4" font-family="sans-serif" font-size="14.00" fill="#000000"> &#160;Providers</text>
<polygon fill="#fb8072" stroke="transparent" points="406,-10 406,-30 426,-30 426,-10 406,-10"/>
<text text-anchor="start" x="429.7258" y="-15.4" font-family="sans-serif" font-size="14.00" fill="#000000"> &#160;Exports</text>
<g id="clust1" class="cluster">
<title>cluster_FuseDemoModule</title>
<polygon fill="none" stroke="#000000" stroke-dasharray="1,5" points="34,-70 34,-268 462,-268 462,-70 34,-70"/>
</g>
<g id="clust2" class="cluster">
<title>cluster_FuseDemoModule_declarations</title>
<polygon fill="none" stroke="#000000" points="46,-78 46,-130 451,-130 451,-78 46,-78"/>
</g>
<g id="clust6" class="cluster">
<title>cluster_FuseDemoModule_exports</title>
<polygon fill="none" stroke="#000000" points="42,-208 42,-260 454,-260 454,-208 42,-208"/>
</g>
<!-- FuseDemoContentComponent -->
<g id="node1" class="node">
<title>FuseDemoContentComponent</title>
<polygon fill="#ffffb3" stroke="#000000" points="443.3187,-122 256.6813,-122 256.6813,-86 443.3187,-86 443.3187,-122"/>
<text text-anchor="middle" x="350" y="-99.8" font-family="Times,serif" font-size="14.00" fill="#000000">FuseDemoContentComponent</text>
</g>
<!-- FuseDemoModule -->
<g id="node3" class="node">
<title>FuseDemoModule</title>
<polygon fill="#8dd3c7" stroke="#000000" points="207.2036,-187 204.2036,-191 183.2036,-191 180.2036,-187 86.7964,-187 86.7964,-151 207.2036,-151 207.2036,-187"/>
<text text-anchor="middle" x="147" y="-164.8" font-family="Times,serif" font-size="14.00" fill="#000000">FuseDemoModule</text>
</g>
<!-- FuseDemoContentComponent&#45;&gt;FuseDemoModule -->
<g id="edge1" class="edge">
<title>FuseDemoContentComponent&#45;&gt;FuseDemoModule</title>
<path fill="none" stroke="#000000" d="M381.0531,-122.0225C381.0531,-139.3734 381.0531,-163 381.0531,-163 381.0531,-163 217.2745,-163 217.2745,-163"/>
<polygon fill="#000000" stroke="#000000" points="217.2745,-159.5001 207.2745,-163 217.2744,-166.5001 217.2745,-159.5001"/>
</g>
<!-- FuseDemoSidebarComponent -->
<g id="node2" class="node">
<title>FuseDemoSidebarComponent</title>
<polygon fill="#ffffb3" stroke="#000000" points="238.2492,-122 53.7508,-122 53.7508,-86 238.2492,-86 238.2492,-122"/>
<text text-anchor="middle" x="146" y="-99.8" font-family="Times,serif" font-size="14.00" fill="#000000">FuseDemoSidebarComponent</text>
</g>
<!-- FuseDemoSidebarComponent&#45;&gt;FuseDemoModule -->
<g id="edge2" class="edge">
<title>FuseDemoSidebarComponent&#45;&gt;FuseDemoModule</title>
<path fill="none" stroke="#000000" d="M147,-122.1061C147,-122.1061 147,-140.991 147,-140.991"/>
<polygon fill="#000000" stroke="#000000" points="143.5001,-140.9909 147,-150.991 150.5001,-140.991 143.5001,-140.9909"/>
</g>
<!-- FuseDemoContentComponent  -->
<g id="node4" class="node">
<title>FuseDemoContentComponent </title>
<polygon fill="#fb8072" stroke="#000000" points="445.8185,-252 256.1815,-252 256.1815,-216 445.8185,-216 445.8185,-252"/>
<text text-anchor="middle" x="351" y="-229.8" font-family="Times,serif" font-size="14.00" fill="#000000">FuseDemoContentComponent </text>
</g>
<!-- FuseDemoModule&#45;&gt;FuseDemoContentComponent  -->
<g id="edge3" class="edge">
<title>FuseDemoModule&#45;&gt;FuseDemoContentComponent </title>
<path fill="none" stroke="#000000" stroke-dasharray="5,2" d="M207.1387,-175C256.7232,-175 318.9469,-175 318.9469,-175 318.9469,-175 318.9469,-205.9775 318.9469,-205.9775"/>
<polygon fill="#000000" stroke="#000000" points="315.447,-205.9774 318.9469,-215.9775 322.447,-205.9775 315.447,-205.9774"/>
</g>
<!-- FuseDemoSidebarComponent  -->
<g id="node5" class="node">
<title>FuseDemoSidebarComponent </title>
<polygon fill="#fb8072" stroke="#000000" points="238.2492,-252 49.7508,-252 49.7508,-216 238.2492,-216 238.2492,-252"/>
<text text-anchor="middle" x="144" y="-229.8" font-family="Times,serif" font-size="14.00" fill="#000000">FuseDemoSidebarComponent </text>
</g>
<!-- FuseDemoModule&#45;&gt;FuseDemoSidebarComponent  -->
<g id="edge4" class="edge">
<title>FuseDemoModule&#45;&gt;FuseDemoSidebarComponent </title>
<path fill="none" stroke="#000000" stroke-dasharray="5,2" d="M147,-187.1061C147,-187.1061 147,-205.991 147,-205.991"/>
<polygon fill="#000000" stroke="#000000" points="143.5001,-205.9909 147,-215.991 150.5001,-205.991 143.5001,-205.9909"/>
</g>
</g>
</svg>
