<?xml version="1.0" encoding="UTF-8" standalone="no"?>
<!DOCTYPE svg PUBLIC "-//W3C//DTD SVG 1.1//EN"
 "http://www.w3.org/Graphics/SVG/1.1/DTD/svg11.dtd">
<!-- Generated by graphviz version 2.40.1 (20161225.0304)
 -->
<!-- Title: dependencies Pages: 1 -->
<svg width="924pt" height="211pt"
 viewBox="0.00 0.00 924.00 211.00" xmlns="http://www.w3.org/2000/svg" xmlns:xlink="http://www.w3.org/1999/xlink">
<g id="graph0" class="graph" transform="scale(1 1) rotate(0) translate(4 207)">
<title>dependencies</title>
<polygon fill="#ffffff" stroke="transparent" points="-4,4 -4,-207 920,-207 920,4 -4,4"/>
<text text-anchor="start" x="437.0091" y="-42.4" font-family="sans-serif" font-weight="bold" font-size="14.00" fill="#000000">Legend</text>
<polygon fill="#ffffb3" stroke="transparent" points="224,-10 224,-30 244,-30 244,-10 224,-10"/>
<text text-anchor="start" x="247.629" y="-15.4" font-family="sans-serif" font-size="14.00" fill="#000000"> &#160;Declarations</text>
<polygon fill="#8dd3c7" stroke="transparent" points="337,-10 337,-30 357,-30 357,-10 337,-10"/>
<text text-anchor="start" x="360.7251" y="-15.4" font-family="sans-serif" font-size="14.00" fill="#000000"> &#160;Module</text>
<polygon fill="#80b1d3" stroke="transparent" points="423,-10 423,-30 443,-30 443,-10 423,-10"/>
<text text-anchor="start" x="446.7812" y="-15.4" font-family="sans-serif" font-size="14.00" fill="#000000"> &#160;Bootstrap</text>
<polygon fill="#fdb462" stroke="transparent" points="520,-10 520,-30 540,-30 540,-10 520,-10"/>
<text text-anchor="start" x="543.6732" y="-15.4" font-family="sans-serif" font-size="14.00" fill="#000000"> &#160;Providers</text>
<polygon fill="#fb8072" stroke="transparent" points="616,-10 616,-30 636,-30 636,-10 616,-10"/>
<text text-anchor="start" x="639.7258" y="-15.4" font-family="sans-serif" font-size="14.00" fill="#000000"> &#160;Exports</text>
<g id="clust1" class="cluster">
<title>cluster_PhotoModule</title>
<polygon fill="none" stroke="#000000" stroke-dasharray="1,5" points="8,-70 8,-195 908,-195 908,-70 8,-70"/>
</g>
<g id="clust2" class="cluster">
<title>cluster_PhotoModule_declarations</title>
<polygon fill="none" stroke="#000000" points="434,-78 434,-130 900,-130 900,-78 434,-78"/>
</g>
<g id="clust6" class="cluster">
<title>cluster_PhotoModule_imports</title>
<polygon fill="none" stroke="#000000" points="312,-78 312,-130 426,-130 426,-78 312,-78"/>
</g>
<g id="clust9" class="cluster">
<title>cluster_PhotoModule_providers</title>
<polygon fill="none" stroke="#000000" points="16,-78 16,-130 304,-130 304,-78 16,-78"/>
</g>
<!-- CameraDialogComponent -->
<g id="node1" class="node">
<title>CameraDialogComponent</title>
<polygon fill="#ffffb3" stroke="#000000" points="892.4664,-122 729.5336,-122 729.5336,-86 892.4664,-86 892.4664,-122"/>
<text text-anchor="middle" x="811" y="-99.8" font-family="Times,serif" font-size="14.00" fill="#000000">CameraDialogComponent</text>
</g>
<!-- PhotoModule -->
<g id="node4" class="node">
<title>PhotoModule</title>
<polygon fill="#8dd3c7" stroke="#000000" points="486.2233,-187 483.2233,-191 462.2233,-191 459.2233,-187 393.7767,-187 393.7767,-151 486.2233,-151 486.2233,-187"/>
<text text-anchor="middle" x="440" y="-164.8" font-family="Times,serif" font-size="14.00" fill="#000000">PhotoModule</text>
</g>
<!-- CameraDialogComponent&#45;&gt;PhotoModule -->
<g id="edge1" class="edge">
<title>CameraDialogComponent&#45;&gt;PhotoModule</title>
<path fill="none" stroke="#000000" d="M811,-122.2843C811,-143.3211 811,-175 811,-175 811,-175 496.2373,-175 496.2373,-175"/>
<polygon fill="#000000" stroke="#000000" points="496.2373,-171.5001 486.2373,-175 496.2372,-178.5001 496.2373,-171.5001"/>
</g>
<!-- PhotoComponent -->
<g id="node2" class="node">
<title>PhotoComponent</title>
<polygon fill="#ffffb3" stroke="#000000" points="712.0056,-122 597.9944,-122 597.9944,-86 712.0056,-86 712.0056,-122"/>
<text text-anchor="middle" x="655" y="-99.8" font-family="Times,serif" font-size="14.00" fill="#000000">PhotoComponent</text>
</g>
<!-- PhotoComponent&#45;&gt;PhotoModule -->
<g id="edge2" class="edge">
<title>PhotoComponent&#45;&gt;PhotoModule</title>
<path fill="none" stroke="#000000" d="M655,-122.0225C655,-139.3734 655,-163 655,-163 655,-163 496.1229,-163 496.1229,-163"/>
<polygon fill="#000000" stroke="#000000" points="496.1229,-159.5001 486.1229,-163 496.1229,-166.5001 496.1229,-159.5001"/>
</g>
<!-- PhotoEditComponent -->
<g id="node3" class="node">
<title>PhotoEditComponent</title>
<polygon fill="#ffffb3" stroke="#000000" points="579.8398,-122 442.1602,-122 442.1602,-86 579.8398,-86 579.8398,-122"/>
<text text-anchor="middle" x="511" y="-99.8" font-family="Times,serif" font-size="14.00" fill="#000000">PhotoEditComponent</text>
</g>
<!-- PhotoEditComponent&#45;&gt;PhotoModule -->
<g id="edge3" class="edge">
<title>PhotoEditComponent&#45;&gt;PhotoModule</title>
<path fill="none" stroke="#000000" d="M464.2209,-122.1061C464.2209,-122.1061 464.2209,-140.991 464.2209,-140.991"/>
<polygon fill="#000000" stroke="#000000" points="460.721,-140.9909 464.2209,-150.991 467.721,-140.991 460.721,-140.9909"/>
</g>
<!-- SharedModule -->
<g id="node5" class="node">
<title>SharedModule</title>
<polygon fill="#8dd3c7" stroke="#000000" points="418.4231,-122 415.4231,-126 394.4231,-126 391.4231,-122 319.5769,-122 319.5769,-86 418.4231,-86 418.4231,-122"/>
<text text-anchor="middle" x="369" y="-99.8" font-family="Times,serif" font-size="14.00" fill="#000000">SharedModule</text>
</g>
<!-- SharedModule&#45;&gt;PhotoModule -->
<g id="edge4" class="edge">
<title>SharedModule&#45;&gt;PhotoModule</title>
<path fill="none" stroke="#000000" d="M406.0498,-122.1061C406.0498,-122.1061 406.0498,-140.991 406.0498,-140.991"/>
<polygon fill="#000000" stroke="#000000" points="402.5499,-140.9909 406.0498,-150.991 409.5499,-140.991 402.5499,-140.9909"/>
</g>
<!-- ImageService -->
<g id="node6" class="node">
<title>ImageService</title>
<ellipse fill="#fdb462" stroke="#000000" cx="232" cy="-104" rx="64.2417" ry="18"/>
<text text-anchor="middle" x="232" y="-99.8" font-family="Times,serif" font-size="14.00" fill="#000000">ImageService</text>
</g>
<!-- ImageService&#45;&gt;PhotoModule -->
<g id="edge5" class="edge">
<title>ImageService&#45;&gt;PhotoModule</title>
<path fill="none" stroke="#000000" d="M232,-122.0225C232,-139.3734 232,-163 232,-163 232,-163 383.8381,-163 383.8381,-163"/>
<polygon fill="#000000" stroke="#000000" points="383.8381,-166.5001 393.8381,-163 383.838,-159.5001 383.8381,-166.5001"/>
</g>
<!-- PhotoService -->
<g id="node7" class="node">
<title>PhotoService</title>
<ellipse fill="#fdb462" stroke="#000000" cx="87" cy="-104" rx="62.5585" ry="18"/>
<text text-anchor="middle" x="87" y="-99.8" font-family="Times,serif" font-size="14.00" fill="#000000">PhotoService</text>
</g>
<!-- PhotoService&#45;&gt;PhotoModule -->
<g id="edge6" class="edge">
<title>PhotoService&#45;&gt;PhotoModule</title>
<path fill="none" stroke="#000000" d="M87,-122.2843C87,-143.3211 87,-175 87,-175 87,-175 383.8514,-175 383.8514,-175"/>
<polygon fill="#000000" stroke="#000000" points="383.8514,-178.5001 393.8514,-175 383.8514,-171.5001 383.8514,-178.5001"/>
</g>
</g>
</svg>
