<?xml version="1.0" encoding="UTF-8" standalone="no"?>
<!DOCTYPE svg PUBLIC "-//W3C//DTD SVG 1.1//EN"
 "http://www.w3.org/Graphics/SVG/1.1/DTD/svg11.dtd">
<!-- Generated by graphviz version 2.40.1 (20161225.0304)
 -->
<!-- Title: dependencies Pages: 1 -->
<svg width="642pt" height="284pt"
 viewBox="0.00 0.00 642.00 284.00" xmlns="http://www.w3.org/2000/svg" xmlns:xlink="http://www.w3.org/1999/xlink">
<g id="graph0" class="graph" transform="scale(1 1) rotate(0) translate(4 280)">
<title>dependencies</title>
<polygon fill="#ffffff" stroke="transparent" points="-4,4 -4,-280 638,-280 638,4 -4,4"/>
<text text-anchor="start" x="296.0091" y="-42.4" font-family="sans-serif" font-weight="bold" font-size="14.00" fill="#000000">Legend</text>
<polygon fill="#ffffb3" stroke="transparent" points="83,-10 83,-30 103,-30 103,-10 83,-10"/>
<text text-anchor="start" x="106.629" y="-15.4" font-family="sans-serif" font-size="14.00" fill="#000000"> &#160;Declarations</text>
<polygon fill="#8dd3c7" stroke="transparent" points="196,-10 196,-30 216,-30 216,-10 196,-10"/>
<text text-anchor="start" x="219.7251" y="-15.4" font-family="sans-serif" font-size="14.00" fill="#000000"> &#160;Module</text>
<polygon fill="#80b1d3" stroke="transparent" points="282,-10 282,-30 302,-30 302,-10 282,-10"/>
<text text-anchor="start" x="305.7812" y="-15.4" font-family="sans-serif" font-size="14.00" fill="#000000"> &#160;Bootstrap</text>
<polygon fill="#fdb462" stroke="transparent" points="379,-10 379,-30 399,-30 399,-10 379,-10"/>
<text text-anchor="start" x="402.6732" y="-15.4" font-family="sans-serif" font-size="14.00" fill="#000000"> &#160;Providers</text>
<polygon fill="#fb8072" stroke="transparent" points="475,-10 475,-30 495,-30 495,-10 475,-10"/>
<text text-anchor="start" x="498.7258" y="-15.4" font-family="sans-serif" font-size="14.00" fill="#000000"> &#160;Exports</text>
<g id="clust1" class="cluster">
<title>cluster_LayoutModule</title>
<polygon fill="none" stroke="#000000" stroke-dasharray="1,5" points="8,-70 8,-268 626,-268 626,-70 8,-70"/>
</g>
<g id="clust2" class="cluster">
<title>cluster_LayoutModule_declarations</title>
<polygon fill="none" stroke="#000000" points="138,-78 138,-130 618,-130 618,-78 138,-78"/>
</g>
<g id="clust6" class="cluster">
<title>cluster_LayoutModule_imports</title>
<polygon fill="none" stroke="#000000" points="16,-78 16,-130 130,-130 130,-78 16,-78"/>
</g>
<g id="clust7" class="cluster">
<title>cluster_LayoutModule_exports</title>
<polygon fill="none" stroke="#000000" points="222,-208 222,-260 390,-260 390,-208 222,-208"/>
</g>
<!-- BaseLayoutComponent -->
<g id="node1" class="node">
<title>BaseLayoutComponent</title>
<polygon fill="#ffffb3" stroke="#000000" points="610.2007,-122 461.7993,-122 461.7993,-86 610.2007,-86 610.2007,-122"/>
<text text-anchor="middle" x="536" y="-99.8" font-family="Times,serif" font-size="14.00" fill="#000000">BaseLayoutComponent</text>
</g>
<!-- LayoutModule -->
<g id="node4" class="node">
<title>LayoutModule</title>
<polygon fill="#8dd3c7" stroke="#000000" points="355.7078,-187 352.7078,-191 331.7078,-191 328.7078,-187 256.2922,-187 256.2922,-151 355.7078,-151 355.7078,-187"/>
<text text-anchor="middle" x="306" y="-164.8" font-family="Times,serif" font-size="14.00" fill="#000000">LayoutModule</text>
</g>
<!-- BaseLayoutComponent&#45;&gt;LayoutModule -->
<g id="edge1" class="edge">
<title>BaseLayoutComponent&#45;&gt;LayoutModule</title>
<path fill="none" stroke="#000000" d="M536,-122.1061C536,-141.3391 536,-169 536,-169 536,-169 365.6234,-169 365.6234,-169"/>
<polygon fill="#000000" stroke="#000000" points="365.6234,-165.5001 355.6234,-169 365.6234,-172.5001 365.6234,-165.5001"/>
</g>
<!-- FooterComponent -->
<g id="node2" class="node">
<title>FooterComponent</title>
<polygon fill="#ffffb3" stroke="#000000" points="443.8809,-122 326.1191,-122 326.1191,-86 443.8809,-86 443.8809,-122"/>
<text text-anchor="middle" x="385" y="-99.8" font-family="Times,serif" font-size="14.00" fill="#000000">FooterComponent</text>
</g>
<!-- FooterComponent&#45;&gt;LayoutModule -->
<g id="edge2" class="edge">
<title>FooterComponent&#45;&gt;LayoutModule</title>
<path fill="none" stroke="#000000" d="M340.8317,-122.1061C340.8317,-122.1061 340.8317,-140.991 340.8317,-140.991"/>
<polygon fill="#000000" stroke="#000000" points="337.3318,-140.9909 340.8317,-150.991 344.3318,-140.991 337.3318,-140.9909"/>
</g>
<!-- HeaderNavbarComponent -->
<g id="node3" class="node">
<title>HeaderNavbarComponent</title>
<polygon fill="#ffffb3" stroke="#000000" points="308.4398,-122 145.5602,-122 145.5602,-86 308.4398,-86 308.4398,-122"/>
<text text-anchor="middle" x="227" y="-99.8" font-family="Times,serif" font-size="14.00" fill="#000000">HeaderNavbarComponent</text>
</g>
<!-- HeaderNavbarComponent&#45;&gt;LayoutModule -->
<g id="edge3" class="edge">
<title>HeaderNavbarComponent&#45;&gt;LayoutModule</title>
<path fill="none" stroke="#000000" d="M282.4331,-122.1061C282.4331,-122.1061 282.4331,-140.991 282.4331,-140.991"/>
<polygon fill="#000000" stroke="#000000" points="278.9331,-140.9909 282.4331,-150.991 285.9331,-140.991 278.9331,-140.9909"/>
</g>
<!-- BaseLayoutComponent  -->
<g id="node6" class="node">
<title>BaseLayoutComponent </title>
<polygon fill="#fb8072" stroke="#000000" points="381.7009,-252 230.2991,-252 230.2991,-216 381.7009,-216 381.7009,-252"/>
<text text-anchor="middle" x="306" y="-229.8" font-family="Times,serif" font-size="14.00" fill="#000000">BaseLayoutComponent </text>
</g>
<!-- LayoutModule&#45;&gt;BaseLayoutComponent  -->
<g id="edge5" class="edge">
<title>LayoutModule&#45;&gt;BaseLayoutComponent </title>
<path fill="none" stroke="#000000" stroke-dasharray="5,2" d="M306,-187.1061C306,-187.1061 306,-205.991 306,-205.991"/>
<polygon fill="#000000" stroke="#000000" points="302.5001,-205.9909 306,-215.991 309.5001,-205.991 302.5001,-205.9909"/>
</g>
<!-- SharedModule -->
<g id="node5" class="node">
<title>SharedModule</title>
<polygon fill="#8dd3c7" stroke="#000000" points="122.4231,-122 119.4231,-126 98.4231,-126 95.4231,-122 23.5769,-122 23.5769,-86 122.4231,-86 122.4231,-122"/>
<text text-anchor="middle" x="73" y="-99.8" font-family="Times,serif" font-size="14.00" fill="#000000">SharedModule</text>
</g>
<!-- SharedModule&#45;&gt;LayoutModule -->
<g id="edge4" class="edge">
<title>SharedModule&#45;&gt;LayoutModule</title>
<path fill="none" stroke="#000000" d="M73,-122.1061C73,-141.3391 73,-169 73,-169 73,-169 246.3014,-169 246.3014,-169"/>
<polygon fill="#000000" stroke="#000000" points="246.3015,-172.5001 256.3014,-169 246.3014,-165.5001 246.3015,-172.5001"/>
</g>
</g>
</svg>
