<svg width="16" height="16" viewBox="0 0 16 16" fill="none" xmlns="http://www.w3.org/2000/svg">
<path d="M15.7407 15.2001L11.9124 11.3718C12.9393 10.1911 13.5611 8.6507 13.5611 6.96707C13.5611 3.26098 10.5466 0.25 6.84399 0.25C3.1379 0.25 0.126923 3.26447 0.126923 6.96707C0.126923 10.6697 3.14139 13.6841 6.84399 13.6841C8.52762 13.6841 10.068 13.0624 11.2487 12.0354L15.077 15.8638C15.1678 15.9546 15.2901 16.0035 15.4089 16.0035C15.5276 16.0035 15.6499 15.9581 15.7407 15.8638C15.9223 15.6821 15.9223 15.3817 15.7407 15.2001ZM1.06654 6.96707C1.06654 3.78144 3.65836 1.19311 6.8405 1.19311C10.0261 1.19311 12.6144 3.78493 12.6144 6.96707C12.6144 10.1492 10.0261 12.7445 6.8405 12.7445C3.65836 12.7445 1.06654 10.1527 1.06654 6.96707Z" fill="#C4C4C4"/>
</svg>
