<?xml version="1.0" encoding="UTF-8" standalone="no"?>
<!DOCTYPE svg PUBLIC "-//W3C//DTD SVG 1.1//EN"
 "http://www.w3.org/Graphics/SVG/1.1/DTD/svg11.dtd">
<!-- Generated by graphviz version 2.40.1 (20161225.0304)
 -->
<!-- Title: dependencies Pages: 1 -->
<svg width="504pt" height="284pt"
 viewBox="0.00 0.00 504.00 284.00" xmlns="http://www.w3.org/2000/svg" xmlns:xlink="http://www.w3.org/1999/xlink">
<g id="graph0" class="graph" transform="scale(1 1) rotate(0) translate(4 280)">
<title>dependencies</title>
<polygon fill="#ffffff" stroke="transparent" points="-4,4 -4,-280 500,-280 500,4 -4,4"/>
<text text-anchor="start" x="227.0091" y="-42.4" font-family="sans-serif" font-weight="bold" font-size="14.00" fill="#000000">Legend</text>
<polygon fill="#ffffb3" stroke="transparent" points="14,-10 14,-30 34,-30 34,-10 14,-10"/>
<text text-anchor="start" x="37.629" y="-15.4" font-family="sans-serif" font-size="14.00" fill="#000000"> &#160;Declarations</text>
<polygon fill="#8dd3c7" stroke="transparent" points="127,-10 127,-30 147,-30 147,-10 127,-10"/>
<text text-anchor="start" x="150.7251" y="-15.4" font-family="sans-serif" font-size="14.00" fill="#000000"> &#160;Module</text>
<polygon fill="#80b1d3" stroke="transparent" points="213,-10 213,-30 233,-30 233,-10 213,-10"/>
<text text-anchor="start" x="236.7812" y="-15.4" font-family="sans-serif" font-size="14.00" fill="#000000"> &#160;Bootstrap</text>
<polygon fill="#fdb462" stroke="transparent" points="310,-10 310,-30 330,-30 330,-10 310,-10"/>
<text text-anchor="start" x="333.6732" y="-15.4" font-family="sans-serif" font-size="14.00" fill="#000000"> &#160;Providers</text>
<polygon fill="#fb8072" stroke="transparent" points="406,-10 406,-30 426,-30 426,-10 406,-10"/>
<text text-anchor="start" x="429.7258" y="-15.4" font-family="sans-serif" font-size="14.00" fill="#000000"> &#160;Exports</text>
<g id="clust1" class="cluster">
<title>cluster_FuseWidgetModule</title>
<polygon fill="none" stroke="#000000" stroke-dasharray="1,5" points="57.5,-70 57.5,-268 438.5,-268 438.5,-70 57.5,-70"/>
</g>
<g id="clust2" class="cluster">
<title>cluster_FuseWidgetModule_declarations</title>
<polygon fill="none" stroke="#000000" points="69.5,-78 69.5,-130 427.5,-130 427.5,-78 69.5,-78"/>
</g>
<g id="clust6" class="cluster">
<title>cluster_FuseWidgetModule_exports</title>
<polygon fill="none" stroke="#000000" points="65.5,-208 65.5,-260 430.5,-260 430.5,-208 65.5,-208"/>
</g>
<!-- FuseWidgetComponent -->
<g id="node1" class="node">
<title>FuseWidgetComponent</title>
<polygon fill="#ffffb3" stroke="#000000" points="419.9846,-122 271.0154,-122 271.0154,-86 419.9846,-86 419.9846,-122"/>
<text text-anchor="middle" x="345.5" y="-99.8" font-family="Times,serif" font-size="14.00" fill="#000000">FuseWidgetComponent</text>
</g>
<!-- FuseWidgetModule -->
<g id="node3" class="node">
<title>FuseWidgetModule</title>
<polygon fill="#8dd3c7" stroke="#000000" points="229.2022,-187 226.2022,-191 205.2022,-191 202.2022,-187 101.7978,-187 101.7978,-151 229.2022,-151 229.2022,-187"/>
<text text-anchor="middle" x="165.5" y="-164.8" font-family="Times,serif" font-size="14.00" fill="#000000">FuseWidgetModule</text>
</g>
<!-- FuseWidgetComponent&#45;&gt;FuseWidgetModule -->
<g id="edge1" class="edge">
<title>FuseWidgetComponent&#45;&gt;FuseWidgetModule</title>
<path fill="none" stroke="#000000" d="M370.3308,-122.0225C370.3308,-139.3734 370.3308,-163 370.3308,-163 370.3308,-163 239.1869,-163 239.1869,-163"/>
<polygon fill="#000000" stroke="#000000" points="239.187,-159.5001 229.1869,-163 239.1869,-166.5001 239.187,-159.5001"/>
</g>
<!-- FuseWidgetToggleDirective -->
<g id="node2" class="node">
<title>FuseWidgetToggleDirective</title>
<polygon fill="#ffffb3" stroke="#000000" points="253.3932,-122 77.6068,-122 77.6068,-86 253.3932,-86 253.3932,-122"/>
<text text-anchor="middle" x="165.5" y="-99.8" font-family="Times,serif" font-size="14.00" fill="#000000">FuseWidgetToggleDirective</text>
</g>
<!-- FuseWidgetToggleDirective&#45;&gt;FuseWidgetModule -->
<g id="edge2" class="edge">
<title>FuseWidgetToggleDirective&#45;&gt;FuseWidgetModule</title>
<path fill="none" stroke="#000000" d="M165.5,-122.1061C165.5,-122.1061 165.5,-140.991 165.5,-140.991"/>
<polygon fill="#000000" stroke="#000000" points="162.0001,-140.9909 165.5,-150.991 169.0001,-140.991 162.0001,-140.9909"/>
</g>
<!-- FuseWidgetComponent  -->
<g id="node4" class="node">
<title>FuseWidgetComponent </title>
<polygon fill="#fb8072" stroke="#000000" points="422.9854,-252 270.0146,-252 270.0146,-216 422.9854,-216 422.9854,-252"/>
<text text-anchor="middle" x="346.5" y="-229.8" font-family="Times,serif" font-size="14.00" fill="#000000">FuseWidgetComponent </text>
</g>
<!-- FuseWidgetModule&#45;&gt;FuseWidgetComponent  -->
<g id="edge3" class="edge">
<title>FuseWidgetModule&#45;&gt;FuseWidgetComponent </title>
<path fill="none" stroke="#000000" stroke-dasharray="5,2" d="M229.5091,-175C272.2522,-175 320.6692,-175 320.6692,-175 320.6692,-175 320.6692,-205.9775 320.6692,-205.9775"/>
<polygon fill="#000000" stroke="#000000" points="317.1693,-205.9774 320.6692,-215.9775 324.1693,-205.9775 317.1693,-205.9774"/>
</g>
<!-- FuseWidgetToggleDirective  -->
<g id="node5" class="node">
<title>FuseWidgetToggleDirective </title>
<polygon fill="#fb8072" stroke="#000000" points="251.8928,-252 73.1072,-252 73.1072,-216 251.8928,-216 251.8928,-252"/>
<text text-anchor="middle" x="162.5" y="-229.8" font-family="Times,serif" font-size="14.00" fill="#000000">FuseWidgetToggleDirective </text>
</g>
<!-- FuseWidgetModule&#45;&gt;FuseWidgetToggleDirective  -->
<g id="edge4" class="edge">
<title>FuseWidgetModule&#45;&gt;FuseWidgetToggleDirective </title>
<path fill="none" stroke="#000000" stroke-dasharray="5,2" d="M165.5,-187.1061C165.5,-187.1061 165.5,-205.991 165.5,-205.991"/>
<polygon fill="#000000" stroke="#000000" points="162.0001,-205.9909 165.5,-215.991 169.0001,-205.991 162.0001,-205.9909"/>
</g>
</g>
</svg>
