<svg width="125" height="115" viewBox="0 0 125 115" fill="none" xmlns="http://www.w3.org/2000/svg">
<path opacity="0.5" d="M117.622 0H22.7656C18.5497 0 15.3879 3.35766 15.3879 7.34489V74.0785C15.3879 78.0657 18.7605 81.4234 22.7656 81.4234H72.5127L94.8567 103.458L97.597 81.6332H117.411C121.417 81.6332 124.789 78.2756 124.789 74.2883V7.34489C125 3.35766 121.627 0 117.622 0ZM118.676 74.0785C118.676 74.708 118.255 75.1277 117.622 75.1277H92.1164L90.2192 90.0274L75.0422 75.1277H22.7656C22.1332 75.1277 21.7116 74.708 21.7116 74.0785V7.34489C21.7116 6.71533 22.1332 6.29562 22.7656 6.29562H117.622C118.255 6.29562 118.676 6.71533 118.676 7.34489V74.0785ZM45.1096 88.5584L31.8297 101.569L30.1433 88.5584H6.95616C6.53457 88.5584 6.32378 88.3485 6.32378 87.9288V27.7007C6.32378 27.281 6.53457 27.0712 6.95616 27.0712H10.9612V20.7755H6.95616C3.16189 20.5657 0 23.7135 0 27.7007V87.9288C0 91.7062 3.16189 94.854 6.95616 94.854H24.6627L27.1922 115L47.6391 94.854H80.1012L73.7774 88.5584H45.1096ZM92.1164 33.7865C88.9545 33.7865 86.2142 36.3047 86.2142 39.6624C86.2142 43.0201 88.7437 45.5383 92.1164 45.5383C95.489 45.5383 98.0186 43.0201 98.0186 39.6624C98.0186 36.3047 95.489 33.7865 92.1164 33.7865ZM70.1939 33.7865C67.032 33.7865 64.2917 36.3047 64.2917 39.6624C64.2917 43.0201 66.8213 45.5383 70.1939 45.5383C73.5666 45.5383 76.0961 43.0201 76.0961 39.6624C76.0961 36.3047 73.3558 33.7865 70.1939 33.7865ZM48.0607 33.7865C44.8988 33.7865 42.1585 36.3047 42.1585 39.6624C42.1585 43.0201 44.688 45.5383 48.0607 45.5383C51.4334 45.5383 53.9629 43.0201 53.9629 39.6624C53.9629 36.3047 51.2226 33.7865 48.0607 33.7865Z" fill="#6E6C79"/>
</svg>
