<svg width="18" height="18" viewBox="0 0 18 18" fill="none" xmlns="http://www.w3.org/2000/svg">
<path d="M15.2999 1.80001H11.5334C11.1644 0.755999 10.1744 0 8.9999 0C7.8254 0 6.83538 0.755999 6.46641 1.80001H2.69992C1.70543 1.80001 0.899902 2.6055 0.899902 3.60003V16.2C0.899902 17.1945 1.70539 18 2.69992 18H15.2999C16.2944 18 17.0999 17.1945 17.0999 16.2V3.59998C17.0999 2.6055 16.2944 1.80001 15.2999 1.80001ZM8.9999 1.80001C9.49488 1.80001 9.89988 2.2005 9.89988 2.7C9.89988 3.1995 9.49488 3.59998 8.9999 3.59998C8.50491 3.59998 8.09991 3.1995 8.09991 2.7C8.09991 2.2005 8.50491 1.80001 8.9999 1.80001ZM10.7999 14.4H4.49993V12.6H10.7999V14.4ZM13.4999 10.8H4.49993V8.99998H13.4999V10.8ZM13.4999 7.20001H4.49993V5.4H13.4999V7.20001Z" fill="#29333F"/>
</svg>
