<svg width="30" height="28" viewBox="0 0 30 28" fill="none" xmlns="http://www.w3.org/2000/svg">
<path d="M22.0988 22.3237L22.0989 22.3237C24.2678 21.2807 25.9502 19.877 27.1772 18.1193L27.1773 18.1191C28.3997 16.3687 29 14.4852 29 12.4451C29 10.405 28.3997 8.52152 27.1773 6.77074L27.1772 6.77073C25.9502 5.01326 24.2678 3.60936 22.0988 2.5661C19.9338 1.52491 17.5725 1 15.0001 1C12.428 1 10.0666 1.52521 7.90136 2.56646M22.0988 22.3237L4.15474 26.0264M22.0988 22.3237C19.9339 23.3649 17.5724 23.8896 15.0005 23.8887H15.0001C13.8496 23.8887 12.6661 23.7666 11.4489 23.5197L10.9871 23.426L10.6209 23.7225C8.96361 25.0641 7.10807 26.0395 5.04749 26.6508M22.0988 22.3237L11.2501 24.4998C9.48879 25.9256 7.51418 26.9628 5.32665 27.611M7.90136 2.56646L7.46798 1.66524L7.90136 2.56646ZM7.90136 2.56646C5.73253 3.60954 4.05009 5.01342 2.82297 6.77098L2.8229 6.77109C1.60039 8.52158 1 10.405 1 12.4451C1 14.189 1.45399 15.8291 2.37341 17.3802L2.37344 17.3803C3.29973 18.9432 4.57589 20.2697 6.22005 21.3587L6.87751 21.7942L6.60734 22.535C6.45732 22.9464 6.30159 23.3278 6.13973 23.6799L6.1394 23.6806C5.96596 24.0571 5.7603 24.4182 5.52257 24.7642M5.52257 24.7642L4.69847 24.198L5.52283 24.7638C5.52274 24.764 5.52265 24.7641 5.52257 24.7642ZM5.52257 24.7642C5.31771 25.0627 5.16041 25.2941 5.04953 25.4594L4.21901 24.9024L5.05047 25.458C4.90721 25.6724 4.6958 25.9438 4.43389 26.2588L4.15482 26.0268M4.15482 26.0268C4.1548 26.0266 4.15477 26.0265 4.15474 26.0264M4.15482 26.0268L3.66525 25.6197L4.15474 26.0264M4.15482 26.0268C4.17296 26.1163 4.17487 26.188 4.17487 26.2269H3.28274M4.15474 26.0264C4.14546 25.9806 4.13195 25.9302 4.1123 25.8772C4.06708 25.7551 3.97473 25.5857 3.80591 25.448C3.76161 25.5026 3.71462 25.5597 3.66496 25.6195C3.64875 25.639 3.6329 25.6581 3.61743 25.6767C3.6335 25.6896 3.64899 25.7028 3.66391 25.7163M3.28274 26.2269L3.77436 25.8335C3.7575 25.8125 3.73943 25.7917 3.72016 25.7713M3.28274 26.2269L3.23126 26.2681L3.12089 26.3564L3.12083 26.3564L3.02032 26.4368L3.10915 26.349L3.10918 26.3489L3.21064 26.253L3.23827 26.2269M3.28274 26.2269H3.23827M3.72016 25.7713L3.72017 25.7713C3.70211 25.7522 3.68334 25.7338 3.66391 25.7163M3.72016 25.7713L3.23827 26.2269M3.72016 25.7713C3.70242 25.7525 3.68367 25.7342 3.66391 25.7163M3.66391 25.7163C3.64879 25.7026 3.63327 25.6895 3.61738 25.6768C3.38877 25.9527 3.2412 26.1361 3.17487 26.2269M5.32665 27.611L5.05206 26.6495C5.05054 26.6499 5.04901 26.6503 5.04749 26.6508M5.32665 27.611C4.81537 27.757 4.20445 27.8866 3.49436 28L5.32665 27.611ZM5.04749 26.6508C4.72285 26.7433 4.34518 26.8309 3.91239 26.9126L5.04749 26.6508ZM3.23827 26.2269H3.17487M3.17487 26.2269C3.17487 26.2233 3.17348 26.2223 3.17071 26.2239L3.17487 26.2269ZM2.78038 26.8341C2.75919 26.8824 2.74486 26.9309 2.73784 26.9798L2.78038 26.8341Z" stroke="#6E6C79" stroke-width="2"/>
</svg>
