<svg width="27" height="27" viewBox="0 0 27 27" fill="none" xmlns="http://www.w3.org/2000/svg">
<path d="M13.5 0C6.05594 0 0 6.05594 0 13.5C0 20.9435 6.05594 27 13.5 27C20.9441 27 27 20.9435 27 13.5C27 6.05594 20.9441 0 13.5 0ZM13.5 24.75C7.29684 24.75 2.25 19.7032 2.25 13.5C2.25 7.29684 7.29684 2.25 13.5 2.25C19.7032 2.25 24.75 7.29684 24.75 13.5C24.75 19.7032 19.7032 24.75 13.5 24.75Z" fill="#2E99E9"/>
<path d="M13.5 10.125C14.4017 10.125 15.2487 10.476 15.8862 11.1132L16.6822 11.9092L18.2733 10.3178L17.4779 9.52268C16.6855 8.73056 15.6989 8.20459 14.625 7.98761V5.625H12.375V7.98761C11.3011 8.20404 10.3145 8.73001 9.52267 9.52213C8.46002 10.5845 7.875 11.9976 7.875 13.5C7.875 15.0024 8.46002 16.4155 9.52267 17.4773C10.3321 18.2867 11.3294 18.7954 12.375 19.0074V21.375H14.625V19.0074C15.6706 18.7954 16.6679 18.2867 17.4773 17.4773L18.2733 16.6822L16.6822 15.0914L15.8868 15.8868C14.5703 17.2029 12.4297 17.2018 11.1138 15.8868C10.476 15.2488 10.125 14.4017 10.125 13.5C10.125 12.5983 10.476 11.7513 11.1138 11.1132C11.7513 10.476 12.5983 10.125 13.5 10.125Z" fill="#2E99E9"/>
</svg>
