<svg width="40" height="40" viewBox="0 0 40 40" fill="none" xmlns="http://www.w3.org/2000/svg">
<path d="M20 40C31.0457 40 40 31.0457 40 20C40 8.95431 31.0457 0 20 0C8.95431 0 0 8.95431 0 20C0 31.0457 8.95431 40 20 40Z" fill="#FAFAFA"/>
<g clip-path="url(#clip0)">
<path d="M30.6789 12.6047C30.4796 12.4714 30.2335 12.4663 30.0297 12.5915L25.75 15.259V13.25C25.75 12.8355 25.4565 12.5 25.0937 12.5H11.9688C10.8831 12.5 10 13.5093 10 14.75V25.25C10 26.4907 10.8831 27.5 11.9688 27.5H25.0937C25.4565 27.5 25.75 27.1646 25.75 26.75V24.741L30.0297 27.4084C30.1278 27.4692 30.2354 27.5 30.3438 27.5C30.4598 27.5 30.5758 27.4648 30.6789 27.3952C30.8776 27.2597 31 27.0144 31 26.75V13.25C31 12.9856 30.8776 12.7402 30.6789 12.6047ZM29.6875 25.4866L25.4078 22.8191C25.204 22.6924 24.9572 22.6968 24.7586 22.8323C24.5599 22.9678 24.4375 23.2132 24.4375 23.4776V26H11.9688C11.6067 26 11.3125 25.6638 11.3125 25.25V14.75C11.3125 14.3362 11.6067 14 11.9688 14H24.4375V16.5225C24.4375 16.7868 24.5599 17.0322 24.7586 17.1677C24.9585 17.3039 25.2053 17.3076 25.4078 17.1809L29.6875 14.5135C29.6875 14.5134 29.6875 25.4866 29.6875 25.4866Z" fill="#28263C"/>
</g>
<defs>
<clipPath id="clip0">
<path d="M10 8H31V32H10V8Z" fill="white"/>
</clipPath>
</defs>
</svg>
