<svg width="40" height="40" viewBox="0 0 40 40" fill="none" xmlns="http://www.w3.org/2000/svg">
<path d="M20 40C31.0457 40 40 31.0457 40 20C40 8.95431 31.0457 0 20 0C8.95431 0 0 8.95431 0 20C0 31.0457 8.95431 40 20 40Z" fill="#FAFAFA"/>
<path fill-rule="evenodd" clip-rule="evenodd" d="M31 15.6667L31 26.9334C31 28.8448 29.4298 30.4 27.5 30.4L13.5 30.4C11.5702 30.4 10 28.8448 10 26.9334L10 13.0667C10 11.1553 11.5702 9.60002 13.5 9.60002L24.875 9.60002C25.358 9.60002 25.75 9.98829 25.75 10.4667C25.75 10.9451 25.358 11.3334 24.875 11.3334L13.5 11.3334C12.5349 11.3334 11.75 12.1108 11.75 13.0667L11.75 26.9334C11.75 27.8893 12.5349 28.6667 13.5 28.6667L27.5 28.6667C28.4651 28.6667 29.25 27.8893 29.25 26.9334L29.25 15.6667C29.25 15.1883 29.642 14.8 30.125 14.8C30.608 14.8 31 15.1883 31 15.6667ZM14.8462 19.5333C14.8462 19.0181 15.208 18.5999 15.6539 18.5999C16.0997 18.5999 16.4616 19.0181 16.4616 19.5333L16.4616 22.4136L23.1598 14.6734C23.4752 14.3089 23.9865 14.3089 24.3019 14.6734C24.6173 15.0374 24.6173 15.6291 24.3019 15.9931L17.6036 23.7333L20.0962 23.7333C20.5421 23.7333 20.9039 24.1515 20.9039 24.6667C20.9039 25.1819 20.5421 25.6 20.0962 25.6L15.6539 25.6C15.208 25.6 14.8462 25.1819 14.8462 24.6667L14.8462 19.5333Z" fill="#28263C"/>
</svg>
