<svg width="28" height="20" viewBox="0 0 28 20" fill="white" xmlns="http://www.w3.org/2000/svg">
<rect width="28" height="20" rx="2" fill="white"/>
<mask id="mask0" mask-type="alpha" maskUnits="userSpaceOnUse" x="0" y="0" width="28" height="20">
<rect width="28" height="20" rx="2" fill="white"/>
</mask>
<g mask="url(#mask0)">
<path fill-rule="evenodd" clip-rule="evenodd" d="M28 0H0V1.33333H28V0ZM28 2.66667H0V4H28V2.66667ZM0 5.33333H28V6.66667H0V5.33333ZM28 8H0V9.33333H28V8ZM0 10.6667H28V12H0V10.6667ZM28 13.3333H0V14.6667H28V13.3333ZM0 16H28V17.3333H0V16ZM28 18.6667H0V20H28V18.6667Z" fill="#D02F44"/>
<rect width="12" height="9.33333" fill="#46467F"/>
<g filter="url(#filter0_d)">
<path fill-rule="evenodd" clip-rule="evenodd" d="M2.66668 2C2.66668 2.36819 2.3682 2.66667 2.00001 2.66667C1.63182 2.66667 1.33334 2.36819 1.33334 2C1.33334 1.63181 1.63182 1.33334 2.00001 1.33334C2.3682 1.33334 2.66668 1.63181 2.66668 2ZM5.33334 2C5.33334 2.36819 5.03487 2.66667 4.66668 2.66667C4.29849 2.66667 4.00001 2.36819 4.00001 2C4.00001 1.63181 4.29849 1.33334 4.66668 1.33334C5.03487 1.33334 5.33334 1.63181 5.33334 2ZM7.33334 2.66667C7.70153 2.66667 8.00001 2.36819 8.00001 2C8.00001 1.63181 7.70153 1.33334 7.33334 1.33334C6.96515 1.33334 6.66668 1.63181 6.66668 2C6.66668 2.36819 6.96515 2.66667 7.33334 2.66667ZM10.6667 2C10.6667 2.36819 10.3682 2.66667 10 2.66667C9.63182 2.66667 9.33334 2.36819 9.33334 2C9.33334 1.63181 9.63182 1.33334 10 1.33334C10.3682 1.33334 10.6667 1.63181 10.6667 2ZM3.33334 4C3.70153 4 4.00001 3.70153 4.00001 3.33334C4.00001 2.96515 3.70153 2.66667 3.33334 2.66667C2.96515 2.66667 2.66668 2.96515 2.66668 3.33334C2.66668 3.70153 2.96515 4 3.33334 4ZM6.66668 3.33334C6.66668 3.70153 6.3682 4 6.00001 4C5.63182 4 5.33334 3.70153 5.33334 3.33334C5.33334 2.96515 5.63182 2.66667 6.00001 2.66667C6.3682 2.66667 6.66668 2.96515 6.66668 3.33334ZM8.66668 4C9.03487 4 9.33334 3.70153 9.33334 3.33334C9.33334 2.96515 9.03487 2.66667 8.66668 2.66667C8.29849 2.66667 8.00001 2.96515 8.00001 3.33334C8.00001 3.70153 8.29849 4 8.66668 4ZM10.6667 4.66667C10.6667 5.03486 10.3682 5.33334 10 5.33334C9.63182 5.33334 9.33334 5.03486 9.33334 4.66667C9.33334 4.29848 9.63182 4 10 4C10.3682 4 10.6667 4.29848 10.6667 4.66667ZM7.33334 5.33334C7.70153 5.33334 8.00001 5.03486 8.00001 4.66667C8.00001 4.29848 7.70153 4 7.33334 4C6.96515 4 6.66668 4.29848 6.66668 4.66667C6.66668 5.03486 6.96515 5.33334 7.33334 5.33334ZM5.33334 4.66667C5.33334 5.03486 5.03487 5.33334 4.66668 5.33334C4.29849 5.33334 4.00001 5.03486 4.00001 4.66667C4.00001 4.29848 4.29849 4 4.66668 4C5.03487 4 5.33334 4.29848 5.33334 4.66667ZM2.00001 5.33334C2.3682 5.33334 2.66668 5.03486 2.66668 4.66667C2.66668 4.29848 2.3682 4 2.00001 4C1.63182 4 1.33334 4.29848 1.33334 4.66667C1.33334 5.03486 1.63182 5.33334 2.00001 5.33334ZM4.00001 6C4.00001 6.36819 3.70153 6.66667 3.33334 6.66667C2.96515 6.66667 2.66668 6.36819 2.66668 6C2.66668 5.63181 2.96515 5.33334 3.33334 5.33334C3.70153 5.33334 4.00001 5.63181 4.00001 6ZM6.00001 6.66667C6.3682 6.66667 6.66668 6.36819 6.66668 6C6.66668 5.63181 6.3682 5.33334 6.00001 5.33334C5.63182 5.33334 5.33334 5.63181 5.33334 6C5.33334 6.36819 5.63182 6.66667 6.00001 6.66667ZM9.33334 6C9.33334 6.36819 9.03487 6.66667 8.66668 6.66667C8.29849 6.66667 8.00001 6.36819 8.00001 6C8.00001 5.63181 8.29849 5.33334 8.66668 5.33334C9.03487 5.33334 9.33334 5.63181 9.33334 6ZM10 8C10.3682 8 10.6667 7.70153 10.6667 7.33334C10.6667 6.96515 10.3682 6.66667 10 6.66667C9.63182 6.66667 9.33334 6.96515 9.33334 7.33334C9.33334 7.70153 9.63182 8 10 8ZM8.00001 7.33334C8.00001 7.70153 7.70153 8 7.33334 8C6.96515 8 6.66668 7.70153 6.66668 7.33334C6.66668 6.96515 6.96515 6.66667 7.33334 6.66667C7.70153 6.66667 8.00001 6.96515 8.00001 7.33334ZM4.66668 8C5.03487 8 5.33334 7.70153 5.33334 7.33334C5.33334 6.96515 5.03487 6.66667 4.66668 6.66667C4.29849 6.66667 4.00001 6.96515 4.00001 7.33334C4.00001 7.70153 4.29849 8 4.66668 8ZM2.66668 7.33334C2.66668 7.70153 2.3682 8 2.00001 8C1.63182 8 1.33334 7.70153 1.33334 7.33334C1.33334 6.96515 1.63182 6.66667 2.00001 6.66667C2.3682 6.66667 2.66668 6.96515 2.66668 7.33334Z" fill="url(#paint0_linear)"/>
</g>
</g>
<defs>
<filter id="filter0_d" x="1.33334" y="1.33334" width="9.33333" height="7.66667" filterUnits="userSpaceOnUse" color-interpolation-filters="sRGB">
<feFlood flood-opacity="0" result="BackgroundImageFix"/>
<feColorMatrix in="SourceAlpha" type="matrix" values="0 0 0 0 0 0 0 0 0 0 0 0 0 0 0 0 0 0 127 0"/>
<feOffset dy="1"/>
<feColorMatrix type="matrix" values="0 0 0 0 0 0 0 0 0 0 0 0 0 0 0 0 0 0 0.06 0"/>
<feBlend mode="normal" in2="BackgroundImageFix" result="effect1_dropShadow"/>
<feBlend mode="normal" in="SourceGraphic" in2="effect1_dropShadow" result="shape"/>
</filter>
<linearGradient id="paint0_linear" x1="1.33334" y1="1.33334" x2="1.33334" y2="8" gradientUnits="userSpaceOnUse">
<stop stop-color="white"/>
<stop offset="1" stop-color="#F0F0F0"/>
</linearGradient>
</defs>
</svg>
