<svg width="8" height="8" fill="none" xmlns="http://www.w3.org/2000/svg"><path d="M7.95 3.844C7.877 3.747 6.174 1.451 4 1.451 1.825 1.45.122 3.747.05 3.844a.264.264 0 000 .312C.123 4.253 1.826 6.549 4 6.549c2.175 0 3.878-2.296 3.95-2.393a.264.264 0 000-.312zM4 6.022C2.398 6.022 1.01 4.498.6 4c.41-.5 1.795-2.022 3.4-2.022 1.602 0 2.99 1.524 3.4 2.022-.41.5-1.795 2.022-3.4 2.022z" fill="#fff"/><path d="M4 2.418c-.873 0-1.582.71-1.582 1.582 0 .872.71 1.582 1.582 1.582.872 0 1.582-.71 1.582-1.582 0-.873-.71-1.582-1.582-1.582zm0 2.637a1.056 1.056 0 010-2.11 1.056 1.056 0 010 2.11z" fill="#fff"/></svg>