<svg width="14" height="14" fill="none" xmlns="http://www.w3.org/2000/svg"><path d="M.875 7.43v5.25c0 .482.393.874.875.874h4.375V7.43H.875zm12.25-3.5h-2.768a3.51 3.51 0 00.488-.392 1.829 1.829 0 000-2.574c-.686-.692-1.882-.69-2.567 0-.38.38-1.386 1.93-1.247 2.965h-.063c.139-1.035-.867-2.585-1.246-2.965-.686-.69-1.882-.69-2.567 0a1.831 1.831 0 000 2.574c.12.12.29.255.489.391H.874A.876.876 0 000 4.804v1.313c0 .241.196.437.438.437h5.687v-1.75h1.75v1.75h5.688A.438.438 0 0014 6.117V4.804a.876.876 0 00-.875-.875zM6.073 3.9s-.036.03-.162.03c-.604 0-1.758-.63-2.135-1.009a.954.954 0 010-1.34.93.93 0 011.325 0c.59.593 1.176 2.108.972 2.32zm2.015.03c-.125 0-.161-.029-.161-.03-.204-.21.382-1.726.972-2.32a.954.954 0 011.325 0 .953.953 0 010 1.341c-.377.38-1.53 1.008-2.136 1.008zm-.213 3.5v6.124h4.375a.875.875 0 00.875-.875V7.43h-5.25z" fill="#F8856B"/></svg>