<svg width="20" height="22" viewBox="0 0 20 22" fill="none" xmlns="http://www.w3.org/2000/svg">
<path d="M18.5294 13.5592L16.9022 11.9321L9.58053 4.61069C8.23115 3.27141 6.05298 3.27546 4.70865 4.61978C3.36432 5.96411 3.36028 8.14229 4.69955 9.49167L12.0209 16.8152C12.3204 17.1149 12.8061 17.1149 13.1057 16.8152C13.4052 16.5156 13.4052 16.0301 13.1057 15.7304L5.78435 8.40687C5.03555 7.65808 5.03555 6.44428 5.78435 5.69548C6.53314 4.94669 7.74694 4.94669 8.49574 5.69548L15.8193 13.0169L17.4464 14.6438C18.7944 15.9923 18.7939 18.1783 17.4456 19.5261C16.097 20.874 13.9113 20.8736 12.5632 19.5251L11.2076 18.169L3.61493 10.5763L3.07245 10.034C1.17638 8.07862 1.20046 4.96353 3.12634 3.03748C5.05239 1.1116 8.16749 1.08751 10.1228 2.98358L18.2579 11.1188C18.4517 11.3125 18.7341 11.3881 18.9987 11.3172C19.2635 11.2463 19.4703 11.0396 19.5412 10.7749C19.6121 10.5101 19.5363 10.2278 19.3426 10.034L11.2076 1.89896C8.65995 -0.637107 4.54023 -0.632391 1.99844 1.90957C-0.543524 4.45136 -0.54824 8.57108 1.98783 11.1188L10.1228 19.2538L11.4805 20.6099C13.4384 22.4905 16.5412 22.4592 18.4605 20.5392C20.3799 18.6194 20.4104 15.5166 18.5294 13.5592Z" fill="#A4A4A4"/>
</svg>
