
<svg width="186" height="41" viewBox="0 0 186 41" fill="none" xmlns="http://www.w3.org/2000/svg">
  <path d="M179.2 37H107.6C104 37 101 34.6 101 31.6V9.4C101 6.4 104 4 107.6 4H179.3C182.9 4 185.9 6.4 185.9 9.4V31.7C186 34.6 183 37 179.2 37Z" fill="#4D8DEC"/>
  <path d="M35.7 27.1L38.4 29.9L37 31.2C36.2 32 35 32.9 33.8 33.4C32.6 33.9 31.5 34.1 30.1 34.1C28.8 34.1 27.6 33.9 26.4 33.4C25.2 32.9 24.2 32.2 23.2 31.2C22.2 30.2 21.5 29.2 21 28C20.5 26.8 20.3 25.7 20.3 24.3C20.3 23 20.5 21.8 21 20.6C21.5 19.4 22.2 18.4 23.2 17.4C24.2 16.4 25.2 15.7 26.4 15.2C27.6 14.7 28.7 14.5 30.1 14.5C31.3 14.5 32.6 14.7 33.8 15.2C35 15.7 36.1 16.4 37 17.4L38.3 18.7L27.7 29.5C28.9 30 29.9 30.2 31.2 30C32.5 29.8 33.5 29.3 34.4 28.3L35.7 27.1ZM26 20.3C24.8 21.5 24.3 22.8 24.3 24.4C24.3 25.2 24.5 26.1 25 26.9C25.3 26.6 25.8 26.1 26.5 25.4C27.2 24.7 28 23.9 28.7 23.2C29.4 22.5 30.2 21.7 31 20.9C31.7 20.2 32.3 19.6 32.7 19.2C31.5 18.7 30.5 18.5 29.2 18.7C28 18.8 27 19.3 26 20.3Z" fill="#434AC7"/>
  <path d="M58.9 14.8V24.4C58.9 25.7 58.6 26.9 58.1 28.1C57.6 29.3 56.9 30.3 56.1 31.3C55.3 32.1 54.3 32.8 53.1 33.3C51.9 33.8 50.8 34 49.3 34C48 34 46.8 33.8 45.6 33.3C44.4 32.8 43.4 32.1 42.6 31.3C41.8 30.5 41.1 29.5 40.6 28.1C40.1 26.9 39.9 25.8 39.9 24.4V14.8H43.7V24.4C43.7 25.2 43.9 25.9 44.2 26.7C44.5 27.4 44.9 28 45.4 28.5C45.9 29 46.6 29.5 47.2 29.7C47.9 29.9 48.7 30.2 49.5 30.2C50.3 30.2 51 30 51.8 29.7C52.5 29.4 53.1 29 53.6 28.5C54.1 28 54.6 27.3 54.8 26.7C55.1 26 55.3 25.2 55.3 24.4V14.8C55.3 14.8 58.9 14.8 58.9 14.8Z" fill="#434AC7"/>
  <path d="M71.7 14.8V18.6H69.7C68.9 18.6 68.2 18.8 67.4 19.1C66.7 19.4 66.1 19.8 65.6 20.3C65.1 20.8 64.6 21.5 64.4 22.1C64.1 22.8 63.9 23.6 63.9 24.4V34H60.1V24.4C60.1 23.1 60.3 21.7 60.9 20.6C61.4 19.4 62.1 18.4 62.9 17.6C63.7 16.8 64.7 16.1 66.1 15.6C67.3 14.9 68.4 14.8 69.8 14.8H71.7Z" fill="#434AC7"/>
  <path d="M93.6 7V33.9H89.8V7H93.6Z" fill="#434AC7"/>
  <path d="M85.2 15.4001C82.5 13.1001 78.9 12.9001 76.5 15.1001C75 16.6001 74.3 18.8001 74.8 20.7001C72.8 20.0001 70.6 20.5001 69.1 22.0001C66.8 24.2001 66.8 27.8001 68.9 30.6001C69.1 30.8001 69.4 31.4001 70.6 32.1001C72.3 33.3001 74.3 33.8001 76.4 33.8001L86.9 33.6001L87.7 23.1001C87.9 20.9001 87.4 19.0001 86.4 17.3001C86.1 15.9001 85.4 15.4001 85.2 15.4001Z" fill="#E86DA9"/>
  <path d="M114.3 29.5001C114 29.5001 113.8 29.5001 113.8 29.3001C113.8 29.1001 113.6 29.0001 113.6 28.8001V12.1001C113.6 11.9001 113.6 11.8001 113.8 11.6001C114 11.4001 114 11.6001 114.3 11.6001H120.1C121.6 11.6001 122.9 11.8001 123.9 12.3001C124.9 12.8001 125.7 13.5001 126.4 14.3001C127.1 15.1001 127.4 16.1001 127.7 17.1001C128 18.1001 128 19.3001 128 20.4001C128 21.5001 127.8 22.7001 127.7 23.9001C127.5 25.1001 127 25.9001 126.5 26.7001C125.8 27.5001 125.2 28.2001 124 28.7001C123 29.2001 121.7 29.4001 120 29.4001H114.2L114.3 29.5001ZM123.6 20.7001C123.6 18.9001 123.3 17.4001 122.6 16.6001C121.9 15.8001 121.1 15.3001 119.8 15.3001H117.8V26.1001H119.5C120.2 26.1001 120.7 25.9001 121.2 25.8001C121.7 25.6001 122 25.3001 122.4 25.0001C122.7 24.7001 123.1 24.0001 123.2 23.3001C123.4 22.4001 123.6 21.6001 123.6 20.7001Z" fill="white"/>
  <path d="M134.3 28.7001C134.1 29.0001 134.1 29.2001 134 29.4001C133.8 29.6001 133.7 29.6001 133.3 29.6001H130.3C130.1 29.6001 130 29.6001 130 29.4001C130 29.4001 130 29.1001 130 28.9001L135.2 12.3001C135.4 12.0001 135.4 11.8001 135.5 11.8001C135.7 11.6001 135.8 11.6001 136.2 11.6001H139.5C139.8 11.6001 140.2 11.6001 140.2 11.8001C140.4 12.0001 140.4 12.1001 140.5 12.5001L146 28.9001C146 29.1001 146 29.2001 146 29.4001C146 29.6001 145.8 29.6001 145.7 29.6001H142.4C142.1 29.6001 141.9 29.6001 141.7 29.4001C141.5 29.2001 141.5 29.1001 141.4 28.7001L140.6 25.5001H135.3L134.3 28.7001ZM138.8 19.3001L138 16.0001H137.8L137 19.3001L136.2 22.3001H139.7L138.8 19.3001Z" fill="white"/>
  <path d="M159 14.9001C159 15.1001 158.8 15.1001 158.5 15.1001H154.5V28.9001C154.5 29.1001 154.5 29.2001 154.3 29.2001C154.3 29.4001 154.1 29.4001 153.8 29.4001H150.6C150.4 29.4001 150.3 29.4001 150.1 29.2001C149.9 29.0001 150.1 29.0001 150.1 28.9001V15.1001H146.1C145.8 15.1001 145.8 15.1001 145.6 14.9001C145.6 14.7001 145.4 14.7001 145.4 14.6001V12.1001C145.4 11.9001 145.4 11.8001 145.6 11.6001C145.8 11.6001 145.9 11.6001 146.3 11.6001H158.5C158.8 11.6001 159.2 11.8001 159.2 12.3001V14.8001C159.1 14.8001 159.1 14.9001 159 14.9001Z" fill="white"/>
  <path d="M161.3 12.1001C161.3 11.9001 161.3 11.8001 161.5 11.6001C161.5 11.6001 161.7 11.6001 161.8 11.6001H172.6C172.9 11.6001 173.1 11.8001 173.1 12.3001V14.8001C173.1 15.0001 173.1 15.1001 172.9 15.1001C172.9 15.3001 172.7 15.3001 172.4 15.3001H165.4V18.6001H171.6C171.9 18.6001 172.3 18.8001 172.3 19.1001V21.6001C172.3 21.8001 172.3 21.9001 172.1 21.9001C171.9 21.9001 171.9 22.1001 171.6 22.1001H165.4V25.9001H172.6C172.9 25.9001 173.3 26.1001 173.3 26.6001V29.0001C173.3 29.2001 173.3 29.3001 173.1 29.3001C172.9 29.3001 172.9 29.5001 172.6 29.5001H161.8C161.6 29.5001 161.5 29.5001 161.3 29.3001C161.1 29.1001 161.1 29.1001 161.1 29.0001V12.1001H161.3Z" fill="white"/>
  <path d="M19.1 34.1H15.5L3.5 14.4V34.1H0V7.30005H3.6L15.6 27.1V7.30005H19.2V34.1H19.1Z" fill="#434AC7"/>
</svg>
