<svg width="10" height="10" viewBox="0 0 10 10" fill="none" xmlns="http://www.w3.org/2000/svg">
<path d="M9.19416 7.89509L9.16046 7.93553C8.05095 9.26676 6.57307 10.0002 4.99991 10.0002C3.42652 10.0002 1.94887 9.26699 0.839131 7.93553L0.805664 7.89509L0.813566 7.84327C1.02784 6.44557 1.75807 5.32281 2.86967 4.68114L2.94869 4.63559L3.01167 4.70159C3.53668 5.25239 4.24273 5.55545 4.99968 5.55545C5.75663 5.55545 6.46268 5.25216 6.98768 4.70159L7.05067 4.63559L7.12969 4.68114C8.24129 5.32281 8.97151 6.44557 9.18602 7.84327L9.19416 7.89509ZM4.99991 4.99419C6.37669 4.99419 7.49689 3.87399 7.49689 2.49721C7.49689 1.12043 6.37669 0 4.99991 0C3.62313 0 2.50293 1.12043 2.50293 2.49698C2.50293 3.87352 3.62313 4.99419 4.99991 4.99419Z" fill="white"/>
</svg>
