<svg width="18" height="18" viewBox="0 0 18 18" fill="none" xmlns="http://www.w3.org/2000/svg">
<path d="M2.75369 2.12451C2.75321 2.12451 2.75266 2.12451 2.75218 2.12451C2.58194 2.12451 2.42181 2.19088 2.3009 2.31148C2.17866 2.43342 2.11133 2.59579 2.11133 2.76863V12.4271C2.11133 12.7813 2.4006 13.0702 2.75624 13.0711C4.25552 13.0747 6.76741 13.3871 8.50027 15.2005V5.09264C8.50027 4.97258 8.4696 4.85979 8.41172 4.76646C6.98947 2.47603 4.25637 2.12803 2.75369 2.12451Z" fill="#29333F"/>
<path d="M15.8889 12.4272V2.76864C15.8889 2.59579 15.8215 2.43342 15.6993 2.31148C15.5784 2.19088 15.4181 2.12451 15.2481 2.12451C15.2475 2.12451 15.247 2.12451 15.2465 2.12451C13.7439 2.12809 11.0108 2.47609 9.58848 4.76652C9.53061 4.85985 9.5 4.97264 9.5 5.0927V15.2006C11.2329 13.3872 13.7447 13.0747 15.244 13.0711C15.5996 13.0702 15.8889 12.7813 15.8889 12.4272Z" fill="#29333F"/>
<path d="M17.3562 4.35205H16.8891V12.4273C16.8891 13.3316 16.1524 14.069 15.2467 14.0712C13.975 14.0743 11.8781 14.3229 10.3931 15.7285C12.9614 15.0996 15.669 15.5084 17.212 15.86C17.4047 15.9039 17.6038 15.8586 17.7581 15.7355C17.9119 15.6128 18.0002 15.4294 18.0002 15.2325V4.99605C18.0002 4.64096 17.7113 4.35205 17.3562 4.35205Z" fill="#29333F"/>
<path d="M1.11103 12.4273V4.35205H0.644002C0.288971 4.35205 0 4.64096 0 4.99605V15.2323C0 15.4292 0.0882427 15.6126 0.242061 15.7354C0.396304 15.8583 0.595214 15.9038 0.788184 15.8598C2.33122 15.5081 5.0388 15.0994 7.60706 15.7283C6.12208 14.3228 4.02523 14.0742 2.75352 14.0712C1.84788 14.069 1.11103 13.3316 1.11103 12.4273Z" fill="#29333F"/>
</svg>
