<svg width="25" height="21" viewBox="0 0 25 21" fill="none" xmlns="http://www.w3.org/2000/svg">
<path d="M12.5 6.42871C9.74292 6.42871 7.5 8.73571 7.5 11.5716C7.5 14.4074 9.74292 16.7144 12.5 16.7144C15.2571 16.7144 17.5 14.4074 17.5 11.5716C17.5 8.73571 15.2571 6.42871 12.5 6.42871Z" fill="#00BDBA"/>
<path d="M23.0004 4.28571H19.4487L17.7821 0H7.21792L5.55125 4.28571H5V2.14286H2.5V4.28571H1.99958C0.896667 4.28571 0 5.208 0 6.34243V18.9287C0 20.0709 0.903333 21 2.01375 21H22.9862C24.0967 21 25 20.0709 25 18.9287V6.34243C25 5.208 24.1033 4.28571 23.0004 4.28571ZM4.16667 4.28571H3.33333V3H4.16667V4.28571ZM12.5 19.2857C8.36458 19.2857 5 15.825 5 11.5714C5 7.31786 8.36458 3.85714 12.5 3.85714C16.6354 3.85714 20 7.31786 20 11.5714C20 15.825 16.6354 19.2857 12.5 19.2857ZM21.6667 9.42857C20.7475 9.42857 20 8.65971 20 7.71429C20 6.76886 20.7475 6 21.6667 6C22.5858 6 23.3333 6.76886 23.3333 7.71429C23.3333 8.65971 22.5858 9.42857 21.6667 9.42857Z" fill="#00BDBA"/>
</svg>
