<svg width="13" height="12" fill="none" xmlns="http://www.w3.org/2000/svg"><path d="M6.5.375C4.032.375 2.031 2.222 2.031 4.5c0 3.563 4.469 7.125 4.469 7.125s4.469-3.563 4.469-7.125C10.969 2.222 8.968.375 6.5.375zm0 7.313c-1.907 0-3.453-1.428-3.453-3.188 0-1.76 1.546-3.188 3.453-3.188 1.907 0 3.453 1.428 3.453 3.188 0 1.76-1.546 3.188-3.453 3.188z" fill="#595959"/><path d="M8.425 3.35a.574.574 0 00-.404-.155h-.5l-.115-.282a.383.383 0 00-.154-.173.418.418 0 00-.231-.073H5.878a.418.418 0 00-.231.073.391.391 0 00-.155.173l-.114.282h-.5a.574.574 0 00-.404.154.49.49 0 00-.168.373v1.847c0 .145.056.27.168.372a.574.574 0 00.404.155H8.02a.574.574 0 00.404-.155.49.49 0 00.167-.372V3.722a.49.49 0 00-.167-.373zM7.155 5.3c-.195.18-.432.271-.706.271-.274 0-.51-.091-.706-.272a.858.858 0 01-.294-.651c0-.253.099-.471.294-.652a1.01 1.01 0 01.706-.272c.274 0 .51.092.706.272.196.18.295.399.295.652a.858.858 0 01-.295.651z" fill="#595959"/><path d="M6.45 4.052a.652.652 0 00-.455.174.547.547 0 00-.188.42c0 .163.063.302.188.419a.642.642 0 00.454.173.652.652 0 00.455-.173.547.547 0 00.188-.42.556.556 0 00-.188-.42.652.652 0 00-.455-.173z" fill="#595959"/></svg>