<svg width="20" height="20" viewBox="0 0 20 20" fill="none" xmlns="http://www.w3.org/2000/svg">
<g clip-path="url(#clip0)">
<path d="M17.5112 13.9146L20 11.4258L17.5112 8.93698L17.9122 8.53598C18.606 7.84216 18.606 6.71332 17.9123 6.0195C17.5762 5.6835 17.1292 5.49841 16.6539 5.49841C16.1788 5.49841 15.7318 5.6835 15.3958 6.0195L14.9948 6.4205L12.506 3.93164L11.7716 4.6662V5.82709C13.0707 6.13669 14.0398 7.30719 14.0398 8.69971C14.0398 10.0924 13.0707 11.2629 11.7716 11.5723V15.172H9.61703L9.1875 15.6016L12.506 18.9199L14.9948 16.431L15.3405 16.7768C16.0343 17.4706 17.1631 17.4706 17.8569 16.7768C18.5508 16.083 18.5508 14.9541 17.8569 14.2603L17.5112 13.9146Z" fill="#29333F"/>
<path d="M10.5983 13.9995V10.4797H11.087C12.0683 10.4797 12.8665 9.68155 12.8665 8.70026C12.8665 7.71912 12.0683 6.92093 11.087 6.92093H10.5983V3.40118H7.07855V2.83417C7.07855 1.85287 6.28036 1.05469 5.29907 1.05469C4.31793 1.05469 3.51974 1.85287 3.51974 2.83417V3.40118H0V6.92093H0.488892C1.34979 6.92093 2.0697 7.5354 2.23328 8.34885C2.30423 8.44803 2.3465 8.56918 2.3465 8.70026C2.3465 8.83133 2.30423 8.95248 2.23328 9.05182C2.0697 9.86511 1.34979 10.4797 0.488892 10.4797H0V13.9995H3.51974V13.4323C3.51974 12.4512 4.31793 11.653 5.29907 11.653C6.28036 11.653 7.07855 12.4512 7.07855 13.4323V13.9995H10.5983Z" fill="#29333F"/>
</g>
<defs>
<clipPath id="clip0">
<rect width="20" height="20" fill="white"/>
</clipPath>
</defs>
</svg>
