<svg width="15" height="17" viewBox="0 0 15 17" fill="none" xmlns="http://www.w3.org/2000/svg">
<g clip-path="url(#clip0)">
<path d="M3.69337 7.64057C3.36561 7.64057 3.09961 7.93458 3.09961 8.29683L3.09961 11.9062C3.09961 12.2685 3.36561 12.5625 3.69337 12.5625L6.95902 12.5625C7.28678 12.5625 7.55278 12.2685 7.55278 11.9062C7.55278 11.544 7.28678 11.25 6.95902 11.25L5.12669 11.25L10.0507 5.80765C10.2826 5.55171 10.2826 5.13564 10.0507 4.8797C9.81885 4.62343 9.443 4.62343 9.21114 4.8797L4.28712 10.322L4.28712 8.29683C4.28712 7.93458 4.02112 7.64057 3.69337 7.64057Z" fill="white"/>
<path d="M14.5 13.875L14.5 5.34375C14.5 4.9815 14.234 4.6875 13.9062 4.6875C13.5785 4.6875 13.3125 4.9815 13.3125 5.34375L13.3125 13.875C13.3125 14.5988 12.7799 15.1875 12.125 15.1875L2.625 15.1875C1.97009 15.1875 1.4375 14.5988 1.4375 13.875L1.4375 3.375C1.4375 2.65116 1.97009 2.0625 2.625 2.0625L10.3437 2.0625C10.6715 2.0625 10.9375 1.7685 10.9375 1.40625C10.9375 1.044 10.6715 0.75 10.3438 0.75L2.625 0.749999C1.31548 0.749999 0.25 1.92764 0.25 3.375L0.249999 13.875C0.249999 15.3224 1.31548 16.5 2.625 16.5L12.125 16.5C13.4345 16.5 14.5 15.3224 14.5 13.875Z" fill="white"/>
</g>
<defs>
<clipPath id="clip0">
<path d="M0.25 0.75H14.5V16.5H0.25V0.75Z" fill="white"/>
</clipPath>
</defs>
</svg>
