<svg width="25" height="22" viewBox="0 0 25 22" fill="none" xmlns="http://www.w3.org/2000/svg">
<path d="M13.5398 0.0779145C13.2695 -0.0525086 12.9511 -0.0179387 12.7181 0.172196L5.16304 6.28637H1.55326C0.697414 6.28637 0 6.99191 0 7.85773V14.1432C0 15.0106 0.697414 15.7145 1.55326 15.7145H5.16304L12.7165 21.8287C12.8579 21.9419 13.0303 22 13.2027 22C13.3177 22 13.4326 21.9733 13.5398 21.9214C13.8085 21.791 13.9794 21.516 13.9794 21.2143V0.786599C13.9794 0.484898 13.8085 0.209909 13.5398 0.0779145Z" fill="white"/>
<path d="M17.7029 3.73988C17.298 3.34601 16.6484 3.3521 16.2497 3.748C15.8509 4.14796 15.855 4.78951 16.2579 5.18541C17.8119 6.69997 18.667 8.7363 18.667 10.9188C18.667 13.1013 17.8119 15.1376 16.2579 16.6522C15.855 17.044 15.8509 17.6876 16.2497 18.0876C16.4511 18.2886 16.7163 18.3881 16.9794 18.3881C17.2404 18.3881 17.5015 18.2906 17.7029 18.0937C19.6516 16.1995 20.7226 13.6495 20.7226 10.9188C20.7226 8.18813 19.6516 5.63815 17.7029 3.73988Z" fill="white"/>
<path d="M20.6471 0.951681C20.2463 0.555392 19.6035 0.559456 19.2068 0.957778C18.8121 1.3561 18.8162 2.00032 19.2129 2.39458C21.5259 4.68493 22.7994 7.74144 22.7994 11.0012C22.7994 14.2609 21.5259 17.3154 19.2129 19.6057C18.8162 20.002 18.8121 20.6462 19.2068 21.0446C19.4082 21.2437 19.6686 21.3433 19.929 21.3433C20.1873 21.3433 20.4477 21.2458 20.6471 21.0486C23.3487 18.3762 24.8338 14.8076 24.8338 11.0012C24.8338 7.19476 23.3487 3.62613 20.6471 0.951681Z" fill="white"/>
</svg>
