<svg width="20" height="22" viewBox="0 0 20 22" fill="none" xmlns="http://www.w3.org/2000/svg">
<path d="M15.2257 17.8979C17.9229 16.1724 19.7107 13.1512 19.7107 9.71176C19.7107 4.34844 15.3632 0 9.99986 0C4.63655 0 0.289062 4.34796 0.289062 9.71128C0.289062 13.1512 2.07731 16.1724 4.77455 17.8974L3.07973 19.9252C2.39117 20.7518 2.97863 21.999 4.05388 21.999H15.9449C17.0201 21.999 17.6071 20.7513 16.919 19.9252L15.2257 17.8979ZM9.99986 15.1417C7.00076 15.1417 4.56946 12.7104 4.56946 9.71128C4.56946 6.71217 7.00076 4.28136 9.99986 4.28136C12.999 4.28136 15.4303 6.71217 15.4303 9.71128C15.4307 12.7099 12.999 15.1417 9.99986 15.1417Z" fill="white"/>
<path d="M9.99998 6.41211C9.56203 6.41211 9.14515 6.4998 8.7623 6.65457C9.33586 7.59517 8.90557 9.15582 7.46375 9.15582C7.20117 9.15582 6.97261 9.10263 6.77663 9.01159C6.72775 9.23776 6.70044 9.47111 6.70044 9.71165C6.70044 11.5339 8.17771 13.0112 9.99951 13.0112C11.8213 13.0112 13.2986 11.5339 13.2986 9.71165C13.2986 7.88938 11.8223 6.41211 9.99998 6.41211Z" fill="white"/>
</svg>
