<svg width="18" height="22" viewBox="0 0 18 22" fill="none" xmlns="http://www.w3.org/2000/svg">
<path d="M2.7264 20.9393C2.75123 21.5323 3.23918 22.0003 3.83259 22.0003H14.1685C14.7619 22.0003 15.2499 21.5323 15.2747 20.9393L16.0128 5.35742H1.98828L2.7264 20.9393ZM11.3386 9.2277C11.3386 8.97941 11.54 8.77804 11.7884 8.77804H12.5076C12.7559 8.77804 12.9573 8.97936 12.9573 9.2277V18.13C12.9573 18.3784 12.756 18.5797 12.5076 18.5797H11.7884C11.5401 18.5797 11.3386 18.3785 11.3386 18.13V9.2277ZM8.19125 9.2277C8.19125 8.97941 8.39257 8.77804 8.64091 8.77804H9.36018C9.60841 8.77804 9.80984 8.97936 9.80984 9.2277V18.13C9.80984 18.3784 9.60857 18.5797 9.36018 18.5797H8.64091C8.39262 18.5797 8.19125 18.3785 8.19125 18.13V9.2277ZM5.04374 9.2277C5.04374 8.97941 5.24506 8.77804 5.4934 8.77804H6.21273C6.46101 8.77804 6.66239 8.97936 6.66239 9.2277V18.13C6.66239 18.3784 6.46106 18.5797 6.21273 18.5797H5.4934C5.24512 18.5797 5.04374 18.3785 5.04374 18.13V9.2277Z" fill="#A4A4A4"/>
<path d="M16.5041 1.13333H11.7358V0.231858C11.7358 0.103838 11.632 0 11.5039 0H6.49668C6.36866 0 6.26488 0.103838 6.26488 0.231858V1.13328H1.49652C1.11279 1.13328 0.801758 1.44436 0.801758 1.8281V4.01079H17.1988V1.82815C17.1988 1.44441 16.8878 1.13333 16.5041 1.13333Z" fill="#A4A4A4"/>
</svg>
