<svg width="22" height="22" viewBox="0 0 22 22" fill="none" xmlns="http://www.w3.org/2000/svg">
<g clip-path="url(#clip0)">
<path d="M12.9445 21.1945C14.0185 20.1206 14.0185 18.3794 12.9445 17.3055C11.8706 16.2315 10.1294 16.2315 9.05545 17.3055C7.98152 18.3794 7.98152 20.1206 9.05545 21.1945C10.1293 22.2685 11.8706 22.2685 12.9445 21.1945Z" fill="#C5C5C5"/>
<path d="M12.9445 12.9445C14.0185 11.8706 14.0185 10.1294 12.9445 9.05546C11.8706 7.98153 10.1294 7.98153 9.05545 9.05546C7.98152 10.1294 7.98152 11.8706 9.05545 12.9445C10.1293 14.0185 11.8706 14.0185 12.9445 12.9445Z" fill="#C5C5C5"/>
<path d="M12.9445 4.69455C14.0185 3.62061 14.0185 1.8794 12.9445 0.805465C11.8706 -0.268473 10.1294 -0.268473 9.05545 0.805465C7.98152 1.8794 7.98152 3.62061 9.05545 4.69455C10.1293 5.76848 11.8706 5.76848 12.9445 4.69455Z" fill="#C5C5C5"/>
</g>
<defs>
<clipPath id="clip0">
<rect width="22" height="22" fill="white" transform="matrix(1 0 0 -1 0 22)"/>
</clipPath>
</defs>
</svg>
