<svg width="18" height="18" viewBox="0 0 18 18" fill="none" xmlns="http://www.w3.org/2000/svg">
<g clip-path="url(#clip0)">
<path d="M8.8716 8.67065C10.0628 8.67065 11.0943 8.24342 11.937 7.4005C12.7798 6.55771 13.2071 5.52651 13.2071 4.33519C13.2071 3.14427 12.7798 2.11294 11.9369 1.26988C11.094 0.427229 10.0626 0 8.8716 0C7.68027 0 6.64907 0.427229 5.80628 1.27001C4.9635 2.1128 4.53613 3.14414 4.53613 4.33519C4.53613 5.52651 4.9635 6.55785 5.80642 7.40064C6.64934 8.24328 7.68068 8.67065 8.8716 8.67065Z" fill="#29333F"/>
<path d="M16.4576 13.8412C16.4333 13.4905 16.3841 13.1079 16.3118 12.7039C16.2387 12.2968 16.1446 11.912 16.032 11.5603C15.9157 11.1968 15.7575 10.8378 15.5619 10.4938C15.359 10.1368 15.1206 9.82586 14.8531 9.57002C14.5733 9.30237 14.2308 9.08717 13.8348 8.93021C13.4401 8.77406 13.0027 8.69496 12.5348 8.69496C12.3511 8.69496 12.1734 8.77035 11.8302 8.99379C11.619 9.13153 11.3719 9.29083 11.0962 9.46702C10.8604 9.61726 10.5409 9.75802 10.1464 9.88546C9.76146 10.01 9.37062 10.0732 8.98486 10.0732C8.59911 10.0732 8.20841 10.01 7.82306 9.88546C7.42893 9.75816 7.10951 9.6174 6.87399 9.46716C6.60084 9.29262 6.35365 9.13331 6.13928 8.99365C5.79651 8.77022 5.61867 8.69482 5.43492 8.69482C4.96691 8.69482 4.52965 8.77406 4.13511 8.93034C3.73933 9.08703 3.39669 9.30223 3.11668 9.57016C2.8493 9.82614 2.61076 10.1369 2.40806 10.4938C2.21264 10.8378 2.05444 11.1967 1.93799 11.5605C1.82551 11.9122 1.73144 12.2968 1.65839 12.7039C1.58601 13.1073 1.53685 13.4901 1.51254 13.8416C1.48865 14.186 1.47656 14.5435 1.47656 14.9045C1.47656 15.8441 1.77525 16.6048 2.36425 17.1658C2.94598 17.7194 3.7157 18.0002 4.65174 18.0002H13.3188C14.2548 18.0002 15.0243 17.7195 15.6062 17.1658C16.1953 16.6052 16.494 15.8444 16.494 14.9044C16.4939 14.5417 16.4816 14.184 16.4576 13.8412Z" fill="#29333F"/>
</g>
<defs>
<clipPath id="clip0">
<rect width="17.9999" height="18" fill="white"/>
</clipPath>
</defs>
</svg>
