<svg width="14" height="17" viewBox="0 0 14 17" fill="none" xmlns="http://www.w3.org/2000/svg">
<g clip-path="url(#clip0)">
<path d="M0.947266 8.79785V14.4317C0.947266 14.95 1.34014 15.3707 1.82227 15.3707H6.19727V8.79785H0.947266Z" fill="white"/>
<path d="M13.1973 5.04204H10.4288C10.6274 4.8965 10.798 4.7519 10.917 4.62232C11.6231 3.86081 11.6231 2.62135 10.917 1.85984C10.231 1.11805 9.03577 1.11992 8.35064 1.85984C7.97089 2.2683 6.96464 3.93123 7.10377 5.04204H7.04077C7.17902 3.93123 6.17277 2.2683 5.79389 1.85984C5.10789 1.11992 3.91264 1.11992 3.22752 1.85984C2.52227 2.62135 2.52227 3.86081 3.22664 4.62232C3.34652 4.7519 3.51714 4.8965 3.71577 5.04204H0.947266C0.465141 5.04204 0.0722656 5.46364 0.0722656 5.98102V7.38949C0.0722656 7.64865 0.268266 7.85898 0.509766 7.85898H6.19727V5.98102H7.94727V7.85898H13.6348C13.8763 7.85898 14.0723 7.64865 14.0723 7.38949V5.98102C14.0723 5.46364 13.6803 5.04204 13.1973 5.04204ZM6.14564 5.01105C6.14564 5.01105 6.10889 5.04204 5.98377 5.04204C5.37914 5.04204 4.22502 4.36785 3.84789 3.96034C3.48127 3.56409 3.48127 2.91807 3.84789 2.52182C4.02552 2.33027 4.26089 2.2251 4.51114 2.2251C4.76052 2.2251 4.99589 2.33027 5.17352 2.52182C5.76327 3.15845 6.34952 4.78476 6.14564 5.01105ZM8.15989 5.04204C8.03564 5.04204 7.99889 5.01199 7.99889 5.01105C7.79502 4.78476 8.38127 3.15845 8.97102 2.52182C9.32364 2.13966 9.94052 2.13778 10.2966 2.52182C10.6641 2.91807 10.6641 3.56409 10.2966 3.96034C9.91952 4.36785 8.76539 5.04204 8.15989 5.04204Z" fill="white"/>
<path d="M7.94727 8.79785V15.3707H12.3223C12.8053 15.3707 13.1973 14.95 13.1973 14.4317V8.79785H7.94727Z" fill="white"/>
</g>
<defs>
<clipPath id="clip0">
<rect y="0.237305" width="14" height="16" fill="white"/>
</clipPath>
</defs>
</svg>
