<?xml version="1.0" encoding="UTF-8" standalone="no"?>
<!DOCTYPE svg PUBLIC "-//W3C//DTD SVG 1.1//EN"
 "http://www.w3.org/Graphics/SVG/1.1/DTD/svg11.dtd">
<!-- Generated by graphviz version 2.40.1 (20161225.0304)
 -->
<!-- Title: dependencies Pages: 1 -->
<svg width="3305pt" height="211pt"
 viewBox="0.00 0.00 3305.00 211.00" xmlns="http://www.w3.org/2000/svg" xmlns:xlink="http://www.w3.org/1999/xlink">
<g id="graph0" class="graph" transform="scale(1 1) rotate(0) translate(4 207)">
<title>dependencies</title>
<polygon fill="#ffffff" stroke="transparent" points="-4,4 -4,-207 3301,-207 3301,4 -4,4"/>
<text text-anchor="start" x="1627.5091" y="-42.4" font-family="sans-serif" font-weight="bold" font-size="14.00" fill="#000000">Legend</text>
<polygon fill="#ffffb3" stroke="transparent" points="1414.5,-10 1414.5,-30 1434.5,-30 1434.5,-10 1414.5,-10"/>
<text text-anchor="start" x="1438.129" y="-15.4" font-family="sans-serif" font-size="14.00" fill="#000000"> &#160;Declarations</text>
<polygon fill="#8dd3c7" stroke="transparent" points="1527.5,-10 1527.5,-30 1547.5,-30 1547.5,-10 1527.5,-10"/>
<text text-anchor="start" x="1551.2251" y="-15.4" font-family="sans-serif" font-size="14.00" fill="#000000"> &#160;Module</text>
<polygon fill="#80b1d3" stroke="transparent" points="1613.5,-10 1613.5,-30 1633.5,-30 1633.5,-10 1613.5,-10"/>
<text text-anchor="start" x="1637.2812" y="-15.4" font-family="sans-serif" font-size="14.00" fill="#000000"> &#160;Bootstrap</text>
<polygon fill="#fdb462" stroke="transparent" points="1710.5,-10 1710.5,-30 1730.5,-30 1730.5,-10 1710.5,-10"/>
<text text-anchor="start" x="1734.1732" y="-15.4" font-family="sans-serif" font-size="14.00" fill="#000000"> &#160;Providers</text>
<polygon fill="#fb8072" stroke="transparent" points="1806.5,-10 1806.5,-30 1826.5,-30 1826.5,-10 1806.5,-10"/>
<text text-anchor="start" x="1830.2258" y="-15.4" font-family="sans-serif" font-size="14.00" fill="#000000"> &#160;Exports</text>
<g id="clust1" class="cluster">
<title>cluster_ProfileModule</title>
<polygon fill="none" stroke="#000000" stroke-dasharray="1,5" points="8,-70 8,-195 3289,-195 3289,-70 8,-70"/>
</g>
<g id="clust2" class="cluster">
<title>cluster_ProfileModule_declarations</title>
<polygon fill="none" stroke="#000000" points="790,-78 790,-130 3281,-130 3281,-78 790,-78"/>
</g>
<g id="clust18" class="cluster">
<title>cluster_ProfileModule_imports</title>
<polygon fill="none" stroke="#000000" points="668,-78 668,-130 782,-130 782,-78 668,-78"/>
</g>
<g id="clust21" class="cluster">
<title>cluster_ProfileModule_providers</title>
<polygon fill="none" stroke="#000000" points="16,-78 16,-130 660,-130 660,-78 16,-78"/>
</g>
<!-- AddPhotoDialogComponent -->
<g id="node1" class="node">
<title>AddPhotoDialogComponent</title>
<polygon fill="#ffffb3" stroke="#000000" points="3273.2147,-122 3096.7853,-122 3096.7853,-86 3273.2147,-86 3273.2147,-122"/>
<text text-anchor="middle" x="3185" y="-99.8" font-family="Times,serif" font-size="14.00" fill="#000000">AddPhotoDialogComponent</text>
</g>
<!-- ProfileModule -->
<g id="node16" class="node">
<title>ProfileModule</title>
<polygon fill="#8dd3c7" stroke="#000000" points="1766.65,-187 1763.65,-191 1742.65,-191 1739.65,-187 1669.35,-187 1669.35,-151 1766.65,-151 1766.65,-187"/>
<text text-anchor="middle" x="1718" y="-164.8" font-family="Times,serif" font-size="14.00" fill="#000000">ProfileModule</text>
</g>
<!-- AddPhotoDialogComponent&#45;&gt;ProfileModule -->
<g id="edge1" class="edge">
<title>AddPhotoDialogComponent&#45;&gt;ProfileModule</title>
<path fill="none" stroke="#000000" d="M3185,-122.1532C3185,-145.7566 3185,-184 3185,-184 3185,-184 1776.8097,-184 1776.8097,-184"/>
<polygon fill="#000000" stroke="#000000" points="1776.8098,-180.5001 1766.8097,-184 1776.8097,-187.5001 1776.8098,-180.5001"/>
</g>
<!-- AgencyFormComponent -->
<g id="node2" class="node">
<title>AgencyFormComponent</title>
<polygon fill="#ffffb3" stroke="#000000" points="3078.7021,-122 2923.2979,-122 2923.2979,-86 3078.7021,-86 3078.7021,-122"/>
<text text-anchor="middle" x="3001" y="-99.8" font-family="Times,serif" font-size="14.00" fill="#000000">AgencyFormComponent</text>
</g>
<!-- AgencyFormComponent&#45;&gt;ProfileModule -->
<g id="edge2" class="edge">
<title>AgencyFormComponent&#45;&gt;ProfileModule</title>
<path fill="none" stroke="#000000" d="M3001,-122.0109C3001,-144.4852 3001,-180 3001,-180 3001,-180 1776.7284,-180 1776.7284,-180"/>
<polygon fill="#000000" stroke="#000000" points="1776.7285,-176.5001 1766.7284,-180 1776.7284,-183.5001 1776.7285,-176.5001"/>
</g>
<!-- EditProfileComponent -->
<g id="node3" class="node">
<title>EditProfileComponent</title>
<polygon fill="#ffffb3" stroke="#000000" points="2905.266,-122 2762.734,-122 2762.734,-86 2905.266,-86 2905.266,-122"/>
<text text-anchor="middle" x="2834" y="-99.8" font-family="Times,serif" font-size="14.00" fill="#000000">EditProfileComponent</text>
</g>
<!-- EditProfileComponent&#45;&gt;ProfileModule -->
<g id="edge3" class="edge">
<title>EditProfileComponent&#45;&gt;ProfileModule</title>
<path fill="none" stroke="#000000" d="M2834,-122.0449C2834,-143.6623 2834,-177 2834,-177 2834,-177 1776.6707,-177 1776.6707,-177"/>
<polygon fill="#000000" stroke="#000000" points="1776.6708,-173.5001 1766.6707,-177 1776.6707,-180.5001 1776.6708,-173.5001"/>
</g>
<!-- FeedComponent -->
<g id="node4" class="node">
<title>FeedComponent</title>
<polygon fill="#ffffb3" stroke="#000000" points="2744.0452,-122 2635.9548,-122 2635.9548,-86 2744.0452,-86 2744.0452,-122"/>
<text text-anchor="middle" x="2690" y="-99.8" font-family="Times,serif" font-size="14.00" fill="#000000">FeedComponent</text>
</g>
<!-- FeedComponent&#45;&gt;ProfileModule -->
<g id="edge4" class="edge">
<title>FeedComponent&#45;&gt;ProfileModule</title>
<path fill="none" stroke="#000000" d="M2690,-122.1289C2690,-142.5724 2690,-173 2690,-173 2690,-173 1776.8678,-173 1776.8678,-173"/>
<polygon fill="#000000" stroke="#000000" points="1776.8678,-169.5001 1766.8678,-173 1776.8677,-176.5001 1776.8678,-169.5001"/>
</g>
<!-- FeedItemComponent -->
<g id="node5" class="node">
<title>FeedItemComponent</title>
<polygon fill="#ffffb3" stroke="#000000" points="2618.2008,-122 2483.7992,-122 2483.7992,-86 2618.2008,-86 2618.2008,-122"/>
<text text-anchor="middle" x="2551" y="-99.8" font-family="Times,serif" font-size="14.00" fill="#000000">FeedItemComponent</text>
</g>
<!-- FeedItemComponent&#45;&gt;ProfileModule -->
<g id="edge5" class="edge">
<title>FeedItemComponent&#45;&gt;ProfileModule</title>
<path fill="none" stroke="#000000" d="M2551,-122.1061C2551,-141.3391 2551,-169 2551,-169 2551,-169 1776.6917,-169 1776.6917,-169"/>
<polygon fill="#000000" stroke="#000000" points="1776.6917,-165.5001 1766.6917,-169 1776.6916,-172.5001 1776.6917,-165.5001"/>
</g>
<!-- ForgotPasswordComponent -->
<g id="node6" class="node">
<title>ForgotPasswordComponent</title>
<polygon fill="#ffffb3" stroke="#000000" points="2466.3201,-122 2293.6799,-122 2293.6799,-86 2466.3201,-86 2466.3201,-122"/>
<text text-anchor="middle" x="2380" y="-99.8" font-family="Times,serif" font-size="14.00" fill="#000000">ForgotPasswordComponent</text>
</g>
<!-- ForgotPasswordComponent&#45;&gt;ProfileModule -->
<g id="edge6" class="edge">
<title>ForgotPasswordComponent&#45;&gt;ProfileModule</title>
<path fill="none" stroke="#000000" d="M2380,-122.2667C2380,-140.5552 2380,-166 2380,-166 2380,-166 1776.6784,-166 1776.6784,-166"/>
<polygon fill="#000000" stroke="#000000" points="1776.6785,-162.5001 1766.6784,-166 1776.6784,-169.5001 1776.6785,-162.5001"/>
</g>
<!-- GalleryComponent -->
<g id="node7" class="node">
<title>GalleryComponent</title>
<polygon fill="#ffffb3" stroke="#000000" points="2275.8104,-122 2152.1896,-122 2152.1896,-86 2275.8104,-86 2275.8104,-122"/>
<text text-anchor="middle" x="2214" y="-99.8" font-family="Times,serif" font-size="14.00" fill="#000000">GalleryComponent</text>
</g>
<!-- GalleryComponent&#45;&gt;ProfileModule -->
<g id="edge7" class="edge">
<title>GalleryComponent&#45;&gt;ProfileModule</title>
<path fill="none" stroke="#000000" d="M2214,-122.0336C2214,-139.0597 2214,-162 2214,-162 2214,-162 1776.9158,-162 1776.9158,-162"/>
<polygon fill="#000000" stroke="#000000" points="1776.9159,-158.5001 1766.9158,-162 1776.9158,-165.5001 1776.9159,-158.5001"/>
</g>
<!-- InfoComponent -->
<g id="node8" class="node">
<title>InfoComponent</title>
<polygon fill="#ffffb3" stroke="#000000" points="2134.1542,-122 2029.8458,-122 2029.8458,-86 2134.1542,-86 2134.1542,-122"/>
<text text-anchor="middle" x="2082" y="-99.8" font-family="Times,serif" font-size="14.00" fill="#000000">InfoComponent</text>
</g>
<!-- InfoComponent&#45;&gt;ProfileModule -->
<g id="edge8" class="edge">
<title>InfoComponent&#45;&gt;ProfileModule</title>
<path fill="none" stroke="#000000" d="M2082,-122.0091C2082,-138.0494 2082,-159 2082,-159 2082,-159 1776.713,-159 1776.713,-159"/>
<polygon fill="#000000" stroke="#000000" points="1776.713,-155.5001 1766.713,-159 1776.7129,-162.5001 1776.713,-155.5001"/>
</g>
<!-- ManFormComponent -->
<g id="node9" class="node">
<title>ManFormComponent</title>
<polygon fill="#ffffb3" stroke="#000000" points="2011.8258,-122 1874.1742,-122 1874.1742,-86 2011.8258,-86 2011.8258,-122"/>
<text text-anchor="middle" x="1943" y="-99.8" font-family="Times,serif" font-size="14.00" fill="#000000">ManFormComponent</text>
</g>
<!-- ManFormComponent&#45;&gt;ProfileModule -->
<g id="edge9" class="edge">
<title>ManFormComponent&#45;&gt;ProfileModule</title>
<path fill="none" stroke="#000000" d="M1943,-122.1243C1943,-136.7832 1943,-155 1943,-155 1943,-155 1776.8216,-155 1776.8216,-155"/>
<polygon fill="#000000" stroke="#000000" points="1776.8217,-151.5001 1766.8216,-155 1776.8216,-158.5001 1776.8217,-151.5001"/>
</g>
<!-- MyPhotoComponent -->
<g id="node10" class="node">
<title>MyPhotoComponent</title>
<polygon fill="#ffffb3" stroke="#000000" points="1856.951,-122 1723.049,-122 1723.049,-86 1856.951,-86 1856.951,-122"/>
<text text-anchor="middle" x="1790" y="-99.8" font-family="Times,serif" font-size="14.00" fill="#000000">MyPhotoComponent</text>
</g>
<!-- MyPhotoComponent&#45;&gt;ProfileModule -->
<g id="edge10" class="edge">
<title>MyPhotoComponent&#45;&gt;ProfileModule</title>
<path fill="none" stroke="#000000" d="M1745.0498,-122.1061C1745.0498,-122.1061 1745.0498,-140.991 1745.0498,-140.991"/>
<polygon fill="#000000" stroke="#000000" points="1741.5499,-140.9909 1745.0498,-150.991 1748.5499,-140.991 1741.5499,-140.9909"/>
</g>
<!-- ProfileComponent -->
<g id="node11" class="node">
<title>ProfileComponent</title>
<polygon fill="#ffffb3" stroke="#000000" points="1705.9328,-122 1586.0672,-122 1586.0672,-86 1705.9328,-86 1705.9328,-122"/>
<text text-anchor="middle" x="1646" y="-99.8" font-family="Times,serif" font-size="14.00" fill="#000000">ProfileComponent</text>
</g>
<!-- ProfileComponent&#45;&gt;ProfileModule -->
<g id="edge11" class="edge">
<title>ProfileComponent&#45;&gt;ProfileModule</title>
<path fill="none" stroke="#000000" d="M1687.4457,-122.1061C1687.4457,-122.1061 1687.4457,-140.991 1687.4457,-140.991"/>
<polygon fill="#000000" stroke="#000000" points="1683.9457,-140.9909 1687.4457,-150.991 1690.9457,-140.991 1683.9457,-140.9909"/>
</g>
<!-- ProfileFavoritesComponent -->
<g id="node12" class="node">
<title>ProfileFavoritesComponent</title>
<polygon fill="#ffffb3" stroke="#000000" points="1568.5308,-122 1397.4692,-122 1397.4692,-86 1568.5308,-86 1568.5308,-122"/>
<text text-anchor="middle" x="1483" y="-99.8" font-family="Times,serif" font-size="14.00" fill="#000000">ProfileFavoritesComponent</text>
</g>
<!-- ProfileFavoritesComponent&#45;&gt;ProfileModule -->
<g id="edge12" class="edge">
<title>ProfileFavoritesComponent&#45;&gt;ProfileModule</title>
<path fill="none" stroke="#000000" d="M1483,-122.1243C1483,-136.7832 1483,-155 1483,-155 1483,-155 1659.3078,-155 1659.3078,-155"/>
<polygon fill="#000000" stroke="#000000" points="1659.3079,-158.5001 1669.3078,-155 1659.3078,-151.5001 1659.3079,-158.5001"/>
</g>
<!-- ProfileSubscriptionsComponent -->
<g id="node13" class="node">
<title>ProfileSubscriptionsComponent</title>
<polygon fill="#ffffb3" stroke="#000000" points="1378.6511,-122 1183.3489,-122 1183.3489,-86 1378.6511,-86 1378.6511,-122"/>
<text text-anchor="middle" x="1281" y="-99.8" font-family="Times,serif" font-size="14.00" fill="#000000">ProfileSubscriptionsComponent</text>
</g>
<!-- ProfileSubscriptionsComponent&#45;&gt;ProfileModule -->
<g id="edge13" class="edge">
<title>ProfileSubscriptionsComponent&#45;&gt;ProfileModule</title>
<path fill="none" stroke="#000000" d="M1281,-122.0091C1281,-138.0494 1281,-159 1281,-159 1281,-159 1659.1426,-159 1659.1426,-159"/>
<polygon fill="#000000" stroke="#000000" points="1659.1426,-162.5001 1669.1426,-159 1659.1425,-155.5001 1659.1426,-162.5001"/>
</g>
<!-- UploadPhotoDialogComponent -->
<g id="node14" class="node">
<title>UploadPhotoDialogComponent</title>
<polygon fill="#ffffb3" stroke="#000000" points="1165.8201,-122 972.1799,-122 972.1799,-86 1165.8201,-86 1165.8201,-122"/>
<text text-anchor="middle" x="1069" y="-99.8" font-family="Times,serif" font-size="14.00" fill="#000000">UploadPhotoDialogComponent</text>
</g>
<!-- UploadPhotoDialogComponent&#45;&gt;ProfileModule -->
<g id="edge14" class="edge">
<title>UploadPhotoDialogComponent&#45;&gt;ProfileModule</title>
<path fill="none" stroke="#000000" d="M1069,-122.0336C1069,-139.0597 1069,-162 1069,-162 1069,-162 1659.2195,-162 1659.2195,-162"/>
<polygon fill="#000000" stroke="#000000" points="1659.2196,-165.5001 1669.2195,-162 1659.2195,-158.5001 1659.2196,-165.5001"/>
</g>
<!-- WomanFormComponent -->
<g id="node15" class="node">
<title>WomanFormComponent</title>
<polygon fill="#ffffb3" stroke="#000000" points="953.986,-122 798.014,-122 798.014,-86 953.986,-86 953.986,-122"/>
<text text-anchor="middle" x="876" y="-99.8" font-family="Times,serif" font-size="14.00" fill="#000000">WomanFormComponent</text>
</g>
<!-- WomanFormComponent&#45;&gt;ProfileModule -->
<g id="edge15" class="edge">
<title>WomanFormComponent&#45;&gt;ProfileModule</title>
<path fill="none" stroke="#000000" d="M876,-122.2667C876,-140.5552 876,-166 876,-166 876,-166 1659.0911,-166 1659.0911,-166"/>
<polygon fill="#000000" stroke="#000000" points="1659.0911,-169.5001 1669.0911,-166 1659.0911,-162.5001 1659.0911,-169.5001"/>
</g>
<!-- SharedModule -->
<g id="node17" class="node">
<title>SharedModule</title>
<polygon fill="#8dd3c7" stroke="#000000" points="774.4231,-122 771.4231,-126 750.4231,-126 747.4231,-122 675.5769,-122 675.5769,-86 774.4231,-86 774.4231,-122"/>
<text text-anchor="middle" x="725" y="-99.8" font-family="Times,serif" font-size="14.00" fill="#000000">SharedModule</text>
</g>
<!-- SharedModule&#45;&gt;ProfileModule -->
<g id="edge16" class="edge">
<title>SharedModule&#45;&gt;ProfileModule</title>
<path fill="none" stroke="#000000" d="M725,-122.1061C725,-141.3391 725,-169 725,-169 725,-169 1659.0957,-169 1659.0957,-169"/>
<polygon fill="#000000" stroke="#000000" points="1659.0957,-172.5001 1669.0957,-169 1659.0956,-165.5001 1659.0957,-172.5001"/>
</g>
<!-- CatalogService -->
<g id="node18" class="node">
<title>CatalogService</title>
<ellipse fill="#fdb462" stroke="#000000" cx="582" cy="-104" rx="70.0596" ry="18"/>
<text text-anchor="middle" x="582" y="-99.8" font-family="Times,serif" font-size="14.00" fill="#000000">CatalogService</text>
</g>
<!-- CatalogService&#45;&gt;ProfileModule -->
<g id="edge17" class="edge">
<title>CatalogService&#45;&gt;ProfileModule</title>
<path fill="none" stroke="#000000" d="M582,-122.1289C582,-142.5724 582,-173 582,-173 582,-173 1659.1875,-173 1659.1875,-173"/>
<polygon fill="#000000" stroke="#000000" points="1659.1875,-176.5001 1669.1875,-173 1659.1875,-169.5001 1659.1875,-176.5001"/>
</g>
<!-- ImageService -->
<g id="node19" class="node">
<title>ImageService</title>
<ellipse fill="#fdb462" stroke="#000000" cx="430" cy="-104" rx="64.2417" ry="18"/>
<text text-anchor="middle" x="430" y="-99.8" font-family="Times,serif" font-size="14.00" fill="#000000">ImageService</text>
</g>
<!-- ImageService&#45;&gt;ProfileModule -->
<g id="edge18" class="edge">
<title>ImageService&#45;&gt;ProfileModule</title>
<path fill="none" stroke="#000000" d="M430,-122.0449C430,-143.6623 430,-177 430,-177 430,-177 1659.0817,-177 1659.0817,-177"/>
<polygon fill="#000000" stroke="#000000" points="1659.0817,-180.5001 1669.0817,-177 1659.0816,-173.5001 1659.0817,-180.5001"/>
</g>
<!-- ProfileService -->
<g id="node20" class="node">
<title>ProfileService</title>
<ellipse fill="#fdb462" stroke="#000000" cx="282" cy="-104" rx="66.0454" ry="18"/>
<text text-anchor="middle" x="282" y="-99.8" font-family="Times,serif" font-size="14.00" fill="#000000">ProfileService</text>
</g>
<!-- ProfileService&#45;&gt;ProfileModule -->
<g id="edge19" class="edge">
<title>ProfileService&#45;&gt;ProfileModule</title>
<path fill="none" stroke="#000000" d="M282,-122.0109C282,-144.4852 282,-180 282,-180 282,-180 1658.9851,-180 1658.9851,-180"/>
<polygon fill="#000000" stroke="#000000" points="1658.9851,-183.5001 1668.9851,-180 1658.985,-176.5001 1658.9851,-183.5001"/>
</g>
<!-- RegistrationService -->
<g id="node21" class="node">
<title>RegistrationService</title>
<ellipse fill="#fdb462" stroke="#000000" cx="111" cy="-104" rx="87.3924" ry="18"/>
<text text-anchor="middle" x="111" y="-99.8" font-family="Times,serif" font-size="14.00" fill="#000000">RegistrationService</text>
</g>
<!-- RegistrationService&#45;&gt;ProfileModule -->
<g id="edge20" class="edge">
<title>RegistrationService&#45;&gt;ProfileModule</title>
<path fill="none" stroke="#000000" d="M111,-122.1532C111,-145.7566 111,-184 111,-184 111,-184 1659.0282,-184 1659.0282,-184"/>
<polygon fill="#000000" stroke="#000000" points="1659.0283,-187.5001 1669.0282,-184 1659.0282,-180.5001 1659.0283,-187.5001"/>
</g>
</g>
</svg>
