<?xml version="1.0" encoding="UTF-8" standalone="no"?>
<!DOCTYPE svg PUBLIC "-//W3C//DTD SVG 1.1//EN"
 "http://www.w3.org/Graphics/SVG/1.1/DTD/svg11.dtd">
<!-- Generated by graphviz version 2.40.1 (20161225.0304)
 -->
<!-- Title: dependencies Pages: 1 -->
<svg width="1043pt" height="284pt"
 viewBox="0.00 0.00 1043.00 284.00" xmlns="http://www.w3.org/2000/svg" xmlns:xlink="http://www.w3.org/1999/xlink">
<g id="graph0" class="graph" transform="scale(1 1) rotate(0) translate(4 280)">
<title>dependencies</title>
<polygon fill="#ffffff" stroke="transparent" points="-4,4 -4,-280 1039,-280 1039,4 -4,4"/>
<text text-anchor="start" x="496.5091" y="-42.4" font-family="sans-serif" font-weight="bold" font-size="14.00" fill="#000000">Legend</text>
<polygon fill="#ffffb3" stroke="transparent" points="283.5,-10 283.5,-30 303.5,-30 303.5,-10 283.5,-10"/>
<text text-anchor="start" x="307.129" y="-15.4" font-family="sans-serif" font-size="14.00" fill="#000000"> &#160;Declarations</text>
<polygon fill="#8dd3c7" stroke="transparent" points="396.5,-10 396.5,-30 416.5,-30 416.5,-10 396.5,-10"/>
<text text-anchor="start" x="420.2251" y="-15.4" font-family="sans-serif" font-size="14.00" fill="#000000"> &#160;Module</text>
<polygon fill="#80b1d3" stroke="transparent" points="482.5,-10 482.5,-30 502.5,-30 502.5,-10 482.5,-10"/>
<text text-anchor="start" x="506.2812" y="-15.4" font-family="sans-serif" font-size="14.00" fill="#000000"> &#160;Bootstrap</text>
<polygon fill="#fdb462" stroke="transparent" points="579.5,-10 579.5,-30 599.5,-30 599.5,-10 579.5,-10"/>
<text text-anchor="start" x="603.1732" y="-15.4" font-family="sans-serif" font-size="14.00" fill="#000000"> &#160;Providers</text>
<polygon fill="#fb8072" stroke="transparent" points="675.5,-10 675.5,-30 695.5,-30 695.5,-10 675.5,-10"/>
<text text-anchor="start" x="699.2258" y="-15.4" font-family="sans-serif" font-size="14.00" fill="#000000"> &#160;Exports</text>
<g id="clust1" class="cluster">
<title>cluster_FuseDirectivesModule</title>
<polygon fill="none" stroke="#000000" stroke-dasharray="1,5" points="8,-70 8,-268 1027,-268 1027,-70 8,-70"/>
</g>
<g id="clust2" class="cluster">
<title>cluster_FuseDirectivesModule_declarations</title>
<polygon fill="none" stroke="#000000" points="24,-78 24,-130 1010,-130 1010,-78 24,-78"/>
</g>
<g id="clust9" class="cluster">
<title>cluster_FuseDirectivesModule_exports</title>
<polygon fill="none" stroke="#000000" points="16,-208 16,-260 1019,-260 1019,-208 16,-208"/>
</g>
<!-- FuseIfOnDomDirective -->
<g id="node1" class="node">
<title>FuseIfOnDomDirective</title>
<polygon fill="#ffffb3" stroke="#000000" points="1002.4496,-122 853.5504,-122 853.5504,-86 1002.4496,-86 1002.4496,-122"/>
<text text-anchor="middle" x="928" y="-99.8" font-family="Times,serif" font-size="14.00" fill="#000000">FuseIfOnDomDirective</text>
</g>
<!-- FuseDirectivesModule -->
<g id="node6" class="node">
<title>FuseDirectivesModule</title>
<polygon fill="#8dd3c7" stroke="#000000" points="631.5198,-187 628.5198,-191 607.5198,-191 604.5198,-187 488.4802,-187 488.4802,-151 631.5198,-151 631.5198,-187"/>
<text text-anchor="middle" x="560" y="-164.8" font-family="Times,serif" font-size="14.00" fill="#000000">FuseDirectivesModule</text>
</g>
<!-- FuseIfOnDomDirective&#45;&gt;FuseDirectivesModule -->
<g id="edge1" class="edge">
<title>FuseIfOnDomDirective&#45;&gt;FuseDirectivesModule</title>
<path fill="none" stroke="#000000" d="M954.5749,-122.2667C954.5749,-140.5552 954.5749,-166 954.5749,-166 954.5749,-166 641.9123,-166 641.9123,-166"/>
<polygon fill="#000000" stroke="#000000" points="641.9124,-162.5001 631.9123,-166 641.9123,-169.5001 641.9124,-162.5001"/>
</g>
<!-- FuseInnerScrollDirective -->
<g id="node2" class="node">
<title>FuseInnerScrollDirective</title>
<polygon fill="#ffffb3" stroke="#000000" points="836.0002,-122 677.9998,-122 677.9998,-86 836.0002,-86 836.0002,-122"/>
<text text-anchor="middle" x="757" y="-99.8" font-family="Times,serif" font-size="14.00" fill="#000000">FuseInnerScrollDirective</text>
</g>
<!-- FuseInnerScrollDirective&#45;&gt;FuseDirectivesModule -->
<g id="edge2" class="edge">
<title>FuseInnerScrollDirective&#45;&gt;FuseDirectivesModule</title>
<path fill="none" stroke="#000000" d="M783.6666,-122.0091C783.6666,-138.0494 783.6666,-159 783.6666,-159 783.6666,-159 641.6924,-159 641.6924,-159"/>
<polygon fill="#000000" stroke="#000000" points="641.6924,-155.5001 631.6924,-159 641.6924,-162.5001 641.6924,-155.5001"/>
</g>
<!-- FuseMatSidenavHelperDirective -->
<g id="node3" class="node">
<title>FuseMatSidenavHelperDirective</title>
<polygon fill="#ffffb3" stroke="#000000" points="660.264,-122 459.736,-122 459.736,-86 660.264,-86 660.264,-122"/>
<text text-anchor="middle" x="560" y="-99.8" font-family="Times,serif" font-size="14.00" fill="#000000">FuseMatSidenavHelperDirective</text>
</g>
<!-- FuseMatSidenavHelperDirective&#45;&gt;FuseDirectivesModule -->
<g id="edge3" class="edge">
<title>FuseMatSidenavHelperDirective&#45;&gt;FuseDirectivesModule</title>
<path fill="none" stroke="#000000" d="M560,-122.1061C560,-122.1061 560,-140.991 560,-140.991"/>
<polygon fill="#000000" stroke="#000000" points="556.5001,-140.9909 560,-150.991 563.5001,-140.991 556.5001,-140.9909"/>
</g>
<!-- FuseMatSidenavTogglerDirective -->
<g id="node4" class="node">
<title>FuseMatSidenavTogglerDirective</title>
<polygon fill="#ffffb3" stroke="#000000" points="442.4958,-122 235.5042,-122 235.5042,-86 442.4958,-86 442.4958,-122"/>
<text text-anchor="middle" x="339" y="-99.8" font-family="Times,serif" font-size="14.00" fill="#000000">FuseMatSidenavTogglerDirective</text>
</g>
<!-- FuseMatSidenavTogglerDirective&#45;&gt;FuseDirectivesModule -->
<g id="edge4" class="edge">
<title>FuseMatSidenavTogglerDirective&#45;&gt;FuseDirectivesModule</title>
<path fill="none" stroke="#000000" d="M371.9159,-122.0091C371.9159,-138.0494 371.9159,-159 371.9159,-159 371.9159,-159 478.3569,-159 478.3569,-159"/>
<polygon fill="#000000" stroke="#000000" points="478.3569,-162.5001 488.3569,-159 478.3569,-155.5001 478.3569,-162.5001"/>
</g>
<!-- FusePerfectScrollbarDirective -->
<g id="node5" class="node">
<title>FusePerfectScrollbarDirective</title>
<polygon fill="#ffffb3" stroke="#000000" points="217.9776,-122 32.0224,-122 32.0224,-86 217.9776,-86 217.9776,-122"/>
<text text-anchor="middle" x="125" y="-99.8" font-family="Times,serif" font-size="14.00" fill="#000000">FusePerfectScrollbarDirective</text>
</g>
<!-- FusePerfectScrollbarDirective&#45;&gt;FuseDirectivesModule -->
<g id="edge5" class="edge">
<title>FusePerfectScrollbarDirective&#45;&gt;FuseDirectivesModule</title>
<path fill="none" stroke="#000000" d="M152.4128,-122.2667C152.4128,-140.5552 152.4128,-166 152.4128,-166 152.4128,-166 478.0698,-166 478.0698,-166"/>
<polygon fill="#000000" stroke="#000000" points="478.0699,-169.5001 488.0698,-166 478.0698,-162.5001 478.0699,-169.5001"/>
</g>
<!-- FuseIfOnDomDirective  -->
<g id="node7" class="node">
<title>FuseIfOnDomDirective </title>
<polygon fill="#fb8072" stroke="#000000" points="1011.4503,-252 858.5497,-252 858.5497,-216 1011.4503,-216 1011.4503,-252"/>
<text text-anchor="middle" x="935" y="-229.8" font-family="Times,serif" font-size="14.00" fill="#000000">FuseIfOnDomDirective </text>
</g>
<!-- FuseDirectivesModule&#45;&gt;FuseIfOnDomDirective  -->
<g id="edge6" class="edge">
<title>FuseDirectivesModule&#45;&gt;FuseIfOnDomDirective </title>
<path fill="none" stroke="#000000" stroke-dasharray="5,2" d="M631.8313,-173C733.3746,-173 906.6751,-173 906.6751,-173 906.6751,-173 906.6751,-205.698 906.6751,-205.698"/>
<polygon fill="#000000" stroke="#000000" points="903.1752,-205.698 906.6751,-215.698 910.1752,-205.698 903.1752,-205.698"/>
</g>
<!-- FuseInnerScrollDirective  -->
<g id="node8" class="node">
<title>FuseInnerScrollDirective </title>
<polygon fill="#fb8072" stroke="#000000" points="840.4994,-252 679.5006,-252 679.5006,-216 840.4994,-216 840.4994,-252"/>
<text text-anchor="middle" x="760" y="-229.8" font-family="Times,serif" font-size="14.00" fill="#000000">FuseInnerScrollDirective </text>
</g>
<!-- FuseDirectivesModule&#45;&gt;FuseInnerScrollDirective  -->
<g id="edge7" class="edge">
<title>FuseDirectivesModule&#45;&gt;FuseInnerScrollDirective </title>
<path fill="none" stroke="#000000" stroke-dasharray="5,2" d="M631.7726,-180C678.7909,-180 731.5834,-180 731.5834,-180 731.5834,-180 731.5834,-205.7181 731.5834,-205.7181"/>
<polygon fill="#000000" stroke="#000000" points="728.0835,-205.718 731.5834,-215.7181 735.0835,-205.7181 728.0835,-205.718"/>
</g>
<!-- FuseMatSidenavHelperDirective  -->
<g id="node9" class="node">
<title>FuseMatSidenavHelperDirective </title>
<polygon fill="#fb8072" stroke="#000000" points="661.7639,-252 458.2361,-252 458.2361,-216 661.7639,-216 661.7639,-252"/>
<text text-anchor="middle" x="560" y="-229.8" font-family="Times,serif" font-size="14.00" fill="#000000">FuseMatSidenavHelperDirective </text>
</g>
<!-- FuseDirectivesModule&#45;&gt;FuseMatSidenavHelperDirective  -->
<g id="edge8" class="edge">
<title>FuseDirectivesModule&#45;&gt;FuseMatSidenavHelperDirective </title>
<path fill="none" stroke="#000000" stroke-dasharray="5,2" d="M560,-187.1061C560,-187.1061 560,-205.991 560,-205.991"/>
<polygon fill="#000000" stroke="#000000" points="556.5001,-205.9909 560,-215.991 563.5001,-205.991 556.5001,-205.9909"/>
</g>
<!-- FuseMatSidenavTogglerDirective  -->
<g id="node10" class="node">
<title>FuseMatSidenavTogglerDirective </title>
<polygon fill="#fb8072" stroke="#000000" points="439.9952,-252 230.0048,-252 230.0048,-216 439.9952,-216 439.9952,-252"/>
<text text-anchor="middle" x="335" y="-229.8" font-family="Times,serif" font-size="14.00" fill="#000000">FuseMatSidenavTogglerDirective </text>
</g>
<!-- FuseDirectivesModule&#45;&gt;FuseMatSidenavTogglerDirective  -->
<g id="edge9" class="edge">
<title>FuseDirectivesModule&#45;&gt;FuseMatSidenavTogglerDirective </title>
<path fill="none" stroke="#000000" stroke-dasharray="5,2" d="M488.3029,-180C412.52,-180 303.8341,-180 303.8341,-180 303.8341,-180 303.8341,-205.7181 303.8341,-205.7181"/>
<polygon fill="#000000" stroke="#000000" points="300.3342,-205.718 303.8341,-215.7181 307.3342,-205.7181 300.3342,-205.718"/>
</g>
<!-- FusePerfectScrollbarDirective  -->
<g id="node11" class="node">
<title>FusePerfectScrollbarDirective </title>
<polygon fill="#fb8072" stroke="#000000" points="212.477,-252 23.523,-252 23.523,-216 212.477,-216 212.477,-252"/>
<text text-anchor="middle" x="118" y="-229.8" font-family="Times,serif" font-size="14.00" fill="#000000">FusePerfectScrollbarDirective </text>
</g>
<!-- FuseDirectivesModule&#45;&gt;FusePerfectScrollbarDirective  -->
<g id="edge10" class="edge">
<title>FuseDirectivesModule&#45;&gt;FusePerfectScrollbarDirective </title>
<path fill="none" stroke="#000000" stroke-dasharray="5,2" d="M488.463,-173C357.4567,-173 92.3372,-173 92.3372,-173 92.3372,-173 92.3372,-205.698 92.3372,-205.698"/>
<polygon fill="#000000" stroke="#000000" points="88.8373,-205.698 92.3372,-215.698 95.8373,-205.698 88.8373,-205.698"/>
</g>
</g>
</svg>
