<svg width="20" height="20" viewBox="0 0 20 20" fill="none" xmlns="http://www.w3.org/2000/svg">
<path d="M19.6831 2.1123H0.316877C0.141897 2.1123 0 2.25414 0 2.42918V17.5707C0 17.7457 0.141897 17.8876 0.316877 17.8876H19.6831C19.8582 17.8876 20 17.7457 20 17.5707V2.42918C20 2.25414 19.8582 2.1123 19.6831 2.1123ZM18.0987 15.3612L13.7407 10.848C13.6925 10.7983 13.6137 10.795 13.5618 10.8408L10.5391 13.5012L6.67558 8.74422C6.65049 8.71317 6.61379 8.69542 6.57228 8.69631C6.53229 8.69713 6.49496 8.71634 6.47107 8.7484L1.90126 14.8803V4.01357H18.0987V15.3612Z" fill="#A4A4A4"/>
<path d="M13.3123 8.59041C14.1703 8.59041 14.8668 7.89442 14.8668 7.03575C14.8668 6.17733 14.1703 5.48096 13.3123 5.48096C12.4536 5.48096 11.7578 6.17733 11.7578 7.03575C11.7578 7.89436 12.4537 8.59041 13.3123 8.59041Z" fill="#A4A4A4"/>
</svg>
