<?xml version="1.0" encoding="UTF-8" standalone="no"?>
<!DOCTYPE svg PUBLIC "-//W3C//DTD SVG 1.1//EN"
 "http://www.w3.org/Graphics/SVG/1.1/DTD/svg11.dtd">
<!-- Generated by graphviz version 2.40.1 (20161225.0304)
 -->
<!-- Title: dependencies Pages: 1 -->
<svg width="2530pt" height="211pt"
 viewBox="0.00 0.00 2530.00 211.00" xmlns="http://www.w3.org/2000/svg" xmlns:xlink="http://www.w3.org/1999/xlink">
<g id="graph0" class="graph" transform="scale(1 1) rotate(0) translate(4 207)">
<title>dependencies</title>
<polygon fill="#ffffff" stroke="transparent" points="-4,4 -4,-207 2526,-207 2526,4 -4,4"/>
<text text-anchor="start" x="1240.0091" y="-42.4" font-family="sans-serif" font-weight="bold" font-size="14.00" fill="#000000">Legend</text>
<polygon fill="#ffffb3" stroke="transparent" points="1027,-10 1027,-30 1047,-30 1047,-10 1027,-10"/>
<text text-anchor="start" x="1050.629" y="-15.4" font-family="sans-serif" font-size="14.00" fill="#000000"> &#160;Declarations</text>
<polygon fill="#8dd3c7" stroke="transparent" points="1140,-10 1140,-30 1160,-30 1160,-10 1140,-10"/>
<text text-anchor="start" x="1163.7251" y="-15.4" font-family="sans-serif" font-size="14.00" fill="#000000"> &#160;Module</text>
<polygon fill="#80b1d3" stroke="transparent" points="1226,-10 1226,-30 1246,-30 1246,-10 1226,-10"/>
<text text-anchor="start" x="1249.7812" y="-15.4" font-family="sans-serif" font-size="14.00" fill="#000000"> &#160;Bootstrap</text>
<polygon fill="#fdb462" stroke="transparent" points="1323,-10 1323,-30 1343,-30 1343,-10 1323,-10"/>
<text text-anchor="start" x="1346.6732" y="-15.4" font-family="sans-serif" font-size="14.00" fill="#000000"> &#160;Providers</text>
<polygon fill="#fb8072" stroke="transparent" points="1419,-10 1419,-30 1439,-30 1439,-10 1419,-10"/>
<text text-anchor="start" x="1442.7258" y="-15.4" font-family="sans-serif" font-size="14.00" fill="#000000"> &#160;Exports</text>
<g id="clust1" class="cluster">
<title>cluster_CatalogModule</title>
<polygon fill="none" stroke="#000000" stroke-dasharray="1,5" points="8,-70 8,-195 2514,-195 2514,-70 8,-70"/>
</g>
<g id="clust2" class="cluster">
<title>cluster_CatalogModule_declarations</title>
<polygon fill="none" stroke="#000000" points="452,-78 452,-130 2506,-130 2506,-78 452,-78"/>
</g>
<g id="clust16" class="cluster">
<title>cluster_CatalogModule_imports</title>
<polygon fill="none" stroke="#000000" points="330,-78 330,-130 444,-130 444,-78 330,-78"/>
</g>
<g id="clust19" class="cluster">
<title>cluster_CatalogModule_providers</title>
<polygon fill="none" stroke="#000000" points="16,-78 16,-130 322,-130 322,-78 16,-78"/>
</g>
<!-- AboutComponent -->
<g id="node1" class="node">
<title>AboutComponent</title>
<polygon fill="#ffffb3" stroke="#000000" points="2498.3301,-122 2381.6699,-122 2381.6699,-86 2498.3301,-86 2498.3301,-122"/>
<text text-anchor="middle" x="2440" y="-99.8" font-family="Times,serif" font-size="14.00" fill="#000000">AboutComponent</text>
</g>
<!-- CatalogModule -->
<g id="node14" class="node">
<title>CatalogModule</title>
<polygon fill="#8dd3c7" stroke="#000000" points="1344.5968,-187 1341.5968,-191 1320.5968,-191 1317.5968,-187 1241.4032,-187 1241.4032,-151 1344.5968,-151 1344.5968,-187"/>
<text text-anchor="middle" x="1293" y="-164.8" font-family="Times,serif" font-size="14.00" fill="#000000">CatalogModule</text>
</g>
<!-- AboutComponent&#45;&gt;CatalogModule -->
<g id="edge1" class="edge">
<title>AboutComponent&#45;&gt;CatalogModule</title>
<path fill="none" stroke="#000000" d="M2440,-122.3228C2440,-145.6602 2440,-183 2440,-183 2440,-183 1354.888,-183 1354.888,-183"/>
<polygon fill="#000000" stroke="#000000" points="1354.888,-179.5001 1344.888,-183 1354.8879,-186.5001 1354.888,-179.5001"/>
</g>
<!-- BaseComponent -->
<g id="node2" class="node">
<title>BaseComponent</title>
<polygon fill="#ffffb3" stroke="#000000" points="2364.0438,-122 2255.9562,-122 2255.9562,-86 2364.0438,-86 2364.0438,-122"/>
<text text-anchor="middle" x="2310" y="-99.8" font-family="Times,serif" font-size="14.00" fill="#000000">BaseComponent</text>
</g>
<!-- BaseComponent&#45;&gt;CatalogModule -->
<g id="edge2" class="edge">
<title>BaseComponent&#45;&gt;CatalogModule</title>
<path fill="none" stroke="#000000" d="M2310,-122.2921C2310,-144.2057 2310,-178 2310,-178 2310,-178 1354.8314,-178 1354.8314,-178"/>
<polygon fill="#000000" stroke="#000000" points="1354.8314,-174.5001 1344.8314,-178 1354.8313,-181.5001 1354.8314,-174.5001"/>
</g>
<!-- CatalogComponent -->
<g id="node3" class="node">
<title>CatalogComponent</title>
<polygon fill="#ffffb3" stroke="#000000" points="2237.3795,-122 2112.6205,-122 2112.6205,-86 2237.3795,-86 2237.3795,-122"/>
<text text-anchor="middle" x="2175" y="-99.8" font-family="Times,serif" font-size="14.00" fill="#000000">CatalogComponent</text>
</g>
<!-- CatalogComponent&#45;&gt;CatalogModule -->
<g id="edge3" class="edge">
<title>CatalogComponent&#45;&gt;CatalogModule</title>
<path fill="none" stroke="#000000" d="M2175,-122.0267C2175,-142.7672 2175,-174 2175,-174 2175,-174 1354.5559,-174 1354.5559,-174"/>
<polygon fill="#000000" stroke="#000000" points="1354.5559,-170.5001 1344.5559,-174 1354.5558,-177.5001 1354.5559,-170.5001"/>
</g>
<!-- CatalogListComponent -->
<g id="node4" class="node">
<title>CatalogListComponent</title>
<polygon fill="#ffffb3" stroke="#000000" points="2094.1582,-122 1947.8418,-122 1947.8418,-86 2094.1582,-86 2094.1582,-122"/>
<text text-anchor="middle" x="2021" y="-99.8" font-family="Times,serif" font-size="14.00" fill="#000000">CatalogListComponent</text>
</g>
<!-- CatalogListComponent&#45;&gt;CatalogModule -->
<g id="edge4" class="edge">
<title>CatalogListComponent&#45;&gt;CatalogModule</title>
<path fill="none" stroke="#000000" d="M2021,-122.1061C2021,-141.3391 2021,-169 2021,-169 2021,-169 1354.7724,-169 1354.7724,-169"/>
<polygon fill="#000000" stroke="#000000" points="1354.7724,-165.5001 1344.7724,-169 1354.7723,-172.5001 1354.7724,-165.5001"/>
</g>
<!-- DetailPopupFeedComponent -->
<g id="node5" class="node">
<title>DetailPopupFeedComponent</title>
<polygon fill="#ffffb3" stroke="#000000" points="1929.035,-122 1750.965,-122 1750.965,-86 1929.035,-86 1929.035,-122"/>
<text text-anchor="middle" x="1840" y="-99.8" font-family="Times,serif" font-size="14.00" fill="#000000">DetailPopupFeedComponent</text>
</g>
<!-- DetailPopupFeedComponent&#45;&gt;CatalogModule -->
<g id="edge5" class="edge">
<title>DetailPopupFeedComponent&#45;&gt;CatalogModule</title>
<path fill="none" stroke="#000000" d="M1840,-122.302C1840,-140.2699 1840,-165 1840,-165 1840,-165 1354.9536,-165 1354.9536,-165"/>
<polygon fill="#000000" stroke="#000000" points="1354.9536,-161.5001 1344.9536,-165 1354.9535,-168.5001 1354.9536,-161.5001"/>
</g>
<!-- FavoritesComponent -->
<g id="node6" class="node">
<title>FavoritesComponent</title>
<polygon fill="#ffffb3" stroke="#000000" points="1732.9313,-122 1599.0687,-122 1599.0687,-86 1732.9313,-86 1732.9313,-122"/>
<text text-anchor="middle" x="1666" y="-99.8" font-family="Times,serif" font-size="14.00" fill="#000000">FavoritesComponent</text>
</g>
<!-- FavoritesComponent&#45;&gt;CatalogModule -->
<g id="edge6" class="edge">
<title>FavoritesComponent&#45;&gt;CatalogModule</title>
<path fill="none" stroke="#000000" d="M1666,-122.027C1666,-138.3976 1666,-160 1666,-160 1666,-160 1354.8641,-160 1354.8641,-160"/>
<polygon fill="#000000" stroke="#000000" points="1354.8641,-156.5001 1344.8641,-160 1354.864,-163.5001 1354.8641,-156.5001"/>
</g>
<!-- FeedComponent -->
<g id="node7" class="node">
<title>FeedComponent</title>
<polygon fill="#ffffb3" stroke="#000000" points="1581.0452,-122 1472.9548,-122 1472.9548,-86 1581.0452,-86 1581.0452,-122"/>
<text text-anchor="middle" x="1527" y="-99.8" font-family="Times,serif" font-size="14.00" fill="#000000">FeedComponent</text>
</g>
<!-- FeedComponent&#45;&gt;CatalogModule -->
<g id="edge7" class="edge">
<title>FeedComponent&#45;&gt;CatalogModule</title>
<path fill="none" stroke="#000000" d="M1527,-122.1871C1527,-137.1824 1527,-156 1527,-156 1527,-156 1354.642,-156 1354.642,-156"/>
<polygon fill="#000000" stroke="#000000" points="1354.642,-152.5001 1344.642,-156 1354.6419,-159.5001 1354.642,-152.5001"/>
</g>
<!-- FeedProfileComponent -->
<g id="node8" class="node">
<title>FeedProfileComponent</title>
<polygon fill="#ffffb3" stroke="#000000" points="1454.1442,-122 1307.8558,-122 1307.8558,-86 1454.1442,-86 1454.1442,-122"/>
<text text-anchor="middle" x="1381" y="-99.8" font-family="Times,serif" font-size="14.00" fill="#000000">FeedProfileComponent</text>
</g>
<!-- FeedProfileComponent&#45;&gt;CatalogModule -->
<g id="edge8" class="edge">
<title>FeedProfileComponent&#45;&gt;CatalogModule</title>
<path fill="none" stroke="#000000" d="M1326.1132,-122.1061C1326.1132,-122.1061 1326.1132,-140.991 1326.1132,-140.991"/>
<polygon fill="#000000" stroke="#000000" points="1322.6133,-140.9909 1326.1132,-150.991 1329.6133,-140.991 1322.6133,-140.9909"/>
</g>
<!-- FeedVideShowComponent -->
<g id="node9" class="node">
<title>FeedVideShowComponent</title>
<polygon fill="#ffffb3" stroke="#000000" points="1289.6456,-122 1122.3544,-122 1122.3544,-86 1289.6456,-86 1289.6456,-122"/>
<text text-anchor="middle" x="1206" y="-99.8" font-family="Times,serif" font-size="14.00" fill="#000000">FeedVideShowComponent</text>
</g>
<!-- FeedVideShowComponent&#45;&gt;CatalogModule -->
<g id="edge9" class="edge">
<title>FeedVideShowComponent&#45;&gt;CatalogModule</title>
<path fill="none" stroke="#000000" d="M1265.6371,-122.1061C1265.6371,-122.1061 1265.6371,-140.991 1265.6371,-140.991"/>
<polygon fill="#000000" stroke="#000000" points="1262.1372,-140.9909 1265.6371,-150.991 1269.1372,-140.991 1262.1372,-140.9909"/>
</g>
<!-- SearchFormComponent -->
<g id="node10" class="node">
<title>SearchFormComponent</title>
<polygon fill="#ffffb3" stroke="#000000" points="1103.7534,-122 954.2466,-122 954.2466,-86 1103.7534,-86 1103.7534,-122"/>
<text text-anchor="middle" x="1029" y="-99.8" font-family="Times,serif" font-size="14.00" fill="#000000">SearchFormComponent</text>
</g>
<!-- SearchFormComponent&#45;&gt;CatalogModule -->
<g id="edge10" class="edge">
<title>SearchFormComponent&#45;&gt;CatalogModule</title>
<path fill="none" stroke="#000000" d="M1029,-122.1871C1029,-137.1824 1029,-156 1029,-156 1029,-156 1231.1571,-156 1231.1571,-156"/>
<polygon fill="#000000" stroke="#000000" points="1231.1571,-159.5001 1241.1571,-156 1231.1571,-152.5001 1231.1571,-159.5001"/>
</g>
<!-- StoriesComponent -->
<g id="node11" class="node">
<title>StoriesComponent</title>
<polygon fill="#ffffb3" stroke="#000000" points="936.2162,-122 815.7838,-122 815.7838,-86 936.2162,-86 936.2162,-122"/>
<text text-anchor="middle" x="876" y="-99.8" font-family="Times,serif" font-size="14.00" fill="#000000">StoriesComponent</text>
</g>
<!-- StoriesComponent&#45;&gt;CatalogModule -->
<g id="edge11" class="edge">
<title>StoriesComponent&#45;&gt;CatalogModule</title>
<path fill="none" stroke="#000000" d="M876,-122.027C876,-138.3976 876,-160 876,-160 876,-160 1231.4494,-160 1231.4494,-160"/>
<polygon fill="#000000" stroke="#000000" points="1231.4494,-163.5001 1241.4494,-160 1231.4493,-156.5001 1231.4494,-163.5001"/>
</g>
<!-- SubscriptionComponent -->
<g id="node12" class="node">
<title>SubscriptionComponent</title>
<polygon fill="#ffffb3" stroke="#000000" points="798.1066,-122 645.8934,-122 645.8934,-86 798.1066,-86 798.1066,-122"/>
<text text-anchor="middle" x="722" y="-99.8" font-family="Times,serif" font-size="14.00" fill="#000000">SubscriptionComponent</text>
</g>
<!-- SubscriptionComponent&#45;&gt;CatalogModule -->
<g id="edge12" class="edge">
<title>SubscriptionComponent&#45;&gt;CatalogModule</title>
<path fill="none" stroke="#000000" d="M722,-122.302C722,-140.2699 722,-165 722,-165 722,-165 1231.3205,-165 1231.3205,-165"/>
<polygon fill="#000000" stroke="#000000" points="1231.3205,-168.5001 1241.3205,-165 1231.3204,-161.5001 1231.3205,-168.5001"/>
</g>
<!-- UploadedPhotoComponent -->
<g id="node13" class="node">
<title>UploadedPhotoComponent</title>
<polygon fill="#ffffb3" stroke="#000000" points="628.4326,-122 459.5674,-122 459.5674,-86 628.4326,-86 628.4326,-122"/>
<text text-anchor="middle" x="544" y="-99.8" font-family="Times,serif" font-size="14.00" fill="#000000">UploadedPhotoComponent</text>
</g>
<!-- UploadedPhotoComponent&#45;&gt;CatalogModule -->
<g id="edge13" class="edge">
<title>UploadedPhotoComponent&#45;&gt;CatalogModule</title>
<path fill="none" stroke="#000000" d="M544,-122.1061C544,-141.3391 544,-169 544,-169 544,-169 1231.2227,-169 1231.2227,-169"/>
<polygon fill="#000000" stroke="#000000" points="1231.2227,-172.5001 1241.2227,-169 1231.2226,-165.5001 1231.2227,-172.5001"/>
</g>
<!-- SharedModule -->
<g id="node15" class="node">
<title>SharedModule</title>
<polygon fill="#8dd3c7" stroke="#000000" points="436.4231,-122 433.4231,-126 412.4231,-126 409.4231,-122 337.5769,-122 337.5769,-86 436.4231,-86 436.4231,-122"/>
<text text-anchor="middle" x="387" y="-99.8" font-family="Times,serif" font-size="14.00" fill="#000000">SharedModule</text>
</g>
<!-- SharedModule&#45;&gt;CatalogModule -->
<g id="edge14" class="edge">
<title>SharedModule&#45;&gt;CatalogModule</title>
<path fill="none" stroke="#000000" d="M387,-122.0267C387,-142.7672 387,-174 387,-174 387,-174 1231.365,-174 1231.365,-174"/>
<polygon fill="#000000" stroke="#000000" points="1231.365,-177.5001 1241.365,-174 1231.365,-170.5001 1231.365,-177.5001"/>
</g>
<!-- CatalogService -->
<g id="node16" class="node">
<title>CatalogService</title>
<ellipse fill="#fdb462" stroke="#000000" cx="244" cy="-104" rx="70.0596" ry="18"/>
<text text-anchor="middle" x="244" y="-99.8" font-family="Times,serif" font-size="14.00" fill="#000000">CatalogService</text>
</g>
<!-- CatalogService&#45;&gt;CatalogModule -->
<g id="edge15" class="edge">
<title>CatalogService&#45;&gt;CatalogModule</title>
<path fill="none" stroke="#000000" d="M244,-122.2921C244,-144.2057 244,-178 244,-178 244,-178 1231.3377,-178 1231.3377,-178"/>
<polygon fill="#000000" stroke="#000000" points="1231.3378,-181.5001 1241.3377,-178 1231.3377,-174.5001 1231.3378,-181.5001"/>
</g>
<!-- HelperService -->
<g id="node17" class="node">
<title>HelperService</title>
<ellipse fill="#fdb462" stroke="#000000" cx="90" cy="-104" rx="66.0281" ry="18"/>
<text text-anchor="middle" x="90" y="-99.8" font-family="Times,serif" font-size="14.00" fill="#000000">HelperService</text>
</g>
<!-- HelperService&#45;&gt;CatalogModule -->
<g id="edge16" class="edge">
<title>HelperService&#45;&gt;CatalogModule</title>
<path fill="none" stroke="#000000" d="M90,-122.3228C90,-145.6602 90,-183 90,-183 90,-183 1231.3086,-183 1231.3086,-183"/>
<polygon fill="#000000" stroke="#000000" points="1231.3086,-186.5001 1241.3086,-183 1231.3086,-179.5001 1231.3086,-186.5001"/>
</g>
</g>
</svg>
