<?xml version="1.0" encoding="UTF-8" standalone="no"?>
<!DOCTYPE svg PUBLIC "-//W3C//DTD SVG 1.1//EN"
 "http://www.w3.org/Graphics/SVG/1.1/DTD/svg11.dtd">
<!-- Generated by graphviz version 2.40.1 (20161225.0304)
 -->
<!-- Title: dependencies Pages: 1 -->
<svg width="516pt" height="284pt"
 viewBox="0.00 0.00 516.00 284.00" xmlns="http://www.w3.org/2000/svg" xmlns:xlink="http://www.w3.org/1999/xlink">
<g id="graph0" class="graph" transform="scale(1 1) rotate(0) translate(4 280)">
<title>dependencies</title>
<polygon fill="#ffffff" stroke="transparent" points="-4,4 -4,-280 512,-280 512,4 -4,4"/>
<text text-anchor="start" x="233.0091" y="-42.4" font-family="sans-serif" font-weight="bold" font-size="14.00" fill="#000000">Legend</text>
<polygon fill="#ffffb3" stroke="transparent" points="20,-10 20,-30 40,-30 40,-10 20,-10"/>
<text text-anchor="start" x="43.629" y="-15.4" font-family="sans-serif" font-size="14.00" fill="#000000"> &#160;Declarations</text>
<polygon fill="#8dd3c7" stroke="transparent" points="133,-10 133,-30 153,-30 153,-10 133,-10"/>
<text text-anchor="start" x="156.7251" y="-15.4" font-family="sans-serif" font-size="14.00" fill="#000000"> &#160;Module</text>
<polygon fill="#80b1d3" stroke="transparent" points="219,-10 219,-30 239,-30 239,-10 219,-10"/>
<text text-anchor="start" x="242.7812" y="-15.4" font-family="sans-serif" font-size="14.00" fill="#000000"> &#160;Bootstrap</text>
<polygon fill="#fdb462" stroke="transparent" points="316,-10 316,-30 336,-30 336,-10 316,-10"/>
<text text-anchor="start" x="339.6732" y="-15.4" font-family="sans-serif" font-size="14.00" fill="#000000"> &#160;Providers</text>
<polygon fill="#fb8072" stroke="transparent" points="412,-10 412,-30 432,-30 432,-10 412,-10"/>
<text text-anchor="start" x="435.7258" y="-15.4" font-family="sans-serif" font-size="14.00" fill="#000000"> &#160;Exports</text>
<g id="clust1" class="cluster">
<title>cluster_SnackbarModule</title>
<polygon fill="none" stroke="#000000" stroke-dasharray="1,5" points="8,-70 8,-268 500,-268 500,-70 8,-70"/>
</g>
<g id="clust2" class="cluster">
<title>cluster_SnackbarModule_declarations</title>
<polygon fill="none" stroke="#000000" points="342,-78 342,-130 492,-130 492,-78 342,-78"/>
</g>
<g id="clust5" class="cluster">
<title>cluster_SnackbarModule_exports</title>
<polygon fill="none" stroke="#000000" points="184,-208 184,-260 336,-260 336,-208 184,-208"/>
</g>
<g id="clust7" class="cluster">
<title>cluster_SnackbarModule_providers</title>
<polygon fill="none" stroke="#000000" points="16,-78 16,-130 334,-130 334,-78 16,-78"/>
</g>
<!-- SnackbarComponent -->
<g id="node1" class="node">
<title>SnackbarComponent</title>
<polygon fill="#ffffb3" stroke="#000000" points="483.9201,-122 350.0799,-122 350.0799,-86 483.9201,-86 483.9201,-122"/>
<text text-anchor="middle" x="417" y="-99.8" font-family="Times,serif" font-size="14.00" fill="#000000">SnackbarComponent</text>
</g>
<!-- SnackbarModule -->
<g id="node2" class="node">
<title>SnackbarModule</title>
<polygon fill="#8dd3c7" stroke="#000000" points="315.6374,-187 312.6374,-191 291.6374,-191 288.6374,-187 204.3626,-187 204.3626,-151 315.6374,-151 315.6374,-187"/>
<text text-anchor="middle" x="260" y="-164.8" font-family="Times,serif" font-size="14.00" fill="#000000">SnackbarModule</text>
</g>
<!-- SnackbarComponent&#45;&gt;SnackbarModule -->
<g id="edge1" class="edge">
<title>SnackbarComponent&#45;&gt;SnackbarModule</title>
<path fill="none" stroke="#000000" d="M417,-122.1061C417,-141.3391 417,-169 417,-169 417,-169 325.7944,-169 325.7944,-169"/>
<polygon fill="#000000" stroke="#000000" points="325.7944,-165.5001 315.7944,-169 325.7944,-172.5001 325.7944,-165.5001"/>
</g>
<!-- SnackbarComponent  -->
<g id="node3" class="node">
<title>SnackbarComponent </title>
<polygon fill="#fb8072" stroke="#000000" points="328.4194,-252 191.5806,-252 191.5806,-216 328.4194,-216 328.4194,-252"/>
<text text-anchor="middle" x="260" y="-229.8" font-family="Times,serif" font-size="14.00" fill="#000000">SnackbarComponent </text>
</g>
<!-- SnackbarModule&#45;&gt;SnackbarComponent  -->
<g id="edge2" class="edge">
<title>SnackbarModule&#45;&gt;SnackbarComponent </title>
<path fill="none" stroke="#000000" stroke-dasharray="5,2" d="M260,-187.1061C260,-187.1061 260,-205.991 260,-205.991"/>
<polygon fill="#000000" stroke="#000000" points="256.5001,-205.9909 260,-215.991 263.5001,-205.991 256.5001,-205.9909"/>
</g>
<!-- ProfileService -->
<g id="node4" class="node">
<title>ProfileService</title>
<ellipse fill="#fdb462" stroke="#000000" cx="260" cy="-104" rx="66.0454" ry="18"/>
<text text-anchor="middle" x="260" y="-99.8" font-family="Times,serif" font-size="14.00" fill="#000000">ProfileService</text>
</g>
<!-- ProfileService&#45;&gt;SnackbarModule -->
<g id="edge3" class="edge">
<title>ProfileService&#45;&gt;SnackbarModule</title>
<path fill="none" stroke="#000000" d="M260,-122.1061C260,-122.1061 260,-140.991 260,-140.991"/>
<polygon fill="#000000" stroke="#000000" points="256.5001,-140.9909 260,-150.991 263.5001,-140.991 256.5001,-140.9909"/>
</g>
<!-- SnackbarService -->
<g id="node5" class="node">
<title>SnackbarService</title>
<ellipse fill="#fdb462" stroke="#000000" cx="100" cy="-104" rx="75.8412" ry="18"/>
<text text-anchor="middle" x="100" y="-99.8" font-family="Times,serif" font-size="14.00" fill="#000000">SnackbarService</text>
</g>
<!-- SnackbarService&#45;&gt;SnackbarModule -->
<g id="edge4" class="edge">
<title>SnackbarService&#45;&gt;SnackbarModule</title>
<path fill="none" stroke="#000000" d="M100,-122.1061C100,-141.3391 100,-169 100,-169 100,-169 194.0398,-169 194.0398,-169"/>
<polygon fill="#000000" stroke="#000000" points="194.0398,-172.5001 204.0398,-169 194.0397,-165.5001 194.0398,-172.5001"/>
</g>
</g>
</svg>
