<?xml version="1.0" encoding="UTF-8" standalone="no"?>
<!DOCTYPE svg PUBLIC "-//W3C//DTD SVG 1.1//EN"
 "http://www.w3.org/Graphics/SVG/1.1/DTD/svg11.dtd">
<!-- Generated by graphviz version 2.40.1 (20161225.0304)
 -->
<!-- Title: dependencies Pages: 1 -->
<svg width="3688pt" height="211pt"
 viewBox="0.00 0.00 3688.00 211.00" xmlns="http://www.w3.org/2000/svg" xmlns:xlink="http://www.w3.org/1999/xlink">
<g id="graph0" class="graph" transform="scale(1 1) rotate(0) translate(4 207)">
<title>dependencies</title>
<polygon fill="#ffffff" stroke="transparent" points="-4,4 -4,-207 3684,-207 3684,4 -4,4"/>
<text text-anchor="start" x="1819.0091" y="-42.4" font-family="sans-serif" font-weight="bold" font-size="14.00" fill="#000000">Legend</text>
<polygon fill="#ffffb3" stroke="transparent" points="1606,-10 1606,-30 1626,-30 1626,-10 1606,-10"/>
<text text-anchor="start" x="1629.629" y="-15.4" font-family="sans-serif" font-size="14.00" fill="#000000"> &#160;Declarations</text>
<polygon fill="#8dd3c7" stroke="transparent" points="1719,-10 1719,-30 1739,-30 1739,-10 1719,-10"/>
<text text-anchor="start" x="1742.7251" y="-15.4" font-family="sans-serif" font-size="14.00" fill="#000000"> &#160;Module</text>
<polygon fill="#80b1d3" stroke="transparent" points="1805,-10 1805,-30 1825,-30 1825,-10 1805,-10"/>
<text text-anchor="start" x="1828.7812" y="-15.4" font-family="sans-serif" font-size="14.00" fill="#000000"> &#160;Bootstrap</text>
<polygon fill="#fdb462" stroke="transparent" points="1902,-10 1902,-30 1922,-30 1922,-10 1902,-10"/>
<text text-anchor="start" x="1925.6732" y="-15.4" font-family="sans-serif" font-size="14.00" fill="#000000"> &#160;Providers</text>
<polygon fill="#fb8072" stroke="transparent" points="1998,-10 1998,-30 2018,-30 2018,-10 1998,-10"/>
<text text-anchor="start" x="2021.7258" y="-15.4" font-family="sans-serif" font-size="14.00" fill="#000000"> &#160;Exports</text>
<g id="clust1" class="cluster">
<title>cluster_ChatModule</title>
<polygon fill="none" stroke="#000000" stroke-dasharray="1,5" points="8,-70 8,-195 3672,-195 3672,-70 8,-70"/>
</g>
<g id="clust2" class="cluster">
<title>cluster_ChatModule_declarations</title>
<polygon fill="none" stroke="#000000" points="1016,-78 1016,-130 3664,-130 3664,-78 1016,-78"/>
</g>
<g id="clust18" class="cluster">
<title>cluster_ChatModule_imports</title>
<polygon fill="none" stroke="#000000" points="714,-78 714,-130 1008,-130 1008,-78 714,-78"/>
</g>
<g id="clust21" class="cluster">
<title>cluster_ChatModule_providers</title>
<polygon fill="none" stroke="#000000" points="16,-78 16,-130 706,-130 706,-78 16,-78"/>
</g>
<!-- AbonentVideoComponent -->
<g id="node1" class="node">
<title>AbonentVideoComponent</title>
<polygon fill="#ffffb3" stroke="#000000" points="3655.7562,-122 3492.2438,-122 3492.2438,-86 3655.7562,-86 3655.7562,-122"/>
<text text-anchor="middle" x="3574" y="-99.8" font-family="Times,serif" font-size="14.00" fill="#000000">AbonentVideoComponent</text>
</g>
<!-- ChatModule -->
<g id="node16" class="node">
<title>ChatModule</title>
<polygon fill="#8dd3c7" stroke="#000000" points="1842.9916,-187 1839.9916,-191 1818.9916,-191 1815.9916,-187 1757.0084,-187 1757.0084,-151 1842.9916,-151 1842.9916,-187"/>
<text text-anchor="middle" x="1800" y="-164.8" font-family="Times,serif" font-size="14.00" fill="#000000">ChatModule</text>
</g>
<!-- AbonentVideoComponent&#45;&gt;ChatModule -->
<g id="edge1" class="edge">
<title>AbonentVideoComponent&#45;&gt;ChatModule</title>
<path fill="none" stroke="#000000" d="M3574,-122.1532C3574,-145.7566 3574,-184 3574,-184 3574,-184 1853.4114,-184 1853.4114,-184"/>
<polygon fill="#000000" stroke="#000000" points="1853.4114,-180.5001 1843.4114,-184 1853.4114,-187.5001 1853.4114,-180.5001"/>
</g>
<!-- ArraySortPipe -->
<g id="node2" class="node">
<title>ArraySortPipe</title>
<polygon fill="#ffffb3" stroke="#000000" points="3474.3641,-122 3377.6359,-122 3377.6359,-86 3474.3641,-86 3474.3641,-122"/>
<text text-anchor="middle" x="3426" y="-99.8" font-family="Times,serif" font-size="14.00" fill="#000000">ArraySortPipe</text>
</g>
<!-- ArraySortPipe&#45;&gt;ChatModule -->
<g id="edge2" class="edge">
<title>ArraySortPipe&#45;&gt;ChatModule</title>
<path fill="none" stroke="#000000" d="M3426,-122.2479C3426,-145.0179 3426,-181 3426,-181 3426,-181 1853.0727,-181 1853.0727,-181"/>
<polygon fill="#000000" stroke="#000000" points="1853.0728,-177.5001 1843.0727,-181 1853.0727,-184.5001 1853.0728,-177.5001"/>
</g>
<!-- BaseChatStageComponent -->
<g id="node3" class="node">
<title>BaseChatStageComponent</title>
<polygon fill="#ffffb3" stroke="#000000" points="3360.087,-122 3193.913,-122 3193.913,-86 3360.087,-86 3360.087,-122"/>
<text text-anchor="middle" x="3277" y="-99.8" font-family="Times,serif" font-size="14.00" fill="#000000">BaseChatStageComponent</text>
</g>
<!-- BaseChatStageComponent&#45;&gt;ChatModule -->
<g id="edge3" class="edge">
<title>BaseChatStageComponent&#45;&gt;ChatModule</title>
<path fill="none" stroke="#000000" d="M3277,-122.2921C3277,-144.2057 3277,-178 3277,-178 3277,-178 1853.0065,-178 1853.0065,-178"/>
<polygon fill="#000000" stroke="#000000" points="1853.0066,-174.5001 1843.0065,-178 1853.0065,-181.5001 1853.0066,-174.5001"/>
</g>
<!-- ChatStageContactComponent -->
<g id="node4" class="node">
<title>ChatStageContactComponent</title>
<polygon fill="#ffffb3" stroke="#000000" points="3176.4241,-122 2993.5759,-122 2993.5759,-86 3176.4241,-86 3176.4241,-122"/>
<text text-anchor="middle" x="3085" y="-99.8" font-family="Times,serif" font-size="14.00" fill="#000000">ChatStageContactComponent</text>
</g>
<!-- ChatStageContactComponent&#45;&gt;ChatModule -->
<g id="edge4" class="edge">
<title>ChatStageContactComponent&#45;&gt;ChatModule</title>
<path fill="none" stroke="#000000" d="M3085,-122.0267C3085,-142.7672 3085,-174 3085,-174 3085,-174 1853.1217,-174 1853.1217,-174"/>
<polygon fill="#000000" stroke="#000000" points="1853.1217,-170.5001 1843.1217,-174 1853.1217,-177.5001 1853.1217,-170.5001"/>
</g>
<!-- ChatStageMessageItemComponent -->
<g id="node5" class="node">
<title>ChatStageMessageItemComponent</title>
<polygon fill="#ffffb3" stroke="#000000" points="2975.5112,-122 2762.4888,-122 2762.4888,-86 2975.5112,-86 2975.5112,-122"/>
<text text-anchor="middle" x="2869" y="-99.8" font-family="Times,serif" font-size="14.00" fill="#000000">ChatStageMessageItemComponent</text>
</g>
<!-- ChatStageMessageItemComponent&#45;&gt;ChatModule -->
<g id="edge5" class="edge">
<title>ChatStageMessageItemComponent&#45;&gt;ChatModule</title>
<path fill="none" stroke="#000000" d="M2869,-122.308C2869,-142.1455 2869,-171 2869,-171 2869,-171 1853.2301,-171 1853.2301,-171"/>
<polygon fill="#000000" stroke="#000000" points="1853.2301,-167.5001 1843.2301,-171 1853.23,-174.5001 1853.2301,-167.5001"/>
</g>
<!-- ChatStageOnlineComponent -->
<g id="node6" class="node">
<title>ChatStageOnlineComponent</title>
<polygon fill="#ffffb3" stroke="#000000" points="2744.479,-122 2567.521,-122 2567.521,-86 2744.479,-86 2744.479,-122"/>
<text text-anchor="middle" x="2656" y="-99.8" font-family="Times,serif" font-size="14.00" fill="#000000">ChatStageOnlineComponent</text>
</g>
<!-- ChatStageOnlineComponent&#45;&gt;ChatModule -->
<g id="edge6" class="edge">
<title>ChatStageOnlineComponent&#45;&gt;ChatModule</title>
<path fill="none" stroke="#000000" d="M2656,-122.1686C2656,-141.0898 2656,-168 2656,-168 2656,-168 1853.0358,-168 1853.0358,-168"/>
<polygon fill="#000000" stroke="#000000" points="1853.0358,-164.5001 1843.0358,-168 1853.0358,-171.5001 1853.0358,-164.5001"/>
</g>
<!-- IndexChatStageComponent -->
<g id="node7" class="node">
<title>IndexChatStageComponent</title>
<polygon fill="#ffffb3" stroke="#000000" points="2549.252,-122 2378.748,-122 2378.748,-86 2549.252,-86 2549.252,-122"/>
<text text-anchor="middle" x="2464" y="-99.8" font-family="Times,serif" font-size="14.00" fill="#000000">IndexChatStageComponent</text>
</g>
<!-- IndexChatStageComponent&#45;&gt;ChatModule -->
<g id="edge7" class="edge">
<title>IndexChatStageComponent&#45;&gt;ChatModule</title>
<path fill="none" stroke="#000000" d="M2464,-122.302C2464,-140.2699 2464,-165 2464,-165 2464,-165 1853.0553,-165 1853.0553,-165"/>
<polygon fill="#000000" stroke="#000000" points="1853.0553,-161.5001 1843.0553,-165 1853.0552,-168.5001 1853.0553,-161.5001"/>
</g>
<!-- OpenViduVideoComponent -->
<g id="node8" class="node">
<title>OpenViduVideoComponent</title>
<polygon fill="#ffffb3" stroke="#000000" points="2360.8627,-122 2187.1373,-122 2187.1373,-86 2360.8627,-86 2360.8627,-122"/>
<text text-anchor="middle" x="2274" y="-99.8" font-family="Times,serif" font-size="14.00" fill="#000000">OpenViduVideoComponent</text>
</g>
<!-- OpenViduVideoComponent&#45;&gt;ChatModule -->
<g id="edge8" class="edge">
<title>OpenViduVideoComponent&#45;&gt;ChatModule</title>
<path fill="none" stroke="#000000" d="M2274,-122.0352C2274,-138.7344 2274,-161 2274,-161 2274,-161 1853.3209,-161 1853.3209,-161"/>
<polygon fill="#000000" stroke="#000000" points="1853.3209,-157.5001 1843.3209,-161 1853.3209,-164.5001 1853.3209,-157.5001"/>
</g>
<!-- OwnerVideoComponent -->
<g id="node9" class="node">
<title>OwnerVideoComponent</title>
<polygon fill="#ffffb3" stroke="#000000" points="2168.633,-122 2015.367,-122 2015.367,-86 2168.633,-86 2168.633,-122"/>
<text text-anchor="middle" x="2092" y="-99.8" font-family="Times,serif" font-size="14.00" fill="#000000">OwnerVideoComponent</text>
</g>
<!-- OwnerVideoComponent&#45;&gt;ChatModule -->
<g id="edge9" class="edge">
<title>OwnerVideoComponent&#45;&gt;ChatModule</title>
<path fill="none" stroke="#000000" d="M2092,-122.2819C2092,-137.9478 2092,-158 2092,-158 2092,-158 1853.0856,-158 1853.0856,-158"/>
<polygon fill="#000000" stroke="#000000" points="1853.0856,-154.5001 1843.0856,-158 1853.0856,-161.5001 1853.0856,-154.5001"/>
</g>
<!-- ParseSmilePipe -->
<g id="node10" class="node">
<title>ParseSmilePipe</title>
<polygon fill="#ffffb3" stroke="#000000" points="1996.8739,-122 1893.1261,-122 1893.1261,-86 1996.8739,-86 1996.8739,-122"/>
<text text-anchor="middle" x="1945" y="-99.8" font-family="Times,serif" font-size="14.00" fill="#000000">ParseSmilePipe</text>
</g>
<!-- ParseSmilePipe&#45;&gt;ChatModule -->
<g id="edge10" class="edge">
<title>ParseSmilePipe&#45;&gt;ChatModule</title>
<path fill="none" stroke="#000000" d="M1945,-122.1243C1945,-136.7832 1945,-155 1945,-155 1945,-155 1853.1122,-155 1853.1122,-155"/>
<polygon fill="#000000" stroke="#000000" points="1853.1122,-151.5001 1843.1122,-155 1853.1122,-158.5001 1853.1122,-151.5001"/>
</g>
<!-- PhotoPopupComponent -->
<g id="node11" class="node">
<title>PhotoPopupComponent</title>
<polygon fill="#ffffb3" stroke="#000000" points="1874.7883,-122 1725.2117,-122 1725.2117,-86 1874.7883,-86 1874.7883,-122"/>
<text text-anchor="middle" x="1800" y="-99.8" font-family="Times,serif" font-size="14.00" fill="#000000">PhotoPopupComponent</text>
</g>
<!-- PhotoPopupComponent&#45;&gt;ChatModule -->
<g id="edge11" class="edge">
<title>PhotoPopupComponent&#45;&gt;ChatModule</title>
<path fill="none" stroke="#000000" d="M1800,-122.1061C1800,-122.1061 1800,-140.991 1800,-140.991"/>
<polygon fill="#000000" stroke="#000000" points="1796.5001,-140.9909 1800,-150.991 1803.5001,-140.991 1796.5001,-140.9909"/>
</g>
<!-- RoomChatStageComponent -->
<g id="node12" class="node">
<title>RoomChatStageComponent</title>
<polygon fill="#ffffb3" stroke="#000000" points="1707.6038,-122 1534.3962,-122 1534.3962,-86 1707.6038,-86 1707.6038,-122"/>
<text text-anchor="middle" x="1621" y="-99.8" font-family="Times,serif" font-size="14.00" fill="#000000">RoomChatStageComponent</text>
</g>
<!-- RoomChatStageComponent&#45;&gt;ChatModule -->
<g id="edge12" class="edge">
<title>RoomChatStageComponent&#45;&gt;ChatModule</title>
<path fill="none" stroke="#000000" d="M1621,-122.1243C1621,-136.7832 1621,-155 1621,-155 1621,-155 1746.6691,-155 1746.6691,-155"/>
<polygon fill="#000000" stroke="#000000" points="1746.6691,-158.5001 1756.6691,-155 1746.6691,-151.5001 1746.6691,-158.5001"/>
</g>
<!-- StickersPopupComponent -->
<g id="node13" class="node">
<title>StickersPopupComponent</title>
<polygon fill="#ffffb3" stroke="#000000" points="1516.2133,-122 1353.7867,-122 1353.7867,-86 1516.2133,-86 1516.2133,-122"/>
<text text-anchor="middle" x="1435" y="-99.8" font-family="Times,serif" font-size="14.00" fill="#000000">StickersPopupComponent</text>
</g>
<!-- StickersPopupComponent&#45;&gt;ChatModule -->
<g id="edge13" class="edge">
<title>StickersPopupComponent&#45;&gt;ChatModule</title>
<path fill="none" stroke="#000000" d="M1435,-122.2819C1435,-137.9478 1435,-158 1435,-158 1435,-158 1746.6964,-158 1746.6964,-158"/>
<polygon fill="#000000" stroke="#000000" points="1746.6964,-161.5001 1756.6964,-158 1746.6963,-154.5001 1746.6964,-161.5001"/>
</g>
<!-- UserVideoComponent -->
<g id="node14" class="node">
<title>UserVideoComponent</title>
<polygon fill="#ffffb3" stroke="#000000" points="1335.9706,-122 1194.0294,-122 1194.0294,-86 1335.9706,-86 1335.9706,-122"/>
<text text-anchor="middle" x="1265" y="-99.8" font-family="Times,serif" font-size="14.00" fill="#000000">UserVideoComponent</text>
</g>
<!-- UserVideoComponent&#45;&gt;ChatModule -->
<g id="edge14" class="edge">
<title>UserVideoComponent&#45;&gt;ChatModule</title>
<path fill="none" stroke="#000000" d="M1265,-122.0352C1265,-138.7344 1265,-161 1265,-161 1265,-161 1746.6719,-161 1746.6719,-161"/>
<polygon fill="#000000" stroke="#000000" points="1746.6719,-164.5001 1756.6719,-161 1746.6718,-157.5001 1746.6719,-164.5001"/>
</g>
<!-- VideoPopupComponent -->
<g id="node15" class="node">
<title>VideoPopupComponent</title>
<polygon fill="#ffffb3" stroke="#000000" points="1175.8272,-122 1024.1728,-122 1024.1728,-86 1175.8272,-86 1175.8272,-122"/>
<text text-anchor="middle" x="1100" y="-99.8" font-family="Times,serif" font-size="14.00" fill="#000000">VideoPopupComponent</text>
</g>
<!-- VideoPopupComponent&#45;&gt;ChatModule -->
<g id="edge15" class="edge">
<title>VideoPopupComponent&#45;&gt;ChatModule</title>
<path fill="none" stroke="#000000" d="M1100,-122.302C1100,-140.2699 1100,-165 1100,-165 1100,-165 1747.0032,-165 1747.0032,-165"/>
<polygon fill="#000000" stroke="#000000" points="1747.0032,-168.5001 1757.0032,-165 1747.0032,-161.5001 1747.0032,-168.5001"/>
</g>
<!-- ChatStageRoutingModule -->
<g id="node17" class="node">
<title>ChatStageRoutingModule</title>
<polygon fill="#8dd3c7" stroke="#000000" points="1000.2119,-122 997.2119,-126 976.2119,-126 973.2119,-122 837.7881,-122 837.7881,-86 1000.2119,-86 1000.2119,-122"/>
<text text-anchor="middle" x="919" y="-99.8" font-family="Times,serif" font-size="14.00" fill="#000000">ChatStageRoutingModule</text>
</g>
<!-- ChatStageRoutingModule&#45;&gt;ChatModule -->
<g id="edge16" class="edge">
<title>ChatStageRoutingModule&#45;&gt;ChatModule</title>
<path fill="none" stroke="#000000" d="M919,-122.1686C919,-141.0898 919,-168 919,-168 919,-168 1746.9112,-168 1746.9112,-168"/>
<polygon fill="#000000" stroke="#000000" points="1746.9112,-171.5001 1756.9112,-168 1746.9111,-164.5001 1746.9112,-171.5001"/>
</g>
<!-- SharedModule -->
<g id="node18" class="node">
<title>SharedModule</title>
<polygon fill="#8dd3c7" stroke="#000000" points="820.4231,-122 817.4231,-126 796.4231,-126 793.4231,-122 721.5769,-122 721.5769,-86 820.4231,-86 820.4231,-122"/>
<text text-anchor="middle" x="771" y="-99.8" font-family="Times,serif" font-size="14.00" fill="#000000">SharedModule</text>
</g>
<!-- SharedModule&#45;&gt;ChatModule -->
<g id="edge17" class="edge">
<title>SharedModule&#45;&gt;ChatModule</title>
<path fill="none" stroke="#000000" d="M771,-122.308C771,-142.1455 771,-171 771,-171 771,-171 1746.7694,-171 1746.7694,-171"/>
<polygon fill="#000000" stroke="#000000" points="1746.7694,-174.5001 1756.7694,-171 1746.7693,-167.5001 1746.7694,-174.5001"/>
</g>
<!-- AbonentVideoService -->
<g id="node19" class="node">
<title>AbonentVideoService</title>
<ellipse fill="#fdb462" stroke="#000000" cx="601" cy="-104" rx="96.6926" ry="18"/>
<text text-anchor="middle" x="601" y="-99.8" font-family="Times,serif" font-size="14.00" fill="#000000">AbonentVideoService</text>
</g>
<!-- AbonentVideoService&#45;&gt;ChatModule -->
<g id="edge18" class="edge">
<title>AbonentVideoService&#45;&gt;ChatModule</title>
<path fill="none" stroke="#000000" d="M601,-122.0267C601,-142.7672 601,-174 601,-174 601,-174 1746.9734,-174 1746.9734,-174"/>
<polygon fill="#000000" stroke="#000000" points="1746.9735,-177.5001 1756.9734,-174 1746.9734,-170.5001 1746.9735,-177.5001"/>
</g>
<!-- ChatService -->
<g id="node20" class="node">
<title>ChatService</title>
<ellipse fill="#fdb462" stroke="#000000" cx="428" cy="-104" rx="58.4628" ry="18"/>
<text text-anchor="middle" x="428" y="-99.8" font-family="Times,serif" font-size="14.00" fill="#000000">ChatService</text>
</g>
<!-- ChatService&#45;&gt;ChatModule -->
<g id="edge19" class="edge">
<title>ChatService&#45;&gt;ChatModule</title>
<path fill="none" stroke="#000000" d="M428,-122.2921C428,-144.2057 428,-178 428,-178 428,-178 1746.6727,-178 1746.6727,-178"/>
<polygon fill="#000000" stroke="#000000" points="1746.6728,-181.5001 1756.6727,-178 1746.6727,-174.5001 1746.6728,-181.5001"/>
</g>
<!-- MediaService -->
<g id="node21" class="node">
<title>MediaService</title>
<ellipse fill="#fdb462" stroke="#000000" cx="287" cy="-104" rx="64.8234" ry="18"/>
<text text-anchor="middle" x="287" y="-99.8" font-family="Times,serif" font-size="14.00" fill="#000000">MediaService</text>
</g>
<!-- MediaService&#45;&gt;ChatModule -->
<g id="edge20" class="edge">
<title>MediaService&#45;&gt;ChatModule</title>
<path fill="none" stroke="#000000" d="M287,-122.2479C287,-145.0179 287,-181 287,-181 287,-181 1746.7542,-181 1746.7542,-181"/>
<polygon fill="#000000" stroke="#000000" points="1746.7542,-184.5001 1756.7542,-181 1746.7541,-177.5001 1746.7542,-184.5001"/>
</g>
<!-- OwnerVideoService -->
<g id="node22" class="node">
<title>OwnerVideoService</title>
<ellipse fill="#fdb462" stroke="#000000" cx="114" cy="-104" rx="89.7267" ry="18"/>
<text text-anchor="middle" x="114" y="-99.8" font-family="Times,serif" font-size="14.00" fill="#000000">OwnerVideoService</text>
</g>
<!-- OwnerVideoService&#45;&gt;ChatModule -->
<g id="edge21" class="edge">
<title>OwnerVideoService&#45;&gt;ChatModule</title>
<path fill="none" stroke="#000000" d="M114,-122.1532C114,-145.7566 114,-184 114,-184 114,-184 1746.6291,-184 1746.6291,-184"/>
<polygon fill="#000000" stroke="#000000" points="1746.6291,-187.5001 1756.6291,-184 1746.629,-180.5001 1746.6291,-187.5001"/>
</g>
</g>
</svg>
