<?xml version="1.0" encoding="UTF-8" standalone="no"?>
<!DOCTYPE svg PUBLIC "-//W3C//DTD SVG 1.1//EN"
 "http://www.w3.org/Graphics/SVG/1.1/DTD/svg11.dtd">
<!-- Generated by graphviz version 2.40.1 (20161225.0304)
 -->
<!-- Title: dependencies Pages: 1 -->
<svg width="2337pt" height="211pt"
 viewBox="0.00 0.00 2337.00 211.00" xmlns="http://www.w3.org/2000/svg" xmlns:xlink="http://www.w3.org/1999/xlink">
<g id="graph0" class="graph" transform="scale(1 1) rotate(0) translate(4 207)">
<title>dependencies</title>
<polygon fill="#ffffff" stroke="transparent" points="-4,4 -4,-207 2333,-207 2333,4 -4,4"/>
<text text-anchor="start" x="1143.5091" y="-42.4" font-family="sans-serif" font-weight="bold" font-size="14.00" fill="#000000">Legend</text>
<polygon fill="#ffffb3" stroke="transparent" points="930.5,-10 930.5,-30 950.5,-30 950.5,-10 930.5,-10"/>
<text text-anchor="start" x="954.129" y="-15.4" font-family="sans-serif" font-size="14.00" fill="#000000"> &#160;Declarations</text>
<polygon fill="#8dd3c7" stroke="transparent" points="1043.5,-10 1043.5,-30 1063.5,-30 1063.5,-10 1043.5,-10"/>
<text text-anchor="start" x="1067.2251" y="-15.4" font-family="sans-serif" font-size="14.00" fill="#000000"> &#160;Module</text>
<polygon fill="#80b1d3" stroke="transparent" points="1129.5,-10 1129.5,-30 1149.5,-30 1149.5,-10 1129.5,-10"/>
<text text-anchor="start" x="1153.2812" y="-15.4" font-family="sans-serif" font-size="14.00" fill="#000000"> &#160;Bootstrap</text>
<polygon fill="#fdb462" stroke="transparent" points="1226.5,-10 1226.5,-30 1246.5,-30 1246.5,-10 1226.5,-10"/>
<text text-anchor="start" x="1250.1732" y="-15.4" font-family="sans-serif" font-size="14.00" fill="#000000"> &#160;Providers</text>
<polygon fill="#fb8072" stroke="transparent" points="1322.5,-10 1322.5,-30 1342.5,-30 1342.5,-10 1322.5,-10"/>
<text text-anchor="start" x="1346.2258" y="-15.4" font-family="sans-serif" font-size="14.00" fill="#000000"> &#160;Exports</text>
<g id="clust1" class="cluster">
<title>cluster_PagesModule</title>
<polygon fill="none" stroke="#000000" stroke-dasharray="1,5" points="8,-70 8,-195 2321,-195 2321,-70 8,-70"/>
</g>
<g id="clust2" class="cluster">
<title>cluster_PagesModule_declarations</title>
<polygon fill="none" stroke="#000000" points="294,-78 294,-130 2313,-130 2313,-78 294,-78"/>
</g>
<g id="clust16" class="cluster">
<title>cluster_PagesModule_imports</title>
<polygon fill="none" stroke="#000000" points="16,-78 16,-130 286,-130 286,-78 16,-78"/>
</g>
<!-- AboutUsComponent -->
<g id="node1" class="node">
<title>AboutUsComponent</title>
<polygon fill="#ffffb3" stroke="#000000" points="2304.8809,-122 2173.1191,-122 2173.1191,-86 2304.8809,-86 2304.8809,-122"/>
<text text-anchor="middle" x="2239" y="-99.8" font-family="Times,serif" font-size="14.00" fill="#000000">AboutUsComponent</text>
</g>
<!-- PagesModule -->
<g id="node14" class="node">
<title>PagesModule</title>
<polygon fill="#8dd3c7" stroke="#000000" points="1160.2064,-187 1157.2064,-191 1136.2064,-191 1133.2064,-187 1067.7936,-187 1067.7936,-151 1160.2064,-151 1160.2064,-187"/>
<text text-anchor="middle" x="1114" y="-164.8" font-family="Times,serif" font-size="14.00" fill="#000000">PagesModule</text>
</g>
<!-- AboutUsComponent&#45;&gt;PagesModule -->
<g id="edge1" class="edge">
<title>AboutUsComponent&#45;&gt;PagesModule</title>
<path fill="none" stroke="#000000" d="M2239,-122.3228C2239,-145.6602 2239,-183 2239,-183 2239,-183 1170.1987,-183 1170.1987,-183"/>
<polygon fill="#000000" stroke="#000000" points="1170.1987,-179.5001 1160.1987,-183 1170.1987,-186.5001 1170.1987,-179.5001"/>
</g>
<!-- CommingSoon2Component -->
<g id="node2" class="node">
<title>CommingSoon2Component</title>
<polygon fill="#ffffb3" stroke="#000000" points="2154.6234,-122 1981.3766,-122 1981.3766,-86 2154.6234,-86 2154.6234,-122"/>
<text text-anchor="middle" x="2068" y="-99.8" font-family="Times,serif" font-size="14.00" fill="#000000">CommingSoon2Component</text>
</g>
<!-- CommingSoon2Component&#45;&gt;PagesModule -->
<g id="edge2" class="edge">
<title>CommingSoon2Component&#45;&gt;PagesModule</title>
<path fill="none" stroke="#000000" d="M2068,-122.2921C2068,-144.2057 2068,-178 2068,-178 2068,-178 1170.3358,-178 1170.3358,-178"/>
<polygon fill="#000000" stroke="#000000" points="1170.3358,-174.5001 1160.3358,-178 1170.3358,-181.5001 1170.3358,-174.5001"/>
</g>
<!-- CommingSoonComponent -->
<g id="node3" class="node">
<title>CommingSoonComponent</title>
<polygon fill="#ffffb3" stroke="#000000" points="1963.1234,-122 1796.8766,-122 1796.8766,-86 1963.1234,-86 1963.1234,-122"/>
<text text-anchor="middle" x="1880" y="-99.8" font-family="Times,serif" font-size="14.00" fill="#000000">CommingSoonComponent</text>
</g>
<!-- CommingSoonComponent&#45;&gt;PagesModule -->
<g id="edge3" class="edge">
<title>CommingSoonComponent&#45;&gt;PagesModule</title>
<path fill="none" stroke="#000000" d="M1880,-122.0267C1880,-142.7672 1880,-174 1880,-174 1880,-174 1170.1917,-174 1170.1917,-174"/>
<polygon fill="#000000" stroke="#000000" points="1170.1917,-170.5001 1160.1917,-174 1170.1917,-177.5001 1170.1917,-170.5001"/>
</g>
<!-- FaqComponent -->
<g id="node4" class="node">
<title>FaqComponent</title>
<polygon fill="#ffffb3" stroke="#000000" points="1779.3301,-122 1676.6699,-122 1676.6699,-86 1779.3301,-86 1779.3301,-122"/>
<text text-anchor="middle" x="1728" y="-99.8" font-family="Times,serif" font-size="14.00" fill="#000000">FaqComponent</text>
</g>
<!-- FaqComponent&#45;&gt;PagesModule -->
<g id="edge4" class="edge">
<title>FaqComponent&#45;&gt;PagesModule</title>
<path fill="none" stroke="#000000" d="M1728,-122.1061C1728,-141.3391 1728,-169 1728,-169 1728,-169 1170.1498,-169 1170.1498,-169"/>
<polygon fill="#000000" stroke="#000000" points="1170.1498,-165.5001 1160.1498,-169 1170.1498,-172.5001 1170.1498,-165.5001"/>
</g>
<!-- LoginComponent -->
<g id="node5" class="node">
<title>LoginComponent</title>
<polygon fill="#ffffb3" stroke="#000000" points="1658.2758,-122 1543.7242,-122 1543.7242,-86 1658.2758,-86 1658.2758,-122"/>
<text text-anchor="middle" x="1601" y="-99.8" font-family="Times,serif" font-size="14.00" fill="#000000">LoginComponent</text>
</g>
<!-- LoginComponent&#45;&gt;PagesModule -->
<g id="edge5" class="edge">
<title>LoginComponent&#45;&gt;PagesModule</title>
<path fill="none" stroke="#000000" d="M1601,-122.302C1601,-140.2699 1601,-165 1601,-165 1601,-165 1170.2548,-165 1170.2548,-165"/>
<polygon fill="#000000" stroke="#000000" points="1170.2549,-161.5001 1160.2548,-165 1170.2548,-168.5001 1170.2549,-161.5001"/>
</g>
<!-- MaintenanceComponent -->
<g id="node6" class="node">
<title>MaintenanceComponent</title>
<polygon fill="#ffffb3" stroke="#000000" points="1525.6316,-122 1372.3684,-122 1372.3684,-86 1525.6316,-86 1525.6316,-122"/>
<text text-anchor="middle" x="1449" y="-99.8" font-family="Times,serif" font-size="14.00" fill="#000000">MaintenanceComponent</text>
</g>
<!-- MaintenanceComponent&#45;&gt;PagesModule -->
<g id="edge6" class="edge">
<title>MaintenanceComponent&#45;&gt;PagesModule</title>
<path fill="none" stroke="#000000" d="M1449,-122.027C1449,-138.3976 1449,-160 1449,-160 1449,-160 1170.2286,-160 1170.2286,-160"/>
<polygon fill="#000000" stroke="#000000" points="1170.2286,-156.5001 1160.2286,-160 1170.2286,-163.5001 1170.2286,-156.5001"/>
</g>
<!-- PageNotFoundComponent -->
<g id="node7" class="node">
<title>PageNotFoundComponent</title>
<polygon fill="#ffffb3" stroke="#000000" points="1354.8243,-122 1189.1757,-122 1189.1757,-86 1354.8243,-86 1354.8243,-122"/>
<text text-anchor="middle" x="1272" y="-99.8" font-family="Times,serif" font-size="14.00" fill="#000000">PageNotFoundComponent</text>
</g>
<!-- PageNotFoundComponent&#45;&gt;PagesModule -->
<g id="edge7" class="edge">
<title>PageNotFoundComponent&#45;&gt;PagesModule</title>
<path fill="none" stroke="#000000" d="M1272,-122.1871C1272,-137.1824 1272,-156 1272,-156 1272,-156 1170.1249,-156 1170.1249,-156"/>
<polygon fill="#000000" stroke="#000000" points="1170.1249,-152.5001 1160.1249,-156 1170.1248,-159.5001 1170.1249,-152.5001"/>
</g>
<!-- PagesComponent -->
<g id="node8" class="node">
<title>PagesComponent</title>
<polygon fill="#ffffb3" stroke="#000000" points="1170.9888,-122 1057.0112,-122 1057.0112,-86 1170.9888,-86 1170.9888,-122"/>
<text text-anchor="middle" x="1114" y="-99.8" font-family="Times,serif" font-size="14.00" fill="#000000">PagesComponent</text>
</g>
<!-- PagesComponent&#45;&gt;PagesModule -->
<g id="edge8" class="edge">
<title>PagesComponent&#45;&gt;PagesModule</title>
<path fill="none" stroke="#000000" d="M1114,-122.1061C1114,-122.1061 1114,-140.991 1114,-140.991"/>
<polygon fill="#000000" stroke="#000000" points="1110.5001,-140.9909 1114,-150.991 1117.5001,-140.991 1110.5001,-140.9909"/>
</g>
<!-- RegisterComponent -->
<g id="node9" class="node">
<title>RegisterComponent</title>
<polygon fill="#ffffb3" stroke="#000000" points="1038.9846,-122 911.0154,-122 911.0154,-86 1038.9846,-86 1038.9846,-122"/>
<text text-anchor="middle" x="975" y="-99.8" font-family="Times,serif" font-size="14.00" fill="#000000">RegisterComponent</text>
</g>
<!-- RegisterComponent&#45;&gt;PagesModule -->
<g id="edge9" class="edge">
<title>RegisterComponent&#45;&gt;PagesModule</title>
<path fill="none" stroke="#000000" d="M975,-122.1871C975,-137.1824 975,-156 975,-156 975,-156 1057.715,-156 1057.715,-156"/>
<polygon fill="#000000" stroke="#000000" points="1057.715,-159.5001 1067.715,-156 1057.715,-152.5001 1057.715,-159.5001"/>
</g>
<!-- TeamComponent -->
<g id="node10" class="node">
<title>TeamComponent</title>
<polygon fill="#ffffb3" stroke="#000000" points="892.705,-122 779.295,-122 779.295,-86 892.705,-86 892.705,-122"/>
<text text-anchor="middle" x="836" y="-99.8" font-family="Times,serif" font-size="14.00" fill="#000000">TeamComponent</text>
</g>
<!-- TeamComponent&#45;&gt;PagesModule -->
<g id="edge10" class="edge">
<title>TeamComponent&#45;&gt;PagesModule</title>
<path fill="none" stroke="#000000" d="M836,-122.027C836,-138.3976 836,-160 836,-160 836,-160 1057.7819,-160 1057.7819,-160"/>
<polygon fill="#000000" stroke="#000000" points="1057.7819,-163.5001 1067.7819,-160 1057.7819,-156.5001 1057.7819,-163.5001"/>
</g>
<!-- TeamGridComponent -->
<g id="node11" class="node">
<title>TeamGridComponent</title>
<polygon fill="#ffffb3" stroke="#000000" points="761.3627,-122 622.6373,-122 622.6373,-86 761.3627,-86 761.3627,-122"/>
<text text-anchor="middle" x="692" y="-99.8" font-family="Times,serif" font-size="14.00" fill="#000000">TeamGridComponent</text>
</g>
<!-- TeamGridComponent&#45;&gt;PagesModule -->
<g id="edge11" class="edge">
<title>TeamGridComponent&#45;&gt;PagesModule</title>
<path fill="none" stroke="#000000" d="M692,-122.302C692,-140.2699 692,-165 692,-165 692,-165 1057.6315,-165 1057.6315,-165"/>
<polygon fill="#000000" stroke="#000000" points="1057.6315,-168.5001 1067.6315,-165 1057.6314,-161.5001 1057.6315,-168.5001"/>
</g>
<!-- TeamListComponent -->
<g id="node12" class="node">
<title>TeamListComponent</title>
<polygon fill="#ffffb3" stroke="#000000" points="604.4832,-122 469.5168,-122 469.5168,-86 604.4832,-86 604.4832,-122"/>
<text text-anchor="middle" x="537" y="-99.8" font-family="Times,serif" font-size="14.00" fill="#000000">TeamListComponent</text>
</g>
<!-- TeamListComponent&#45;&gt;PagesModule -->
<g id="edge12" class="edge">
<title>TeamListComponent&#45;&gt;PagesModule</title>
<path fill="none" stroke="#000000" d="M537,-122.1061C537,-141.3391 537,-169 537,-169 537,-169 1057.757,-169 1057.757,-169"/>
<polygon fill="#000000" stroke="#000000" points="1057.7571,-172.5001 1067.757,-169 1057.757,-165.5001 1057.7571,-172.5001"/>
</g>
<!-- TypographyComponent -->
<g id="node13" class="node">
<title>TypographyComponent</title>
<polygon fill="#ffffb3" stroke="#000000" points="451.7604,-122 302.2396,-122 302.2396,-86 451.7604,-86 451.7604,-122"/>
<text text-anchor="middle" x="377" y="-99.8" font-family="Times,serif" font-size="14.00" fill="#000000">TypographyComponent</text>
</g>
<!-- TypographyComponent&#45;&gt;PagesModule -->
<g id="edge13" class="edge">
<title>TypographyComponent&#45;&gt;PagesModule</title>
<path fill="none" stroke="#000000" d="M377,-122.0267C377,-142.7672 377,-174 377,-174 377,-174 1057.6182,-174 1057.6182,-174"/>
<polygon fill="#000000" stroke="#000000" points="1057.6182,-177.5001 1067.6182,-174 1057.6181,-170.5001 1057.6182,-177.5001"/>
</g>
<!-- PagesRoutingModule -->
<g id="node15" class="node">
<title>PagesRoutingModule</title>
<polygon fill="#8dd3c7" stroke="#000000" points="277.8244,-122 274.8244,-126 253.8244,-126 250.8244,-122 140.1756,-122 140.1756,-86 277.8244,-86 277.8244,-122"/>
<text text-anchor="middle" x="209" y="-99.8" font-family="Times,serif" font-size="14.00" fill="#000000">PagesRoutingModule</text>
</g>
<!-- PagesRoutingModule&#45;&gt;PagesModule -->
<g id="edge14" class="edge">
<title>PagesRoutingModule&#45;&gt;PagesModule</title>
<path fill="none" stroke="#000000" d="M209,-122.2921C209,-144.2057 209,-178 209,-178 209,-178 1057.8767,-178 1057.8767,-178"/>
<polygon fill="#000000" stroke="#000000" points="1057.8768,-181.5001 1067.8767,-178 1057.8767,-174.5001 1057.8768,-181.5001"/>
</g>
<!-- SharedModule -->
<g id="node16" class="node">
<title>SharedModule</title>
<polygon fill="#8dd3c7" stroke="#000000" points="122.4231,-122 119.4231,-126 98.4231,-126 95.4231,-122 23.5769,-122 23.5769,-86 122.4231,-86 122.4231,-122"/>
<text text-anchor="middle" x="73" y="-99.8" font-family="Times,serif" font-size="14.00" fill="#000000">SharedModule</text>
</g>
<!-- SharedModule&#45;&gt;PagesModule -->
<g id="edge15" class="edge">
<title>SharedModule&#45;&gt;PagesModule</title>
<path fill="none" stroke="#000000" d="M73,-122.3228C73,-145.6602 73,-183 73,-183 73,-183 1057.5877,-183 1057.5877,-183"/>
<polygon fill="#000000" stroke="#000000" points="1057.5878,-186.5001 1067.5877,-183 1057.5877,-179.5001 1057.5878,-186.5001"/>
</g>
</g>
</svg>
